<?xml version="1.0" standalone="no"?>
<!DOCTYPE svg PUBLIC "-//W3C//DTD SVG 20010904//EN"
 "http://www.w3.org/TR/2001/REC-SVG-20010904/DTD/svg10.dtd">
<svg version="1.0" xmlns="http://www.w3.org/2000/svg"
 width="200.000000pt" height="152.000000pt" viewBox="0 0 200.000000 152.000000"
 preserveAspectRatio="xMidYMid meet">

<g transform="translate(0.000000,152.000000) scale(0.100000,-0.100000)"
fill="#000000" stroke="none">
<path d="M817 1493 c-14 -14 -7 -126 9 -144 14 -16 14 -18 -5 -29 -12 -6 -21
-17 -21 -25 0 -8 -3 -15 -6 -15 -32 0 -241 -36 -323 -56 -119 -30 -300 -90
-400 -135 l-69 -31 32 -56 c18 -32 68 -119 110 -194 l77 -138 61 31 c73 37
268 103 360 122 l68 15 -7 -27 c-8 -36 -12 -41 -29 -41 -42 0 -123 -63 -167
-130 -12 -16 -17 -19 -17 -9 0 9 -8 23 -19 33 -20 18 -91 31 -91 17 0 -5 -18
-12 -40 -16 -22 -4 -40 -10 -40 -15 0 -4 -11 -11 -25 -14 -32 -8 -32 -24 0
-32 14 -3 23 -9 20 -14 -4 -7 38 -30 56 -30 6 0 18 -7 26 -16 11 -11 27 -14
50 -11 24 4 33 2 33 -9 0 -8 -9 -14 -19 -14 -11 0 -22 -4 -26 -10 -3 -5 -13
-6 -21 -3 -13 5 -15 1 -9 -15 5 -19 2 -22 -19 -22 -14 0 -29 -6 -33 -14 -4 -7
-18 -18 -31 -25 -12 -7 -20 -16 -17 -21 3 -4 -11 -17 -30 -29 -57 -33 -47 -44
48 -56 32 -4 57 -11 57 -14 0 -4 -12 -36 -26 -71 -14 -34 -22 -66 -17 -71 14
-14 256 -77 369 -95 132 -21 398 -24 529 -6 104 15 272 53 362 83 l62 20 -20
46 c-23 54 -14 104 14 76 8 -8 157 -14 157 -6 0 5 -24 36 -68 89 -10 11 -30
24 -45 28 -15 3 -25 11 -22 16 3 6 -1 10 -9 10 -9 0 -16 4 -16 9 0 14 -55 21
-89 11 -24 -7 -31 -5 -31 5 0 8 18 20 40 26 43 13 47 18 28 37 -9 9 -5 12 20
12 19 0 32 5 32 13 0 7 9 18 21 25 12 7 18 16 15 19 -4 4 6 19 21 35 14 15 25
30 22 32 -11 11 -153 15 -166 4 -11 -9 -16 -9 -22 1 -6 9 -15 9 -35 1 -19 -7
-40 -7 -72 1 -42 11 -44 13 -44 49 0 99 -127 153 -232 99 -29 -15 -43 -18 -46
-10 -2 7 -16 26 -30 42 l-25 31 79 -7 c177 -15 403 -73 626 -161 26 -10 49
-16 51 -14 11 13 197 370 197 378 0 10 -99 52 -235 99 -149 51 -348 95 -532
118 l-53 7 20 25 c25 32 25 40 0 53 -25 14 -116 -3 -171 -30 -19 -10 -40 -15
-45 -12 -6 4 -21 29 -34 56 -23 49 -89 126 -107 126 -5 0 -13 -3 -16 -7z m60
-59 c-9 -10 -38 16 -31 28 4 6 13 4 22 -6 9 -8 13 -19 9 -22z m-6 -21 c13 -15
12 -15 -8 -4 -24 12 -29 21 -14 21 5 0 15 -7 22 -17z m47 -24 c7 -11 17 -31
22 -44 8 -20 6 -23 -15 -20 -34 3 -85 26 -85 37 0 14 51 0 74 -20 18 -15 17
-13 -2 19 -12 20 -22 39 -22 43 0 13 16 5 28 -15z m-42 -4 c10 -8 14 -15 8
-15 -5 0 -19 7 -30 15 -10 8 -14 15 -8 15 5 0 19 -7 30 -15z m289 -45 c-3 -5
-12 -10 -20 -10 -8 0 -17 5 -20 10 -4 6 5 10 20 10 15 0 24 -4 20 -10z m-70
-10 c-6 -9 -71 -31 -90 -29 -14 1 67 38 83 39 7 0 11 -4 7 -10z m-218 -16 c-3
-3 -12 -4 -19 -1 -8 3 -5 6 6 6 11 1 17 -2 13 -5z m266 -1 c-7 -2 -19 -2 -25
0 -7 3 -2 5 12 5 14 0 19 -2 13 -5z m-28 -13 c18 -8 17 -9 -7 -9 -16 -1 -28 4
-28 9 0 12 8 12 35 0z m-255 -10 c0 -5 -7 -10 -15 -10 -8 0 -15 5 -15 10 0 6
7 10 15 10 8 0 15 -4 15 -10z m246 -21 c7 -12 -11 -11 -59 3 -31 9 -35 13 -21
19 20 7 70 -7 80 -22z m-188 5 c-9 -10 -24 -14 -33 -10 -23 9 -9 26 23 26 24
0 25 -1 10 -16z m-62 -20 c-4 -9 -2 -13 5 -8 6 4 15 0 20 -7 6 -11 14 -8 35
11 l27 25 -19 -27 c-10 -14 -28 -31 -38 -38 -16 -10 -18 -10 -12 5 4 12 2 16
-8 12 -15 -6 -30 19 -20 34 9 15 17 10 10 -7z m156 -9 c6 -14 8 -28 4 -33 -9
-8 -36 26 -36 45 0 22 20 14 32 -12z m46 -28 c1 -30 0 -31 -14 -12 -10 13 -11
21 -4 23 7 3 7 8 -1 18 -9 12 -9 13 3 9 9 -4 15 -19 16 -38z m-78 -32 c0 -17
-2 -17 -10 -5 -5 8 -10 24 -10 35 0 17 2 17 10 5 5 -8 10 -24 10 -35z m53 10
c4 -8 2 -17 -3 -20 -6 -4 -10 3 -10 14 0 25 6 27 13 6z m-23 -10 c0 -8 -4 -15
-10 -15 -5 0 -10 7 -10 15 0 8 5 15 10 15 6 0 10 -7 10 -15z m222 -1 c11 -7
10 -64 -1 -64 -5 0 -12 11 -15 24 -6 25 -42 41 -70 30 -31 -12 -17 -52 34
-103 59 -59 66 -96 25 -136 -19 -20 -34 -25 -73 -25 -26 0 -57 6 -67 14 -16
11 -17 18 -8 47 7 21 11 26 12 15 1 -28 30 -56 57 -56 71 0 72 40 4 115 -27
30 -50 64 -50 76 0 30 18 59 43 69 21 9 91 5 109 -6z m-382 -37 c81 -63 57
-170 -42 -195 -54 -14 -145 -22 -128 -12 9 6 9 25 0 86 -15 103 -18 114 -38
115 -34 3 65 16 128 17 38 1 72 -4 80 -11z m473 -3 c20 -4 37 -10 37 -15 0 -5
-7 -6 -15 -3 -15 6 -18 -2 -34 -91 -11 -58 3 -91 44 -101 40 -10 69 17 83 76
15 66 15 97 0 104 -7 4 -2 4 12 1 14 -2 34 -5 45 -5 13 0 16 -3 8 -8 -6 -4
-19 -40 -28 -80 -13 -57 -22 -76 -43 -90 -51 -34 -155 -7 -168 43 -3 14 -1 55
6 91 11 55 10 68 -1 75 -17 11 -2 12 54 3z m-740 -34 c5 -21 -2 -26 -18 -12
-6 5 -22 6 -36 3 -23 -6 -25 -9 -17 -38 9 -35 32 -42 69 -23 17 9 19 7 19 -16
0 -21 -3 -24 -13 -16 -16 14 -57 4 -57 -14 0 -7 4 -24 10 -38 13 -35 66 -37
79 -4 l8 22 5 -22 c7 -26 5 -28 -58 -42 -27 -6 -57 -13 -66 -16 -13 -4 -16 -1
-12 11 6 14 0 44 -27 148 -6 23 -16 37 -26 37 -44 0 38 25 128 39 4 1 9 -8 12
-19z m1037 -87 c30 -53 65 -113 76 -135 l22 -38 31 77 c36 90 37 99 15 107 -9
4 -14 9 -11 12 7 8 97 -28 97 -38 0 -4 -6 -5 -14 -2 -9 4 -28 -30 -64 -113
-28 -64 -54 -119 -59 -120 -5 -2 -38 49 -74 113 -90 165 -82 160 -109 60 -23
-85 -23 -87 -4 -101 15 -10 6 -10 -39 3 -33 10 -50 18 -38 20 15 3 29 30 63
128 23 68 45 124 48 124 3 0 30 -43 60 -97z m-1258 40 c21 -18 25 -82 6 -101
-14 -14 -16 -13 59 -51 34 -17 77 -31 95 -32 31 -1 31 -2 -16 -17 l-48 -16
-67 34 c-79 41 -106 41 -96 2 11 -44 35 -74 53 -67 11 4 13 3 7 -3 -14 -13
-107 -43 -113 -37 -3 3 0 5 6 5 21 0 12 42 -27 140 -31 76 -43 96 -62 100 -20
5 -11 11 46 32 83 31 132 34 157 11z m683 -12 c-13 -11 -115 -22 -115 -12 0
16 15 21 69 21 32 0 51 -4 46 -9z m-605 -436 c7 -4 16 -2 20 5 5 9 9 8 13 -4
3 -8 -2 -23 -11 -33 -9 -11 -12 -12 -7 -4 8 12 6 13 -13 9 -14 -4 -20 -2 -15
4 4 8 -5 9 -28 5 -24 -5 -30 -4 -19 3 12 8 9 10 -12 10 -15 0 -29 3 -31 8 -6
9 87 7 103 -3z m1109 -22 c-12 -15 -12 -16 4 -10 11 4 31 10 45 13 24 5 25 4
8 -7 -14 -8 -15 -13 -6 -19 7 -5 -7 -9 -35 -12 -26 -2 -49 0 -51 4 -2 4 6 17
18 30 26 27 38 28 17 1z m-1062 -178 c14 -15 7 -25 -17 -25 -9 0 -25 -9 -35
-20 -21 -23 -44 -28 -25 -5 15 18 2 20 -48 6 -39 -12 -43 -5 -5 10 22 8 25 12
13 20 -11 8 -7 9 14 4 16 -3 42 -3 57 0 l29 7 -22 19 -23 20 25 -12 c13 -7 30
-18 37 -24z m1058 -15 c-3 -5 1 -10 10 -10 9 0 13 -4 10 -10 -4 -6 13 -10 42
-11 26 0 41 -3 33 -6 -10 -4 -2 -12 25 -25 22 -10 29 -15 16 -12 -17 5 -21 3
-16 -6 4 -7 -5 -3 -21 8 -16 11 -40 24 -54 28 -23 6 -24 6 -10 -12 9 -12 5
-10 -12 5 -15 12 -31 20 -37 16 -6 -3 -14 1 -18 10 -3 10 0 21 8 26 19 12 32
11 24 -1z m-1035 -14 c0 -2 -12 -12 -27 -21 l-28 -18 19 21 c17 20 36 29 36
18z m981 -19 c-7 -7 -7 -16 0 -29 6 -11 9 -22 6 -24 -11 -11 -246 -64 -333
-75 -194 -24 -544 4 -661 53 l-28 12 25 4 c14 2 35 13 46 24 21 19 23 19 55 3
49 -26 136 -30 203 -11 l57 17 39 -35 c46 -41 107 -60 172 -53 53 7 114 35
142 66 17 19 21 19 47 6 58 -31 155 -10 203 44 10 11 23 18 28 15 6 -4 6 -10
-1 -17z m-961 -1 c0 -2 -8 -10 -17 -17 -16 -13 -17 -12 -4 4 13 16 21 21 21
13z m1000 -95 c0 -5 -8 -11 -17 -14 -15 -3 -13 -6 9 -17 32 -15 43 -37 27 -56
-13 -16 -39 -19 -39 -4 0 6 5 9 11 8 23 -6 19 19 -6 30 -29 13 -33 37 -7 51
21 13 22 13 22 2z m-1063 -14 c4 -8 15 -16 25 -20 11 -4 16 -17 15 -41 -1 -42
-4 -44 -17 -13 -7 17 -9 18 -9 5 -1 -10 -6 -18 -12 -18 -7 0 -8 11 -4 30 8 37
-8 60 -41 60 -24 0 -39 -26 -28 -53 9 -24 32 -28 39 -6 4 10 11 19 16 19 6 0
7 -10 3 -22 -9 -30 -8 -30 -39 -22 -34 8 -51 43 -36 73 13 24 75 30 88 8z
m1009 -22 c-3 -8 0 -15 7 -16 9 0 9 -2 0 -5 -7 -3 -9 -12 -6 -20 3 -7 10 -11
16 -7 6 3 7 1 3 -5 -13 -22 -33 -12 -40 20 -4 21 -2 34 6 40 18 11 21 10 14
-7z m-42 -21 c9 -8 16 -19 16 -24 0 -11 -29 -40 -40 -40 -11 0 -40 29 -40 41
0 5 -5 9 -11 9 -7 0 -8 -11 -4 -30 4 -19 3 -30 -4 -30 -6 0 -11 11 -11 25 0
17 -6 25 -17 25 -17 1 -17 1 0 11 10 6 26 9 36 6 9 -2 22 2 29 10 17 17 27 17
46 -3z m-873 -3 c-7 -5 -11 -13 -7 -19 3 -6 0 -13 -6 -15 -10 -4 -9 -8 2 -17
13 -9 12 -11 -4 -8 -11 2 -19 6 -18 11 1 4 2 18 2 32 0 19 5 25 23 25 16 0 18
-3 8 -9z m50 -10 c-7 -5 -11 -13 -7 -19 3 -6 0 -13 -6 -15 -10 -4 -9 -8 2 -16
13 -9 11 -11 -7 -11 -17 0 -20 5 -16 23 9 42 12 47 30 47 14 0 15 -2 4 -9z
m69 -33 c0 12 4 22 8 22 5 0 7 -13 4 -30 -5 -36 -14 -38 -35 -8 l-16 23 0 -22
c-1 -13 -5 -23 -10 -23 -5 0 -7 10 -4 23 11 50 13 52 33 22 19 -28 20 -28 20
-7z m50 7 c0 -18 26 -20 33 -2 3 6 6 -5 6 -25 1 -21 -3 -38 -9 -38 -5 0 -10 9
-10 20 0 11 -7 20 -15 20 -8 0 -15 -7 -15 -15 0 -8 -4 -15 -8 -15 -4 0 -6 16
-4 35 4 34 22 50 22 20z m376 8 c-16 -4 -18 -11 -12 -49 4 -33 2 -44 -7 -44
-8 0 -14 8 -14 18 1 58 -3 74 -18 68 -8 -3 -15 -1 -15 4 0 6 19 9 43 9 23 -1
34 -3 23 -6z m207 -23 c10 -16 14 -30 8 -30 -5 0 -13 5 -16 10 -9 15 -25 12
-25 -5 0 -22 -27 -19 -40 4 -12 23 -13 41 -2 41 5 0 13 -12 19 -27 l11 -28 7
33 c9 40 16 40 38 2z m-475 8 c30 -30 0 -78 -37 -58 -26 13 -27 45 -3 59 22
13 26 13 40 -1z m326 -4 c9 -8 16 -19 16 -24 0 -11 -29 -40 -40 -40 -11 0 -40
29 -40 40 0 11 29 40 40 40 5 0 16 -7 24 -16z m66 -34 c0 -15 -20 -12 -21 3 0
6 -4 3 -9 -8 -7 -16 -9 -13 -9 18 l-1 37 20 -20 c11 -11 20 -24 20 -30z m-350
9 c0 -39 22 -34 32 7 6 27 6 27 5 -6 -2 -30 -5 -35 -27 -35 -21 0 -26 5 -28
33 -2 18 1 32 7 32 6 0 11 -14 11 -31z m90 20 c0 -5 -4 -7 -10 -4 -5 3 -10 2
-10 -4 0 -5 5 -13 10 -16 19 -12 10 -35 -12 -34 -19 1 -19 2 -5 6 17 4 17 6 2
23 -9 10 -14 24 -10 29 8 14 35 14 35 0z m40 0 c-12 -9 -13 -12 -1 -16 11 -5
11 -7 0 -14 -12 -8 -11 -11 1 -19 12 -8 11 -10 -5 -10 -18 0 -20 5 -17 35 3
24 9 35 21 35 14 0 14 -2 1 -11z"/>
<path d="M710 1123 c1 -29 26 -153 33 -159 10 -10 75 6 92 22 18 18 20 92 2
115 -19 25 -52 39 -91 39 -28 0 -36 -4 -36 -17z"/>
<path d="M244 1042 c-16 -10 24 -112 43 -112 31 0 53 21 53 50 0 51 -58 88
-96 62z"/>
<path d="M1394 205 c-7 -18 14 -47 27 -39 5 3 9 13 9 24 0 23 -29 35 -36 15z"/>
<path d="M804 157 c-7 -20 1 -47 15 -47 17 0 22 33 7 49 -14 13 -16 13 -22 -2z"/>
<path d="M1124 156 c-8 -22 3 -49 19 -43 6 2 12 14 12 27 0 27 -22 39 -31 16z"/>
</g>
</svg>
