<?xml version="1.0" encoding="UTF-8"?>
<svg version="1.1" xmlns="http://www.w3.org/2000/svg" width="250" height="91">
<path d="M0 0 C2.1393782 0.00197644 4.27876115 0.00086243 6.4181366 -0.00309753 C12.20496961 -0.00510045 17.99078052 0.03596463 23.77737665 0.08492017 C29.83247814 0.12877156 35.8876048 0.13279858 41.94284058 0.14109802 C53.39979819 0.16282771 64.8562865 0.22023468 76.31303775 0.29054445 C89.36011341 0.36887059 102.40721184 0.40729531 115.4544642 0.4424125 C142.28484407 0.51551917 169.11480781 0.63859127 195.94482422 0.79467773 C195.37771537 3.36175022 194.79195891 5.92207417 194.19482422 8.48217773 C194.03755859 9.2034082 193.88029297 9.92463867 193.71826172 10.66772461 C192.33844163 16.47888999 190.32707197 20.2245599 185.19482422 23.60717773 C184.45232422 23.99905273 183.70982422 24.39092773 182.94482422 24.79467773 C183.76853516 25.58100586 184.59224609 26.36733398 185.44091797 27.17749023 C188.95352295 31.408498 188.4403498 35.41875489 188.00732422 40.66967773 C187.97058594 41.52948242 187.93384766 42.38928711 187.89599609 43.27514648 C187.4554274 50.10655289 185.63756162 55.47363495 181.30419922 60.81811523 C175.46738394 65.7199067 170.40772527 67.13048125 162.81982422 66.60717773 C155.72464307 65.64162556 151.75177982 63.03045503 147.24169922 57.61108398 C144.40499487 53.63798904 143.70270188 50.96381585 143.81982422 46.04467773 C143.83787109 45.05983398 143.85591797 44.07499023 143.87451172 43.06030273 C143.89771484 42.31264648 143.92091797 41.56499023 143.94482422 40.79467773 C137.40670138 41.1328565 134.93555641 42.34641644 129.94482422 46.79467773 C117.22866756 52.05283534 99.45428725 48.45668192 85.94482422 47.79467773 C85.82107422 46.99030273 85.69732422 46.18592773 85.56982422 45.35717773 C85.26044922 44.08874023 85.26044922 44.08874023 84.94482422 42.79467773 C84.28482422 42.46467773 83.62482422 42.13467773 82.94482422 41.79467773 C82.48076172 43.00124023 82.48076172 43.00124023 82.00732422 44.23217773 C80.94482422 46.79467773 80.94482422 46.79467773 79.94482422 47.79467773 C78.3487144 47.88801479 76.74848994 47.91213146 75.1496582 47.90820312 C74.12867538 47.90812759 73.10769257 47.90805206 72.05577087 47.90797424 C70.94536942 47.90281296 69.83496796 47.89765167 68.69091797 47.89233398 C67.56033463 47.89091904 66.42975128 47.88950409 65.26490784 47.88804626 C61.63735357 47.88242792 58.00985998 47.86987231 54.38232422 47.85717773 C51.92985115 47.8521651 49.47737712 47.84760178 47.02490234 47.84350586 C40.99818877 47.83245254 34.97151083 47.81569657 28.94482422 47.79467773 C28.94482422 46.14467773 28.94482422 44.49467773 28.94482422 42.79467773 C27.95482422 42.79467773 26.96482422 42.79467773 25.94482422 42.79467773 C25.28482422 44.44467773 24.62482422 46.09467773 23.94482422 47.79467773 C13.99463099 48.34037095 4.03476226 48.88068553 -5.93017578 49.04467773 C-7.14447266 49.07045898 -8.35876953 49.09624023 -9.60986328 49.12280273 C-14.48684259 48.65832851 -18.51075591 47.3390976 -22.05517578 43.79467773 C-22.05517578 42.80467773 -22.05517578 41.81467773 -22.05517578 40.79467773 C-22.79123047 40.85268555 -23.52728516 40.91069336 -24.28564453 40.97045898 C-29.02742953 41.18969607 -32.12514019 41.33123673 -36.30517578 38.91967773 C-39.91869653 32.46696212 -37.21224781 25.76067702 -35.31616211 19.00634766 C-35.08566162 18.21462158 -34.85516113 17.42289551 -34.61767578 16.60717773 C-34.42004639 15.84703369 -34.22241699 15.08688965 -34.01879883 14.30371094 C-32.23850508 8.68601761 -29.36748632 5.49978533 -24.49370193 2.25637627 C-16.82274199 -1.00450656 -8.19384929 -0.10602951 0 0 Z M165.94482422 40.79467773 C165.94482422 41.45467773 165.94482422 42.11467773 165.94482422 42.79467773 C166.93482422 42.79467773 167.92482422 42.79467773 168.94482422 42.79467773 C169.27482422 41.47467773 169.60482422 40.15467773 169.94482422 38.79467773 C168.48257406 38.7022277 168.48257406 38.7022277 165.94482422 40.79467773 Z " fill="#060405" transform="translate(45.05517578125,11.205322265625)"/>
<path d="M0 0 C16.17 0 32.34 0 49 0 C47.41970803 12.64233577 47.41970803 12.64233577 42.5625 17.375 C40.26715445 18.83058498 38.66173393 19.60566905 36 20 C37.16649025 22.86320333 38.1588384 24.13288598 40.58203125 26.16015625 C43.21412859 29.25148867 43.51168677 30.67897222 43.23779297 34.67236328 C43.15932129 35.3579834 43.08084961 36.04360352 43 36.75 C42.93312988 37.4601123 42.86625977 38.17022461 42.79736328 38.90185547 C42.01824056 46.23566221 41.19954844 52.37762102 35.5 57.5 C29.49377669 62.24175524 22.32569908 61.69768563 15 61 C10.20539812 59.43351939 7.09983423 56.73170895 4.5 52.4375 C2.25136437 47.14718315 2.21475505 41.6315547 3 36 C4.78361898 32.30064212 6.31231594 30.51995624 9.5625 28.0625 C12.77986899 25.34011085 13.56512162 22.92703556 15 19 C14.113125 18.938125 13.22625 18.87625 12.3125 18.8125 C7.98179782 17.75025229 6.70465088 16.55875116 4 13 C0 3.97068404 0 3.97068404 0 0 Z M22 38 C22 38.66 22 39.32 22 40 C22.99 40 23.98 40 25 40 C25.33 38.68 25.66 37.36 26 36 C24.53774984 35.90754997 24.53774984 35.90754997 22 38 Z " fill="#D9D9D9" transform="translate(189,14)"/>
<path d="M0 0 C0.66172405 -0.00427212 1.32344811 -0.00854425 2.00522441 -0.01294583 C4.21533505 -0.02116061 6.42353389 0.00627946 8.63346863 0.03364563 C10.22039241 0.03505645 11.80731945 0.03426346 13.39424133 0.03143311 C17.6978134 0.02999885 22.00068829 0.05938975 26.30409837 0.09430289 C30.80306858 0.125565 35.30205487 0.12849701 39.80111694 0.13442993 C48.31864467 0.14996882 56.83585141 0.19099785 65.35323781 0.24117738 C75.05082641 0.29706946 84.74843035 0.324557 94.44613993 0.34965456 C114.39312069 0.4019137 134.33981252 0.48985686 154.2865448 0.60127258 C154.74037537 1.78712952 155.19420593 2.97298645 155.66178894 4.19477844 C156.27690903 5.75632733 156.89275111 7.31759195 157.50920105 8.87861633 C157.80588684 9.65958679 158.10257263 10.44055725 158.4082489 11.24519348 C160.16184668 15.63914489 161.51814372 18.63501705 165.7240448 21.16377258 C167.4874823 21.87533508 167.4874823 21.87533508 169.2865448 22.60127258 C168.1141352 27.0303755 165.8215232 29.59602141 162.3724823 32.44111633 C158.7905705 34.43330323 155.25638354 34.08737529 151.2865448 33.60127258 C151.59578694 31.49662465 151.9090504 29.39256728 152.2240448 27.28877258 C152.39806824 26.11701477 152.57209167 24.94525696 152.75138855 23.73799133 C153.2865448 20.60127258 153.2865448 20.60127258 154.2865448 17.60127258 C154.74915574 13.43777411 154.83268517 11.37506489 152.38420105 7.90596008 C148.03147991 4.66749164 144.63045879 4.93202115 139.3490448 5.10127258 C138.46797058 5.09869446 137.58689636 5.09611633 136.67912292 5.09346008 C131.51272072 5.17085937 127.71029858 5.66813149 123.2865448 8.60127258 C120.99071617 11.66844383 120.99071617 11.66844383 119.2865448 14.60127258 C118.9565448 14.60127258 118.6265448 14.60127258 118.2865448 14.60127258 C118.2865448 11.30127258 118.2865448 8.00127258 118.2865448 4.60127258 C111.0265448 4.60127258 103.7665448 4.60127258 96.2865448 4.60127258 C95.6265448 6.58127258 94.9665448 8.56127258 94.2865448 10.60127258 C92.67311226 13.98195996 90.82127339 17.21847767 88.9740448 20.47627258 C88.50031433 21.35541321 88.02658386 22.23455383 87.53849792 23.14033508 C87.06734558 23.97049133 86.59619324 24.80064758 86.11076355 25.65596008 C85.68883728 26.4137677 85.26691101 27.17157532 84.8321991 27.9523468 C83.2865448 29.60127258 83.2865448 29.60127258 80.61003113 29.84785461 C79.4599054 29.72579651 79.4599054 29.72579651 78.2865448 29.60127258 C79.31732936 23.79249841 80.59263475 18.2585475 82.60295105 12.70674133 C83.35460762 10.39163909 83.80918483 7.98807242 84.2865448 5.60127258 C78.3465448 5.27127258 72.4065448 4.94127258 66.2865448 4.60127258 C65.2965448 8.89127258 64.3065448 13.18127258 63.2865448 17.60127258 C62.9565448 17.60127258 62.6265448 17.60127258 62.2865448 17.60127258 C62.2865448 13.31127258 62.2865448 9.02127258 62.2865448 4.60127258 C49.15720477 3.50336984 49.15720477 3.50336984 37.52482605 7.89424133 C36.09771402 10.44291244 35.11290088 12.80788484 34.2865448 15.60127258 C33.9565448 15.60127258 33.6265448 15.60127258 33.2865448 15.60127258 C32.96102397 13.6155955 32.63550313 11.62991842 32.3099823 9.64424133 C30.70659235 6.44358125 28.57132166 5.83545945 25.2865448 4.60127258 C17.02451312 3.71910387 8.26036239 3.44028131 1.5365448 8.78877258 C-1.98225449 13.1872717 -3.68880475 17.41327086 -4.2759552 22.97627258 C-4.4925177 24.77064758 -4.4925177 24.77064758 -4.7134552 26.60127258 C-5.3734552 26.93127258 -6.0334552 27.26127258 -6.7134552 27.60127258 C-7.44039424 29.58016219 -8.11161771 31.58081816 -8.7134552 33.60127258 C-14.3384552 33.85127258 -14.3384552 33.85127258 -17.7134552 31.60127258 C-18.33881307 25.35456597 -17.04176762 20.29363619 -15.0259552 14.41377258 C-14.78167786 13.63324524 -14.53740051 12.8527179 -14.28572083 12.04853821 C-14.03113098 11.28863586 -13.77654114 10.52873352 -13.51423645 9.74580383 C-13.28905334 9.06880432 -13.06387024 8.39180481 -12.8318634 7.69429016 C-9.74277511 1.91329171 -6.44370958 -0.02511188 0 0 Z " fill="#EC152A" transform="translate(31.713455200195313,12.398727416992188)"/>
<path d="M0 0 C1.37478516 0.01740234 1.37478516 0.01740234 2.77734375 0.03515625 C3.69644531 0.04417969 4.61554688 0.05320312 5.5625 0.0625 C6.27277344 0.07410156 6.98304687 0.08570312 7.71484375 0.09765625 C6.20050273 8.56601066 3.99113038 16.81020493 1.71484375 25.09765625 C5.96444759 25.46579766 9.62359847 25.37441573 13.71484375 24.09765625 C17.08268627 20.54147064 18.94131688 16.46130746 20.96484375 12.03515625 C21.53074219 10.89498047 22.09664062 9.75480469 22.6796875 8.58007812 C24.06584282 5.77252625 25.39599054 2.93744503 26.71484375 0.09765625 C31.99484375 0.09765625 37.27484375 0.09765625 42.71484375 0.09765625 C42.71484375 11.31765625 42.71484375 22.53765625 42.71484375 34.09765625 C39.08484375 34.09765625 35.45484375 34.09765625 31.71484375 34.09765625 C31.71484375 32.11765625 31.71484375 30.13765625 31.71484375 28.09765625 C28.41484375 28.09765625 25.11484375 28.09765625 21.71484375 28.09765625 C21.40546875 28.90203125 21.09609375 29.70640625 20.77734375 30.53515625 C19.71484375 33.09765625 19.71484375 33.09765625 18.71484375 34.09765625 C16.42332958 34.185566 14.12911851 34.20459663 11.8359375 34.1953125 C10.80594383 34.19319008 10.80594383 34.19319008 9.75514221 34.19102478 C7.55416574 34.18541104 5.35328966 34.17285632 3.15234375 34.16015625 C1.66341292 34.15514301 0.17448051 34.1505798 -1.31445312 34.14648438 C-4.971387 34.13543718 -8.62826183 34.11816338 -12.28515625 34.09765625 C-10.21531639 25.56803909 -8.0604439 17.08557734 -5.59765625 8.66015625 C-5.38343018 7.92095947 -5.1692041 7.1817627 -4.94848633 6.42016602 C-3.0864229 0.13189841 -3.0864229 0.13189841 0 0 Z " fill="#FBFBFB" transform="translate(105.28515625,19.90234375)"/>
<path d="M0 0 C5.28 0 10.56 0 16 0 C16 11.22 16 22.44 16 34 C12.37 34 8.74 34 5 34 C5 32.02 5 30.04 5 28 C1.37 28 -2.26 28 -6 28 C-6.66 29.98 -7.32 31.96 -8 34 C-11.96 34 -15.92 34 -20 34 C-15.37817735 25.88201352 -10.7313233 17.77854552 -6.0625 9.6875 C-5.5780542 8.84533936 -5.0936084 8.00317871 -4.59448242 7.13549805 C-4.14177979 6.35215088 -3.68907715 5.56880371 -3.22265625 4.76171875 C-2.81797119 4.06006592 -2.41328613 3.35841309 -1.99633789 2.63549805 C-1 1 -1 1 0 0 Z " fill="#F6F6F6" transform="translate(76,20)"/>
<path d="M0 0 C0.87914063 -0.00386719 1.75828125 -0.00773437 2.6640625 -0.01171875 C3.57929687 -0.00011719 4.49453125 0.01148437 5.4375 0.0234375 C6.81035156 0.00603516 6.81035156 0.00603516 8.2109375 -0.01171875 C9.09007813 -0.00785156 9.96921875 -0.00398438 10.875 0 C12.07962891 0.00507568 12.07962891 0.00507568 13.30859375 0.01025391 C15.95626922 0.49302959 16.85157298 1.25051332 18.4375 3.3984375 C18.69015405 6.49344958 18.83685013 8.59973723 17.4375 11.3984375 C14.1375 11.3984375 10.8375 11.3984375 7.4375 11.3984375 C7.4375 10.4084375 7.4375 9.4184375 7.4375 8.3984375 C5.1275 8.7284375 2.8175 9.0584375 0.4375 9.3984375 C0.1075 10.3884375 -0.2225 11.3784375 -0.5625 12.3984375 C0.17355469 12.43582031 0.90960938 12.47320312 1.66796875 12.51171875 C11.36017135 13.16469409 11.36017135 13.16469409 15.4375 16.3984375 C15.18639197 22.75147057 14.79454425 27.41895836 10.4375 32.3984375 C5.94979056 35.16444336 1.49479042 34.7291315 -3.625 34.7109375 C-4.53572266 34.72705078 -5.44644531 34.74316406 -6.38476562 34.75976562 C-7.25939453 34.76041016 -8.13402344 34.76105469 -9.03515625 34.76171875 C-10.23023804 34.76619019 -10.23023804 34.76619019 -11.44946289 34.77075195 C-14.07055668 34.30891856 -14.96769758 33.49360758 -16.5625 31.3984375 C-16.66368893 28.61307902 -16.06104208 26.16307993 -15.5625 23.3984375 C-12.2625 23.3984375 -8.9625 23.3984375 -5.5625 23.3984375 C-5.5625 24.3884375 -5.5625 25.3784375 -5.5625 26.3984375 C-1.51164321 26.15212193 -1.51164321 26.15212193 2.4375 25.3984375 C4.0274433 23.47778957 4.0274433 23.47778957 4.4375 21.3984375 C2.6740625 21.4603125 2.6740625 21.4603125 0.875 21.5234375 C-3.29926693 21.53086502 -6.62575871 20.7642457 -10.5625 19.3984375 C-12.11280118 17.84813632 -11.80655099 16.36167749 -11.875 14.2109375 C-11.83046793 9.54249232 -10.58881004 7.03000955 -7.5625 3.3984375 C-7.11648437 2.85751465 -6.67046875 2.3165918 -6.2109375 1.75927734 C-4.05150745 -0.0234038 -2.77632759 0.01169801 0 0 Z " fill="#F7F7F7" transform="translate(44.5625,19.6015625)"/>
<path d="M0 0 C0.91523438 -0.01611328 1.83046875 -0.03222656 2.7734375 -0.04882812 C3.65257812 -0.04947266 4.53171875 -0.05011719 5.4375 -0.05078125 C6.24058594 -0.05376221 7.04367188 -0.05674316 7.87109375 -0.05981445 C10 0.3125 10 0.3125 11.8046875 1.60473633 C13 3.3125 13 3.3125 12.6875 7 C12.460625 8.093125 12.23375 9.18625 12 10.3125 C8.7 10.3125 5.4 10.3125 2 10.3125 C2 9.6525 2 8.9925 2 8.3125 C-0.64 8.3125 -3.28 8.3125 -6 8.3125 C-6 9.6325 -6 10.9525 -6 12.3125 C-5.26394531 12.34988281 -4.52789062 12.38726562 -3.76953125 12.42578125 C5.92267135 13.07875659 5.92267135 13.07875659 10 16.3125 C9.57416762 23.05239864 8.76899359 27.35744755 4.0234375 32.421875 C-0.33234404 35.14564537 -4.09285503 34.86190566 -9.125 34.75 C-10.03121094 34.75708984 -10.93742188 34.76417969 -11.87109375 34.77148438 C-18.49845996 34.70766529 -18.49845996 34.70766529 -20.77612305 32.91308594 C-22 31.3125 -22 31.3125 -22.07421875 29.26953125 C-21.71614583 27.28385417 -21.35807292 25.29817708 -21 23.3125 C-17.7 23.3125 -14.4 23.3125 -11 23.3125 C-11 24.3025 -11 25.2925 -11 26.3125 C-7.04 25.8175 -7.04 25.8175 -3 25.3125 C-2.67 23.9925 -2.34 22.6725 -2 21.3125 C-2.90363281 21.27511719 -3.80726563 21.23773438 -4.73828125 21.19921875 C-5.91777344 21.13347656 -7.09726563 21.06773438 -8.3125 21 C-9.48425781 20.94199219 -10.65601563 20.88398437 -11.86328125 20.82421875 C-15 20.3125 -15 20.3125 -16.921875 19.0390625 C-18.7135534 16.16978043 -18.06059373 13.83054448 -17.58203125 10.6015625 C-15.05373268 0.6580527 -8.76329054 -0.03085666 0 0 Z " fill="#F7F7F7" transform="translate(172,19.6875)"/>
<path d="M0 0 C2.97 0 5.94 0 9 0 C9.5 3.125 9.5 3.125 9 7 C7.25390625 8.5546875 7.25390625 8.5546875 5.0625 10 C1.72033477 12.2162585 1.12579152 12.61600483 -0.1875 16.625 C-0.20053088 19.92604872 -0.20053088 19.92604872 1.0625 22.4375 C2.97294084 24.22684718 2.97294084 24.22684718 5.875 24.5625 C10.08695443 23.8043482 11.37151748 22.3388832 14 19 C15.03842565 16.68351201 16.0421975 14.35096976 17 12 C18.6875 10.0625 18.6875 10.0625 20 9 C20.99 9.33 21.98 9.66 23 10 C22.67 10.66 22.34 11.32 22 12 C21.75959768 15.472478 21.61715709 18.9440088 21.4765625 22.421875 C20.7993906 27.50621487 19.26475628 30.83010044 15.5 34.3125 C10.16033081 37.9167767 4.22958324 37.70918929 -2 37 C-6.11243558 35.3349301 -8.37522418 32.86662452 -10.9375 29.3125 C-12.83653338 23.39198415 -13.07948488 18.19895069 -10.3125 12.5625 C-8 10 -8 10 -5.4375 8.5625 C-1.92765643 6.31260027 -1.38961222 3.87628673 0 0 Z " fill="#040404" transform="translate(207,36)"/>
<path d="M0 0 C13.86 0 27.72 0 42 0 C39.66666667 9.33333333 39.66666667 9.33333333 37 12 C31.72874564 13.75708479 26.14268964 13.31190791 20.625 13.375 C18.77648437 13.43107422 18.77648437 13.43107422 16.890625 13.48828125 C7.91826946 13.5758639 7.91826946 13.5758639 3.7734375 10.9765625 C2 8 2 8 0 0 Z " fill="#050505" transform="translate(194,16)"/>
<path d="M0 0 C16.17 0 32.34 0 49 0 C48.67 2.64 48.34 5.28 48 8 C47.01 8.66 46.02 9.32 45 10 C45.66 7.36 46.32 4.72 47 2 C33.14 2 19.28 2 5 2 C7.72960203 11.56222773 7.72960203 11.56222773 12 14 C14.31923274 14.36576054 14.31923274 14.36576054 16.88671875 14.4140625 C17.82451172 14.45273437 18.76230469 14.49140625 19.72851562 14.53125 C20.70498047 14.5621875 21.68144531 14.593125 22.6875 14.625 C23.67556641 14.66367187 24.66363281 14.70234375 25.68164062 14.7421875 C28.12090707 14.83645867 30.56016595 14.92206218 33 15 C33 15.33 33 15.66 33 16 C28.38 16 23.76 16 19 16 C19 16.99 19 17.98 19 19 C22.63 19.33 26.26 19.66 30 20 C30 20.33 30 20.66 30 21 C29.25234375 20.979375 28.5046875 20.95875 27.734375 20.9375 C24.64760044 21.00214449 21.98126581 21.17907173 19 22 C17.38217933 23.95012978 16.6876874 25.70283899 15.82421875 28.07421875 C14.62764155 30.87001287 12.6095526 31.59485629 10 33 C6.63645259 36.82748499 6.48774732 40.59504325 6.6484375 45.49609375 C7.21608775 49.539025 8.5311861 51.7304897 11 55 C13.61857695 56.78962819 13.61857695 56.78962819 16 58 C16 58.66 16 59.32 16 60 C11.57135029 59.4938686 9.15110054 58.15110054 6 55 C2.38400515 49.01490507 2.13897538 42.87863005 3 36 C4.78361898 32.30064212 6.31231594 30.51995624 9.5625 28.0625 C12.77986899 25.34011085 13.56512162 22.92703556 15 19 C14.113125 18.938125 13.22625 18.87625 12.3125 18.8125 C7.98179782 17.75025229 6.70465088 16.55875116 4 13 C0 3.97068404 0 3.97068404 0 0 Z " fill="#F3F3F3" transform="translate(189,14)"/>
<path d="M0 0 C15.60795206 -0.77931522 15.60795206 -0.77931522 21 4 C22.12363188 6.39605519 22.54204413 8.35403275 23 11 C23.28423828 9.9171875 23.28423828 9.9171875 23.57421875 8.8125 C24.98621938 5.2453405 25.99472053 3.45065708 29 1 C35.84183131 -0.38175648 43.0934156 0.40190783 50 1 C50 2.65 50 4.3 50 6 C49.505 5.01 49.505 5.01 49 4 C43.45448262 2.8476847 38.13319366 2.19020426 33 5 C27.52639561 11.14843233 24.00370489 18.8636657 20.48535156 26.24511719 C18.92971269 29.13036193 17.11728394 31.50540084 15 34 C14.67 33.34 14.34 32.68 14 32 C14.309375 31.0925 14.61875 30.185 14.9375 29.25 C16.01651803 25.94947426 16.16394893 23.44292743 16 20 C11.02638346 18.24265549 6.2584002 16.67415387 1 16 C1.33 14.68 1.66 13.36 2 12 C4.31 12 6.62 12 9 12 C9 12.99 9 13.98 9 15 C12.3 15 15.6 15 19 15 C19 11.7 19 8.4 19 5 C12.4 4.67 5.8 4.34 -1 4 C-0.67 2.68 -0.34 1.36 0 0 Z " fill="#0C0B0B" transform="translate(43,16)"/>
<path d="M0 0 C18.15 0 36.3 0 55 0 C50.29251701 18.82993197 50.29251701 18.82993197 44.25 22.8125 C43.5075 23.204375 42.765 23.59625 42 24 C42.82371094 24.78632812 43.64742187 25.57265625 44.49609375 26.3828125 C48.00869873 30.61382027 47.49552558 34.62407715 47.0625 39.875 C47.02576172 40.73480469 46.98902344 41.59460937 46.95117188 42.48046875 C46.5079512 49.35299641 44.73670898 54.84542792 40.18359375 60.09375 C39.60738281 60.5578125 39.03117187 61.021875 38.4375 61.5 C37.56931641 62.22703125 37.56931641 62.22703125 36.68359375 62.96875 C35 64 35 64 32 64 C32 63.34 32 62.68 32 62 C33.093125 61.4225 34.18625 60.845 35.3125 60.25 C39.6300321 57.75175058 41.45766179 55.68797511 43.0078125 50.86328125 C44.72192164 44.18905312 47.1416837 34.70332806 43.5 28.40625 C41.75362194 26.68803932 40.08061053 25.28676163 38 24 C38.495 22.515 38.495 22.515 39 21 C40.11375 20.525625 41.2275 20.05125 42.375 19.5625 C46.37052926 18.1964633 46.37052926 18.1964633 49 14 C50.485 8.06 50.485 8.06 52 2 C35.83 2 19.66 2 3 2 C6.69697242 14.23849038 6.69697242 14.23849038 12 19 C15.13350717 20.26784124 15.13350717 20.26784124 18 21 C17.5206753 25.31392226 16.2542015 27.16569547 13 30 C12.34 29.34 11.68 28.68 11 28 C11.495 27.54625 11.99 27.0925 12.5 26.625 C14.22609337 25.12364481 14.22609337 25.12364481 14 23 C12.9275 22.505 11.855 22.01 10.75 21.5 C6.27617416 18.93837392 4.82642452 15.67598501 3 11 C2.7009375 10.27683594 2.401875 9.55367187 2.09375 8.80859375 C0.87876775 5.75426337 0 3.3118802 0 0 Z " fill="#1C1C1C" transform="translate(186,12)"/>
<path d="M0 0 C21.33333333 0 42.66666667 0 64 0 C64 1.65 64 3.3 64 5 C44.86 5 25.72 5 6 5 C6 4.01 6 3.02 6 2 C5.34 2 4.68 2 4 2 C4 2.99 4 3.98 4 5 C3.34 5 2.68 5 2 5 C2 4.01 2 3.02 2 2 C1.34 2 0.68 2 0 2 C0 1.34 0 0.68 0 0 Z " fill="#000000" transform="translate(60,66)"/>
<path d="M0 0 C17.33333333 0 34.66666667 0 52 0 C52.5625 1.9375 52.5625 1.9375 53 4 C52 5 52 5 49.90562439 5.12025452 C48.98407059 5.11803391 48.06251678 5.11581329 47.11303711 5.11352539 C46.07203354 5.11344986 45.03102997 5.11337433 43.95848083 5.11329651 C42.8262056 5.10813522 41.69393036 5.10297394 40.52734375 5.09765625 C39.37456436 5.0962413 38.22178497 5.09482635 37.03407288 5.09336853 C33.33518936 5.08775005 29.63636536 5.07519442 25.9375 5.0625 C23.43684983 5.05748738 20.93619871 5.05292406 18.43554688 5.04882812 C12.29034412 5.03777462 6.14517631 5.02101852 0 5 C0 3.35 0 1.7 0 0 Z " fill="#000000" transform="translate(132,66)"/>
<path d="M0 0 C0.66 0.66 1.32 1.32 2 2 C2.99 2 3.98 2 5 2 C5 1.34 5 0.68 5 0 C5.66 0 6.32 0 7 0 C7 0.66 7 1.32 7 2 C9.64 2 12.28 2 15 2 C15 1.34 15 0.68 15 0 C15.66 0 16.32 0 17 0 C17 2.64 17 5.28 17 8 C4.13 8 -8.74 8 -22 8 C-22 6.68 -22 5.36 -22 4 C-22.66 4 -23.32 4 -24 4 C-24 5.32 -24 6.64 -24 8 C-24.66 8 -25.32 8 -26 8 C-26 6.02 -26 4.04 -26 2 C-17.75 2 -9.5 2 -1 2 C-0.67 1.34 -0.34 0.68 0 0 Z M-14 4 C-14 4.66 -14 5.32 -14 6 C-13.34 6 -12.68 6 -12 6 C-12 5.34 -12 4.68 -12 4 C-12.66 4 -13.32 4 -14 4 Z M3 4 C3 4.66 3 5.32 3 6 C3.66 6 4.32 6 5 6 C5 5.34 5 4.68 5 4 C4.34 4 3.68 4 3 4 Z M14 4 C15 7 15 7 15 7 Z " fill="#F2152B" transform="translate(176,73)"/>
<path d="M0 0 C0.66 0 1.32 0 2 0 C2 0.66 2 1.32 2 2 C3.32 2 4.64 2 6 2 C6.33 1.34 6.66 0.68 7 0 C7.66 0 8.32 0 9 0 C9 2.64 9 5.28 9 8 C1.41 8 -6.18 8 -14 8 C-14.33 8.66 -14.66 9.32 -15 10 C-15.33 9.34 -15.66 8.68 -16 8 C-18.97 8 -21.94 8 -25 8 C-26 4 -26 4 -25 2 C-17.08 2 -9.16 2 -1 2 C-0.67 1.34 -0.34 0.68 0 0 Z M-14 4 C-14 4.66 -14 5.32 -14 6 C-13.34 6 -12.68 6 -12 6 C-12 5.34 -12 4.68 -12 4 C-12.66 4 -13.32 4 -14 4 Z M-3 4 C-2 7 -2 7 -2 7 Z " fill="#F2152B" transform="translate(93,73)"/>
<path d="M0 0 C0.66 0 1.32 0 2 0 C2 0.66 2 1.32 2 2 C6.29 2 10.58 2 15 2 C15.33 3.32 15.66 4.64 16 6 C15 7 15 7 12.22436523 7.11352539 C11.01466064 7.10828857 9.80495605 7.10305176 8.55859375 7.09765625 C7.25341797 7.09443359 5.94824219 7.09121094 4.60351562 7.08789062 C3.2148431 7.07953401 1.82617123 7.07106905 0.4375 7.0625 C-0.95507656 7.05748666 -2.34765481 7.05292347 -3.74023438 7.04882812 C-7.1601987 7.03699434 -10.58007844 7.0205088 -14 7 C-14.5625 5.0625 -14.5625 5.0625 -15 3 C-12.66824807 0.66824807 -7.0611792 1.47328917 -3.90625 1.28125 C-1.10949868 1.3214011 -1.10949868 1.3214011 0 0 Z M0 2 C1 5 1 5 1 5 Z " fill="#000000" transform="translate(37,64)"/>
<path d="M0 0 C3.75758262 0.16700367 5.54289422 0.59101062 8.375 3.125 C10.45658085 6.80779689 10.49741574 8.80749587 10 13 C9.15187169 15.76247507 8.12444559 18.32944173 7 21 C6.34 21 5.68 21 5 21 C4.34 20.01 3.68 19.02 3 18 C-0.33227362 16.97327999 -0.33227362 16.97327999 -4.125 16.3125 C-5.40632812 16.06113281 -6.68765625 15.80976562 -8.0078125 15.55078125 C-8.99523437 15.36902344 -9.98265625 15.18726563 -11 15 C-11 13.68 -11 12.36 -11 11 C-8.36 11 -5.72 11 -3 11 C-3 11.66 -3 12.32 -3 13 C0.3 13 3.6 13 7 13 C7.16677282 9.58343976 7.16677282 9.58343976 7 6 C4.06552643 3.06552643 0.81740544 3.53841577 -3.125 3.375 C-3.87910156 3.33632813 -4.63320312 3.29765625 -5.41015625 3.2578125 C-7.27303184 3.16348969 -9.13648255 3.08065338 -11 3 C-11 2.67 -11 2.34 -11 2 C-10.28972656 1.93941406 -9.57945312 1.87882812 -8.84765625 1.81640625 C-7.46900391 1.69072266 -7.46900391 1.69072266 -6.0625 1.5625 C-5.14597656 1.48128906 -4.22945312 1.40007813 -3.28515625 1.31640625 C-1.03840268 1.23955024 -1.03840268 1.23955024 0 0 Z " fill="#0A0405" transform="translate(177,17)"/>
<path d="M0 0 C0.66 0 1.32 0 2 0 C2.33 0.66 2.66 1.32 3 2 C4.32 2 5.64 2 7 2 C7 3.98 7 5.96 7 8 C0.4 8 -6.2 8 -13 8 C-13 6.35 -13 4.7 -13 3 C-8.59085217 1.89771304 -4.51617599 1.92345464 0 2 C0 1.34 0 0.68 0 0 Z M-11 4 C-10 7 -10 7 -10 7 Z M-1 4 C0 6 0 6 0 6 Z " fill="#F2152B" transform="translate(140,73)"/>
<path d="M0 0 C0.33 0 0.66 0 1 0 C1.31517154 5.25285905 0.96749405 8.59662174 -2 13 C-4.24171736 14.89300577 -6.51950942 16.40874189 -9 18 C-7.76443359 19.17949219 -7.76443359 19.17949219 -6.50390625 20.3828125 C-2.99130127 24.61382027 -3.50447442 28.62407715 -3.9375 33.875 C-3.97423828 34.73480469 -4.01097656 35.59460937 -4.04882812 36.48046875 C-4.4920488 43.35299641 -6.26329102 48.84542792 -10.81640625 54.09375 C-11.39261719 54.5578125 -11.96882812 55.021875 -12.5625 55.5 C-13.43068359 56.22703125 -13.43068359 56.22703125 -14.31640625 56.96875 C-16 58 -16 58 -19 58 C-19 57.34 -19 56.68 -19 56 C-17.906875 55.4225 -16.81375 54.845 -15.6875 54.25 C-11.3699679 51.75175058 -9.54233821 49.68797511 -7.9921875 44.86328125 C-6.27807836 38.18905312 -3.8583163 28.70332806 -7.5 22.40625 C-9.24637806 20.68803932 -10.91938947 19.28676163 -13 18 C-12.67 17.01 -12.34 16.02 -12 15 C-10.88625 14.525625 -9.7725 14.05125 -8.625 13.5625 C-4.9471006 11.97719854 -3.78008264 11.46647673 -2 8 C-1.19481045 5.34491294 -0.58871134 2.71712925 0 0 Z " fill="#090909" transform="translate(237,18)"/>
<path d="M0 0 C6.27 0 12.54 0 19 0 C19 1.98 19 3.96 19 6 C17.35 6 15.7 6 14 6 C13.67 5.01 13.34 4.02 13 3 C12.67 3.99 12.34 4.98 12 6 C8.37 6 4.74 6 1 6 C0.67 6.66 0.34 7.32 0 8 C0 5.36 0 2.72 0 0 Z M1 2 C1 2.66 1 3.32 1 4 C1.66 4 2.32 4 3 4 C3 3.34 3 2.68 3 2 C2.34 2 1.68 2 1 2 Z " fill="#F2152B" transform="translate(105,75)"/>
<path d="M0 0 C0.99 0.33 1.98 0.66 3 1 C4.28125 3.6171875 4.28125 3.6171875 5.5 6.875 C7.35898284 12.05328452 7.35898284 12.05328452 11 16 C14.10007201 17.20049407 14.10007201 17.20049407 17 18 C16.5206753 22.31392226 15.2542015 24.16569547 12 27 C11.34 26.34 10.68 25.68 10 25 C10.495 24.54625 10.99 24.0925 11.5 23.625 C13.22609337 22.12364481 13.22609337 22.12364481 13 20 C11.9275 19.505 10.855 19.01 9.75 18.5 C5.29122786 15.96885864 3.83665665 12.63317406 2 8 C1.5875 7.071875 1.175 6.14375 0.75 5.1875 C0 3 0 3 0 0 Z " fill="#1F1112" transform="translate(187,15)"/>
<path d="M0 0 C1.51400391 0.01740234 1.51400391 0.01740234 3.05859375 0.03515625 C4.07050781 0.04417969 5.08242188 0.05320312 6.125 0.0625 C7.29869141 0.07990234 7.29869141 0.07990234 8.49609375 0.09765625 C8.49609375 1.41765625 8.49609375 2.73765625 8.49609375 4.09765625 C9.15609375 4.09765625 9.81609375 4.09765625 10.49609375 4.09765625 C10.82609375 2.77765625 11.15609375 1.45765625 11.49609375 0.09765625 C11.49609375 2.07765625 11.49609375 4.05765625 11.49609375 6.09765625 C10.17609375 6.09765625 8.85609375 6.09765625 7.49609375 6.09765625 C7.16609375 6.75765625 6.83609375 7.41765625 6.49609375 8.09765625 C5.83609375 8.09765625 5.17609375 8.09765625 4.49609375 8.09765625 C4.49609375 7.43765625 4.49609375 6.77765625 4.49609375 6.09765625 C1.85609375 6.09765625 -0.78390625 6.09765625 -3.50390625 6.09765625 C-3.54662725 4.4315372 -3.54454457 2.7638274 -3.50390625 1.09765625 C-2.50390625 0.09765625 -2.50390625 0.09765625 0 0 Z M3.49609375 2.09765625 C4.49609375 4.09765625 4.49609375 4.09765625 4.49609375 4.09765625 Z " fill="#F3162C" transform="translate(40.50390625,74.90234375)"/>
<path d="M0 0 C0.33 0 0.66 0 1 0 C1.25073809 2.37445948 1.47597287 4.74698977 1.6875 7.125 C1.76033203 7.79015625 1.83316406 8.4553125 1.90820312 9.140625 C2.31151014 13.98030921 1.59701786 16.91727398 -1 21 C-3.58914147 23.83861604 -6.32804807 25.77601602 -10 27 C-12.39490986 27.06970052 -14.79167691 27.08448003 -17.1875 27.0625 C-18.45980469 27.05347656 -19.73210937 27.04445313 -21.04296875 27.03515625 C-22.50669922 27.01775391 -22.50669922 27.01775391 -24 27 C-23.67 26.34 -23.34 25.68 -23 25 C-20.48828125 24.69140625 -20.48828125 24.69140625 -17.3125 24.5625 C-11.50207614 24.16225703 -7.24529772 23.4775699 -3.1875 19 C-0.83665574 15.04068335 -0.72759756 11.32973345 -0.4375 6.8125 C-0.35371094 5.54019531 -0.26992187 4.26789062 -0.18359375 2.95703125 C-0.09271484 1.49330078 -0.09271484 1.49330078 0 0 Z " fill="#D8D8D8" transform="translate(228,48)"/>
<path d="M0 0 C14.78132118 -0.738041 14.78132118 -0.738041 21 4 C20.67 4.99 20.34 5.98 20 7 C19.67 6.34 19.34 5.68 19 5 C12.4 4.67 5.8 4.34 -1 4 C-0.67 2.68 -0.34 1.36 0 0 Z " fill="#351C20" transform="translate(43,16)"/>
<path d="M0 0 C0.99 0.33 1.98 0.66 3 1 C1.47536437 8.49612516 -0.68006154 15.71359134 -3 23 C-3.99 23 -4.98 23 -6 23 C-4.64741104 15.11583017 -2.45600648 7.60646666 0 0 Z " fill="#231012" transform="translate(113,20)"/>
<path d="M0 0 C0.66 0 1.32 0 2 0 C2 1.98 2 3.96 2 6 C2.99 6 3.98 6 5 6 C5 4.02 5 2.04 5 0 C5.66 0 6.32 0 7 0 C7 0.66 7 1.32 7 2 C8.65 2 10.3 2 12 2 C12 3.98 12 5.96 12 8 C8.37 8 4.74 8 1 8 C-0.35439668 5.29120665 -0.06501451 2.99066732 0 0 Z " fill="#F2152B" transform="translate(22,73)"/>
<path d="M0 0 C2.97 0.33 5.94 0.66 9 1 C8.67 2.65 8.34 4.3 8 6 C5.36 6 2.72 6 0 6 C0 5.01 0 4.02 0 3 C-3.3 3 -6.6 3 -10 3 C-10 2.67 -10 2.34 -10 2 C-6.7 2 -3.4 2 0 2 C0 1.34 0 0.68 0 0 Z " fill="#1C1C1D" transform="translate(161,40)"/>
<path d="M0 0 C-0.875 3.875 -0.875 3.875 -2 5 C-4.67058851 5.14115161 -7.32432238 5.04247107 -10 5 C-10 4.01 -10 3.02 -10 2 C-12.97 2 -15.94 2 -19 2 C-19 1.67 -19 1.34 -19 1 C-12.62694402 0.25492456 -6.41688675 -0.10349817 0 0 Z " fill="#202020" transform="translate(49,41)"/>
<path d="M0 0 C0.99 0.33 1.98 0.66 3 1 C2.29465117 2.82190102 1.55982907 4.63241287 0.8125 6.4375 C0.40644531 7.44683594 0.00039062 8.45617187 -0.41796875 9.49609375 C-2 12 -2 12 -4.67578125 12.84765625 C-5.44277344 12.89792969 -6.20976562 12.94820312 -7 13 C-7.33 11.35 -7.66 9.7 -8 8 C-7.50628906 7.59007812 -7.01257813 7.18015625 -6.50390625 6.7578125 C-5.86324219 6.21898437 -5.22257813 5.68015625 -4.5625 5.125 C-3.92441406 4.59132813 -3.28632813 4.05765625 -2.62890625 3.5078125 C-0.89194996 2.0777243 -0.89194996 2.0777243 0 0 Z M-7 9 C-7 9.66 -7 10.32 -7 11 C-6.01 11 -5.02 11 -4 11 C-3.67 9.68 -3.34 8.36 -3 7 C-4.46225016 6.90754997 -4.46225016 6.90754997 -7 9 Z " fill="#090909" transform="translate(218,43)"/>
<path d="M0 0 C1.47906892 -0.02689216 2.95827483 -0.04634621 4.4375 -0.0625 C5.26121094 -0.07410156 6.08492187 -0.08570312 6.93359375 -0.09765625 C9 0 9 0 10 1 C10.04063832 2.66617115 10.042721 4.33388095 10 6 C7.03 6 4.06 6 1 6 C0.67 6.66 0.34 7.32 0 8 C0 5.36 0 2.72 0 0 Z M1 2 C1 2.66 1 3.32 1 4 C1.66 4 2.32 4 3 4 C3 3.34 3 2.68 3 2 C2.34 2 1.68 2 1 2 Z M6 2 C6 2.66 6 3.32 6 4 C6.66 4 7.32 4 8 4 C8 3.34 8 2.68 8 2 C7.34 2 6.68 2 6 2 Z " fill="#F2152B" transform="translate(55,75)"/>
<path d="M0 0 C2.64 0 5.28 0 8 0 C8 0.66 8 1.32 8 2 C11.3 2 14.6 2 18 2 C18 2.33 18 2.66 18 3 C15.03 3 12.06 3 9 3 C9 3.66 9 4.32 9 5 C6.03 4.67 3.06 4.34 0 4 C0 2.68 0 1.36 0 0 Z " fill="#262627" transform="translate(166,28)"/>
<path d="M0 0 C1.32 0 2.64 0 4 0 C4 0.99 4 1.98 4 3 C4.66 3 5.32 3 6 3 C6 2.01 6 1.02 6 0 C6.99 0 7.98 0 9 0 C9 0.99 9 1.98 9 3 C9.66 3 10.32 3 11 3 C11 3.66 11 4.32 11 5 C7.37 5 3.74 5 0 5 C0 3.35 0 1.7 0 0 Z " fill="#000000" transform="translate(234,70)"/>
<path d="M0 0 C3.3 0.99 6.6 1.98 10 3 C8.9957244 8.02137798 8.60239038 8.86243419 5 12 C4.34 11.34 3.68 10.68 3 10 C3.495 9.54625 3.99 9.0925 4.5 8.625 C6.22609337 7.12364481 6.22609337 7.12364481 6 5 C4.02 4.01 2.04 3.02 0 2 C0 1.34 0 0.68 0 0 Z " fill="#200B0D" transform="translate(194,30)"/>
<path d="M0 0 C0.33 0 0.66 0 1 0 C1 3.63 1 7.26 1 11 C-0.98 11 -2.96 11 -5 11 C-3.55049545 7.2089881 -1.84827434 3.6125362 0 0 Z " fill="#262627" transform="translate(137,29)"/>
<path d="M0 0 C5.5952381 0.5952381 5.5952381 0.5952381 8 3 C7.67 3.99 7.34 4.98 7 6 C6.34 5.34 5.68 4.68 5 4 C2.26565038 3.6936141 -0.38279821 3.4886664 -3.125 3.375 C-3.87910156 3.33632813 -4.63320312 3.29765625 -5.41015625 3.2578125 C-7.27303184 3.16348969 -9.13648255 3.08065338 -11 3 C-11 2.67 -11 2.34 -11 2 C-10.28972656 1.93941406 -9.57945312 1.87882812 -8.84765625 1.81640625 C-7.46900391 1.69072266 -7.46900391 1.69072266 -6.0625 1.5625 C-5.14597656 1.48128906 -4.22945312 1.40007813 -3.28515625 1.31640625 C-1.03840268 1.23955024 -1.03840268 1.23955024 0 0 Z " fill="#3A3738" transform="translate(177,17)"/>
<path d="M0 0 C0.33 0 0.66 0 1 0 C1 3.3 1 6.6 1 10 C-0.98 10 -2.96 10 -5 10 C-3.35 6.7 -1.7 3.4 0 0 Z " fill="#0E0E0F" transform="translate(80,30)"/>
<path d="M0 0 C2.31 0 4.62 0 7 0 C7.33 1.32 7.66 2.64 8 4 C5.03 4 2.06 4 -1 4 C-0.67 2.68 -0.34 1.36 0 0 Z " fill="#010101" transform="translate(45,28)"/>
<path d="M0 0 C0.33 0 0.66 0 1 0 C0.14285714 8.57142857 0.14285714 8.57142857 -2 12 C-2.66 12 -3.32 12 -4 12 C-3.71788123 10.3733152 -3.42397625 8.74867104 -3.125 7.125 C-2.96257812 6.22007813 -2.80015625 5.31515625 -2.6328125 4.3828125 C-2 2 -2 2 0 0 Z " fill="#171415" transform="translate(111,31)"/>
<path d="M0 0 C0.33 0 0.66 0 1 0 C1.31330487 5.22174778 0.88015136 8.57691041 -2 13 C-4.1875 14.375 -4.1875 14.375 -6 15 C-5.731875 14.484375 -5.46375 13.96875 -5.1875 13.4375 C-2.01228585 6.92818805 -2.01228585 6.92818805 0 0 Z " fill="#1C1D1D" transform="translate(237,18)"/>
<path d="M0 0 C0 0.66 0 1.32 0 2 C-0.99 2.66 -1.98 3.32 -3 4 C-2.67 5.32 -2.34 6.64 -2 8 C-3.65 6.68 -5.3 5.36 -7 4 C-6.67 3.01 -6.34 2.02 -6 1 C-3.90006779 0.25486277 -2.22568901 0 0 0 Z " fill="#101010" transform="translate(231,32)"/>
<path d="M0 0 C0.33 0 0.66 0 1 0 C1.19436491 2.45796853 1.3807742 4.91609294 1.5625 7.375 C1.61857422 8.07367188 1.67464844 8.77234375 1.73242188 9.4921875 C2.11328125 14.7734375 2.11328125 14.7734375 1 17 C0.34 17 -0.32 17 -1 17 C-0.67 11.39 -0.34 5.78 0 0 Z " fill="#C1C1C2" transform="translate(228,48)"/>
<path d="M0 0 C3.3 0.99 6.6 1.98 10 3 C10 3.66 10 4.32 10 5 C3.375 4.25 3.375 4.25 0 2 C0 1.34 0 0.68 0 0 Z " fill="#110506" transform="translate(194,30)"/>
<path d="M0 0 C0.33 0 0.66 0 1 0 C1 2.64 1 5.28 1 8 C0.67 8 0.34 8 0 8 C0 5.36 0 2.72 0 0 Z " fill="#F3162C" transform="translate(53,73)"/>
<path d="M0 0 C0.99 0 1.98 0 3 0 C3 0.66 3 1.32 3 2 C2.01 2 1.02 2 0 2 C0 1.34 0 0.68 0 0 Z " fill="#000000" transform="translate(126,68)"/>
<path d="M0 0 C0.99 0 1.98 0 3 0 C3 0.66 3 1.32 3 2 C2.01 2 1.02 2 0 2 C0 1.34 0 0.68 0 0 Z " fill="#000000" transform="translate(55,68)"/>
</svg>
