<?xml version="1.0" standalone="no"?>
<!DOCTYPE svg PUBLIC "-//W3C//DTD SVG 20010904//EN"
 "http://www.w3.org/TR/2001/REC-SVG-20010904/DTD/svg10.dtd">
<svg version="1.0" xmlns="http://www.w3.org/2000/svg"
 width="225.000000pt" height="225.000000pt" viewBox="0 0 225.000000 225.000000"
 preserveAspectRatio="xMidYMid meet">

<g transform="translate(0.000000,225.000000) scale(0.100000,-0.100000)"
fill="#000000" stroke="none">
<path d="M1885 1440 c4 -6 13 -9 20 -6 8 3 11 -2 8 -15 -3 -10 -9 -19 -14 -19
-5 0 -9 -7 -9 -15 0 -20 6 -19 31 6 15 15 18 23 9 29 -6 4 -10 11 -8 16 1 5
-8 11 -21 12 -15 3 -21 0 -16 -8z"/>
<path d="M1860 1410 c0 -19 3 -21 12 -12 9 9 9 15 0 24 -9 9 -12 7 -12 -12z"/>
<path d="M700 1373 c0 -38 13 -63 31 -63 21 0 24 -11 9 -26 -7 -7 -6 -21 4
-45 l14 -34 -1 52 c-2 38 -7 56 -21 66 -10 7 -18 26 -18 40 0 15 -4 27 -9 27
-5 0 -9 -8 -9 -17z"/>
<path d="M974 1382 c-12 -8 -34 -46 -34 -59 1 -4 12 6 25 22 21 25 27 28 35
15 5 -8 10 -10 10 -4 0 17 -24 34 -36 26z"/>
<path d="M1046 1374 c-9 -23 -2 -28 13 -10 7 8 8 17 3 20 -6 3 -13 -1 -16 -10z"/>
<path d="M1240 1376 c0 -22 -19 -30 -36 -15 -17 14 -31 5 -17 -13 5 -7 10 -29
12 -48 4 -48 21 -64 21 -19 0 18 9 45 20 59 21 27 26 50 10 50 -5 0 -10 -6
-10 -14z"/>
<path d="M1345 1381 c-7 -12 46 -122 56 -116 4 3 -2 22 -12 42 -10 21 -19 48
-19 60 0 23 -14 31 -25 14z"/>
<path d="M1436 1373 c-2 -10 -8 -55 -11 -100 -4 -46 -11 -83 -16 -83 -5 0 -9
-4 -9 -10 0 -5 9 -10 20 -10 19 0 20 7 20 94 0 53 4 98 10 101 13 8 13 25 1
25 -5 0 -12 -8 -15 -17z"/>
<path d="M1790 1373 c0 -38 13 -63 31 -63 21 0 24 -11 9 -26 -11 -11 8 -74 22
-74 4 0 3 11 -2 24 -5 13 -6 27 -3 30 4 3 0 6 -8 7 -8 0 -6 4 6 8 19 7 18 9
-8 33 -16 15 -27 36 -27 52 0 14 -4 26 -10 26 -5 0 -10 -8 -10 -17z"/>
<path d="M432 1368 c-14 -14 -16 -54 -3 -62 5 -3 11 11 13 32 6 44 5 45 -10
30z"/>
<path d="M532 1368 c-14 -14 -17 -154 -3 -163 6 -3 11 33 13 85 2 49 3 90 3
90 -1 0 -6 -5 -13 -12z"/>
<path d="M641 1364 c0 -11 3 -14 6 -6 3 7 2 16 -1 19 -3 4 -6 -2 -5 -13z"/>
<path d="M866 1367 c-37 -27 -28 -151 11 -164 9 -3 8 3 -2 24 -30 56 -10 145
29 130 9 -4 16 -2 16 2 0 5 -7 12 -16 15 -20 8 -17 8 -38 -7z"/>
<path d="M1608 1355 c26 -32 29 -83 7 -124 -17 -35 -32 -41 -96 -41 -29 0 -49
-4 -49 -11 0 -8 19 -10 58 -7 42 3 64 10 84 27 49 43 50 135 1 166 l-27 18 22
-28z"/>
<path d="M1140 1341 c0 -17 5 -33 10 -36 6 -4 10 8 10 29 0 20 -4 36 -10 36
-5 0 -10 -13 -10 -29z"/>
<path d="M1482 1345 c0 -16 2 -22 5 -12 2 9 2 23 0 30 -3 6 -5 -1 -5 -18z"/>
<path d="M1522 1288 l2 -83 3 73 c4 71 4 72 31 72 21 0 24 2 12 10 -8 5 -23
10 -32 10 -16 0 -18 -10 -16 -82z"/>
<path d="M1311 1300 c1 -25 4 -58 8 -75 6 -26 8 -23 13 25 4 39 1 61 -8 75
-13 18 -14 15 -13 -25z"/>
<path d="M653 1316 c4 -9 2 -16 -4 -16 -6 0 -6 -8 1 -21 9 -16 14 -18 25 -9
16 13 6 51 -15 58 -9 3 -11 -1 -7 -12z"/>
<path d="M1745 1310 c5 -16 4 -20 -5 -15 -9 6 -9 3 0 -14 15 -30 43 -10 31 22
-11 30 -35 36 -26 7z"/>
<path d="M1090 1280 c0 -5 5 -10 11 -10 5 0 7 5 4 10 -3 6 -8 10 -11 10 -2 0
-4 -4 -4 -10z"/>
<path d="M1141 1258 c0 -31 1 -32 11 -10 6 12 18 22 27 23 12 0 11 3 -4 9 -32
14 -35 12 -34 -22z"/>
<path d="M365 1270 c3 -5 10 -10 16 -10 5 0 9 5 9 10 0 6 -7 10 -16 10 -8 0
-12 -4 -9 -10z"/>
<path d="M427 1273 c-11 -10 -8 -63 3 -63 6 0 10 16 10 35 0 36 -2 40 -13 28z"/>
<path d="M626 1245 c-4 -14 -3 -31 1 -38 4 -7 10 0 15 18 4 16 4 33 -1 38 -5
5 -11 -3 -15 -18z"/>
<path d="M1716 1245 c-4 -16 -2 -33 5 -41 9 -12 4 -14 -30 -14 -26 0 -40 -4
-36 -10 3 -5 24 -10 45 -10 l39 0 -3 45 c-3 53 -11 66 -20 30z"/>
<path d="M687 1253 c-4 -3 -7 -11 -7 -17 0 -6 5 -5 12 2 6 6 9 14 7 17 -3 3
-9 2 -12 -2z"/>
<path d="M1776 1251 c-4 -7 -5 -15 -2 -18 9 -9 19 4 14 18 -4 11 -6 11 -12 0z"/>
<path d="M960 1235 c0 -8 -9 -24 -20 -35 -25 -25 -26 -34 -1 -21 21 11 46 71
30 71 -5 0 -9 -7 -9 -15z"/>
<path d="M1239 1223 c16 -31 15 -31 -31 -36 -33 -3 -27 -4 22 -5 36 -1 75 -5
88 -8 13 -4 22 -2 22 5 0 6 -12 11 -27 11 -16 0 -39 12 -56 28 -25 23 -28 24
-18 5z"/>
<path d="M422 1192 c-30 -2 -50 -7 -47 -13 8 -12 265 -12 265 1 0 6 -12 10
-27 10 -16 0 -39 3 -52 7 -15 4 -22 2 -18 -4 4 -7 -7 -8 -31 -4 -20 3 -61 5
-90 3z"/>
<path d="M1028 1192 c-21 -2 -38 -7 -38 -13 0 -10 93 -11 130 0 22 7 21 8 -15
12 -22 2 -57 3 -77 1z"/>
<path d="M705 1180 c3 -5 24 -10 46 -10 24 0 38 4 34 10 -3 6 -24 10 -46 10
-24 0 -38 -4 -34 -10z"/>
<path d="M860 1180 c8 -5 24 -10 34 -10 26 0 18 6 -19 14 -22 5 -26 4 -15 -4z"/>
<path d="M1795 1180 c3 -5 27 -10 53 -10 34 0 43 3 32 10 -20 13 -93 13 -85 0z"/>
<path d="M1176 1029 c-9 -21 10 -69 29 -69 17 0 20 -16 6 -25 -13 -7 7 -66 28
-83 14 -11 9 -12 -27 -10 -26 2 -41 0 -39 -7 2 -6 88 -11 235 -13 251 -3 255
-2 212 49 -21 26 -26 19 -10 -12 10 -18 7 -19 -67 -19 -72 0 -80 2 -97 25 -22
29 -41 34 -26 6 5 -11 10 -22 10 -25 0 -3 -38 -6 -85 -6 -78 0 -86 2 -100 24
-9 13 -14 37 -12 52 3 20 -2 37 -18 54 -13 14 -25 36 -27 50 -4 19 -6 21 -12
9z"/>
<path d="M1610 1030 c0 -6 -10 -21 -23 -34 -17 -17 -21 -29 -16 -47 l7 -24 1
25 c1 14 10 33 21 43 18 15 28 47 15 47 -3 0 -5 -5 -5 -10z"/>
<path d="M316 1008 c-30 -43 -12 -158 25 -158 6 0 3 10 -5 22 -16 22 -21 92
-10 122 3 9 15 16 26 16 10 0 16 5 13 10 -10 17 -33 11 -49 -12z"/>
<path d="M412 1005 c-6 -14 -7 -25 -2 -25 9 0 25 39 18 46 -3 2 -10 -7 -16
-21z"/>
<path d="M707 1023 c-10 -9 -9 -71 1 -77 4 -2 6 11 4 30 -4 28 -1 34 15 34 10
0 23 -3 29 -7 5 -5 1 0 -9 10 -21 18 -30 21 -40 10z"/>
<path d="M903 1023 c-17 -6 -17 -69 0 -76 9 -3 12 5 9 29 -4 29 -1 34 16 34
12 0 26 -8 31 -17 6 -10 11 -13 11 -6 0 6 -10 19 -22 27 -24 17 -26 17 -45 9z"/>
<path d="M1335 1019 c-11 -17 1 -21 15 -4 8 9 8 15 2 15 -6 0 -14 -5 -17 -11z"/>
<path d="M1775 1018 c-3 -7 -6 -47 -7 -88 -3 -70 -5 -76 -30 -88 -19 -9 -33
-9 -54 -2 -24 9 -25 9 -14 -5 18 -22 73 -19 96 6 14 16 18 37 19 105 0 84 -2
95 -10 72z"/>
<path d="M1956 1004 c26 -39 22 -106 -7 -141 -19 -22 -31 -27 -58 -25 -21 2
-31 0 -26 -7 13 -22 66 -12 96 18 25 25 29 37 29 83 0 32 -6 62 -16 76 -21 31
-38 28 -18 -4z"/>
<path d="M490 994 c-14 -36 -12 -97 3 -119 12 -16 13 -11 9 37 -5 65 10 102
39 95 10 -3 19 -1 19 4 0 5 -14 9 -30 9 -24 0 -33 -6 -40 -26z"/>
<path d="M599 1002 c19 -35 13 -106 -10 -136 -28 -36 -7 -33 24 4 14 17 30 30
36 30 6 0 11 5 11 10 0 6 -4 10 -10 10 -5 0 -9 3 -8 8 3 12 -29 79 -42 87 -9
6 -9 3 -1 -13z"/>
<path d="M794 1012 c12 -20 -2 -60 -24 -67 -22 -7 -18 -25 16 -72 30 -39 30
-39 -1 -47 -14 -4 -23 -11 -20 -16 3 -6 16 -5 33 2 15 6 51 10 81 9 36 -2 52
2 49 9 -2 7 -25 13 -52 14 -41 2 -53 7 -72 31 -29 36 -29 40 -4 72 24 31 25
46 3 64 -13 11 -15 11 -9 1z"/>
<path d="M997 997 c4 -18 -3 -30 -23 -46 l-27 -22 31 -45 c18 -24 32 -46 32
-48 0 -2 -11 -7 -25 -10 -14 -4 -23 -11 -20 -16 4 -6 14 -6 28 1 12 7 43 11
70 10 57 -2 73 5 56 25 -6 7 -8 25 -5 38 3 14 2 27 -3 30 -14 9 -23 -44 -10
-60 9 -12 5 -14 -26 -14 -28 0 -44 7 -66 31 -34 37 -35 43 -9 76 23 30 25 46
6 62 -11 9 -12 7 -9 -12z"/>
<path d="M1293 940 c0 -47 2 -66 4 -42 2 23 2 61 0 85 -2 23 -4 4 -4 -43z"/>
<path d="M1514 991 c0 -21 7 -36 16 -38 10 -3 11 -2 3 4 -6 4 -13 22 -16 38
-4 27 -5 27 -3 -4z"/>
<path d="M1530 1016 c0 -2 9 -6 20 -9 11 -3 20 -1 20 4 0 5 -9 9 -20 9 -11 0
-20 -2 -20 -4z"/>
<path d="M1850 994 c-17 -43 -12 -102 10 -124 11 -11 26 -20 33 -20 7 0 6 4
-4 10 -30 18 -41 62 -27 106 12 34 17 39 41 37 15 -1 25 2 22 8 -4 5 -20 9
-36 9 -22 0 -32 -6 -39 -26z"/>
<path d="M1134 982 c4 -7 2 -12 -3 -12 -6 0 -9 -10 -7 -22 4 -27 36 -38 36
-13 0 9 -4 14 -9 11 -5 -4 -7 2 -4 13 3 10 -1 22 -8 26 -8 5 -10 4 -5 -3z"/>
<path d="M1085 970 c-3 -6 1 -7 9 -4 18 7 21 14 7 14 -6 0 -13 -4 -16 -10z"/>
<path d="M1933 940 c0 -25 2 -35 4 -22 2 12 2 32 0 45 -2 12 -4 2 -4 -23z"/>
<path d="M572 940 c0 -19 2 -27 5 -17 2 9 2 25 0 35 -3 9 -5 1 -5 -18z"/>
<path d="M1440 935 c0 -2 7 -8 15 -15 12 -10 15 -10 15 2 0 8 -7 15 -15 15 -8
0 -15 -1 -15 -2z"/>
<path d="M1510 901 c0 -22 4 -42 8 -45 4 -2 6 12 4 31 l-5 36 34 -7 c31 -6 32
-5 14 8 -37 28 -55 20 -55 -23z"/>
<path d="M701 893 c2 -31 3 -33 6 -10 3 21 9 27 20 23 9 -4 13 -1 11 6 -3 7
-12 14 -21 16 -14 3 -17 -4 -16 -35z"/>
<path d="M897 923 c-11 -10 -8 -63 3 -63 6 0 10 11 10 25 0 16 6 25 16 25 8 0
12 5 9 10 -7 11 -28 13 -38 3z"/>
<path d="M1682 888 c2 -17 8 -33 14 -35 6 -2 8 10 6 32 -5 44 -24 47 -20 3z"/>
<path d="M1151 891 c-12 -22 -5 -27 19 -11 11 7 12 12 3 21 -8 8 -14 6 -22
-10z"/>
<path d="M392 853 c-19 -20 -30 -24 -53 -19 -19 3 -28 2 -24 -4 17 -27 115 9
115 42 0 14 -14 7 -38 -19z"/>
<path d="M683 842 c-47 -5 -41 -22 7 -22 22 0 40 4 40 9 0 14 -11 17 -47 13z"/>
<path d="M505 830 c3 -5 17 -10 31 -10 13 0 24 5 24 10 0 6 -14 10 -31 10 -17
0 -28 -4 -24 -10z"/>
</g>
</svg>
