<?xml version="1.0" standalone="no"?>
<!DOCTYPE svg PUBLIC "-//W3C//DTD SVG 20010904//EN"
 "http://www.w3.org/TR/2001/REC-SVG-20010904/DTD/svg10.dtd">
<svg version="1.0" xmlns="http://www.w3.org/2000/svg"
 width="500.000000pt" height="500.000000pt" viewBox="0 0 500.000000 500.000000"
 preserveAspectRatio="xMidYMid meet">

<g transform="translate(0.000000,500.000000) scale(0.100000,-0.100000)"
fill="#000000" stroke="none">
<path d="M2418 4636 c-20 -11 -28 -11 -32 -3 -2 7 -5 4 -5 -5 -1 -10 -9 -18
-18 -18 -15 0 -16 2 -3 10 8 5 12 10 7 10 -22 0 -43 -25 -39 -46 2 -14 0 -24
-7 -24 -7 0 -9 4 -6 10 3 5 1 18 -4 27 -7 12 -10 13 -11 4 0 -8 -7 -11 -20 -8
-13 3 -20 0 -20 -10 0 -9 6 -13 13 -10 8 3 14 -1 14 -7 0 -10 -7 -11 -28 -2
-19 7 -24 13 -16 18 8 5 7 8 -4 8 -9 0 -22 -7 -29 -15 -7 -8 -16 -13 -20 -10
-5 3 -11 1 -15 -5 -4 -6 -11 -8 -16 -5 -5 3 -6 -1 -3 -9 7 -18 27 -26 54 -21
11 2 18 0 15 -6 -4 -5 -11 -7 -16 -4 -5 4 -9 1 -9 -6 0 -9 -3 -9 -14 0 -11 9
-15 9 -19 -1 -4 -8 -6 -7 -6 5 -1 9 -5 17 -10 17 -11 0 -23 -29 -16 -40 8 -13
132 24 146 44 4 5 12 5 19 1 9 -5 11 -4 6 3 -5 8 1 12 18 12 13 0 31 3 40 6
23 9 20 26 -4 19 -11 -3 -20 -3 -20 2 0 12 38 14 45 2 4 -5 14 -9 23 -9 15 1
15 2 -2 15 -19 15 -19 15 5 15 17 0 20 3 11 9 -11 7 -10 9 3 14 9 4 13 3 10
-3 -3 -5 9 -8 26 -7 21 1 33 -3 36 -13 4 -13 3 -13 -6 0 -10 13 -12 13 -21 0
-6 -10 -10 -11 -10 -3 0 7 -7 10 -15 7 -30 -12 -14 -23 30 -21 31 1 44 6 41
14 -3 7 0 15 6 19 6 4 9 3 6 -2 -3 -5 -2 -18 3 -29 7 -19 8 -19 8 1 1 29 26
50 35 29 3 -9 2 -14 -3 -11 -5 3 -11 -1 -15 -9 -3 -8 0 -17 6 -21 7 -4 8 -3 4
4 -4 7 -3 12 3 12 5 0 11 -6 13 -12 3 -7 19 -12 39 -11 28 2 30 0 14 -7 l-20
-10 20 2 c11 0 33 -4 49 -11 16 -6 35 -10 42 -7 7 3 14 0 16 -6 2 -5 19 -11
38 -13 19 -2 37 -4 40 -5 3 -1 8 -2 13 -1 4 0 7 -3 7 -8 0 -5 11 -11 25 -13
13 -3 22 -2 20 3 -3 4 -1 11 5 14 6 4 10 3 9 -2 -3 -17 1 -33 9 -32 4 1 10 0
15 -1 4 -1 10 -3 15 -4 11 -2 100 -35 154 -57 50 -20 72 -25 48 -9 -9 6 -10
10 -3 10 7 0 17 -8 22 -17 6 -11 11 -13 12 -5 1 6 2 17 3 22 0 6 4 10 9 10 30
0 31 -1 21 -8 -6 -4 -14 -15 -17 -26 -6 -15 -4 -17 13 -13 13 3 23 0 26 -8 4
-9 17 -12 37 -9 22 2 28 1 17 -6 -12 -7 -11 -10 5 -15 11 -4 28 -11 37 -16 25
-13 38 -11 32 5 -3 8 -1 17 5 21 7 3 8 0 5 -10 -4 -10 -1 -14 7 -12 8 2 11 2
7 0 -15 -8 -8 -25 7 -19 8 3 15 1 15 -5 0 -6 5 -7 10 -4 6 4 7 11 4 17 -5 8
-1 9 12 5 18 -7 18 -7 0 8 -16 12 -17 15 -4 15 18 0 32 -27 18 -35 -5 -3 -6
-13 -3 -21 5 -13 7 -13 14 -2 7 10 9 11 9 0 0 -7 5 -10 10 -7 6 3 10 2 10 -3
0 -5 7 -9 16 -9 10 0 14 7 11 19 -3 10 -1 16 3 13 5 -3 10 -1 12 4 5 13 48 -6
47 -21 0 -10 -2 -10 -6 0 -2 6 -9 12 -14 12 -6 0 -7 -4 -4 -10 3 -5 2 -10 -4
-10 -5 0 -12 6 -14 13 -3 6 -6 1 -6 -12 -1 -19 3 -22 19 -18 11 3 18 2 15 -3
-3 -4 2 -10 9 -13 8 -3 17 -1 20 6 2 7 5 4 5 -7 1 -12 6 -16 16 -13 8 4 17 2
20 -3 11 -17 25 -11 37 15 10 22 13 23 20 10 5 -8 13 -13 19 -10 15 10 10 22
-12 28 -28 7 -51 -2 -45 -19 3 -7 1 -16 -3 -19 -5 -3 -12 2 -15 11 -3 9 -11
12 -18 8 -9 -6 -9 -3 1 9 7 9 17 14 22 11 5 -3 9 2 9 10 0 15 -14 20 -47 19
-7 -1 -10 3 -7 8 3 5 -6 9 -20 9 -14 0 -28 5 -31 10 -4 6 -11 8 -16 5 -5 -4
-9 -1 -9 5 0 6 -4 8 -10 5 -5 -3 -21 2 -35 11 -14 9 -25 13 -25 9 0 -4 -6 -2
-14 4 -11 9 -15 8 -20 -4 -3 -9 -11 -13 -16 -10 -8 5 -7 11 1 21 8 10 8 14 0
14 -6 0 -11 -4 -11 -10 0 -5 -4 -10 -10 -10 -5 0 -10 6 -10 14 0 8 -7 16 -15
20 -8 3 -14 2 -14 -2 3 -21 -3 -24 -17 -6 -8 10 -13 12 -9 4 4 -10 2 -9 -8 3
-8 9 -19 17 -26 17 -6 0 -11 5 -11 11 0 6 -9 8 -21 4 -12 -4 -19 -3 -16 2 7
11 -80 36 -95 27 -7 -4 -8 -2 -4 4 7 11 -62 47 -72 37 -2 -2 -14 0 -25 6 -14
8 -18 8 -13 0 4 -7 -1 -11 -13 -11 -11 0 -23 5 -26 11 -5 6 -12 4 -21 -8 -7
-10 -14 -13 -14 -7 0 18 27 37 35 24 3 -5 12 -10 18 -10 7 0 3 7 -7 15 -22 17
-61 20 -51 5 3 -5 -1 -10 -9 -10 -8 0 -18 5 -22 12 -4 7 -3 8 4 4 7 -4 12 -3
12 3 0 12 -13 20 -51 31 -27 8 -30 7 -24 -8 4 -9 8 -24 10 -32 1 -9 0 -9 -2
-2 -4 10 -8 10 -19 1 -16 -13 -20 1 -4 17 6 6 6 15 0 24 -9 13 -10 13 -11 0 0
-12 -2 -11 -7 2 -5 12 -11 15 -21 8 -13 -7 -13 -11 0 -26 8 -10 9 -15 2 -11
-6 4 -13 2 -15 -4 -2 -7 -9 -5 -17 5 -9 11 -10 16 -2 16 6 0 11 6 11 14 0 8 6
17 13 19 6 3 2 6 -10 6 -13 1 -22 -4 -20 -10 1 -6 -6 -13 -16 -14 -15 -3 -16
-1 -6 11 10 12 9 17 -1 27 -10 9 -11 9 -5 -1 6 -11 3 -11 -14 -3 -12 6 -30 16
-41 21 -28 14 -53 13 -44 -2 5 -8 1 -7 -10 2 -10 8 -23 15 -30 16 -6 1 -19 5
-28 9 -11 4 -18 3 -18 -4 0 -6 -7 -11 -15 -11 -8 0 -15 5 -15 10 0 15 -61 12
-92 -4z m222 -41 c0 -2 -10 -9 -22 -15 -22 -11 -22 -10 -4 4 21 17 26 19 26
11z m62 -30 c2 3 5 -2 5 -10 0 -8 -5 -11 -11 -7 -6 4 -15 7 -21 7 -5 0 -11 9
-14 20 -3 19 -3 19 16 2 11 -9 22 -15 25 -12z m-467 -23 c-3 -3 -11 0 -18 7
-9 10 -8 11 6 5 10 -3 15 -9 12 -12z m655 -7 c0 -12 -19 -12 -23 0 -4 9 -1 12
9 8 7 -3 14 -7 14 -8z m200 -69 c-1 -5 3 -12 8 -15 6 -3 4 -12 -6 -20 -13 -12
-14 -12 -10 0 3 8 1 22 -4 33 -7 13 -7 17 2 14 6 -2 11 -7 10 -12z m60 -26
c-8 -5 -19 -10 -25 -10 -5 0 -3 5 5 10 8 5 20 10 25 10 6 0 3 -5 -5 -10z m110
-44 c0 -2 -7 -7 -16 -10 -8 -3 -12 -2 -9 4 6 10 25 14 25 6z m25 -16 c3 -5 1
-10 -4 -10 -6 0 -11 5 -11 10 0 6 2 10 4 10 3 0 8 -4 11 -10z m59 -34 c-5 -21
-9 -24 -20 -15 -15 12 -9 33 7 24 5 -4 9 2 9 11 0 10 2 15 5 12 4 -3 3 -18 -1
-32z m129 -25 c-2 -6 2 -11 7 -11 6 0 10 -5 10 -11 0 -8 -5 -8 -15 1 -8 7 -13
16 -10 20 3 5 0 11 -5 13 -6 3 -5 4 2 3 7 -2 12 -9 11 -15z"/>
<path d="M2090 4528 c-17 -17 -20 -18 -9 -4 13 18 12 19 -4 13 -10 -4 -23 -7
-28 -7 -6 0 -8 -4 -5 -9 3 -5 -4 -11 -16 -15 -22 -5 -22 -6 -3 -20 14 -11 16
-15 6 -16 -8 0 -11 -3 -8 -6 4 -4 13 -1 22 6 13 11 14 10 9 -4 -3 -9 -1 -16 5
-16 17 0 13 28 -6 39 -16 9 -16 10 5 11 12 0 21 -3 21 -7 -4 -25 2 -36 12 -26
6 6 18 9 25 6 8 -3 14 0 14 7 0 6 -4 9 -9 5 -6 -3 -9 4 -8 15 1 10 7 22 15 25
7 3 10 9 7 15 -9 15 -18 12 -45 -12z"/>
<path d="M1991 4507 c-6 -8 -8 -17 -4 -20 3 -4 -4 -7 -16 -7 -12 0 -19 4 -16
10 7 12 3 12 -19 4 -9 -3 -16 -13 -16 -22 0 -12 -3 -13 -12 -4 -13 13 -48 -1
-48 -20 0 -7 4 -7 14 1 7 6 20 9 29 5 8 -3 18 -1 21 5 11 16 45 -9 39 -28 -5
-13 -3 -14 8 -3 7 6 24 12 37 12 21 0 22 2 12 15 -7 8 -9 15 -4 15 4 0 3 5 -3
11 -6 6 -9 18 -6 25 7 18 -1 18 -16 1z"/>
<path d="M1814 4445 c-18 -14 -18 -14 -1 -15 10 0 15 -5 12 -10 -4 -6 -11 -7
-17 -4 -7 5 -9 1 -5 -9 4 -11 2 -14 -9 -10 -7 3 -14 1 -14 -5 0 -10 23 -22 41
-22 4 0 6 6 3 14 -3 8 3 19 15 26 14 7 21 7 21 0 0 -5 -5 -10 -11 -10 -5 0 -7
-5 -3 -11 4 -7 9 -8 13 -1 3 5 20 12 38 15 39 6 53 14 53 31 0 7 -14 11 -37
11 -27 -1 -37 -5 -35 -15 2 -10 0 -11 -11 -2 -8 7 -18 8 -22 4 -5 -4 -5 -2 -1
5 10 18 -9 24 -30 8z"/>
<path d="M1742 4426 c-18 -7 -30 -15 -27 -18 4 -3 -2 -5 -12 -4 -10 0 -17 -4
-16 -11 2 -7 -9 -11 -25 -11 -48 1 -62 -2 -62 -13 0 -5 4 -8 8 -5 5 3 8 -10 7
-28 0 -29 2 -32 22 -28 13 2 26 8 29 13 3 5 14 9 25 9 10 0 19 5 19 11 0 6 -7
9 -15 5 -9 -3 -15 0 -15 10 0 15 2 15 24 1 23 -15 36 -13 36 5 0 5 -4 7 -9 4
-5 -3 -12 2 -15 11 -4 10 -4 14 0 11 3 -4 14 2 24 14 11 15 19 18 24 10 4 -7
1 -12 -8 -12 -23 0 -19 -28 5 -35 11 -4 23 -4 26 -1 4 3 -2 6 -11 6 -17 0 -17
2 -2 25 29 45 23 51 -32 31z m-82 -81 c0 -19 -4 -23 -17 -18 -11 4 -12 8 -5
11 7 2 12 8 12 13 0 6 -4 7 -10 4 -5 -3 -10 -1 -10 4 0 6 7 11 15 11 9 0 15
-9 15 -25z"/>
<path d="M1586 4361 c5 -10 1 -11 -13 -7 -12 4 -29 -1 -45 -13 -14 -11 -29
-17 -32 -13 -4 4 -7 3 -6 -3 1 -5 2 -17 1 -25 -1 -13 -3 -13 -10 0 -6 8 -7 19
-3 25 3 5 -6 2 -21 -8 -15 -9 -27 -14 -27 -10 0 4 -7 -2 -16 -13 -8 -10 -12
-12 -8 -4 7 12 5 13 -8 3 -8 -7 -17 -10 -21 -7 -3 3 -3 -3 0 -14 2 -11 0 -23
-6 -26 -7 -4 -8 -1 -5 8 5 12 0 16 -20 16 -14 0 -26 -4 -26 -10 0 -5 -7 -7
-15 -4 -11 4 -13 2 -10 -9 4 -8 13 -14 22 -13 9 0 17 -5 19 -12 1 -7 0 -9 -2
-4 -5 10 -54 4 -54 -7 0 -13 20 -36 20 -23 0 7 13 12 31 12 24 0 30 4 25 15
-3 8 -1 15 4 15 6 0 10 -4 10 -9 0 -6 12 -6 30 0 17 6 30 15 30 19 0 5 8 7 18
5 22 -3 44 14 35 29 -4 6 1 5 10 -3 10 -8 20 -11 24 -7 3 3 1 6 -5 6 -7 0 -12
7 -12 15 0 16 35 21 44 6 4 -5 -4 -7 -16 -4 -19 4 -20 3 -8 -6 39 -28 56 4 18
33 -13 9 -16 14 -8 10 8 -4 24 -14 34 -23 14 -12 17 -12 11 -2 -6 11 -4 13 10
7 15 -5 16 -4 5 9 -11 13 -10 14 4 9 20 -8 21 6 0 32 -8 10 -12 13 -8 5z
m-126 -66 c-10 -12 -10 -18 1 -32 12 -17 12 -17 -6 -1 -15 14 -16 20 -5 32 7
9 15 16 17 16 3 0 0 -7 -7 -15z m-40 -49 c0 -2 -9 -6 -20 -9 -11 -3 -18 -1
-14 4 5 9 34 13 34 5z"/>
<path d="M2500 4274 c15 -9 17 -13 6 -10 -18 6 -45 -17 -45 -39 -1 -5 8 1 19
15 11 14 20 19 20 12 0 -7 4 -11 9 -7 5 3 12 1 16 -4 3 -6 -3 -8 -15 -6 -11 2
-25 -4 -33 -16 -8 -10 -16 -16 -19 -14 -3 3 -8 -2 -12 -11 -5 -12 -2 -15 9
-10 9 3 13 2 10 -4 -3 -6 -12 -10 -19 -10 -9 0 -12 -10 -10 -30 2 -18 -1 -29
-7 -27 -7 1 -14 -4 -17 -12 -3 -8 0 -11 7 -7 17 11 0 -27 -18 -41 -14 -11 -13
-12 5 -13 20 0 34 17 39 45 4 27 18 43 32 38 11 -4 14 -2 11 8 -3 8 -12 13
-21 13 -9 -1 -14 2 -12 6 3 5 14 8 25 7 15 -1 19 -9 18 -39 0 -21 -5 -38 -10
-38 -6 0 -8 7 -4 15 6 17 -2 19 -24 5 -25 -16 13 -46 62 -49 24 -1 55 -3 70
-5 19 -2 25 1 21 11 -3 8 -11 12 -17 10 -7 -3 -13 5 -14 16 -1 17 1 19 8 7 6
-9 10 -10 10 -3 0 6 -6 18 -13 25 -8 7 -12 18 -10 25 2 6 -6 18 -19 27 -12 9
-17 16 -10 16 10 0 10 4 0 23 -7 12 -13 25 -14 30 -1 4 -3 9 -4 12 -1 3 -4 10
-5 15 -1 6 -3 15 -4 20 0 6 -11 10 -23 10 -23 -1 -23 -1 2 -16z m3 -84 c3 -11
1 -18 -4 -14 -5 3 -9 12 -9 20 0 20 7 17 13 -6z m27 16 c0 -3 -4 -8 -10 -11
-5 -3 -10 -1 -10 4 0 6 5 11 10 11 6 0 10 -2 10 -4z m5 -66 c-3 -6 1 -13 9
-16 20 -7 13 -20 -14 -27 -14 -3 -18 -1 -13 6 4 7 6 20 5 30 -2 9 2 17 8 17 6
0 8 -5 5 -10z m35 -55 c0 -8 -4 -15 -9 -15 -13 0 -22 16 -14 24 11 11 23 6 23
-9z"/>
<path d="M1252 4242 c-22 -3 -23 -4 -5 -18 16 -13 16 -13 -7 -5 -18 6 -33 5
-50 -5 -14 -7 -20 -13 -15 -14 6 0 10 -11 10 -24 0 -13 -3 -22 -8 -19 -7 4
-37 -20 -37 -31 0 -4 8 -2 18 3 9 5 40 18 67 29 37 14 49 24 47 36 -2 10 2 23
8 31 13 16 3 22 -28 17z m-2 -47 c0 4 5 3 11 -1 8 -4 7 -9 -2 -15 -8 -4 -16
-3 -20 3 -4 6 -12 7 -18 4 -6 -4 -9 -12 -6 -17 4 -5 1 -9 -4 -9 -9 0 -9 19 -2
48 1 1 10 -2 21 -8 11 -6 20 -8 20 -5z"/>
<path d="M3720 4241 c0 -5 6 -12 13 -14 6 -3 1 -4 -13 -3 -14 1 -31 6 -38 10
-7 4 -12 2 -12 -3 0 -6 6 -11 13 -11 9 0 8 -3 -2 -9 -8 -5 -9 -11 -3 -15 6 -4
16 2 22 11 9 15 10 14 4 -7 -6 -21 -5 -23 8 -12 13 10 17 10 22 -3 6 -17 26
-21 26 -4 0 5 -4 7 -10 4 -5 -3 -10 -2 -10 4 0 5 5 13 10 16 6 4 7 11 4 17 -4
7 -2 8 4 4 6 -4 9 -14 6 -24 -5 -14 -4 -15 5 -2 8 12 10 9 8 -15 -2 -26 1 -30
21 -28 15 2 21 -1 16 -9 -4 -6 -3 -8 4 -4 6 3 17 -1 25 -9 9 -8 23 -15 33 -15
9 0 23 -8 31 -17 8 -10 12 -12 8 -5 -4 7 0 12 10 12 12 0 13 -4 6 -17 -9 -18
10 -49 22 -36 3 2 14 0 24 -6 15 -9 15 -10 2 -11 -13 0 -16 -9 -13 -47 2 -27
4 -70 4 -96 0 -26 4 -46 9 -43 5 3 14 -1 20 -8 10 -12 9 -14 -6 -12 -12 2 -20
-5 -23 -23 -7 -31 -1 -61 11 -61 11 0 7 22 -6 33 -6 5 -3 7 8 3 20 -6 24 19 5
27 -7 3 -3 6 9 6 12 1 25 -4 29 -11 4 -6 3 -9 -2 -5 -5 3 -14 -6 -21 -19 -8
-18 -8 -24 0 -24 7 0 5 -5 -3 -10 -12 -8 -10 -10 10 -11 14 0 19 -3 12 -6 -6
-2 -10 -9 -6 -14 3 -5 -2 -9 -10 -9 -9 0 -16 -8 -16 -19 0 -10 -6 -30 -13 -43
-15 -30 -10 -121 7 -111 6 4 5 0 -2 -9 -16 -20 -22 -137 -7 -139 6 -1 13 -1
17 0 4 0 5 -6 2 -14 -4 -9 0 -15 10 -15 9 0 19 -1 23 -2 13 -5 15 65 1 74 -10
8 -10 11 0 15 18 7 15 21 -8 28 -24 8 -27 25 -4 25 8 0 12 -4 9 -10 -3 -5 -1
-10 4 -10 6 0 11 5 11 11 0 15 -26 39 -34 31 -4 -3 -4 1 0 11 8 22 21 22 27 0
3 -10 5 7 6 38 1 32 -4 61 -11 68 -10 11 -10 12 -1 7 19 -11 13 401 -5 413 -8
5 -14 12 -15 17 -1 5 -7 9 -13 8 -6 -1 -11 5 -11 12 0 7 4 11 9 8 22 -14 4 17
-19 34 -46 32 -77 46 -68 32 6 -10 1 -11 -21 -5 -16 5 -39 9 -51 9 -13 1 -23
5 -23 9 0 11 51 6 68 -6 7 -6 12 -5 12 2 0 6 -4 12 -10 12 -5 1 -14 2 -19 3
-5 0 -12 4 -16 8 -4 4 -14 4 -23 1 -11 -5 -13 -3 -7 8 7 12 6 12 -11 -1 -10
-8 -16 -10 -12 -6 4 5 -8 17 -27 27 -40 22 -45 23 -45 10z m77 -73 c-3 -8 -6
-5 -6 6 -1 11 2 17 5 13 3 -3 4 -12 1 -19z m133 -17 c0 -5 -7 -12 -16 -15 -14
-5 -15 -4 -4 9 14 17 20 19 20 6z m-45 -19 c-3 -3 -11 0 -18 7 -9 10 -8 11 6
5 10 -3 15 -9 12 -12z m83 -39 c0 -21 -2 -23 -10 -9 -5 9 -6 21 -3 26 10 16
13 12 13 -17z m48 -80 c-10 -10 -19 5 -10 18 6 11 8 11 12 0 2 -7 1 -15 -2
-18z m9 -63 c-3 -5 -12 -10 -18 -10 -7 0 -6 4 3 10 19 12 23 12 15 0z m-15
-76 c0 -2 -7 -4 -15 -4 -8 0 -15 4 -15 10 0 5 7 7 15 4 8 -4 15 -8 15 -10z
m-5 -234 c-3 -5 -12 -10 -18 -10 -7 0 -6 4 3 10 19 12 23 12 15 0z m25 -237
c0 -12 -3 -13 -15 -3 -8 6 -19 9 -25 5 -5 -3 -10 0 -10 8 0 10 8 13 25 9 14
-2 25 -11 25 -19z"/>
<path d="M1113 4184 c-18 -8 -33 -17 -33 -20 0 -3 6 -2 13 2 7 5 6 1 -3 -10
-8 -11 -16 -14 -18 -7 -2 6 -8 11 -14 11 -6 0 -5 -6 2 -15 16 -19 6 -32 -13
-17 -10 8 -16 6 -25 -9 -7 -11 -17 -17 -22 -14 -10 6 -13 -3 -13 -37 0 -10 -4
-18 -10 -18 -8 0 -8 -3 0 -11 12 -12 37 -3 28 11 -3 4 4 6 15 3 25 -7 54 26
39 43 -6 7 0 15 17 22 31 15 45 15 22 1 -10 -5 -18 -14 -18 -20 0 -5 11 -2 26
7 14 10 23 23 20 31 -3 8 -2 12 2 9 12 -7 44 33 37 44 -8 12 -12 12 -52 -6z
m-82 -88 c-7 -8 -10 -20 -6 -26 4 -7 -2 -6 -14 2 -14 8 -17 14 -9 17 7 2 17
10 21 18 5 8 11 12 14 9 3 -3 0 -12 -6 -20z"/>
<path d="M2174 4137 c3 -10 6 -27 6 -37 0 -14 6 -18 21 -15 12 3 18 1 15 -3
-4 -4 -13 -7 -19 -7 -6 0 -12 -15 -13 -33 -1 -27 2 -33 16 -29 9 2 24 0 33 -4
22 -13 32 8 13 27 -9 8 -16 18 -16 22 0 4 12 -6 26 -22 19 -21 28 -26 37 -17
8 8 8 11 -2 11 -7 0 -9 5 -6 10 3 6 1 10 -5 10 -6 0 -23 14 -37 31 -15 17 -32
28 -40 25 -8 -3 -12 -2 -9 3 3 4 -2 17 -10 27 -15 18 -15 18 -10 1z"/>
<path d="M2785 4110 c-21 -22 -28 -38 -27 -66 1 -31 -1 -34 -13 -24 -17 14
-20 24 -6 15 6 -3 9 4 8 16 l-1 21 -18 -22 c-17 -21 -16 -46 2 -35 5 3 11 1
15 -5 4 -6 11 -8 16 -5 5 4 9 2 9 -4 0 -6 7 -7 17 -4 12 5 14 3 8 -8 -5 -10
-5 -11 3 -4 6 6 13 37 17 69 3 33 8 63 11 67 2 4 0 10 -4 13 -5 3 -22 -8 -37
-24z m21 -18 c0 -10 -8 -19 -17 -19 -16 -2 -17 0 -1 18 9 10 17 19 17 19 0 0
1 -8 1 -18z m-11 -42 c3 -6 -1 -7 -9 -4 -18 7 -21 14 -7 14 6 0 13 -4 16 -10z"/>
<path d="M1010 4030 c0 -6 -10 -10 -22 -8 l-23 3 0 -275 c0 -179 3 -274 10
-271 6 1 9 8 7 14 -2 7 1 7 10 1 29 -22 42 -10 43 39 1 26 -2 47 -8 47 -6 0
-6 5 0 13 17 20 12 100 -6 121 -9 11 -10 16 -3 12 13 -8 14 -3 17 82 2 28 -2
52 -7 52 -5 0 -6 -5 -2 -12 4 -6 3 -8 -4 -5 -12 8 -10 32 3 44 4 4 5 2 1 -4
-4 -7 -3 -13 3 -13 16 0 9 162 -6 168 -7 2 -13 -1 -13 -8z m-18 -24 c7 4 8 2
4 -5 -9 -13 -26 -5 -25 12 0 9 2 8 6 -1 2 -6 10 -9 15 -6z m24 -57 c3 -6 -5
-3 -20 6 -14 10 -26 19 -26 22 0 7 39 -17 46 -28z m-19 -25 c-3 -3 -12 -4 -19
-1 -8 3 -5 6 6 6 11 1 17 -2 13 -5z m31 -19 c-3 -3 -9 2 -12 12 -6 14 -5 15 5
6 7 -7 10 -15 7 -18z m-41 -27 c-9 -6 -9 -8 1 -8 6 0 12 -4 12 -8 0 -5 -6 -9
-13 -9 -14 0 -19 21 -11 47 4 13 6 13 14 0 6 -9 5 -17 -3 -22z m23 -52 c-1 -5
4 -12 10 -16 7 -4 8 -10 4 -13 -5 -3 -17 6 -28 20 -16 22 -17 25 -2 21 10 -1
16 -7 16 -12z m-25 -26 c3 -5 1 -10 -4 -10 -6 0 -11 5 -11 10 0 6 2 10 4 10 3
0 8 -4 11 -10z m40 -30 c3 -6 -1 -7 -9 -4 -18 7 -21 14 -7 14 6 0 13 -4 16
-10z m-35 -10 c0 -5 -4 -10 -10 -10 -5 0 -10 5 -10 10 0 6 5 10 10 10 6 0 10
-4 10 -10z m34 -72 c-3 -4 -11 -8 -19 -8 -9 0 -11 -7 -7 -22 3 -12 7 -17 10
-10 2 6 9 12 15 12 8 0 7 -4 -1 -12 -16 -16 -49 -17 -49 -1 0 7 4 13 8 13 4 0
6 8 4 18 -2 13 3 18 20 18 13 0 21 -4 19 -8z m-19 -116 c-3 -3 -11 0 -18 7 -9
10 -8 11 6 5 10 -3 15 -9 12 -12z m6 -55 c-10 -9 -11 -8 -5 6 3 10 9 15 12 12
3 -3 0 -11 -7 -18z"/>
<path d="M3100 4033 c-8 -3 -22 -11 -30 -19 -8 -7 -18 -13 -23 -13 -25 -2 -58
-15 -68 -27 -6 -8 -15 -11 -20 -8 -5 3 -8 0 -7 -8 2 -8 -6 -13 -19 -12 -13 1
-23 -4 -23 -12 0 -21 41 -63 55 -58 7 3 16 0 21 -7 5 -8 3 -10 -5 -4 -10 6
-11 3 -2 -11 19 -33 41 -58 46 -52 9 8 -6 38 -16 32 -5 -3 -9 0 -9 6 0 7 8 9
22 5 17 -6 20 -4 15 9 -4 10 -3 15 3 11 9 -6 14 8 11 28 0 4 4 7 10 7 6 0 8 9
4 21 -5 15 -4 19 4 15 6 -4 12 0 13 11 0 10 2 23 2 29 1 6 6 18 12 25 14 18
26 39 22 38 -2 0 -10 -3 -18 -6z m0 -17 c0 -2 -7 -7 -16 -10 -8 -3 -12 -2 -9
4 6 10 25 14 25 6z m-65 -36 c-3 -5 -12 -10 -18 -10 -7 0 -6 4 3 10 19 12 23
12 15 0z m38 -4 c4 -10 1 -13 -8 -9 -8 3 -12 9 -9 14 7 12 11 11 17 -5z m-71
-66 c5 0 6 -4 3 -10 -3 -5 -1 -10 6 -10 7 0 10 -2 7 -5 -8 -8 -39 6 -33 15 3
5 -1 15 -9 23 -8 8 -12 18 -8 21 4 4 11 -2 16 -13 5 -12 13 -21 18 -21z m-35
-16 c-3 -3 -12 -4 -19 -1 -8 3 -5 6 6 6 11 1 17 -2 13 -5z"/>
<path d="M1900 4020 c-8 -5 -13 -10 -10 -11 3 0 15 -2 28 -5 12 -2 22 1 22 7
0 5 -4 8 -9 5 -5 -4 -11 -2 -13 4 -2 6 -8 6 -18 0z"/>
<path d="M1946 4001 c-4 -6 -14 -10 -21 -9 -8 2 -15 -1 -17 -6 -2 -5 6 -10 17
-11 11 -1 25 -3 30 -5 22 -6 46 1 40 11 -4 6 -9 8 -13 5 -3 -3 -10 2 -17 11
-9 11 -14 13 -19 4z"/>
<path d="M2200 4000 c-20 -12 -10 -19 14 -10 11 3 15 9 10 13 -6 3 -16 2 -24
-3z"/>
<path d="M1991 3964 c-17 -9 -30 -10 -43 -3 -25 13 -40 3 -28 -19 5 -9 16 -34
24 -54 8 -21 21 -38 28 -38 10 0 10 2 -1 9 -11 7 -11 13 3 32 9 13 16 19 16
13 0 -5 -5 -15 -12 -22 -9 -9 -9 -12 0 -12 7 0 12 -9 12 -20 0 -18 2 -19 20
-8 11 7 20 20 19 28 0 10 -2 11 -6 3 -2 -7 -9 -13 -15 -13 -6 0 -5 6 2 15 8
10 17 12 24 6 12 -10 39 12 28 23 -3 4 2 4 13 0 15 -6 17 -4 12 10 -5 11 -3
15 4 10 7 -4 10 -1 7 7 -3 8 -12 14 -20 14 -8 0 -22 5 -29 11 -25 20 -34 21
-58 8z m33 -31 c8 -16 15 -22 16 -15 0 6 5 12 11 12 8 0 8 -4 0 -14 -7 -8 -21
-14 -32 -13 -11 1 -15 5 -10 10 14 14 1 36 -17 30 -15 -4 -15 -3 -2 6 20 14
17 15 34 -16z"/>
<path d="M2430 3957 c-4 -4 -67 -15 -93 -17 -5 0 -5 -5 -1 -12 4 -7 3 -8 -4
-4 -6 4 -22 1 -34 -6 -13 -6 -27 -13 -33 -14 -5 -1 -38 -18 -72 -39 -69 -41
-137 -110 -127 -127 4 -7 3 -8 -4 -4 -7 4 -16 -3 -21 -17 -6 -14 -14 -28 -19
-31 -20 -12 -71 -153 -80 -219 -7 -58 -6 -69 7 -78 14 -9 13 -10 -3 -5 -14 5
-17 3 -11 -11 4 -10 8 -24 8 -30 1 -20 7 -15 19 15 6 15 13 54 14 87 3 69 6
87 28 138 l15 37 36 -17 c31 -15 37 -15 45 -3 9 15 -6 43 -20 35 -4 -2 -12 6
-18 19 -9 20 -6 29 18 58 16 20 26 38 23 42 -3 3 -1 6 6 6 7 0 9 5 5 13 -4 6
-4 9 1 5 4 -4 20 2 36 13 l28 20 21 -21 c25 -25 55 -27 45 -2 -20 44 -11 66
35 89 52 26 93 26 98 1 2 -12 -9 -23 -35 -35 -21 -10 -40 -18 -42 -20 -2 -1 4
-20 13 -42 15 -39 15 -41 -6 -56 -13 -8 -27 -15 -32 -15 -5 0 -20 -10 -34 -22
l-24 -23 -27 33 -27 33 -18 -20 c-19 -20 -18 -21 6 -41 22 -17 48 -77 28 -65
-7 4 -34 -45 -28 -51 11 -10 100 100 90 112 -4 5 -3 6 2 2 5 -4 21 1 35 11 40
27 124 65 140 62 7 -1 11 2 8 6 -3 5 10 7 30 5 28 -4 34 -2 27 9 -6 11 -5 12
7 3 14 -11 37 -18 108 -29 87 -14 180 -93 227 -192 20 -42 27 -76 30 -133 6
-148 -51 -251 -179 -325 -41 -23 -48 -32 -45 -54 1 -15 -6 -43 -15 -64 -10
-20 -15 -42 -12 -47 3 -6 3 -10 -2 -10 -11 0 -34 -51 -27 -62 6 -10 18 -7 116
24 74 25 175 87 170 107 -1 7 1 10 6 7 16 -9 107 99 139 165 42 87 57 158 55
261 -2 89 -31 205 -55 220 -7 4 -8 8 -4 8 11 0 -34 80 -45 80 -4 0 -8 7 -8 16
0 8 -4 12 -10 9 -5 -3 -10 -1 -10 5 0 29 -180 167 -201 154 -5 -3 -9 -1 -9 5
0 17 -97 40 -194 47 -50 3 -93 4 -96 1z m110 -37 c42 0 50 -10 43 -56 -5 -29
-2 -33 31 -44 24 -8 36 -18 36 -30 0 -25 -17 -29 -79 -17 l-53 11 5 37 c4 27
0 38 -14 47 -26 17 -31 15 -29 -10 6 -69 2 -76 -42 -83 -24 -4 -49 -11 -57
-15 -19 -10 -43 14 -35 34 3 9 18 19 33 23 33 8 41 19 41 64 0 34 3 37 35 43
19 4 36 12 36 19 1 7 3 4 6 -5 3 -13 15 -18 43 -18z m141 -22 c19 -6 47 -21
62 -32 25 -18 27 -25 22 -57 -8 -44 5 -56 30 -29 24 27 34 25 75 -10 19 -16
39 -30 43 -30 5 0 5 -4 2 -10 -3 -5 1 -10 10 -10 9 0 14 -4 10 -9 -3 -5 -1
-12 5 -16 6 -3 9 -19 8 -35 -1 -16 -6 -27 -10 -24 -4 3 -16 -1 -27 -8 -15 -9
-17 -16 -10 -30 8 -14 14 -16 29 -8 53 28 84 -12 91 -120 l4 -55 -35 -5 c-32
-5 -36 -10 -31 -39 0 -6 16 -11 34 -13 30 -3 32 -5 30 -38 -3 -43 -32 -138
-44 -145 -4 -3 -22 1 -38 10 -28 14 -31 14 -40 -3 -8 -15 -4 -22 20 -36 16 -9
29 -21 29 -26 0 -18 -117 -136 -131 -132 -8 2 -21 14 -30 25 -9 11 -21 17 -27
13 -11 -6 -5 -46 7 -46 4 0 8 -7 8 -15 0 -17 -88 -63 -127 -67 -19 -2 -26 2
-28 19 -3 17 3 24 22 29 34 8 53 31 38 46 -22 22 -12 52 23 75 56 36 74 38
102 11 l25 -23 19 24 20 25 -31 24 c-18 14 -27 28 -22 31 5 3 21 30 36 59 29
57 27 56 74 43 17 -5 32 -7 32 -3 0 4 3 17 6 29 5 20 2 22 -37 25 l-44 3 3 58
c3 39 0 57 -8 57 -7 0 -6 5 4 15 8 8 21 15 30 15 8 0 18 5 21 10 4 6 11 8 16
5 11 -7 12 25 1 43 -6 9 -16 10 -34 3 -32 -12 -38 -7 -75 58 l-31 54 25 21
c21 19 23 25 14 50 -9 23 -14 26 -26 16 -8 -7 -12 -16 -9 -21 3 -5 2 -9 -3 -8
-4 1 -16 -1 -26 -6 -12 -5 -30 1 -57 19 -22 14 -44 26 -50 26 -5 0 -9 15 -7
34 1 19 5 32 8 30 4 -2 9 3 13 11 7 18 -38 50 -55 39 -8 -4 -9 -3 -5 4 4 7 2
12 -3 12 -12 0 -15 33 -4 43 9 9 15 9 54 -5z"/>
<path d="M1971 3824 c0 -11 3 -14 6 -6 3 7 2 16 -1 19 -3 4 -6 -2 -5 -13z"/>
<path d="M3969 3698 c4 -31 6 -36 9 -18 2 14 8 30 13 36 10 12 2 24 -15 24 -8
0 -10 -15 -7 -42z"/>
<path d="M1750 3720 c0 -5 4 -10 9 -10 5 0 28 -20 52 -45 43 -45 68 -56 71
-32 6 49 18 78 30 71 6 -4 8 -2 5 3 -4 6 -25 10 -47 9 -23 -1 -43 1 -46 6 -3
4 -13 8 -22 8 -13 0 -13 -2 4 -14 10 -8 16 -18 11 -22 -4 -4 -7 -2 -7 4 0 7
-9 12 -20 12 -11 0 -20 5 -20 10 0 6 -4 10 -10 10 -5 0 -10 -4 -10 -10z m124
-40 c-5 -5 -9 -6 -35 -9 -5 0 -7 -6 -3 -13 4 -7 3 -8 -5 -4 -17 11 5 35 29 33
11 -1 17 -4 14 -7z"/>
<path d="M3143 3723 c-24 -2 -44 -10 -47 -19 -3 -7 -1 -14 4 -14 6 0 10 5 10
11 0 6 7 4 15 -5 17 -17 20 -36 4 -36 -5 0 -7 5 -4 10 3 6 -1 10 -9 10 -20 0
-20 0 0 -39 16 -31 17 -32 34 -14 9 10 29 28 44 41 24 20 28 51 5 36 -5 -3 -6
-10 -3 -16 5 -7 2 -8 -6 -3 -8 5 -11 4 -6 -3 3 -6 1 -14 -6 -18 -7 -4 -10 -4
-6 1 4 4 3 16 -3 26 -8 15 -6 17 7 12 13 -5 15 -3 9 7 -5 9 -4 11 3 6 7 -4 12
-2 12 3 0 6 -3 10 -7 9 -5 -1 -27 -3 -50 -5z"/>
<path d="M3210 3720 c0 -6 7 -10 15 -10 8 0 15 2 15 4 0 2 -7 6 -15 10 -8 3
-15 1 -15 -4z"/>
<path d="M2438 3673 c-17 -4 -14 -33 4 -33 5 0 6 5 2 12 -5 7 -2 9 9 5 11 -4
14 -2 10 9 -3 7 -6 13 -7 13 0 -1 -9 -3 -18 -6z"/>
<path d="M2541 3661 c-11 -7 -9 -10 8 -16 26 -8 49 4 30 16 -17 11 -21 11 -38
0z"/>
<path d="M2375 3640 c3 -5 0 -7 -9 -4 -26 10 -37 -5 -19 -26 13 -14 20 -17 30
-8 16 13 17 48 2 48 -5 0 -7 -4 -4 -10z"/>
<path d="M2455 3630 c-3 -5 -1 -10 4 -10 6 0 11 5 11 10 0 6 -2 10 -4 10 -3 0
-8 -4 -11 -10z"/>
<path d="M2610 3605 c0 -30 16 -41 23 -15 8 29 33 24 58 -12 13 -17 18 -29 12
-25 -6 4 -16 0 -23 -8 -11 -13 -7 -15 29 -15 22 0 41 2 41 5 0 2 -18 23 -39
45 -48 51 -101 64 -101 25z"/>
<path d="M2285 3590 c-18 -19 -17 -20 3 -20 15 0 22 6 22 20 0 11 -2 20 -3 20
-2 0 -12 -9 -22 -20z"/>
<path d="M2468 3583 c-10 -2 -18 -12 -18 -21 0 -14 2 -15 9 -3 8 12 11 9 16
-12 4 -15 11 -27 17 -27 5 0 7 -4 4 -9 -6 -9 79 -91 94 -91 4 0 7 -7 7 -16 0
-12 -5 -10 -19 7 -11 13 -6 1 9 -28 18 -32 32 -48 37 -42 6 5 3 14 -8 22 -16
12 -16 14 -2 14 9 0 16 -4 16 -9 0 -5 5 -6 10 -3 6 3 10 -1 10 -9 0 -8 -5 -18
-10 -21 -6 -4 -7 -11 -4 -17 4 -7 2 -8 -4 -4 -7 4 -12 1 -12 -8 0 -9 5 -16 11
-16 6 0 8 -9 4 -21 -6 -19 -5 -20 7 -8 8 7 13 21 10 31 -3 12 1 18 11 18 17 0
28 39 23 80 -2 14 -4 32 -5 41 0 9 -12 22 -25 29 -14 7 -28 20 -31 28 -5 13
-3 13 11 1 15 -12 17 -12 12 1 -7 23 -31 23 -55 1 -20 -19 -21 -19 -32 5 -6
13 -6 24 -2 24 5 0 11 -7 13 -16 3 -14 6 -14 28 5 14 11 19 20 12 21 -7 0 -10
5 -6 11 4 7 1 10 -7 7 -8 -3 -13 -14 -11 -24 2 -15 1 -16 -7 -5 -5 8 -8 23 -5
34 2 11 1 17 -3 14 -3 -4 -15 -2 -25 4 -29 15 -50 -7 -25 -25 21 -16 22 -33 3
-33 -8 0 -12 6 -8 15 3 9 1 13 -5 9 -7 -5 -10 2 -8 18 2 20 0 23 -12 14 -11
-9 -12 -8 -7 5 3 9 5 15 3 15 -2 -1 -12 -3 -21 -6z m87 -113 c-3 -5 -1 -10 6
-10 7 0 10 -3 6 -6 -9 -9 -28 6 -22 17 4 5 8 9 11 9 3 0 2 -4 -1 -10z m43 -35
c-3 -3 -9 2 -12 12 -6 14 -5 15 5 6 7 -7 10 -15 7 -18z m27 -4 c3 -5 2 -12 -3
-15 -5 -3 -9 1 -9 9 0 17 3 19 12 6z m45 -41 c0 -5 -4 -10 -10 -10 -5 0 -10 5
-10 10 0 6 5 10 10 10 6 0 10 -4 10 -10z m5 -30 c3 -5 1 -10 -4 -10 -6 0 -11
5 -11 10 0 6 2 10 4 10 3 0 8 -4 11 -10z"/>
<path d="M2380 3569 c0 -5 3 -8 8 -7 4 1 17 -3 29 -10 18 -10 21 -9 19 5 -3
17 -56 29 -56 12z"/>
<path d="M2455 3530 c3 -5 8 -10 11 -10 2 0 4 5 4 10 0 6 -5 10 -11 10 -5 0
-7 -4 -4 -10z"/>
<path d="M2042 3518 c-7 -7 -12 -18 -12 -25 0 -20 33 0 36 21 3 19 -7 21 -24
4z"/>
<path d="M2747 3504 c-3 -3 -3 -13 0 -22 3 -12 2 -13 -4 -5 -5 8 -14 9 -23 3
-13 -8 -12 -12 4 -27 13 -12 16 -13 10 -3 -6 12 -5 13 7 3 22 -18 41 -1 33 30
-6 26 -15 33 -27 21z"/>
<path d="M1827 3483 c-4 -3 -7 -11 -7 -17 0 -6 5 -5 12 2 6 6 9 14 7 17 -3 3
-9 2 -12 -2z"/>
<path d="M984 3468 c-3 -5 -10 -6 -15 -3 -5 4 -9 -6 -9 -20 0 -14 4 -24 9 -20
5 3 12 1 16 -5 3 -5 0 -10 -8 -10 -12 0 -15 -29 -15 -169 -1 -155 0 -169 16
-166 9 2 17 4 17 5 0 1 8 3 18 5 23 4 35 15 17 15 -8 0 -9 4 -3 13 6 6 9 32 8
57 -2 25 -4 55 -4 68 -1 15 -5 21 -13 17 -7 -4 -6 -1 3 7 20 17 23 74 3 82 -8
3 -14 11 -14 18 0 9 3 9 10 -2 5 -8 12 -11 16 -7 4 4 -1 16 -11 27 -17 19 -18
20 -1 14 13 -5 17 -2 14 12 -2 11 -10 24 -18 31 -10 8 -11 12 -3 13 18 0 5 27
-13 27 -8 0 -17 -4 -20 -9z m27 -45 c13 -16 12 -17 -3 -4 -10 7 -18 15 -18 17
0 8 8 3 21 -13z m-11 -33 c0 -5 -5 -10 -11 -10 -5 0 -7 5 -4 10 3 6 8 10 11
10 2 0 4 -4 4 -10z m7 -70 c-1 -21 -12 -26 -22 -10 -3 6 -1 10 5 10 6 0 8 5 5
10 -3 6 -2 10 4 10 5 0 9 -9 8 -20z m-1 -127 c7 -10 13 -22 13 -28 0 -5 -4 -2
-10 8 -8 14 -14 15 -24 7 -10 -9 -13 -7 -10 7 5 24 4 23 11 23 4 0 13 -8 20
-17z m-6 -40 c0 -5 -5 -15 -10 -23 -7 -12 -9 -10 -7 8 1 19 17 33 17 15z"/>
<path d="M1773 3465 c-14 -10 -20 -22 -16 -33 5 -14 4 -14 -9 2 -14 18 -17 17
-81 -12 -37 -17 -67 -34 -67 -37 0 -4 16 -4 36 -2 27 4 34 2 30 -9 -3 -8 -1
-14 4 -14 6 0 10 6 10 14 0 21 18 30 34 17 10 -8 17 -7 26 4 7 8 16 12 21 9 8
-4 13 8 11 27 -1 3 5 6 13 6 11 0 10 -5 -2 -24 -12 -18 -13 -27 -4 -36 8 -8
11 -7 11 7 0 9 5 14 10 11 6 -4 8 -10 5 -15 -3 -4 1 -10 7 -13 7 -2 0 -4 -16
-4 -20 0 -30 5 -33 18 -3 10 -9 16 -14 13 -5 -3 -5 -12 0 -22 4 -9 6 -22 4
-28 -5 -13 24 -27 39 -18 5 3 18 -2 30 -12 19 -18 20 -18 17 1 -2 11 -8 23
-13 27 -6 4 -4 13 3 22 8 9 9 16 4 16 -5 0 -7 14 -5 31 4 24 2 30 -8 24 -8 -5
-11 -4 -7 3 8 11 -1 42 -12 42 -4 0 -16 -7 -28 -15z"/>
<path d="M3164 3469 c15 -9 16 -13 5 -21 -11 -8 -11 -11 -1 -15 10 -4 10 -8 1
-19 -14 -17 -5 -18 22 -4 13 7 19 7 19 0 0 -5 -5 -10 -11 -10 -6 0 -9 -7 -5
-15 4 -12 2 -13 -13 -6 -13 8 -18 6 -18 -5 0 -7 4 -14 9 -14 5 0 4 -9 -1 -19
-9 -15 -7 -20 9 -24 18 -5 25 3 21 25 0 4 6 5 14 2 8 -4 12 -10 9 -15 -3 -5 0
-9 5 -9 6 0 11 5 11 10 0 6 7 10 16 10 8 0 12 5 9 10 -4 6 -11 7 -17 4 -7 -4
-8 -2 -4 5 4 6 13 9 19 5 7 -3 4 1 -6 9 -14 11 -15 16 -5 20 10 4 9 6 -2 7
-15 1 -68 60 -55 60 4 0 16 -11 27 -25 23 -29 40 -33 32 -7 -4 13 -2 12 7 -3
7 -11 17 -23 23 -27 8 -5 7 -8 -1 -8 -7 0 -13 -5 -13 -11 0 -5 4 -8 9 -5 5 4
7 -3 4 -14 -7 -28 10 -25 23 4 8 17 8 28 1 35 -7 7 -3 9 11 8 11 0 18 -5 16
-9 -3 -4 0 -16 5 -25 6 -11 11 -13 11 -5 0 7 4 10 10 7 6 -4 7 1 3 12 -6 16
-5 16 10 4 9 -7 17 -9 17 -4 0 10 -82 46 -96 43 -4 -1 -10 4 -14 10 -4 7 -19
13 -34 13 -14 0 -23 3 -20 8 3 5 2 9 -3 10 -4 0 -24 2 -43 4 -29 4 -32 3 -16
-6z"/>
<path d="M2210 3453 c-87 -30 -129 -74 -161 -166 -24 -68 -24 -121 1 -171 20
-42 62 -96 74 -96 4 0 23 -12 42 -26 18 -14 41 -24 49 -20 8 3 15 0 15 -7 0
-7 41 -25 93 -41 50 -16 97 -32 102 -36 30 -19 66 19 79 86 7 31 7 31 -50 42
-31 7 -61 9 -67 5 -6 -3 -7 -1 -3 5 4 7 1 12 -9 12 -30 0 -90 39 -114 74 -20
30 -23 45 -19 92 6 75 42 97 127 76 25 -7 70 -15 99 -18 49 -6 52 -5 52 15 0
12 -7 24 -15 27 -8 4 -13 10 -10 14 7 11 -35 61 -46 54 -5 -3 -8 0 -7 6 3 13
-40 50 -63 53 -8 2 -20 7 -28 11 -16 10 -118 17 -141 9z"/>
<path d="M2760 3431 c0 -6 4 -12 8 -15 11 -6 9 -36 -2 -55 -6 -9 -4 -12 5 -9
21 7 25 88 5 88 -9 0 -16 -4 -16 -9z"/>
<path d="M1693 3370 c1 -10 3 -17 6 -15 2 3 10 0 17 -6 15 -12 37 -3 28 12 -3
5 -9 7 -14 4 -4 -3 -10 2 -14 10 -8 22 -25 18 -23 -5z"/>
<path d="M2734 3375 c-14 -10 -16 -17 -8 -25 7 -7 15 -5 28 9 21 23 6 36 -20
16z"/>
<path d="M3971 3344 c0 -11 3 -14 6 -6 3 7 2 16 -1 19 -3 4 -6 -2 -5 -13z"/>
<path d="M3993 3315 c3 -21 2 -33 -4 -30 -5 4 -9 14 -9 23 0 15 -2 15 -10 2
-12 -20 2 -33 39 -36 28 -2 30 0 29 35 0 32 -4 37 -25 39 -24 2 -25 0 -20 -33z"/>
<path d="M2761 3328 c3 -25 -1 -39 -10 -34 -5 3 -14 -1 -21 -9 -7 -8 -16 -12
-21 -9 -15 9 -23 -28 -10 -48 7 -12 8 -17 2 -13 -6 3 -11 -1 -11 -9 0 -25 17
-19 39 13 23 32 28 56 9 45 -7 -4 -8 -3 -4 4 4 7 14 12 22 12 8 0 15 3 15 8 6
33 5 52 -3 52 -5 0 -8 -6 -7 -12z m-46 -67 c3 -5 2 -12 -3 -15 -5 -3 -9 1 -9
9 0 17 3 19 12 6z"/>
<path d="M3973 3210 c-1 -36 2 -48 10 -43 7 3 3 -3 -7 -15 -17 -20 -17 -22 -2
-22 9 0 22 11 28 25 6 14 18 25 25 25 10 0 13 11 11 38 -3 33 -6 37 -34 40
-30 3 -30 3 -31 -48z m44 0 c-1 -12 -5 -16 -10 -11 -5 5 -6 14 -3 20 11 16 15
13 13 -9z"/>
<path d="M2640 3185 c0 -9 9 -15 21 -15 18 0 19 2 9 15 -7 8 -16 15 -21 15 -5
0 -9 -7 -9 -15z"/>
<path d="M3123 3174 c4 -4 0 -18 -9 -32 -14 -22 -14 -26 -1 -40 9 -8 31 -16
49 -17 18 -1 44 -6 58 -10 25 -8 25 -8 6 10 -12 12 -30 18 -47 17 -15 -2 -30
1 -33 6 -3 6 2 8 13 5 10 -3 22 1 27 8 5 9 2 11 -9 6 -9 -3 -16 -3 -16 1 3 20
-2 25 -12 12 -8 -12 -9 -11 -4 6 4 15 0 24 -12 28 -10 4 -14 4 -10 0z"/>
<path d="M1812 3125 c-23 -24 -45 -44 -48 -44 -3 0 -9 -3 -12 -7 -4 -4 7 -3
23 1 17 5 56 8 87 8 33 -1 55 3 52 8 -3 5 -9 7 -14 4 -4 -3 -6 5 -2 17 3 14 1
19 -6 14 -6 -3 -12 3 -14 16 -5 35 -20 31 -66 -17z"/>
<path d="M4019 3163 c-1 -5 -1 -11 -1 -14 1 -4 -12 -13 -29 -22 -28 -13 -29
-16 -15 -30 9 -9 16 -26 15 -39 -1 -23 -1 -23 -10 2 -7 20 -8 17 -6 -17 1 -24
0 -43 -3 -43 -3 0 -5 -11 -5 -25 0 -14 3 -25 8 -25 4 0 6 -6 5 -12 -2 -9 7
-12 26 -10 18 3 26 0 21 -7 -3 -6 -17 -9 -31 -7 -22 4 -23 2 -18 -21 4 -15 3
-24 -2 -20 -6 3 -10 -3 -10 -13 0 -10 5 -16 10 -13 5 4 6 1 0 -8 -13 -22 -6
-97 12 -124 15 -23 15 -25 0 -25 -9 0 -16 -5 -16 -11 0 -5 6 -7 13 -3 10 6 10
4 0 -7 -7 -7 -13 -21 -13 -32 0 -11 5 -17 13 -14 6 2 11 12 11 21 -2 20 10 21
25 2 8 -9 8 -16 2 -20 -5 -4 -8 -15 -6 -26 2 -12 0 -18 -5 -15 -5 3 -13 -3
-19 -12 -6 -10 -11 -13 -11 -7 0 6 7 17 15 24 17 14 11 32 -9 24 -8 -3 -13
-19 -13 -37 1 -18 -2 -40 -6 -50 -3 -9 -2 -17 4 -17 6 0 7 -6 2 -12 -9 -15 -5
-56 8 -80 7 -14 6 -18 -6 -18 -8 0 -15 -4 -15 -10 0 -5 4 -10 9 -10 5 0 8 -11
5 -25 -2 -14 0 -25 6 -25 6 0 8 5 5 10 -3 6 1 10 9 10 9 0 16 5 16 10 0 6 -5
10 -11 10 -8 0 -8 5 1 15 37 44 31 -12 -7 -63 -18 -24 -24 -45 -25 -83 0 -28
2 -53 5 -55 3 -3 1 -20 -3 -39 -4 -19 -5 -33 -1 -31 4 3 13 1 21 -5 12 -7 11
-9 -5 -9 -16 0 -17 -2 -6 -9 12 -8 12 -11 -1 -24 -15 -16 -13 -87 3 -87 5 0 9
6 9 13 0 8 3 7 10 -3 9 -14 -6 -33 -20 -25 -12 8 -10 -68 3 -84 9 -12 9 -13 0
-7 -10 5 -13 -3 -13 -29 0 -35 1 -36 33 -33 l32 3 2 113 c2 88 0 111 -10 106
-7 -5 -6 0 3 11 13 17 13 18 0 10 -13 -8 -13 -7 -1 8 12 15 9 21 -10 19 -3 -1
-6 6 -6 14 0 8 6 13 13 10 15 -6 15 85 -1 96 -6 5 -4 8 5 8 13 0 13 1 0 10
-10 6 -11 10 -2 10 6 0 12 9 12 21 0 11 -4 17 -10 14 -6 -4 -10 7 -10 24 0 17
4 31 9 31 5 0 9 81 9 185 0 102 -4 182 -8 180 -5 -3 -12 -1 -15 5 -4 6 -1 9 7
8 7 -2 14 8 16 21 3 17 0 21 -10 15 -10 -6 -11 -5 -1 7 15 19 18 429 3 429 -5
0 -11 -3 -11 -7z m11 -63 c0 -5 -5 -10 -11 -10 -5 0 -7 5 -4 10 3 6 8 10 11
10 2 0 4 -4 4 -10z m0 -55 c0 -2 -6 -8 -13 -14 -10 -8 -14 -7 -14 2 0 8 6 14
14 14 7 0 13 -1 13 -2z m-6 -47 c-3 -5 -9 -6 -14 -3 -5 3 -13 -3 -19 -12 -9
-15 -10 -15 -11 -2 0 9 3 18 6 22 9 9 43 4 38 -5z m6 -32 c0 -2 -9 -6 -20 -9
-11 -3 -18 -1 -14 4 5 9 34 13 34 5z m-15 -115 c-6 -5 -25 10 -25 20 0 5 6 4
14 -3 8 -7 12 -15 11 -17z m7 -50 c-7 -4 -8 -12 -2 -21 14 -22 12 -33 -4 -18
-8 7 -12 16 -10 19 2 4 -3 9 -11 13 -17 6 -20 26 -4 26 5 0 7 -4 4 -10 -3 -5
-1 -10 5 -10 6 0 14 8 17 17 5 12 8 13 11 4 2 -7 0 -16 -6 -20z m-25 -313 c-3
-8 -6 -5 -6 6 -1 11 2 17 5 13 3 -3 4 -12 1 -19z m33 -29 c0 -30 -13 -36 -40
-19 -13 8 -13 11 -1 22 9 8 11 9 7 1 -3 -6 -2 -14 3 -17 12 -8 22 20 14 41 -4
11 -3 14 5 9 7 -4 12 -20 12 -37z m-39 -182 c-10 -9 -11 -8 -5 6 3 10 9 15 12
12 3 -3 0 -11 -7 -18z m4 -37 c-3 -5 -1 -11 5 -15 5 -3 10 -14 9 -23 0 -12 -4
-9 -11 8 -15 35 -18 51 -7 44 5 -3 7 -9 4 -14z m-1 -75 c-4 -10 0 -15 12 -16
13 0 14 -2 5 -6 -11 -5 -11 -7 0 -14 10 -6 10 -9 2 -9 -15 0 -36 37 -28 50 9
15 15 12 9 -5z m16 -125 c0 -5 -5 -10 -11 -10 -5 0 -7 5 -4 10 3 6 8 10 11 10
2 0 4 -4 4 -10z m-3 -115 c-7 -17 -27 -21 -27 -4 0 5 5 7 10 4 6 -3 10 2 10
11 0 10 3 15 6 11 4 -3 4 -13 1 -22z"/>
<path d="M3090 3090 c0 -5 7 -10 16 -10 8 0 12 5 9 10 -3 6 -10 10 -16 10 -5
0 -9 -4 -9 -10z"/>
<path d="M996 3073 c-4 -5 -13 -8 -19 -8 -7 0 -13 -20 -14 -50 -2 -40 -1 -45
7 -27 8 19 30 23 30 6 0 -3 -4 -2 -10 1 -5 3 -10 -3 -10 -14 0 -31 49 -25 57
7 6 27 -4 43 -16 23 -7 -10 -10 -9 -14 3 -5 11 0 16 14 16 13 0 19 6 17 16 -2
8 -7 14 -12 14 -5 -1 -12 3 -16 9 -3 6 -10 8 -14 4z m14 -22 c0 -5 -9 -11 -20
-14 -22 -6 -28 8 -7 16 19 8 27 8 27 -2z"/>
<path d="M962 2866 c0 -53 4 -96 9 -96 16 0 23 31 9 40 -7 5 -2 8 14 8 15 0
28 1 30 3 2 2 6 32 8 67 4 59 3 62 -18 62 -12 0 -29 3 -37 6 -12 4 -15 -10
-15 -90z m58 27 c0 -10 -4 -14 -8 -8 -4 6 -11 13 -16 18 -5 4 -2 7 7 7 10 0
17 -8 17 -17z m-30 -23 c-6 -4 -11 -10 -10 -14 1 -4 -1 -12 -3 -19 -3 -6 -6 0
-6 14 -1 29 7 41 21 32 6 -3 5 -8 -2 -13z"/>
<path d="M2010 2937 c-32 -16 -72 -77 -66 -99 2 -10 1 -16 -4 -13 -4 3 -11 -5
-14 -18 -25 -82 -36 -131 -32 -135 3 -2 1 -13 -5 -24 -16 -29 -21 -205 -7
-231 17 -33 99 -111 131 -125 34 -15 216 -31 373 -33 61 -1 124 -4 140 -7 19
-3 57 -33 107 -84 81 -82 107 -98 158 -98 22 0 28 4 23 13 -5 8 -2 7 9 -2 10
-8 20 -11 23 -8 8 7 -85 137 -97 137 -6 0 -8 4 -5 9 7 12 -59 92 -68 83 -4 -3
-5 0 -2 8 11 29 -54 60 -135 65 -189 12 -328 13 -333 1 -3 -7 -5 -7 -5 2 -1 6
-12 12 -25 12 -33 0 -40 15 -21 44 9 14 14 29 11 34 -3 6 1 15 9 22 26 21 18
73 -18 121 -48 64 -67 96 -67 113 0 36 32 17 110 -67 121 -129 117 -127 286
-127 l142 0 8 58 c4 31 8 62 9 67 0 6 -45 9 -121 8 -117 -2 -122 -1 -144 22
-13 13 -27 22 -32 19 -5 -3 -7 -1 -6 4 4 15 -84 112 -95 105 -6 -3 -7 -1 -3 5
3 6 0 14 -7 19 -7 4 -16 16 -20 26 -4 9 -14 20 -24 24 -9 4 -25 15 -36 26 -11
11 -27 17 -38 14 -10 -3 -17 -2 -14 3 2 4 -9 10 -26 14 -40 8 -40 8 -69 -7z"/>
<path d="M1312 2848 c2 -13 8 -26 13 -30 6 -5 5 -8 -3 -8 -7 0 -10 -5 -6 -12
4 -6 3 -8 -4 -4 -6 3 -13 2 -17 -4 -3 -5 -37 -10 -75 -10 -53 0 -69 -4 -74
-16 -10 -27 2 -33 70 -33 36 0 69 -3 72 -6 11 -11 30 -85 21 -79 -5 3 -9 -4
-9 -15 0 -19 -6 -21 -64 -21 -78 0 -96 -6 -96 -32 0 -17 5 -20 29 -16 18 3 27
0 24 -5 -4 -6 8 -7 31 -3 44 8 76 0 76 -20 0 -8 7 -14 15 -14 8 0 15 -4 15
-10 0 -5 -7 -7 -15 -4 -21 8 -20 -30 1 -47 14 -11 18 -10 30 6 8 10 14 22 14
27 0 4 23 8 50 8 28 0 50 4 50 10 0 5 7 6 17 3 11 -4 14 -3 9 5 -4 8 -2 10 7
6 9 -3 22 5 34 21 36 52 61 76 68 65 3 -5 19 -10 34 -10 35 0 75 -37 78 -70 6
-91 6 -90 36 -90 28 0 29 2 24 38 -13 96 -20 113 -59 148 -27 25 -83 45 -102
38 -19 -7 -46 23 -46 52 0 14 -4 22 -10 19 -5 -3 -10 2 -10 12 0 29 -60 63
-111 63 -51 0 -65 7 -70 35 -3 12 -14 21 -27 23 -20 3 -23 0 -20 -20z"/>
<path d="M1004 2795 c4 -10 -3 -20 -19 -27 -27 -12 -34 -48 -10 -48 17 0 20
-16 6 -24 -5 -4 -11 0 -14 6 -2 7 -4 -27 -5 -77 0 -49 2 -84 4 -78 4 10 9 10
20 -1 19 -20 18 -25 -6 -19 -14 4 -20 0 -20 -11 0 -9 6 -16 13 -16 9 0 8 -3
-2 -9 -11 -7 -11 -9 0 -14 10 -4 10 -6 2 -6 -7 -1 -13 -13 -13 -27 0 -17 4
-23 13 -18 8 5 7 2 -2 -9 -8 -10 -10 -21 -6 -25 4 -4 10 -1 12 6 3 6 11 12 19
12 11 0 12 -4 2 -19 -6 -10 -18 -17 -25 -14 -7 3 -13 -2 -13 -12 0 -9 5 -13
10 -10 6 3 10 -1 10 -10 0 -9 -4 -13 -10 -10 -5 3 -10 -1 -10 -9 0 -8 4 -17 9
-20 12 -8 21 -46 11 -46 -5 0 -11 10 -13 23 -2 12 -5 0 -6 -26 0 -30 3 -46 9
-42 6 3 10 1 10 -4 0 -6 -4 -11 -10 -11 -5 0 -10 -7 -10 -15 0 -24 24 -12 32
15 6 22 6 22 5 -6 -1 -17 5 -39 12 -48 12 -14 10 -16 -15 -15 -16 0 -23 3 -16
6 17 7 15 23 -3 23 -12 0 -15 -14 -14 -70 1 -49 5 -68 13 -63 8 5 7 2 -1 -8
-14 -18 -17 -208 -3 -210 36 -4 55 -1 53 9 -2 7 2 12 8 12 8 0 8 4 0 13 -8 10
-7 17 2 27 10 10 9 12 -5 7 -20 -7 -25 17 -6 29 7 5 8 2 3 -7 -5 -8 -4 -11 1
-6 10 9 14 58 4 52 -3 -2 -12 0 -20 6 -13 7 -12 9 3 9 9 0 17 3 18 8 0 4 2 18
4 32 1 14 -2 31 -7 38 -6 6 -7 12 -2 12 5 0 10 14 11 30 1 17 -1 29 -5 26 -6
-4 -8 50 -2 57 8 8 6 147 -2 147 -6 0 -5 6 1 14 9 11 9 20 2 34 -6 11 -7 22
-4 26 13 13 10 47 -4 42 -10 -4 -11 -1 -3 14 7 13 7 21 -2 26 -7 4 -8 3 -4 -4
4 -7 5 -12 2 -12 -3 0 -10 9 -16 20 -8 16 -8 18 4 14 20 -8 29 12 15 37 -6 12
-12 40 -13 63 -1 23 -7 40 -13 39 -6 -1 -10 9 -10 23 0 23 1 23 13 7 13 -16
14 -11 14 42 -1 33 1 72 4 88 2 15 0 27 -6 27 -6 0 -7 -7 -4 -15z m-7 -205 c1
-11 0 -20 -2 -20 -2 0 -9 9 -15 20 -8 15 -8 20 3 20 7 0 13 -9 14 -20z m15
-260 c-20 -24 -27 -19 -13 8 6 11 7 23 3 28 -4 5 1 3 10 -4 15 -12 15 -15 0
-32z m11 -81 c-8 -8 -13 -7 -18 2 -5 8 -4 10 3 5 7 -4 12 -2 12 5 0 7 3 9 7 6
4 -4 2 -12 -4 -18z m-33 -180 c0 -6 -4 -7 -10 -4 -5 3 -10 11 -10 16 0 6 5 7
10 4 6 -3 10 -11 10 -16z m13 -41 c-4 -18 -3 -20 6 -8 8 12 10 11 9 -7 -1 -12
-7 -19 -15 -16 -14 5 -18 35 -6 46 10 11 11 8 6 -15z m-13 -52 c0 -3 -4 -8
-10 -11 -5 -3 -10 -1 -10 4 0 6 5 11 10 11 6 0 10 -2 10 -4z m16 -136 c0 -11
-4 -20 -8 -20 -4 0 -8 9 -8 20 0 11 4 20 8 20 4 0 8 -9 8 -20z"/>
<path d="M2779 2696 c-59 -46 -66 -59 -65 -116 1 -47 22 -49 77 -7 24 19 57
37 72 41 15 3 25 11 22 16 -3 5 0 7 8 4 10 -3 17 4 22 23 4 17 2 29 -4 31 -6
2 -8 8 -5 13 10 16 -17 39 -45 39 -16 0 -48 -17 -82 -44z"/>
<path d="M2981 2556 c-12 -12 -18 -26 -14 -29 3 -4 1 -7 -5 -7 -18 0 -35 -77
-22 -98 9 -13 10 -13 7 -1 -3 9 -1 22 4 30 6 9 7 0 4 -26 -4 -38 12 -108 24
-100 3 1 7 -10 7 -27 1 -17 5 -33 10 -37 5 -3 9 -10 10 -16 1 -21 16 -65 23
-65 3 0 12 4 19 9 12 7 11 18 -4 65 -10 31 -21 56 -26 56 -4 0 -5 6 -2 14 3 7
-2 30 -10 51 -9 20 -13 41 -10 46 12 20 38 6 105 -58 40 -38 76 -67 81 -65 5
1 7 -2 4 -7 -8 -13 63 -73 80 -67 7 3 16 1 19 -4 4 -6 14 -10 24 -10 27 0 107
-83 136 -140 28 -54 35 -144 16 -193 -14 -37 -4 -40 106 -35 99 4 143 21 157
59 13 37 -1 95 -28 121 -34 32 -104 92 -151 128 -22 17 -58 46 -80 65 -22 19
-46 35 -54 35 -8 0 -11 3 -8 6 9 9 -75 74 -87 67 -5 -3 -6 -1 -2 5 10 16 -15
27 -26 11 -8 -11 -9 -11 -5 3 6 17 -18 41 -103 108 -25 19 -46 38 -48 42 -2 4
-8 8 -13 8 -5 0 -26 15 -45 33 -51 45 -68 50 -93 23z m-6 -66 c3 -5 1 -10 -4
-10 -6 0 -11 5 -11 10 0 6 2 10 4 10 3 0 8 -4 11 -10z"/>
<path d="M1538 2343 c-9 -3 -20 -13 -24 -25 -4 -14 -9 -17 -16 -10 -8 8 -15 7
-23 -1 -7 -7 -22 -19 -34 -27 -11 -8 -21 -20 -21 -27 0 -7 -5 -13 -12 -13 -6
0 -3 -6 7 -14 19 -13 18 -14 -5 -9 -18 3 -29 -2 -38 -17 -11 -18 -11 -21 0
-15 7 3 4 -1 -6 -9 -16 -13 -17 -16 -4 -16 8 0 22 8 29 18 13 15 13 15 3 -3
-6 -11 -21 -21 -33 -23 -22 -3 -39 -27 -28 -38 13 -13 87 43 87 66 0 5 5 10
10 10 6 0 10 7 10 16 0 8 5 12 10 9 6 -3 10 -1 10 5 0 6 5 8 12 4 8 -5 9 -2 5
9 -4 10 -1 17 6 18 38 2 64 12 82 31 l20 21 -30 -18 -30 -18 19 21 c21 24 46
29 46 10 0 -6 7 -3 15 8 14 19 14 19 9 -1 -4 -17 0 -21 20 -21 13 0 22 4 20 8
-3 4 -1 8 5 8 5 0 11 -4 13 -10 2 -5 13 -7 25 -4 13 4 20 10 17 15 -3 5 -1 9
4 9 6 0 13 -7 16 -16 3 -8 2 -12 -4 -9 -6 3 -10 1 -10 -4 0 -6 11 -11 25 -11
14 0 25 -5 25 -11 0 -5 5 -7 11 -3 6 3 9 14 6 24 -3 13 0 17 9 13 10 -4 11
-10 4 -23 -13 -24 -13 -33 0 -25 6 3 10 -1 10 -9 0 -18 38 -32 52 -18 6 6 7
15 4 21 -10 15 -36 14 -36 -1 0 -9 -3 -8 -9 2 -11 16 -4 33 10 25 5 -4 9 -1 9
4 0 6 -4 11 -8 11 -5 0 -18 9 -30 20 -21 20 -21 20 -35 -1 -12 -17 -15 -17
-20 -5 -4 9 -1 15 5 13 23 -5 17 20 -8 32 -25 11 -162 13 -206 4z m142 -25
c10 -21 10 -21 -3 -6 -8 10 -18 14 -22 10 -5 -4 -5 -1 -1 6 10 17 14 15 26
-10z m-125 3 c-9 -8 -36 -10 -30 -2 2 4 11 8 20 8 8 0 13 -3 10 -6z m82 -23
c-3 -8 -6 -5 -6 6 -1 11 2 17 5 13 3 -3 4 -12 1 -19z m-143 -23 c3 -8 1 -15
-4 -15 -6 0 -10 7 -10 15 0 8 2 15 4 15 2 0 6 -7 10 -15z m-34 -19 c0 -2 -6
-9 -13 -15 -10 -8 -14 -7 -14 4 0 8 6 15 14 15 7 0 13 -2 13 -4z"/>
<path d="M1857 2204 c-3 -3 -1 -14 6 -25 8 -12 15 -15 23 -8 8 7 14 6 19 -1 3
-5 1 -10 -4 -10 -13 0 -10 -22 3 -32 5 -3 17 -1 27 5 17 11 16 14 -13 44 -31
32 -48 40 -61 27z"/>
<path d="M1934 2125 c-10 -8 -14 -15 -9 -15 6 0 3 -5 -5 -11 -12 -9 -11 -10 8
-6 14 3 22 0 22 -9 0 -8 -6 -11 -17 -7 -15 5 -14 3 2 -10 11 -9 15 -17 9 -17
-8 0 -12 -61 -5 -89 1 -2 8 2 16 9 20 17 19 34 -1 26 -13 -5 -14 -4 -6 7 7 8
11 16 9 18 -1 2 3 -1 9 -8 6 -7 13 -11 16 -8 2 3 4 -5 4 -18 -1 -15 4 -21 16
-19 9 1 20 -3 24 -9 4 -8 3 -9 -5 -5 -19 12 -44 -14 -30 -30 9 -11 8 -14 -1
-14 -8 0 -10 -3 -6 -7 4 -4 16 3 27 17 11 14 18 18 17 10 -2 -8 -9 -21 -16
-29 -11 -11 -11 -15 0 -22 8 -5 9 -9 2 -9 -6 0 -17 7 -24 15 -12 14 -15 12
-31 -12 -11 -15 -19 -22 -19 -15 0 7 -5 10 -12 6 -7 -4 -8 -3 -4 5 4 6 11 9
16 6 12 -8 34 34 35 68 1 32 1 32 -24 10 -15 -12 -17 -21 -10 -40 5 -14 5 -23
-1 -23 -6 0 -10 6 -11 13 0 6 -4 1 -10 -11 -5 -13 -7 -28 -4 -32 3 -5 -1 -10
-7 -13 -7 -2 28 -3 77 -3 50 1 93 6 98 11 4 6 10 5 16 -4 5 -8 11 -9 15 -3 3
6 -3 13 -14 17 -22 7 -26 20 -10 30 6 4 9 1 8 -6 -2 -7 5 -15 15 -17 11 -2 17
3 17 13 0 9 -4 14 -8 11 -4 -2 -8 11 -8 30 0 19 5 34 11 34 5 0 3 5 -5 10 -12
8 -9 10 12 10 15 0 33 8 40 19 12 16 15 17 27 3 12 -13 12 -14 0 -10 -18 6
-36 -12 -36 -35 0 -11 6 -16 14 -13 7 3 13 1 13 -4 0 -6 -8 -10 -17 -10 -10 0
-14 -4 -8 -8 6 -4 16 -17 23 -29 10 -19 10 -23 -1 -23 -8 0 -14 -6 -14 -14 0
-12 16 -14 37 -6 15 7 57 4 73 -3 16 -7 18 -6 12 13 -5 16 -3 21 6 18 8 -3 15
-10 15 -16 3 -25 5 -26 18 -10 11 15 16 15 39 3 36 -19 38 -19 48 -3 5 7 9 8
9 2 0 -15 40 -10 50 6 4 7 7 21 5 31 -2 10 1 22 7 25 7 4 8 2 4 -4 -13 -21 15
-12 35 11 l18 22 -1 -27 c-1 -15 -5 -25 -9 -22 -4 2 -15 1 -24 -2 -13 -5 -14
-8 -3 -15 10 -7 9 -9 -4 -9 -10 0 -18 -5 -18 -11 0 -5 5 -7 10 -4 6 4 17 1 25
-5 12 -10 15 -8 16 11 1 17 3 19 6 7 5 -21 14 -23 32 -5 10 10 15 9 25 -5 15
-20 50 -24 43 -5 -2 6 0 22 4 35 5 12 5 22 0 22 -5 0 -11 -9 -14 -20 -7 -27
-23 -25 -30 2 -9 31 0 36 13 7 10 -24 10 -24 7 4 -5 32 -1 33 37 8 17 -11 33
-18 38 -15 4 3 8 0 8 -5 0 -6 8 -11 18 -12 9 0 12 -3 5 -5 -7 -3 -21 -1 -32 5
-14 8 -21 8 -24 -2 -3 -6 -6 -3 -7 8 l-1 20 -8 -20 c-5 -11 -4 -25 1 -32 13
-16 32 -17 23 -3 -5 8 9 9 42 5 96 -12 132 -12 137 2 3 7 12 10 22 6 16 -6 16
-7 -2 -14 -16 -6 -16 -8 -2 -8 9 -1 19 3 23 8 3 6 14 8 25 6 12 -2 18 0 15 6
-4 5 -16 9 -28 9 -17 0 -19 2 -8 9 21 13 24 56 6 71 -10 9 -15 9 -15 1 0 -6 4
-11 8 -11 5 0 9 -7 9 -15 0 -8 -6 -15 -14 -15 -7 0 -12 3 -12 8 5 29 -3 42
-25 42 -14 0 -28 -4 -31 -10 -3 -5 -16 -10 -28 -9 -21 0 -21 1 -3 8 12 5 -11
8 -58 8 -61 1 -76 -1 -72 -12 4 -11 -1 -11 -25 -3 -16 5 -27 13 -24 18 2 4 -6
12 -20 18 -13 6 -31 23 -41 37 -9 14 -23 25 -30 25 -8 0 -14 5 -14 11 0 6 -7
17 -15 25 -8 9 -15 11 -15 5 0 -6 -10 -15 -22 -21 -21 -10 -21 -10 -5 3 20 16
22 33 6 43 -7 4 -20 -4 -30 -17 -15 -20 -20 -22 -31 -10 -11 12 -10 13 3 8 9
-3 16 0 16 7 0 15 -65 18 -91 4 -16 -9 -18 -7 -12 7 5 15 4 16 -8 6 -8 -7 -17
-8 -20 -3 -8 13 -59 9 -64 -5 -2 -7 1 -13 7 -13 19 0 12 -17 -9 -23 -14 -4
-18 -11 -14 -24 5 -14 4 -15 -4 -3 -6 8 -8 18 -6 22 3 4 -1 6 -8 5 -7 -2 -10
-2 -6 0 4 2 5 10 2 18 -3 7 0 16 6 20 6 3 9 1 8 -6 -2 -6 2 -13 7 -15 6 -2 11
4 11 15 0 15 -8 18 -38 18 -21 0 -38 -3 -38 -8 0 -5 6 -7 13 -5 6 1 9 1 4 -1
-4 -3 -4 -10 -1 -15 4 -6 2 -8 -4 -4 -5 3 -13 0 -16 -6 -4 -9 -5 -8 -5 2 3 34
-2 47 -16 47 -8 0 -12 -4 -9 -9 3 -4 0 -8 -5 -8 -6 0 -11 6 -12 13 0 6 -4 3
-9 -8 l-9 -20 0 20 c-1 15 -3 17 -10 6 -6 -10 -10 -10 -16 -1 -4 7 -18 9 -35
5 -16 -3 -31 -2 -35 4 -9 15 -28 14 -51 -4z m43 -17 c-3 -8 -6 -5 -6 6 -1 11
2 17 5 13 3 -3 4 -12 1 -19z m128 -14 c8 3 15 2 16 -2 0 -4 2 -16 4 -27 3 -17
2 -18 -8 -5 -13 18 -82 27 -72 10 3 -6 17 -8 31 -6 14 3 22 1 19 -5 -4 -5 0
-12 9 -15 8 -3 12 -12 9 -20 -8 -21 -23 -17 -23 7 0 11 -5 17 -10 14 -6 -4 -7
-12 -4 -18 4 -7 4 -9 0 -5 -4 3 -7 9 -6 13 2 13 -49 34 -68 28 -11 -2 -23 0
-26 6 -4 6 -1 9 7 5 19 -7 67 13 67 28 0 9 -3 9 -12 0 -7 -7 -16 -12 -22 -12
-5 0 -1 6 9 14 16 12 22 12 42 -1 13 -8 30 -13 38 -9z m165 6 c0 -5 -2 -10 -4
-10 -3 0 -8 5 -11 10 -3 6 -1 10 4 10 6 0 11 -4 11 -10z m50 -23 c0 -5 7 -1
16 7 14 14 17 14 40 0 13 -9 24 -21 24 -26 0 -5 10 -7 23 -4 12 3 16 3 10 0
-8 -3 -11 -16 -8 -32 4 -19 3 -22 -3 -9 -4 10 -12 18 -17 18 -6 -1 -11 4 -11
9 -1 6 -2 15 -3 21 0 6 -8 8 -17 5 -8 -3 -12 -2 -9 3 3 5 1 12 -5 16 -5 3 -10
2 -10 -2 0 -11 -60 -47 -66 -40 -3 3 4 8 16 12 l22 7 -24 25 -23 26 23 -14
c12 -8 22 -18 22 -22z m-300 -32 c0 -2 -6 -8 -13 -14 -10 -8 -14 -7 -14 2 0 8
6 14 14 14 7 0 13 -1 13 -2z m180 -3 c0 -4 -9 -8 -19 -8 -11 0 -17 4 -15 8 3
4 12 8 20 8 8 0 14 -4 14 -8z m68 -19 c1 -27 1 -27 -13 -9 -14 18 -12 25 10
36 0 0 2 -12 3 -27z m77 17 c-9 -14 9 -12 24 3 10 10 11 8 5 -6 -3 -10 -13
-17 -22 -15 -18 4 -29 28 -12 28 6 0 8 -4 5 -10z m-27 -19 c10 -6 9 -10 -7
-14 -13 -3 -21 -13 -21 -27 0 -11 -4 -18 -10 -15 -5 3 -10 2 -10 -4 0 -5 -9
-9 -19 -8 -11 0 -17 5 -15 9 3 5 10 6 15 3 5 -4 9 1 9 10 0 9 4 14 9 11 5 -3
12 5 15 19 7 27 13 30 34 16z m196 3 c12 -5 11 -10 -9 -28 -19 -17 -22 -25
-13 -34 8 -8 9 -12 1 -12 -17 0 -23 28 -9 42 7 7 11 19 8 26 -4 14 0 15 22 6z
m-489 -23 c3 -5 2 -12 -3 -15 -5 -3 -9 1 -9 9 0 17 3 19 12 6z m115 -1 c0 -5
-2 -10 -4 -10 -3 0 -8 5 -11 10 -3 6 -1 10 4 10 6 0 11 -4 11 -10z m250 -16
c0 -8 -4 -12 -10 -9 -5 3 -10 -1 -10 -10 0 -13 -2 -14 -14 -3 -12 11 -12 13 0
16 8 2 14 10 14 18 0 8 5 12 10 9 6 -3 10 -13 10 -21z m73 5 c-8 -8 -13 -7
-18 2 -5 8 -4 10 3 5 7 -4 12 -2 12 5 0 7 3 9 7 6 4 -4 2 -12 -4 -18z m102 11
c3 -6 0 -13 -9 -16 -8 -3 -12 -13 -9 -22 4 -13 3 -14 -5 -3 -11 15 -5 51 9 51
4 0 11 -5 14 -10z m-344 -27 c-12 -20 -14 -14 -5 12 4 9 9 14 11 11 3 -2 0
-13 -6 -23z m301 -8 c-5 -16 -14 -31 -21 -33 -9 -3 -10 1 -2 14 5 11 12 28 16
38 9 30 15 13 7 -19z m-437 1 c12 -12 12 -15 -2 -21 -10 -3 -14 -3 -10 1 4 4
2 13 -4 21 -15 17 -1 17 16 -1z m265 -30 c0 -6 -7 -1 -15 10 -8 10 -15 23 -15
28 0 6 7 1 15 -10 8 -10 15 -23 15 -28z m236 29 c4 -8 9 -13 13 -10 4 2 8 -2
8 -10 0 -10 -5 -10 -23 3 -25 18 -31 32 -14 32 6 0 13 -7 16 -15z m-135 -22
c13 -16 12 -17 -3 -4 -10 7 -18 15 -18 17 0 8 8 3 21 -13z m-15 -14 c24 -14
31 -25 26 -37 -6 -16 -7 -16 -10 1 -2 9 -8 17 -13 17 -6 0 -7 -5 -3 -12 4 -7
3 -8 -4 -4 -7 4 -12 2 -12 -3 0 -6 6 -11 13 -12 6 0 3 -4 -8 -9 -28 -12 -35
-12 -35 2 0 6 3 8 7 5 3 -4 12 5 20 20 7 14 12 27 11 28 -2 1 -12 7 -23 13
-11 6 -16 12 -11 12 5 0 24 -9 42 -21z m330 12 c-7 -11 28 -21 55 -16 11 2 17
0 14 -5 -3 -4 0 -10 6 -12 7 -2 4 -10 -7 -18 -16 -14 -17 -13 -11 3 4 10 2 17
-6 17 -7 0 -23 3 -37 7 -21 5 -23 4 -13 -8 10 -12 8 -15 -6 -15 -11 0 -17 6
-15 13 11 37 14 43 19 43 4 0 4 -4 1 -9z m91 -13 c-3 -8 -6 -5 -6 6 -1 11 2
17 5 13 3 -3 4 -12 1 -19z m-604 -8 c-4 -13 1 -26 11 -33 16 -12 16 -13 -1
-14 -13 -1 -19 6 -21 24 -1 14 1 29 4 34 9 15 12 10 7 -11z m71 8 c-3 -4 -11
-5 -20 -1 -8 3 -21 -3 -29 -13 -13 -18 -14 -18 -8 4 4 17 12 22 33 20 16 -1
27 -6 24 -10z m42 -17 c-13 -14 -13 -20 -3 -30 10 -11 8 -11 -11 -1 l-24 12
21 15 c12 8 18 19 15 25 -5 7 -2 8 5 4 9 -6 9 -12 -3 -25z m224 8 c0 -6 -4 -7
-10 -4 -5 3 -10 11 -10 16 0 6 5 7 10 4 6 -3 10 -11 10 -16z m-496 2 c8 -13
-29 -20 -45 -9 -11 8 -10 9 3 4 10 -3 20 -1 23 4 8 12 12 12 19 1z m113 -23
c-3 -7 -5 -2 -5 12 0 14 2 19 5 13 2 -7 2 -19 0 -25z m193 7 c-7 -8 -17 -15
-22 -15 -11 0 14 29 26 30 5 0 3 -7 -4 -15z m-340 -30 c-7 -8 -18 -15 -24 -15
-6 0 -2 7 8 15 25 19 32 19 16 0z"/>
<path d="M1592 2109 c-25 -7 -32 -14 -28 -26 4 -11 2 -14 -9 -9 -8 3 -15 1
-15 -3 0 -5 6 -12 13 -14 9 -4 9 -6 -1 -6 -19 -1 -37 -23 -39 -48 -3 -22 4
-26 37 -24 10 0 11 -1 2 -5 -6 -3 -9 -11 -6 -17 5 -8 2 -8 -7 1 -7 6 -17 12
-21 12 -11 0 1 -52 15 -65 7 -7 8 -4 4 8 -4 10 -3 16 2 12 5 -3 12 1 15 7 3 7
4 4 3 -7 -1 -12 3 -19 11 -18 6 2 11 0 10 -5 -2 -11 14 -46 26 -54 17 -12 88
-10 81 2 -4 6 1 7 10 3 16 -5 34 9 74 60 11 14 11 20 1 32 -10 12 -10 15 1 15
12 0 12 2 0 9 -9 6 -10 11 -2 15 6 4 11 17 11 29 -1 21 -1 21 -15 -3 -8 -14
-15 -20 -15 -15 0 6 -6 1 -12 -9 -8 -15 -8 -21 1 -24 8 -3 5 -9 -8 -19 -12 -8
-19 -18 -16 -23 5 -8 -13 -19 -27 -16 -4 0 -14 -8 -23 -19 -9 -11 -14 -15 -11
-9 2 5 -10 15 -27 22 l-32 11 24 -19 c26 -22 16 -27 -11 -6 -10 7 -18 20 -18
29 0 8 -5 17 -10 19 -17 5 -19 108 -3 108 7 0 18 9 25 19 6 10 17 17 24 14 8
-3 10 4 7 21 -3 14 -6 26 -7 25 0 0 -16 -5 -34 -10z m5 -25 c-3 -3 -12 -4 -19
-1 -8 3 -5 6 6 6 11 1 17 -2 13 -5z m3 -18 c0 -2 -7 -6 -15 -10 -8 -3 -15 -1
-15 4 0 6 7 10 15 10 8 0 15 -2 15 -4z m-46 -64 c2 -4 -5 -9 -17 -9 -17 -2
-19 0 -7 7 18 12 18 12 24 2z m210 -71 c3 -5 -1 -14 -9 -21 -13 -11 -14 -10
-9 5 6 14 4 16 -6 10 -9 -5 -11 -4 -6 3 9 14 23 15 30 3z m-34 -37 c0 -8 -19
-13 -24 -6 -3 5 1 9 9 9 8 0 15 -2 15 -3z"/>
<path d="M1640 2107 c0 -21 16 -38 38 -40 12 -1 22 -6 22 -13 0 -11 32 -44 42
-44 4 0 5 11 3 25 -2 20 0 23 11 14 11 -9 14 -9 14 0 0 6 -11 16 -24 21 -13 5
-28 15 -33 23 -11 19 -73 31 -73 14z m72 -26 c9 -11 14 -22 11 -25 -4 -3 -1
-6 5 -6 7 0 12 -4 12 -10 0 -19 -17 -10 -28 16 -7 15 -17 22 -24 18 -7 -5 -8
-3 -3 6 6 10 4 12 -9 7 -10 -4 -15 -3 -11 3 10 16 29 12 47 -9z"/>
<path d="M1330 2090 c-22 -22 -28 -64 -7 -57 6 2 11 10 10 16 -2 6 2 11 7 11
6 0 10 -3 10 -7 -1 -12 -26 -43 -31 -38 -4 4 -4 -24 0 -62 0 -7 6 -13 12 -13
5 0 7 5 3 12 -4 6 -3 8 4 5 5 -4 8 -16 5 -26 -3 -10 0 -22 6 -25 13 -9 14 15
2 66 -5 20 -5 40 0 45 11 11 13 93 2 93 -1 0 -12 -9 -23 -20z m24 -16 c3 -8 2
-12 -4 -9 -6 3 -10 10 -10 16 0 14 7 11 14 -7z m-14 -88 c0 -3 -4 -8 -10 -11
-5 -3 -10 -1 -10 4 0 6 5 11 10 11 6 0 10 -2 10 -4z"/>
<path d="M3185 2080 c-4 -6 -3 -17 2 -23 4 -7 0 -4 -10 7 -19 20 -19 20 -33 1
-8 -10 -14 -15 -14 -11 0 14 -31 -23 -34 -41 -18 -97 -18 -98 12 -125 16 -14
32 -32 34 -39 3 -9 25 -14 59 -15 44 -2 61 2 83 19 29 23 39 55 25 73 -10 13
-1 46 11 39 4 -2 5 6 3 19 l-5 24 -20 -20 c-13 -13 -19 -29 -16 -48 2 -16 2
-28 -1 -27 -3 1 -16 -8 -28 -20 -12 -12 -30 -20 -40 -19 -10 2 -26 -6 -36 -18
-19 -21 -19 -21 -17 -1 4 35 0 45 -15 39 -8 -4 -17 1 -21 9 -3 9 -13 14 -22
11 -9 -3 -7 1 5 7 22 12 27 44 10 67 -7 8 -4 12 11 12 21 0 46 23 36 33 -9 9
-35 -4 -28 -14 3 -5 0 -9 -5 -9 -6 0 -11 6 -11 14 0 19 37 27 66 14 16 -8 27
-8 36 -1 8 6 21 7 33 2 13 -5 15 -8 5 -9 -12 0 -11 -4 4 -15 11 -8 14 -15 7
-15 -7 0 -10 -4 -6 -10 9 -15 35 0 35 21 0 10 -4 19 -10 19 -5 0 -10 6 -10 14
0 8 -5 18 -12 22 -7 4 -8 3 -4 -4 10 -17 -5 -15 -18 2 -15 19 -53 29 -61 16z
m40 -10 c13 -6 15 -9 5 -9 -8 0 -22 4 -30 9 -18 12 -2 12 25 0z m-105 -100 c0
-5 -4 -10 -10 -10 -5 0 -10 5 -10 10 0 6 5 10 10 10 6 0 10 -4 10 -10z m154
-111 c-16 -17 -49 -16 -38 2 3 5 10 7 15 4 5 -4 9 1 9 9 0 10 6 13 15 9 14 -5
14 -7 -1 -24z"/>
<path d="M2136 1959 c-11 -31 -10 -54 1 -52 9 2 9 -5 1 -28 -11 -32 -6 -45 12
-34 6 4 9 13 6 21 -3 8 -2 13 2 13 18 -3 26 2 15 9 -7 4 -15 23 -18 42 -7 40
-13 48 -19 29z"/>
<path d="M2640 1960 c0 -5 5 -10 11 -10 5 0 7 5 4 10 -3 6 -8 10 -11 10 -2 0
-4 -4 -4 -10z"/>
<path d="M1550 1885 c0 -8 7 -15 16 -15 14 0 14 3 4 15 -7 8 -14 15 -16 15 -2
0 -4 -7 -4 -15z"/>
<path d="M1810 1650 c-8 -5 -25 -10 -36 -10 -46 0 -122 -92 -92 -111 10 -7 9
-9 -4 -9 -16 0 -18 -14 -18 -163 0 -149 2 -166 23 -207 29 -57 60 -79 124 -86
87 -11 139 2 183 46 52 52 58 97 49 355 -1 32 -7 73 -14 90 -18 41 -69 85
-108 91 -77 13 -93 14 -107 4z m102 -102 c25 -12 37 -69 39 -173 2 -158 -17
-221 -70 -227 -35 -4 -80 -3 -76 0 2 3 -5 12 -16 21 -27 21 -36 99 -29 247 5
118 14 138 61 146 27 5 66 -1 91 -14z m-135 -412 c0 -8 -6 -12 -15 -9 -11 5
-11 7 0 14 7 5 13 9 14 9 0 0 1 -6 1 -14z"/>
<path d="M2645 1644 c-21 -8 -50 -24 -63 -37 -49 -45 -54 -68 -53 -243 0 -170
6 -218 24 -207 6 3 7 1 3 -6 -8 -12 28 -64 38 -54 3 3 6 2 6 -4 0 -30 144 -47
203 -24 84 33 107 94 107 285 0 151 -13 211 -53 254 -24 26 -88 46 -120 37
-17 -5 -19 -4 -7 4 23 16 -36 13 -85 -5z m125 -87 c0 -5 7 -6 16 -3 8 3 12 2
9 -4 -3 -5 -1 -19 5 -30 6 -11 12 -87 13 -172 2 -150 2 -153 -22 -175 -13 -13
-33 -23 -43 -23 -11 0 -17 -4 -13 -9 10 -18 -70 10 -87 30 -9 10 -22 19 -30
19 -10 0 -9 3 2 10 12 7 13 13 3 28 -6 10 -8 24 -5 29 4 6 5 50 2 97 -3 47 -3
86 0 86 3 0 6 18 7 40 3 43 25 75 58 83 31 8 85 4 85 -6z m-5 -437 c3 -5 1
-10 -4 -10 -6 0 -11 5 -11 10 0 6 2 10 4 10 3 0 8 -4 11 -10z"/>
<path d="M733 1635 c4 -8 3 -16 -1 -19 -9 -6 -7 -519 2 -534 4 -7 25 -12 48
-12 32 0 39 3 34 15 -3 8 -1 15 5 15 6 0 7 5 3 11 -11 18 -5 131 8 146 6 7 28
13 50 13 106 0 193 52 196 117 1 16 3 37 6 48 2 11 1 24 -1 28 -3 5 -6 28 -7
51 -3 83 -53 124 -157 128 -52 2 -63 0 -61 -12 3 -11 0 -11 -15 3 -15 13 -22
14 -31 5 -9 -9 -12 -9 -12 0 0 7 -15 12 -36 12 -28 0 -35 -3 -31 -15z m229
-93 c9 -10 21 -40 26 -68 7 -43 6 -54 -10 -73 -10 -13 -15 -27 -12 -32 3 -5 2
-9 -3 -8 -33 6 -63 -3 -64 -18 -1 -17 -2 -17 -6 0 -3 11 -11 16 -21 13 -32
-10 -45 10 -51 83 -4 39 -4 71 0 71 3 0 5 13 4 28 l-2 28 61 -4 c39 -2 67 -10
78 -20z m89 -55 c-10 -9 -11 -8 -5 6 3 10 9 15 12 12 3 -3 0 -11 -7 -18z"/>
<path d="M1180 1641 c0 -6 0 -96 0 -201 0 -104 0 -231 0 -281 l0 -90 48 3 47
3 1 60 c0 33 -5 63 -10 67 -8 5 -8 8 0 8 5 0 11 19 13 43 1 23 6 46 10 50 4 4
42 9 83 10 l76 2 1 -114 c1 -63 4 -118 7 -123 3 -4 25 -8 49 -8 l45 0 -3 286
-2 287 -45 1 -45 1 -3 -109 c-1 -61 -7 -115 -13 -122 -10 -13 -143 -14 -155
-1 -4 4 -8 58 -8 120 l-1 112 -47 3 c-29 2 -48 -1 -48 -7z m354 -36 c3 -8 1
-15 -4 -15 -6 0 -10 7 -10 15 0 8 2 15 4 15 2 0 6 -7 10 -15z m-274 -5 c0 -5
-2 -10 -4 -10 -3 0 -8 5 -11 10 -3 6 -1 10 4 10 6 0 11 -4 11 -10z m10 -414
c0 -3 -4 -8 -10 -11 -5 -3 -10 -1 -10 4 0 6 5 11 10 11 6 0 10 -2 10 -4z"/>
<path d="M2113 1604 l2 -44 57 0 c45 0 58 -3 62 -17 9 -32 10 -98 1 -112 -5
-10 -4 -12 3 -7 8 4 10 2 6 -8 -8 -21 -10 -315 -2 -310 3 2 4 -5 1 -16 -5 -18
0 -20 40 -20 l45 0 1 232 c1 153 5 236 12 245 7 8 32 13 64 13 l53 0 0 45 0
44 -174 0 -173 0 2 -45z"/>
<path d="M3033 1643 c-10 -3 -13 -71 -13 -287 l0 -283 45 -1 c35 0 45 3 46 16
1 35 -3 144 -6 163 -2 10 2 19 8 19 8 0 8 3 2 8 -13 9 -16 42 -4 42 5 0 9 15
9 33 0 44 15 67 25 38 3 -12 11 -19 16 -16 5 3 6 -1 3 -9 -4 -9 1 -18 10 -22
9 -3 13 -10 10 -15 -3 -5 5 -25 17 -45 12 -20 39 -70 59 -113 44 -90 58 -103
102 -99 l33 3 3 129 c2 97 -1 131 -10 138 -9 5 -10 8 -1 8 8 0 12 41 12 150
l0 150 -32 0 c-54 0 -59 -9 -57 -101 1 -46 2 -117 1 -157 -1 -69 -2 -72 -20
-62 -11 5 -23 20 -27 32 -4 13 -14 29 -23 36 -9 8 -11 11 -4 8 8 -5 8 0 0 19
-7 14 -15 25 -19 25 -5 0 -8 6 -8 13 0 20 -60 140 -83 165 -20 21 -63 28 -94
15z m22 -253 c3 -5 1 -10 -4 -10 -6 0 -11 5 -11 10 0 6 2 10 4 10 3 0 8 -4 11
-10z m271 -272 c5 -7 3 -8 -6 -3 -10 6 -12 4 -6 -11 5 -14 4 -16 -5 -7 -6 6
-8 16 -5 22 9 14 13 14 22 -1z"/>
<path d="M3544 1641 c-2 -2 -4 -132 -4 -288 l0 -283 50 0 50 0 -3 287 -2 288
-43 0 c-24 0 -45 -2 -48 -4z"/>
<path d="M3770 1640 c0 -6 -5 -8 -11 -4 -10 6 -6 -3 26 -55 6 -9 34 -60 63
-113 l53 -98 -21 -40 c-11 -22 -18 -46 -14 -52 4 -7 3 -8 -4 -4 -7 4 -14 -3
-18 -19 -3 -14 -10 -25 -14 -25 -8 0 -25 -41 -21 -49 2 -2 -2 -7 -7 -10 -5 -3
-21 -27 -35 -52 l-26 -46 53 -2 c58 -2 66 4 85 58 23 69 56 130 71 131 13 0
13 1 0 10 -11 7 -11 10 -2 10 7 0 29 -35 48 -77 58 -130 56 -128 113 -131 32
-2 51 1 51 8 0 6 -16 41 -37 78 -20 37 -45 85 -57 107 -12 22 -24 41 -28 43
-17 8 -19 71 -3 101 8 17 13 36 10 42 -4 5 -2 8 3 7 6 -2 33 41 61 95 l51 97
-51 0 c-42 0 -50 -3 -45 -16 3 -8 2 -13 -2 -10 -4 2 -12 2 -17 -2 -18 -13 -56
-103 -49 -115 4 -7 4 -9 -1 -5 -4 4 -13 0 -20 -9 -11 -15 -14 -15 -36 1 -13 9
-23 19 -22 21 2 3 -11 33 -28 68 -30 63 -30 63 -74 66 -28 1 -45 -2 -45 -9z
m244 -356 c3 -8 2 -12 -4 -9 -6 3 -10 10 -10 16 0 14 7 11 14 -7z"/>
<path d="M1475 920 c-16 -6 -8 -10 35 -16 30 -4 58 -7 63 -6 11 3 9 -16 -3
-23 -5 -3 -10 -2 -10 3 0 5 -14 9 -31 10 -28 1 -30 0 -13 -13 10 -7 22 -11 25
-9 4 2 9 -3 13 -11 3 -8 15 -15 26 -15 12 0 20 -7 21 -17 0 -10 3 -13 5 -6 3
7 12 9 21 6 8 -3 19 0 23 8 5 7 13 10 17 5 4 -5 3 -11 -4 -13 -7 -2 -11 -10
-9 -16 1 -7 1 -9 -1 -4 -3 4 -12 7 -21 7 -14 -1 -14 -3 3 -13 11 -6 25 -12 30
-12 6 -1 9 -7 7 -14 -1 -7 1 -10 6 -7 5 3 20 -6 32 -19 24 -26 51 -36 31 -12
-13 16 4 37 29 36 8 0 5 -4 -9 -10 -23 -9 -24 -10 -5 -24 17 -13 17 -16 4 -25
-12 -9 -10 -10 8 -5 16 5 22 3 20 -7 -2 -8 6 -13 19 -12 12 0 20 -3 17 -8 -3
-4 5 -12 18 -17 13 -6 19 -10 13 -10 -13 -1 77 -61 91 -61 7 0 15 -7 18 -16 5
-12 10 -14 20 -5 7 6 16 7 20 3 4 -4 6 -1 4 7 -1 7 3 16 11 19 10 3 12 0 7
-13 -4 -11 0 -23 11 -31 17 -13 17 -14 -1 -7 -13 4 -17 2 -14 -8 3 -8 14 -12
24 -11 10 2 16 1 12 -4 -10 -10 29 -37 42 -29 6 3 10 11 10 16 0 6 -5 7 -10 4
-6 -4 -9 -2 -8 2 2 5 -10 22 -27 37 -16 16 -22 23 -12 16 9 -7 17 -10 17 -7 0
3 12 -6 26 -20 23 -23 25 -29 15 -46 -7 -10 -11 -20 -9 -20 2 -1 17 -10 35
-20 29 -16 33 -16 47 -1 9 8 16 12 16 7 0 -5 -5 -14 -12 -21 -9 -9 -8 -12 7
-12 10 0 15 -3 12 -7 -10 -10 62 -55 79 -49 8 3 13 0 11 -7 -1 -7 6 -11 15
-11 10 1 15 -2 13 -7 -6 -9 27 -29 47 -28 7 0 4 4 -7 9 -17 7 -17 9 -2 9 11 1
17 9 17 23 0 33 11 14 12 -21 1 -17 5 -31 10 -31 5 0 7 4 3 9 -3 5 -1 12 5 16
5 3 10 -3 10 -14 0 -12 7 -20 18 -21 61 -3 137 2 160 12 26 11 35 14 48 17 4
0 0 9 -7 18 -12 14 -12 16 0 8 11 -6 13 -4 8 9 -4 10 -3 15 3 11 6 -3 10 -13
10 -21 0 -8 4 -14 10 -14 5 0 7 7 4 15 -4 8 -2 15 3 15 4 0 14 10 22 21 11 19
11 21 -2 16 -8 -3 -19 -1 -24 4 -6 6 -18 3 -34 -9 -29 -23 -89 -37 -144 -33
-28 1 -36 -1 -26 -8 11 -7 10 -10 -5 -13 -27 -5 -64 3 -64 14 0 5 10 7 23 4
12 -4 2 4 -23 17 -39 20 -46 21 -51 7 -8 -18 -1 -32 12 -25 5 4 9 1 9 -4 0
-17 -9 -13 -42 14 -23 19 -34 23 -48 15 -22 -12 -35 13 -20 38 8 14 10 14 11
2 1 -8 1 -18 1 -21 -1 -7 47 -3 54 4 10 10 -64 45 -77 36 -20 -13 -37 -11 -36
4 1 29 -3 50 -9 44 -3 -3 -18 5 -32 18 -14 13 -29 22 -33 20 -4 -3 -9 2 -13
10 -3 8 -12 15 -21 15 -8 0 -15 5 -15 10 0 6 -6 10 -13 10 -8 0 -22 9 -32 20
-10 11 -24 20 -31 20 -7 0 -20 7 -28 16 -12 12 -16 12 -16 2 0 -7 -6 -4 -12 7
-14 23 -29 36 -77 61 -34 18 -59 36 -85 60 -24 22 -56 23 -71 1 -8 -12 -15
-17 -15 -13 0 5 7 17 16 27 14 15 14 20 2 32 -7 8 -21 13 -31 11 -9 -1 -17 3
-17 10 0 12 -68 51 -83 48 -5 -2 -6 2 -3 7 9 14 -11 23 -50 23 -19 0 -31 4
-28 9 6 11 -14 11 -41 -1z m175 -75 c0 -15 -21 -12 -30 5 -11 20 -10 21 9 10
12 -6 21 -13 21 -15z m60 -55 c0 -6 -5 -10 -11 -10 -5 0 -7 5 -4 10 3 6 -1 10
-9 10 -9 0 -16 5 -16 10 0 7 6 7 20 0 11 -6 20 -15 20 -20z m77 -55 c0 -8 -4
-12 -9 -9 -4 3 -8 9 -8 15 0 5 4 9 8 9 5 0 9 -7 9 -15z m43 -25 c0 -5 -5 -10
-11 -10 -5 0 -7 5 -4 10 3 6 8 10 11 10 2 0 4 -4 4 -10z m47 -56 c2 -13 1 -15
-4 -4 -3 8 -11 19 -17 23 -7 6 -6 7 4 4 8 -2 16 -12 17 -23z m55 -23 c10 -13
18 -17 28 -11 14 9 30 4 30 -9 0 -6 -22 -7 -68 -2 -7 0 -11 5 -7 10 3 6 -3 14
-12 20 -16 9 -16 10 -1 11 9 0 23 -9 30 -19z m227 -125 c8 -10 9 -16 1 -21 -6
-3 -7 -11 -4 -17 4 -6 10 -5 15 3 6 10 9 10 9 2 0 -21 -15 -22 -40 -2 -14 11
-20 19 -15 18 23 -3 36 2 30 11 -4 6 -11 8 -16 5 -5 -4 -9 -1 -9 4 0 15 15 14
29 -3z m146 -86 c3 -6 -1 -7 -9 -4 -18 7 -21 14 -7 14 6 0 13 -4 16 -10z m275
-60 c0 -5 -6 -10 -14 -10 -18 0 -29 -27 -13 -34 9 -3 9 -5 0 -5 -22 -2 -24 18
-3 39 22 22 30 25 30 10z m40 -6 c0 -8 -5 -12 -10 -9 -6 4 -8 11 -5 16 9 14
15 11 15 -7z m-100 -26 c0 -4 -4 -10 -10 -13 -5 -3 -10 -2 -10 4 0 5 -10 12
-22 14 -14 3 -10 4 10 4 17 -1 32 -5 32 -9z m80 4 c0 -5 -7 -9 -15 -9 -8 0
-15 4 -15 9 0 4 7 8 15 8 8 0 15 -4 15 -8z"/>
<path d="M3520 923 c-8 -4 -21 -13 -28 -22 -11 -14 -11 -14 -6 2 5 15 2 17
-17 14 -48 -9 -67 -19 -72 -38 -3 -12 -12 -17 -27 -14 -16 3 -25 -3 -35 -28
-8 -18 -14 -27 -15 -20 0 14 -17 12 -50 -7 -48 -26 -53 -37 -25 -56 13 -9 22
-21 18 -28 -4 -7 -3 -8 4 -1 14 13 27 56 16 54 -21 -4 -34 2 -27 12 4 8 9 7
15 -2 7 -11 9 -11 9 2 0 9 7 16 15 16 11 0 12 -4 4 -14 -9 -9 -8 -13 0 -13 7
0 9 -4 6 -10 -11 -18 10 -11 59 20 39 25 46 34 41 53 -6 21 -6 21 9 3 15 -19
22 -11 17 18 -1 5 4 4 12 -2 8 -7 17 -9 20 -5 10 9 8 23 -2 21 -5 -2 -9 0 -10
5 -1 9 1 10 22 2 18 -8 67 18 67 35 0 6 -1 10 -2 9 -2 0 -10 -3 -18 -6z m-90
-37 c0 -3 -4 -8 -10 -11 -5 -3 -10 -1 -10 4 0 6 5 11 10 11 6 0 10 -2 10 -4z
m-60 -61 c5 3 6 13 3 23 -5 14 -3 13 9 -2 14 -18 14 -22 -7 -38 -24 -19 -60
-25 -50 -8 3 5 13 7 23 4 13 -5 14 -4 3 4 -9 6 -11 17 -5 33 l8 24 4 -23 c2
-12 7 -20 12 -17z"/>
<path d="M2283 883 c0 -19 2 -21 13 -12 8 6 11 16 7 22 -4 6 -1 7 6 2 9 -5 9
-11 3 -17 -6 -6 -8 -16 -6 -23 3 -7 0 -16 -7 -21 -8 -5 -10 -3 -4 6 5 9 4 11
-3 6 -21 -13 -13 -27 13 -23 31 4 40 13 40 40 0 15 6 22 18 21 9 -1 14 2 11 7
-3 5 -1 9 3 9 5 0 14 -10 22 -21 11 -18 11 -21 -1 -16 -48 19 -48 19 -42 3 3
-9 1 -23 -6 -31 -11 -13 -8 -15 15 -15 21 0 25 3 17 13 -8 10 -6 13 9 13 11 0
18 -5 15 -12 -3 -9 4 -11 22 -7 51 10 87 7 84 -6 -1 -7 2 -10 8 -6 5 3 10 1
10 -5 0 -6 5 -8 11 -4 8 5 8 1 0 -14 -6 -11 -17 -22 -24 -25 -23 -9 -27 -56
-7 -67 10 -5 21 -6 25 -2 5 4 5 1 1 -6 -5 -9 -13 -9 -26 -2 -15 8 -22 5 -34
-12 -9 -12 -16 -27 -16 -33 0 -5 5 -3 10 5 8 12 10 11 10 -5 0 -31 19 -46 42
-34 20 11 25 29 7 29 -5 0 -8 -4 -5 -9 7 -11 -20 -8 -31 3 -4 4 -3 7 2 5 17
-4 67 20 61 30 -3 5 1 14 10 21 8 7 13 19 10 27 -3 8 -2 12 3 9 11 -7 23 22
14 36 -3 7 -1 8 5 4 15 -9 41 51 40 96 0 26 -5 39 -16 42 -14 4 -156 2 -184
-3 -9 -1 -6 -31 5 -48 6 -9 3 -11 -8 -7 -9 4 -14 12 -11 19 3 8 -3 16 -12 20
-13 5 -14 8 -3 14 7 5 -18 8 -57 8 -66 -1 -69 -2 -69 -24z m197 7 c0 8 2 11 5
9 8 -8 -7 -49 -18 -49 -6 0 -7 3 -4 6 3 4 1 16 -5 28 -10 19 -10 20 5 7 14
-11 17 -11 17 -1z m75 -42 c6 -5 5 -8 -3 -8 -8 0 -10 -5 -6 -12 4 -8 3 -10 -2
-5 -9 9 -11 13 -13 44 -1 13 -4 14 -13 5 -21 -21 -32 -13 -12 9 l19 21 9 -24
c6 -13 15 -26 21 -30z m38 36 c9 10 17 12 17 6 0 -6 5 -8 10 -5 6 3 10 1 10
-5 0 -6 -8 -10 -17 -8 -11 2 -17 -2 -15 -10 1 -8 -2 -11 -8 -7 -5 3 -10 0 -11
-7 -1 -17 -18 23 -18 42 0 10 3 9 8 -4 7 -17 8 -17 24 -2z m37 -28 c0 -3 -4
-8 -10 -11 -5 -3 -10 -1 -10 4 0 6 5 11 10 11 6 0 10 -2 10 -4z m-25 -55 c2
-11 0 -21 -4 -21 -5 0 -8 11 -8 25 0 30 6 28 12 -4z m-55 -75 c0 -3 -4 -8 -10
-11 -5 -3 -10 -1 -10 4 0 6 5 11 10 11 6 0 10 -2 10 -4z m-20 -60 c0 -2 -7 -6
-15 -10 -8 -3 -15 -1 -15 4 0 6 7 10 15 10 8 0 15 -2 15 -4z"/>
<path d="M3200 761 c0 -7 -4 -10 -9 -7 -12 8 -33 -19 -23 -28 4 -5 -2 -6 -13
-4 -14 2 -20 -2 -19 -14 1 -10 -5 -18 -13 -18 -8 0 -11 5 -8 10 3 6 1 10 -5
10 -6 0 -10 -8 -8 -18 2 -11 -3 -26 -10 -35 -14 -16 -9 -37 9 -37 6 0 7 5 4
10 -3 6 1 10 10 10 21 0 105 49 105 62 0 5 4 7 9 3 5 -3 13 0 17 6 4 8 3 9 -4
5 -7 -4 -12 -2 -12 3 0 6 5 11 11 11 8 0 7 5 -1 16 -12 13 -15 11 -26 -14 -17
-41 -34 -49 -34 -17 0 15 4 24 10 20 11 -7 26 22 16 32 -3 4 -6 1 -6 -6z m-35
-59 c-3 -3 -11 0 -18 7 -9 10 -8 11 6 5 10 -3 15 -9 12 -12z m5 -21 c0 -12
-20 -25 -27 -18 -7 7 6 27 18 27 5 0 9 -4 9 -9z"/>
<path d="M3060 669 c0 -5 -4 -8 -9 -4 -5 3 -13 -5 -17 -17 -7 -23 -21 -38 -37
-38 -5 0 -5 5 -2 10 13 20 -5 9 -40 -25 -19 -20 -40 -33 -45 -30 -12 7 -72
-40 -63 -49 3 -3 12 -1 19 5 9 8 11 5 7 -10 -3 -12 -9 -19 -13 -16 -13 8 -40
-6 -40 -19 0 -7 -7 -13 -17 -13 -12 0 -9 6 11 24 18 15 22 23 12 23 -8 0 -22
-7 -30 -16 -9 -8 -16 -12 -16 -8 0 4 -10 -1 -22 -12 -13 -11 -36 -26 -51 -34
-28 -14 -28 -14 -7 -22 21 -8 21 -9 6 -33 -24 -37 -19 -40 18 -12 18 15 36 24
38 22 3 -3 13 4 23 15 10 11 24 20 31 20 7 0 21 12 29 28 9 15 14 19 11 10 -3
-12 -1 -15 9 -11 8 3 13 9 10 13 -3 5 10 13 28 19 41 14 120 79 111 92 -3 5 7
8 23 7 41 -3 56 8 43 33 -6 11 -16 17 -23 13 -7 -3 1 5 17 20 27 24 28 26 8
26 -12 0 -22 -5 -22 -11z m20 -63 c0 -2 -7 -6 -15 -10 -8 -3 -15 -1 -15 4 0 6
7 10 15 10 8 0 15 -2 15 -4z m-103 -42 c-3 -3 -12 -4 -19 -1 -8 3 -5 6 6 6 11
1 17 -2 13 -5z m-71 -31 c-4 -9 -1 -20 6 -25 9 -5 6 -8 -10 -8 -13 0 -21 3
-19 8 2 4 7 15 10 25 4 9 9 17 13 17 3 0 3 -8 0 -17z m-128 -87 c1 -19 -1 -37
-5 -39 -6 -4 -9 53 -4 71 3 10 7 -4 9 -32z m-32 -27 c3 -6 1 -16 -5 -22 -8 -8
-11 -7 -11 5 0 9 -6 19 -12 21 -8 3 -7 6 4 6 9 1 20 -4 24 -10z"/>
<path d="M2446 619 c3 -5 1 -9 -5 -9 -12 0 -8 -24 7 -43 10 -12 10 -17 1 -23
-7 -4 -9 -3 -6 3 4 6 0 16 -7 23 -12 9 -17 7 -25 -9 -15 -28 -16 -27 34 -30
25 -1 44 2 43 6 -1 4 4 19 11 32 7 13 9 21 3 17 -5 -3 -12 2 -15 13 -2 10 -14
20 -26 24 -11 3 -19 1 -15 -4z m39 -47 c-8 -8 -25 10 -19 20 4 6 9 5 15 -3 4
-7 6 -15 4 -17z"/>
<path d="M2000 549 c0 -5 5 -7 10 -4 6 3 10 8 10 11 0 2 -4 4 -10 4 -5 0 -10
-5 -10 -11z"/>
<path d="M2227 465 c3 -8 9 -12 14 -9 12 7 11 11 -5 17 -10 4 -13 1 -9 -8z"/>
</g>
</svg>
