<?xml version="1.0" standalone="no"?>
<!DOCTYPE svg PUBLIC "-//W3C//DTD SVG 20010904//EN"
 "http://www.w3.org/TR/2001/REC-SVG-20010904/DTD/svg10.dtd">
<svg version="1.0" xmlns="http://www.w3.org/2000/svg"
 width="895.000000pt" height="289.000000pt" viewBox="0 0 895.000000 289.000000"
 preserveAspectRatio="xMidYMid meet">

<g transform="translate(0.000000,289.000000) scale(0.100000,-0.100000)"
fill="#000000" stroke="none">
<path d="M1200 2866 c-308 -55 -578 -200 -796 -428 -80 -84 -184 -220 -200
-262 -6 -14 33 -16 406 -16 l412 0 81 61 c272 203 604 260 914 157 92 -30 243
-110 243 -128 0 -6 -74 -11 -177 -12 l-177 -3 252 -210 c139 -115 256 -209
260 -208 4 1 119 96 257 210 l249 208 -154 3 -155 3 -48 68 c-61 86 -199 224
-302 301 -139 105 -357 203 -548 245 -98 23 -414 29 -517 11z"/>
<path d="M1080 2012 c0 -48 0 -49 41 -61 23 -7 57 -29 78 -52 l39 -39 171 0
c197 0 222 -7 241 -65 16 -48 6 -96 -26 -126 -25 -23 -31 -24 -212 -27 -170
-3 -187 -5 -199 -22 -19 -26 -95 -70 -121 -70 -20 0 -22 -5 -22 -55 l0 -55
264 0 265 0 28 -24 28 -24 3 -151 3 -151 105 0 104 0 0 150 c0 159 -12 216
-58 275 l-21 26 28 42 c16 23 34 59 41 81 18 55 8 171 -18 222 -28 54 -93 118
-150 146 -45 22 -58 23 -329 26 l-283 3 0 -49z"/>
<path d="M6754 1966 c-17 -8 -34 -21 -38 -31 -3 -9 -6 -162 -6 -340 l0 -323
28 -53 c17 -34 44 -65 71 -84 l43 -30 496 -3 c482 -2 498 -2 530 18 100 61 93
203 -12 251 -38 17 -72 19 -429 19 l-388 0 -24 25 -25 24 0 240 c0 132 -3 247
-6 256 -4 8 -19 22 -35 30 -36 19 -163 19 -205 1z"/>
<path d="M971 1863 c-42 -21 -75 -88 -65 -130 16 -63 64 -103 125 -103 76 0
142 86 119 155 -25 76 -110 114 -179 78z"/>
<path d="M26 1688 c-4 -13 -9 -71 -13 -130 l-6 -108 408 0 407 0 -6 23 c-4 12
-9 70 -13 130 l-6 107 -382 0 -383 0 -6 -22z"/>
<path d="M2258 1696 c-121 -33 -213 -169 -194 -289 15 -93 88 -181 176 -212
64 -23 506 -22 538 1 33 23 46 61 31 96 -22 53 -46 58 -288 58 l-221 0 -32 29
c-30 27 -33 35 -33 86 0 51 3 59 33 86 l33 29 192 -2 c184 -3 192 -4 192 -23
0 -19 -8 -20 -154 -23 -93 -1 -160 -7 -168 -13 -16 -14 -17 -91 -1 -107 8 -8
61 -12 173 -12 180 0 211 8 252 70 36 52 39 92 12 147 -18 36 -35 54 -69 71
-41 21 -56 22 -235 21 -119 0 -207 -5 -237 -13z"/>
<path d="M3059 1696 c-122 -33 -212 -163 -195 -284 13 -96 86 -186 175 -217
67 -23 506 -22 539 1 33 23 46 61 31 96 -22 53 -46 58 -294 58 l-227 0 -29 29
c-21 22 -29 39 -29 66 0 27 8 44 29 66 l29 29 234 0 c198 0 237 2 256 16 52
36 48 110 -9 139 -37 19 -440 20 -510 1z"/>
<path d="M3729 1689 c-19 -19 -20 -29 -17 -255 2 -195 6 -236 18 -244 22 -14
124 -12 138 2 9 9 12 79 12 255 0 275 4 263 -84 263 -33 0 -52 -6 -67 -21z"/>
<path d="M4128 1696 c-49 -13 -63 -21 -116 -70 -106 -97 -107 -262 -4 -365 75
-75 104 -81 379 -81 149 0 242 4 254 11 31 16 49 66 37 101 -19 53 -44 58
-293 58 l-227 0 -29 29 c-47 47 -38 119 18 149 15 8 96 12 252 12 224 0 230 1
255 23 43 38 36 106 -14 132 -38 20 -439 21 -512 1z"/>
<path d="M4758 1699 c-16 -9 -18 -31 -18 -225 l0 -214 34 -38 34 -37 307 -3
306 -3 29 30 c39 38 39 74 1 112 l-29 29 -244 0 c-176 0 -247 3 -256 12 -8 8
-12 59 -12 163 0 134 -2 154 -18 168 -21 19 -106 23 -134 6z"/>
<path d="M5722 1691 c-110 -38 -182 -133 -182 -238 0 -78 17 -127 63 -179 71
-80 97 -88 294 -92 l173 -4 30 30 c39 39 39 75 1 113 l-29 29 -152 0 c-85 0
-160 5 -171 10 -53 29 -61 121 -12 160 24 18 40 20 210 20 108 0 192 -4 204
-10 17 -10 19 -23 19 -161 0 -84 5 -159 10 -170 9 -16 22 -19 74 -19 43 0 67
5 75 14 9 10 11 74 9 224 -3 209 -3 211 -28 238 -46 50 -71 54 -312 54 -190
-1 -231 -3 -276 -19z"/>
<path d="M8253 1606 c-150 -47 -227 -193 -178 -337 21 -62 63 -109 126 -144
l54 -30 245 0 c234 0 247 1 286 22 119 64 175 187 139 309 -23 80 -96 155
-174 178 -71 21 -433 22 -498 2z m488 -185 c42 -42 41 -99 -2 -135 l-31 -26
-204 0 c-257 0 -274 6 -274 100 0 30 6 44 31 64 l31 26 210 0 210 0 29 -29z"/>
<path d="M6494 1425 c-35 -14 -59 -62 -49 -95 26 -83 140 -78 161 7 15 60 -52
113 -112 88z"/>
</g>
</svg>
