<?xml version="1.0" encoding="UTF-8"?>
<svg version="1.1" xmlns="http://www.w3.org/2000/svg" width="671" height="273">
<path d="M0 0 C3.6587264 3.04893867 7.11642843 6.09013075 10.375 9.5625 C32.35939935 31.71666305 60.84443482 45.12856103 92.0625 45.4375 C115.6438473 45.30459255 137.01205709 38.65499385 159.32861328 31.63964844 C204.5553264 17.42793334 248.14362446 7.4277424 292.625 29.6328125 C308.50032849 37.96520688 322.23550662 49.34259581 335.2734375 61.51953125 C337.95748749 64.02870506 337.95748749 64.02870506 340.8515625 66.19921875 C341.56054688 66.79347656 342.26953125 67.38773437 343 68 C343 68.66 343 69.32 343 70 C339.90508371 68.84711286 336.96473189 67.50436721 334.0234375 66.01171875 C308.82434402 53.32894815 282.61914836 49.43560132 255 56 C254.33500488 56.1556543 253.67000977 56.31130859 252.98486328 56.47167969 C227.21825486 62.73669829 203.43699171 76.40343074 180.625 89.5 C153.20303423 105.19224347 121.48628775 122.29306596 89.02050781 113.63818359 C53.63356415 102.46110883 32.21794175 66.94108633 16 36 C11.22928571 26.75622998 6.58052555 17.45148383 2.17578125 8.02734375 C1.54990112 6.69110962 1.54990112 6.69110962 0.91137695 5.32788086 C0 3 0 3 0 0 Z M23 30 C24 32 24 32 24 32 Z M220 34 C219.23397461 34.18804199 218.46794922 34.37608398 217.67871094 34.56982422 C199.70819532 39.09666553 182.45511269 45.87454385 165.23828125 52.65625 C132.17204824 65.65175514 98.94986437 75.2827121 64.6875 60.75 C52.21539002 55.13565735 40.49360071 46.86711943 31 37 C30.01 37.495 30.01 37.495 29 38 C46.09821406 58.22233218 70.21270794 74.05171314 97 77 C128.98309635 78.72195854 158.20910183 68.97189817 188.20736694 59.08575439 C211.21049987 51.52022711 234.67424764 45.01887968 259 44 C260.38445312 43.938125 260.38445312 43.938125 261.796875 43.875 C278.65253494 43.50249923 297.25477116 45.61177317 312.8828125 52.21875 C315.13763624 53.30139652 315.13763624 53.30139652 318 52 C287.9351646 33.91412246 254.86621281 25.29537095 220 34 Z " fill="#091588" transform="translate(57,66)"/>
<path d="M0 0 C10.06809684 7.94122864 17.80855941 17.78793611 24 29 C24 29.66 24 30.32 24 31 C23.3507959 31.14920898 22.7015918 31.29841797 22.03271484 31.45214844 C6.70379382 35.02244221 -8.27546521 39.23058716 -23.25 44.0625 C-37.37736034 48.61263907 -51.47914552 52.85934125 -66 56 C-67.18851562 56.26296875 -68.37703125 56.5259375 -69.6015625 56.796875 C-87.87357484 60.21998617 -107.07213218 58.60535839 -124.4375 52.125 C-125.40598877 51.77671143 -125.40598877 51.77671143 -126.39404297 51.42138672 C-129.24823545 50.26335555 -130.75297028 49.54978042 -132.0390625 46.6875 C-131.81631521 31.36248656 -118.49722108 15.74706378 -108.5625 5.25 C-78.83400823 -23.19476144 -32.34776497 -24.35748039 0 0 Z " fill="#FE0405" transform="translate(239,45)"/>
<path d="M0 0 C1.4872572 0.00032605 1.4872572 0.00032605 3.00455999 0.00065869 C4.71728857 -0.0062395 4.71728857 -0.0062395 6.46461773 -0.01327705 C7.7297679 -0.00813349 8.99491807 -0.00298993 10.29840612 0.0023095 C11.64751784 0.00072254 12.99662876 -0.00173994 14.34573746 -0.00500691 C18.06571057 -0.01144469 21.78557552 -0.00533361 25.50554156 0.00275737 C29.51240237 0.00931601 33.51925071 0.00438991 37.52611303 0.00087517 C45.38057434 -0.00417538 53.23499367 0.00148552 61.08944976 0.01072548 C70.22802716 0.02109107 79.36659539 0.02103978 88.50517756 0.0205529 C104.80601361 0.02005185 121.10683007 0.02922517 137.40765905 0.04373711 C153.2406705 0.05782537 169.07366469 0.06490792 184.90668249 0.06424493 C185.88177379 0.06420497 186.85686509 0.06416501 187.86150461 0.06412385 C188.83487676 0.06408349 189.8082489 0.06404314 190.81111717 0.06400156 C208.81345419 0.06331236 226.81578385 0.06919813 244.81811848 0.07815478 C251.1946707 0.08117599 257.57122156 0.08223491 263.94777441 0.08268708 C271.71409421 0.08336803 279.48040161 0.08781616 287.24671614 0.09701989 C291.21245397 0.10164851 295.1781759 0.10467948 299.14391661 0.10342568 C302.76955091 0.10233496 306.39514998 0.10582244 310.02077693 0.11307421 C311.96375747 0.11576269 313.90674287 0.11352046 315.84972382 0.11114216 C316.99154287 0.1143666 318.13336192 0.11759105 319.30978155 0.12091321 C320.30128635 0.12161763 321.29279115 0.12232206 322.31434155 0.12304783 C324.65717077 0.24954766 324.65717077 0.24954766 326.65717077 1.24954766 C326.71097655 4.04146971 326.75074746 6.83236176 326.78217077 9.62454766 C326.79892859 10.41861016 326.8156864 11.21267266 326.83295202 12.03079766 C326.8505255 14.10446781 326.76052245 16.17838008 326.65717077 18.24954766 C324.0433514 20.86336703 322.95283306 20.50003689 319.30978155 20.50122994 C318.1679625 20.50644544 317.02614345 20.51166093 315.84972382 20.51703447 C313.95199856 20.51034231 313.95199856 20.51034231 312.01593542 20.50351495 C310.66682326 20.50581743 309.31771235 20.50899251 307.96860409 20.51296943 C304.24863555 20.52135536 300.528769 20.51717505 296.80879998 20.510997 C292.80193562 20.50648895 288.79508933 20.51344804 284.78822851 20.51895684 C276.93377073 20.52787018 269.07935108 20.52592022 261.22489178 20.52013156 C254.84385036 20.51562268 248.46281965 20.5149988 242.0817771 20.51717919 C241.1750824 20.51748566 240.2683877 20.51779212 239.3342174 20.51810788 C237.49253293 20.5187473 235.65084846 20.51939572 233.80916399 20.52005306 C216.52219183 20.52576204 199.23524085 20.51918957 181.94827217 20.50845233 C167.10139052 20.4995163 152.25454014 20.50106818 137.40765905 20.51028985 C120.18436194 20.52098247 102.9610834 20.52521266 85.73778343 20.51906532 C83.90271044 20.51842819 82.06763745 20.51779945 80.23256445 20.51717919 C78.87807546 20.51671636 78.87807546 20.51671636 77.49622306 20.51624419 C71.11966657 20.51451422 64.74312181 20.51743884 58.36656713 20.5221383 C50.60023819 20.52773596 42.83394969 20.52625427 35.0676254 20.51557681 C31.10186926 20.510305 27.13618065 20.50828886 23.17042494 20.51487511 C19.54475732 20.52080568 15.91922028 20.51760777 12.29356462 20.50692001 C10.35058223 20.50360399 8.40759087 20.51018274 6.46461773 20.51703447 C4.75188915 20.50921123 4.75188915 20.50921123 3.00455999 20.50122994 C1.5173028 20.50074288 1.5173028 20.50074288 0 20.50024599 C-2.34282923 20.24954766 -2.34282923 20.24954766 -4.34282923 18.24954766 C-4.54135025 15.54031965 -4.621224 12.95651587 -4.59282923 10.24954766 C-4.6005636 9.51220391 -4.60829798 8.77486016 -4.61626673 8.01517266 C-4.58879813 0.48877819 -4.58879813 0.48877819 0 0 Z " fill="#041385" transform="translate(274.3428292274475,192.7504523396492)"/>
<path d="M0 0 C6.83846992 5.50993282 10.79056471 11.60654288 11.8125 20.375 C12.16489362 24.67021277 12.16489362 24.67021277 11 27 C5.76726669 27.04935824 0.53466824 27.08569949 -4.69824219 27.10986328 C-6.47919067 27.11993431 -8.26012257 27.13359185 -10.04101562 27.15087891 C-12.59769783 27.17507913 -15.15416185 27.18647184 -17.7109375 27.1953125 C-18.50994476 27.20563507 -19.30895203 27.21595764 -20.13217163 27.22659302 C-22.0895722 27.22699226 -24.04643077 27.12241069 -26 27 C-28 25 -28 25 -28.1875 21.4375 C-28 18 -28 18 -27 17 C-25.14825294 16.84213692 -23.2909089 16.74892644 -21.43359375 16.68359375 C-20.30888672 16.64169922 -19.18417969 16.59980469 -18.02539062 16.55664062 C-16.84138672 16.51732422 -15.65738281 16.47800781 -14.4375 16.4375 C-13.24962891 16.39431641 -12.06175781 16.35113281 -10.83789062 16.30664062 C-7.89205216 16.20016454 -4.9461257 16.09815159 -2 16 C-4.13225191 12.10576748 -5.66400312 10.03031386 -9.97265625 8.4453125 C-15.41344826 7.25022524 -19.68115508 8.23267205 -24.4375 11 C-27.72068617 14.84373015 -28.88249745 17.95578325 -29 23 C-28.28429056 27.21392192 -27.02611077 30.09115903 -23.8125 32.9375 C-18.61610091 34.9005841 -14.33423998 35.84473563 -9.1875 33.625 C-8.135625 33.08875 -7.08375 32.5525 -6 32 C-5.01 31.67 -4.02 31.34 -3 31 C-1.14453125 33.29492188 -1.14453125 33.29492188 0.7109375 35.58984375 C1.9666391 37.13266437 1.9666391 37.13266437 4 38 C2.19556055 42.28668865 -0.04860326 43.89883105 -4.109375 46.0078125 C-11.68883551 48.60941111 -20.27250052 48.25213723 -27.5625 44.9375 C-33.38864684 41.5018154 -38.1235594 36.57012692 -40.5234375 30.13671875 C-42.32477877 22.06021321 -41.77816439 14.41091344 -37.60546875 7.22265625 C-33.12423706 1.01871262 -28.04910747 -2.78407776 -20.578125 -4.62890625 C-13.05925731 -5.71116751 -6.27079549 -4.30220897 0 0 Z " fill="#151D81" transform="translate(516,142)"/>
<path d="M0 0 C5.04250355 4.06287607 9.14409293 8.7151664 11 15 C11.1045664 17.08747992 11.13326964 19.17973743 11.09765625 21.26953125 C11.08355713 22.34436768 11.06945801 23.4192041 11.05493164 24.52661133 C11.0368042 25.34282959 11.01867676 26.15904785 11 27 C5.76725612 27.02467917 0.53454597 27.04285003 -4.69824219 27.05493164 C-6.47917267 27.05996711 -8.260099 27.06679581 -10.04101562 27.07543945 C-12.59766665 27.08753942 -15.15426312 27.09323609 -17.7109375 27.09765625 C-18.50994476 27.10281754 -19.30895203 27.10797882 -20.13217163 27.11329651 C-25.77225659 27.11387171 -25.77225659 27.11387171 -28 26 C-28.09765625 19.84765625 -28.09765625 19.84765625 -28 18 C-26.25493385 16.25493385 -23.80960857 16.76717216 -21.43359375 16.68359375 C-20.30888672 16.64169922 -19.18417969 16.59980469 -18.02539062 16.55664062 C-16.84138672 16.51732422 -15.65738281 16.47800781 -14.4375 16.4375 C-13.24962891 16.39431641 -12.06175781 16.35113281 -10.83789062 16.30664062 C-7.89205216 16.20016454 -4.9461257 16.09815159 -2 16 C-3.20009127 12.2381311 -3.20009127 12.2381311 -6.0625 9.75 C-12.78845148 8.03273579 -18.07341755 6.98430407 -24.33203125 10.64453125 C-27.30466691 13.06023282 -28.09793488 15.33160185 -29 19 C-29.25803372 23.85269858 -28.74492574 26.99967116 -25.8125 30.9375 C-21.56589484 34.05167712 -18.17393788 35.27511763 -12.9375 34.8125 C-9.43753749 34.26164218 -6.90122532 33.0852557 -4 31 C-1.36 33.31 1.28 35.62 4 38 C1.34391511 43.31216979 -1.43234617 45.08894044 -7 47 C-16.19184627 48.2643806 -24.44721494 47.69195396 -32 42 C-37.20256677 37.18568448 -40.64150101 32.72255342 -41.3359375 25.51171875 C-41.42608096 16.68667416 -41.12020647 10.61530256 -35.08203125 3.8515625 C-25.16210076 -5.8752366 -11.76212031 -8.06964595 0 0 Z " fill="#151D80" transform="translate(573,142)"/>
<path d="M0 0 C4.96897128 3.12005173 8.66935783 8.06227835 10.55737305 13.64941406 C11.18195685 16.96628823 11.12239805 20.24806282 11.09765625 23.609375 C11.0962413 24.33618469 11.09482635 25.06299438 11.09336853 25.81182861 C11.08778792 28.12459494 11.07523904 30.43726312 11.0625 32.75 C11.05748249 34.32161318 11.05292002 35.89322789 11.04882812 37.46484375 C11.03782485 41.30993343 11.02057361 45.1549501 11 49 C6.71 49 2.42 49 -2 49 C-2.0093457 48.0212793 -2.01869141 47.04255859 -2.02832031 46.03417969 C-2.06825458 42.39586209 -2.13402134 38.75838709 -2.20751953 35.12060547 C-2.23570954 33.54747356 -2.25693398 31.97420053 -2.27099609 30.40087891 C-2.29245442 28.13631044 -2.33911348 25.87343496 -2.390625 23.609375 C-2.39185364 22.90818542 -2.39308228 22.20699585 -2.39434814 21.48455811 C-2.49617529 18.07433695 -2.76654205 16.29447401 -4.91308594 13.58691406 C-8.69627707 10.71013092 -11.26167506 10.75491423 -16 11 C-18.54086189 11.82406332 -19.60055633 12.40200879 -21.07958984 14.61621094 C-22.32889117 17.85180197 -22.35586409 20.96803109 -22.4140625 24.390625 C-22.43342865 25.09523865 -22.4527948 25.79985229 -22.4727478 26.52581787 C-22.53232735 28.76709039 -22.57884123 31.00841489 -22.625 33.25 C-22.66319979 34.77345938 -22.70225269 36.29689762 -22.7421875 37.8203125 C-22.83801018 41.54668106 -22.92212107 45.27320835 -23 49 C-27.29 49 -31.58 49 -36 49 C-36.0462592 45.03455853 -36.08597719 41.06981683 -36.10986328 37.10424805 C-36.12470245 35.10263623 -36.15013361 33.10111188 -36.17578125 31.09960938 C-36.26866742 12.66170462 -36.26866742 12.66170462 -30 5 C-21.02335564 -3.57768239 -11.06012597 -5.61514088 0 0 Z " fill="#07A5D7" transform="translate(396,136)"/>
<path d="M0 0 C4.29 0 8.58 0 13 0 C12.97679687 2.10761719 12.95359375 4.21523437 12.9296875 6.38671875 C12.91406879 8.43871459 12.90193672 10.49070368 12.89013672 12.54272461 C12.88010854 13.96365343 12.86648259 15.38456178 12.84912109 16.80541992 C12.82473179 18.85340444 12.8134851 20.90111498 12.8046875 22.94921875 C12.79421387 24.17987061 12.78374023 25.41052246 12.77294922 26.6784668 C12.99717397 29.95865792 13.44845429 32.11639397 15 35 C18.15094133 37.10062755 19.2224366 37.34313286 22.875 37.4375 C23.71804688 37.47746094 24.56109375 37.51742187 25.4296875 37.55859375 C29.20904703 36.73724358 30.58346613 34.97370049 33 32 C33.77506771 28.43680623 33.77506771 28.43680623 33.70703125 24.51171875 C33.72215256 23.80852005 33.73727386 23.10532135 33.75285339 22.3808136 C33.79561495 20.14937997 33.80455593 17.91930191 33.8125 15.6875 C33.83565371 14.16858405 33.86102089 12.64970012 33.88867188 11.13085938 C33.95140606 7.42059867 33.98383444 3.71078915 34 0 C38.29 0 42.58 0 47 0 C47.07471341 4.41077344 47.12886513 8.82120184 47.16479492 13.23242188 C47.17978888 14.72988307 47.20019105 16.22730105 47.22631836 17.72460938 C47.52412141 35.24243609 47.52412141 35.24243609 42.203125 42.42578125 C35.98545287 48.43205253 31.24367952 51.11540741 22.4375 51.375 C17.54427849 51.25168858 14.10165315 50.8711572 10 48 C9.154375 47.484375 8.30875 46.96875 7.4375 46.4375 C1.40087697 40.40087697 -0.43485389 33.91964045 -0.48828125 25.5859375 C-0.47311781 22.51385804 -0.39724999 19.44582809 -0.3125 16.375 C-0.28737029 14.78258734 -0.26456541 13.19013621 -0.24414062 11.59765625 C-0.18954877 7.73080587 -0.10354351 3.8658366 0 0 Z " fill="#0AA7D8" transform="translate(309,134)"/>
<path d="M0 0 C3.96 0 7.92 0 12 0 C12 3.96 12 7.92 12 12 C14.64 12 17.28 12 20 12 C20 16.29 20 20.58 20 25 C17.36 25 14.72 25 12 25 C12.05187541 28.75112898 12.14695218 32.49995532 12.25 36.25 C12.26417969 37.31347656 12.27835937 38.37695312 12.29296875 39.47265625 C12.32519531 40.49746094 12.35742188 41.52226562 12.390625 42.578125 C12.41157227 43.52075195 12.43251953 44.46337891 12.45410156 45.43457031 C13.15566561 48.73154481 14.38111863 49.93395421 17 52 C20.14481791 52.80315654 20.14481791 52.80315654 23 53 C23 56.96 23 60.92 23 65 C16.40314557 65.71704939 11.41101488 63.81792421 6 60 C1.56969748 54.90363834 -0.13112742 49.82842046 -0.11352539 43.13964844 C-0.11344986 42.17895447 -0.11337433 41.2182605 -0.11329651 40.22845459 C-0.10813522 39.19915833 -0.10297394 38.16986206 -0.09765625 37.109375 C-0.0962413 36.04962463 -0.09482635 34.98987427 -0.09336853 33.89801025 C-0.08777382 30.51531138 -0.07522225 27.13267885 -0.0625 23.75 C-0.05748432 21.45573012 -0.05292153 19.16145921 -0.04882812 16.8671875 C-0.03780611 11.24476613 -0.02054507 5.62239431 0 0 Z " fill="#141D81" transform="translate(447,124)"/>
<path d="M0 0 C3.63 0 7.26 0 11 0 C11 21.78 11 43.56 11 66 C7.37 66 3.74 66 0 66 C0 44.22 0 22.44 0 0 Z " fill="#010C77" transform="translate(590,123)"/>
<path d="M0 0 C0 3.96 0 7.92 0 12 C-1.79036458 12.9765625 -3.58072917 13.953125 -5.37109375 14.9296875 C-7.16618315 15.91410024 -7.16618315 15.91410024 -8 18 C-8.4077203 21.72137433 -8.76732402 25.44099788 -9.07421875 29.171875 C-9.76736572 36.31481324 -11.99152766 41.7132792 -17 47 C-22.09734085 50.52892828 -25.84397117 51.56799798 -32 52 C-32 47.71 -32 43.42 -32 39 C-30.27473958 38.44661458 -28.54947917 37.89322917 -26.82421875 37.33984375 C-23.48514039 34.88737292 -22.35591876 30.9718241 -21.64379883 27.02661133 C-21.32664463 24.31273906 -21.10938314 21.59823967 -20.91601562 18.87304688 C-20.35335705 12.95660671 -18.29925226 9.31380449 -14.1484375 5.13671875 C-13.56320312 4.65847656 -12.97796875 4.18023437 -12.375 3.6875 C-11.78460938 3.19636719 -11.19421875 2.70523438 -10.5859375 2.19921875 C-7.10995634 -0.42917094 -4.27488468 -0.07916453 0 0 Z " fill="#0AA5D7" transform="translate(304,134)"/>
<path d="M0 0 C0 4.29 0 8.58 0 13 C-1.423125 13.61875 -1.423125 13.61875 -2.875 14.25 C-6.23949774 16.13411873 -6.76649303 16.51954135 -8 20 C-8.21907515 22.43201145 -8.35655824 24.87198324 -8.4375 27.3125 C-8.9045665 36.41430863 -11.08753402 42.7497095 -18 49 C-22.36774106 51.78394306 -25.7107045 52 -31 52 C-31 48.04 -31 44.08 -31 40 C-29.2421875 39.08854167 -27.484375 38.17708333 -25.7265625 37.265625 C-23.5009797 35.63420231 -22.91029381 34.62302671 -22 32 C-21.67082045 29.2427696 -21.40864881 26.51495778 -21.1875 23.75 C-20.34288551 15.30741891 -18.40571455 9.95209998 -12.0625 4.125 C-8.095268 1.37222678 -4.83963222 0 0 0 Z " fill="#0E167B" transform="translate(442,137)"/>
<path d="M0 0 C4.46567494 1.55364736 8.23034272 3.93538477 12.125 6.5625 C12.78733643 7.00795166 13.44967285 7.45340332 14.13208008 7.91235352 C23.5462963 14.32767258 31.96395441 21.75878761 40.2734375 29.51953125 C42.95748749 32.02870506 42.95748749 32.02870506 45.8515625 34.19921875 C46.56054688 34.79347656 47.26953125 35.38773438 48 36 C48 36.66 48 37.32 48 38 C44.90508371 36.84711286 41.96473189 35.50436721 39.0234375 34.01171875 C25.50807766 27.20940229 12.08180988 22.63969847 -3 21 C-2.01 20.34 -1.02 19.68 0 19 C0 18.34 0 17.68 0 17 C-1.11375 16.896875 -2.2275 16.79375 -3.375 16.6875 C-5.169375 16.3471875 -5.169375 16.3471875 -7 16 C-7.66 15.01 -8.32 14.02 -9 13 C-1.92045794 13.38615684 4.41710351 15.16949719 11.14624023 17.2722168 C14.202462 18.21974579 16.77937846 19 20 19 C9.24988049 13.07657034 -1.24854164 7.64237698 -13 4 C-9.73086376 2.96884721 -7.13958652 3.0361016 -3.75 3.4375 C-2.85796875 3.53933594 -1.9659375 3.64117187 -1.046875 3.74609375 C-0.37140625 3.82988281 0.3040625 3.91367188 1 4 C0.67 2.68 0.34 1.36 0 0 Z " fill="#2B3295" transform="translate(352,98)"/>
<path d="M0 0 C3.6587264 3.04893867 7.11642843 6.09013075 10.375 9.5625 C15.73850306 15.03179208 21.96173785 19.46147456 28.07421875 24.046875 C28.7501709 24.55798828 29.42612305 25.06910156 30.12255859 25.59570312 C31.73622404 26.8026997 33.3755941 27.97519479 35.01953125 29.140625 C35.67308594 29.75421875 36.32664063 30.3678125 37 31 C37 34.79557881 36.49821059 36.62902617 35 40 C35.99 40.495 35.99 40.495 37 41 C31.50281871 41 27.76369288 35.69142998 24 32 C22.26046332 30.04762589 20.64034747 28.03800746 19 26 C18.01 25.34 17.02 24.68 16 24 C14.68 25.32 13.36 26.64 12 28 C9.99051178 23.90041244 7.99405072 19.79461574 6 15.6875 C5.14148437 13.93663086 5.14148437 13.93663086 4.265625 12.15039062 C3.72421875 11.03212891 3.1828125 9.91386719 2.625 8.76171875 C2.12226562 7.73006592 1.61953125 6.69841309 1.1015625 5.63549805 C0 3 0 3 0 0 Z " fill="#18218C" transform="translate(57,66)"/>
<path d="M0 0 C7.75428031 6.26941812 14.81434749 13.43240019 20 22 C18.68 22.33 17.36 22.66 16 23 C15.67 24.32 15.34 25.64 15 27 C13.02 27.33 11.04 27.66 9 28 C7.12257899 24.61653072 5.27733566 21.21653212 3.4375 17.8125 C2.63795898 16.37293945 2.63795898 16.37293945 1.82226562 14.90429688 C1.07299805 13.50727539 1.07299805 13.50727539 0.30859375 12.08203125 C-0.15748291 11.22843018 -0.62355957 10.3748291 -1.10375977 9.49536133 C-2.17142452 6.52271043 -1.91472199 4.98619604 -1 2 C-0.67 1.34 -0.34 0.68 0 0 Z " fill="#111C89" transform="translate(72,89)"/>
<path d="M0 0 C4.4657624 1.55367779 8.23007564 3.93566738 12.125 6.5625 C12.78081055 7.00287598 13.43662109 7.44325195 14.11230469 7.89697266 C29.35375763 18.27199968 29.35375763 18.27199968 34 25 C30.25367316 24.41574101 27.47916907 23.36094943 24.19140625 21.48828125 C23.28583984 20.98022949 22.38027344 20.47217773 21.44726562 19.94873047 C20.01930664 19.13879639 20.01930664 19.13879639 18.5625 18.3125 C8.32577418 12.61288784 -1.82534171 7.62511236 -13 4 C-9.73086376 2.96884721 -7.13958652 3.0361016 -3.75 3.4375 C-2.85796875 3.53933594 -1.9659375 3.64117187 -1.046875 3.74609375 C-0.37140625 3.82988281 0.3040625 3.91367188 1 4 C0.67 2.68 0.34 1.36 0 0 Z " fill="#2F3396" transform="translate(352,98)"/>
<path d="M0 0 C26.43336964 -0.02333103 52.86673774 -0.04098019 79.30011559 -0.05181217 C91.57280191 -0.05697469 103.84548184 -0.06401656 116.11816406 -0.07543945 C126.81148712 -0.08538763 137.50480555 -0.09185375 148.19813311 -0.09408849 C153.86335041 -0.09539537 159.52855448 -0.0984798 165.19376755 -0.10573006 C170.52061386 -0.11249236 175.84744142 -0.11461652 181.17429161 -0.11310768 C183.13432225 -0.11338391 185.09435348 -0.11538779 187.05438042 -0.11920547 C189.72055233 -0.12414599 192.38665251 -0.12299694 195.05282593 -0.12025452 C196.22888116 -0.12462378 196.22888116 -0.12462378 197.42869508 -0.12908131 C202.77175758 -0.11412121 202.77175758 -0.11412121 205 1 C204.67 2.32 204.34 3.64 204 5 C203.67 4.34 203.34 3.68 203 3 C199.30807745 1.76935915 195.89171059 1.8466696 192.04646301 1.84178162 C191.22718927 1.83684364 190.40791552 1.83190566 189.5638153 1.82681805 C186.80922855 1.81141831 184.05466517 1.80307572 181.30004883 1.79467773 C179.32918593 1.78510116 177.35832509 1.77509121 175.38746643 1.76467896 C170.02832404 1.73759995 164.66917281 1.7166066 159.3099997 1.69667697 C153.71256534 1.67483589 148.1151583 1.64743802 142.51774597 1.62062073 C131.91432021 1.57066842 121.31087929 1.52573901 110.70742387 1.48259836 C98.63743289 1.43324767 86.56746931 1.37832151 74.49750483 1.32291877 C49.66502878 1.20905977 24.83252645 1.10222926 0 1 C0 0.67 0 0.34 0 0 Z " fill="#172C95" transform="translate(396,193)"/>
<path d="M0 0 C4.59961168 3.83300974 8.86682572 7.83258519 13.06640625 12.09765625 C15.58628497 14.57680966 18.24084351 16.79267481 21 19 C19.68 19.99 18.36 20.98 17 22 C17.66 22.99 18.32 23.98 19 25 C17.68 25 16.36 25 15 25 C13.2488427 26.4166747 13.2488427 26.4166747 12 28 C9.99051178 23.90041244 7.99405072 19.79461574 6 15.6875 C5.14148437 13.93663086 5.14148437 13.93663086 4.265625 12.15039062 C3.72421875 11.03212891 3.1828125 9.91386719 2.625 8.76171875 C2.12226562 7.73006592 1.61953125 6.69841309 1.1015625 5.63549805 C0 3 0 3 0 0 Z " fill="#18208B" transform="translate(57,66)"/>
<path d="M0 0 C3.63 0 7.26 0 11 0 C11 0.66 11 1.32 11 2 C8.36 2.66 5.72 3.32 3 4 C2.67 24.46 2.34 44.92 2 66 C1.34 66 0.68 66 0 66 C0 44.22 0 22.44 0 0 Z " fill="#1C2479" transform="translate(590,123)"/>
<path d="M0 0 C5.8693944 0.35418759 8.30759333 1.61696942 12.25 5.9375 C14.79350759 8.68243444 16.87964958 10.91976639 20 13 C20 13.66 20 14.32 20 15 C15.27915654 13.20248446 10.74793489 11.03862628 6.1875 8.875 C5.39923828 8.50246094 4.61097656 8.12992188 3.79882812 7.74609375 C1.86526295 6.83204476 -0.06745388 5.91620158 -2 5 C-1.34 4.01 -0.68 3.02 0 2 C0 1.34 0 0.68 0 0 Z " fill="#393EA3" transform="translate(380,121)"/>
<path d="M0 0 C6.78030409 5.03333798 6.78030409 5.03333798 7.625 8.75 C7 11 7 11 4 13 C3.01 13 2.02 13 1 13 C-2.06603774 7.72641509 -2.06603774 7.72641509 -1.75 4.25 C-1 2 -1 2 0 0 Z " fill="#12188D" transform="translate(72,89)"/>
<path d="M0 0 C0.66 1.32 1.32 2.64 2 4 C-9.88 4 -21.76 4 -34 4 C-32 2 -32 2 -28.83544922 1.77294922 C-27.49182037 1.77326611 -26.1481659 1.78457819 -24.8046875 1.8046875 C-24.09724396 1.8075174 -23.38980042 1.81034729 -22.66091919 1.81326294 C-20.3987749 1.82446863 -18.13702485 1.84957321 -15.875 1.875 C-14.34245363 1.88502933 -12.80990106 1.89415526 -11.27734375 1.90234375 C-7.51807699 1.92440914 -3.75910536 1.95894104 0 2 C0 1.34 0 0.68 0 0 Z " fill="#070B6D" transform="translate(525,164)"/>
<path d="M0 0 C0 0.66 0 1.32 0 2 C1.65 2 3.3 2 5 2 C5 2.33 5 2.66 5 3 C-6.55 3 -18.1 3 -30 3 C-30 2.67 -30 2.34 -30 2 C-24.43864122 1.1068803 -18.93621043 0.70404727 -13.3125 0.4375 C-12.05083008 0.37272461 -12.05083008 0.37272461 -10.76367188 0.30664062 C-7.16611198 0.12690528 -3.60410836 0 0 0 Z " fill="#1B2085" transform="translate(352,115)"/>
<path d="M0 0 C0 0.66 0 1.32 0 2 C-3.60129621 3.34117853 -7.20647859 4.6715839 -10.8125 6 C-11.83666016 6.3815625 -12.86082031 6.763125 -13.91601562 7.15625 C-14.89892578 7.5171875 -15.88183594 7.878125 -16.89453125 8.25 C-17.80050049 8.58515625 -18.70646973 8.9203125 -19.63989258 9.265625 C-22 10 -22 10 -25 10 C-25 9.34 -25 8.68 -25 8 C-24.32453125 7.80664062 -23.6490625 7.61328125 -22.953125 7.4140625 C-21.61507812 7.02347656 -21.61507812 7.02347656 -20.25 6.625 C-19.36828125 6.36976562 -18.4865625 6.11453125 -17.578125 5.8515625 C-15.22776693 5.07523211 -13.19053944 4.13748093 -11 3 C-9.65455075 2.43702891 -8.30018395 1.89486786 -6.9375 1.375 C-6.26589844 1.11460938 -5.59429687 0.85421875 -4.90234375 0.5859375 C-3 0 -3 0 0 0 Z " fill="#363C9C" transform="translate(219,119)"/>
<path d="M0 0 C3.37503669 1.1858237 5.64722731 2.27573689 8 5 C7.01 5 6.02 5 5 5 C4.34 6.32 3.68 7.64 3 9 C-2.36095277 7.41078475 -7.70843973 5.81027062 -13 4 C-9.73086376 2.96884721 -7.13958652 3.0361016 -3.75 3.4375 C-2.85796875 3.53933594 -1.9659375 3.64117187 -1.046875 3.74609375 C-0.37140625 3.82988281 0.3040625 3.91367188 1 4 C0.67 2.68 0.34 1.36 0 0 Z " fill="#282C95" transform="translate(352,98)"/>
<path d="M0 0 C3.63 0 7.26 0 11 0 C10.34 1.32 9.68 2.64 9 4 C9 3.34 9 2.68 9 2 C6.36 2 3.72 2 1 2 C1 9.59 1 17.18 1 25 C0.67 25 0.34 25 0 25 C0 16.75 0 8.5 0 0 Z " fill="#0D136D" transform="translate(448,124)"/>
<path d="M0 0 C6.75 1.875 6.75 1.875 9 3 C9 3.99 9 4.98 9 6 C9.66 6 10.32 6 11 6 C11.33 6.99 11.66 7.98 12 9 C7.96479403 7.41037341 3.98188718 5.71767682 0 4 C0 2.68 0 1.36 0 0 Z " fill="#0F1886" transform="translate(356,102)"/>
<path d="M0 0 C1.12894876 0.93274109 2.25300876 1.87140122 3.375 2.8125 C4.00148438 3.33457031 4.62796875 3.85664062 5.2734375 4.39453125 C7 6 7 6 9 9 C7.35 9.66 5.7 10.32 4 11 C3.32591692 9.73308493 2.66099503 8.46129251 2 7.1875 C1.62875 6.47980469 1.2575 5.77210937 0.875 5.04296875 C0 3 0 3 0 0 Z " fill="#4144A0" transform="translate(57,66)"/>
<path d="M0 0 C4.875 4.75 4.875 4.75 6 7 C3.03 6.505 3.03 6.505 0 6 C-0.33 6.99 -0.66 7.98 -1 9 C-1.99 9.33 -2.98 9.66 -4 10 C-4.33 8.68 -4.66 7.36 -5 6 C-3.35 5.34 -1.7 4.68 0 4 C0 2.68 0 1.36 0 0 Z " fill="#222C95" transform="translate(79,96)"/>
<path d="M0 0 C0.33 0 0.66 0 1 0 C1.25060425 1.89311883 1.47460633 3.78977039 1.6875 5.6875 C1.81511719 6.74324219 1.94273437 7.79898438 2.07421875 8.88671875 C1.98726042 12.53439171 1.19853951 14.12730879 -1 17 C-1.99 17.66 -2.98 18.32 -4 19 C-4.66 18.34 -5.32 17.68 -6 17 C-5.360625 16.38125 -4.72125 15.7625 -4.0625 15.125 C-0.94045951 11.90835223 -0.79433313 9.7589499 -0.4375 5.375 C-0.35371094 4.37210938 -0.26992188 3.36921875 -0.18359375 2.3359375 C-0.12300781 1.56507813 -0.06242187 0.79421875 0 0 Z " fill="#43489C" transform="translate(421,158)"/>
<path d="M0 0 C-0.78375 0.45375 -1.5675 0.9075 -2.375 1.375 C-5.03698031 2.88428742 -5.03698031 2.88428742 -7 5 C-8.66321482 5.35015049 -10.33034549 5.68197057 -12 6 C-14.23408113 6.99083967 -14.23408113 6.99083967 -16 8 C-12.38659152 2.57988727 -6.73279711 -2.31439901 0 0 Z " fill="#32348D" transform="translate(554,139)"/>
<path d="M0 0 C2.31 0 4.62 0 7 0 C7 2 7 4 7 6 C6.01 6.33 5.02 6.66 4 7 C0 2.25 0 2.25 0 0 Z " fill="#141C87" transform="translate(73,86)"/>
<path d="M0 0 C-2.43414237 1.62276158 -4.31319446 2.61744792 -7 3.625 C-7.680625 3.88539062 -8.36125 4.14578125 -9.0625 4.4140625 C-11 5 -11 5 -14 5 C-14 4.34 -14 3.68 -14 3 C-12.42274653 2.29866401 -10.83788667 1.614417 -9.25 0.9375 C-7.92742187 0.36322266 -7.92742187 0.36322266 -6.578125 -0.22265625 C-3.84743691 -1.04600008 -2.63098653 -0.9773992 0 0 Z " fill="#2A2E95" transform="translate(304,123)"/>
<path d="M0 0 C2.97 0.495 2.97 0.495 6 1 C3.41588269 2.72274487 1.45097344 3.68895522 -1.4375 4.6875 C-2.19933594 4.95949219 -2.96117187 5.23148438 -3.74609375 5.51171875 C-6.21829721 6.04729142 -7.62983284 5.80445309 -10 5 C-9.01 5 -8.02 5 -7 5 C-7 4.34 -7 3.68 -7 3 C-3.535 2.505 -3.535 2.505 0 2 C0 1.34 0 0.68 0 0 Z " fill="#313797" transform="translate(192,173)"/>
<path d="M0 0 C-1.76371818 1.03307771 -3.53625033 2.05112049 -5.3125 3.0625 C-6.79169922 3.91521484 -6.79169922 3.91521484 -8.30078125 4.78515625 C-11 6 -11 6 -14 5 C-9.43149396 1.08413768 -6.03922093 -1.77473934 0 0 Z " fill="#35369C" transform="translate(231,159)"/>
<path d="M0 0 C0 3.96 0 7.92 0 12 C-0.33 12 -0.66 12 -1 12 C-1 8.37 -1 4.74 -1 1 C-4.40312738 2.05875074 -7.01353231 3.00902154 -10 5 C-10.66 4.34 -11.32 3.68 -12 3 C-7.89542386 0.01485372 -5.02254631 -0.2954439 0 0 Z " fill="#37BCE3" transform="translate(304,134)"/>
<path d="M0 0 C3.81538462 2.46153846 3.81538462 2.46153846 4.75 5.1875 C4.8325 5.785625 4.915 6.38375 5 7 C4.01 7.66 3.02 8.32 2 9 C0.68 7.68 -0.64 6.36 -2 5 C-1.34 3.35 -0.68 1.7 0 0 Z " fill="#020C79" transform="translate(72,89)"/>
<path d="M0 0 C4 4.75 4 4.75 4 7 C-0.455 7.495 -0.455 7.495 -5 8 C-3.68 7.34 -2.36 6.68 -1 6 C-1 4.68 -1 3.36 -1 2 C-0.67 1.34 -0.34 0.68 0 0 Z " fill="#F73F3E" transform="translate(259,69)"/>
<path d="M0 0 C0.97353743 3.02878312 1.24612776 5.02846457 0 8 C-2.0625 9.75 -2.0625 9.75 -4 11 C-3.48964169 6.6109185 -2.47785723 3.66291938 0 0 Z " fill="#32358F" transform="translate(426,145)"/>
<path d="M0 0 C-4.81384901 3.81788025 -10.10647769 3.70067925 -16 4 C-13.41588269 2.27725513 -11.45097344 1.31104478 -8.5625 0.3125 C-7.41974609 -0.09548828 -7.41974609 -0.09548828 -6.25390625 -0.51171875 C-3.78170279 -1.04729142 -2.37016716 -0.80445309 0 0 Z " fill="#4248A3" transform="translate(252,124)"/>
<path d="M0 0 C1.48521677 0.75911079 2.96303425 1.53271234 4.4375 2.3125 C5.67306641 2.95638672 5.67306641 2.95638672 6.93359375 3.61328125 C9 5 9 5 10 8 C6.14354522 6.86059291 2.93494171 5.82205934 0 3 C0 2.01 0 1.02 0 0 Z " fill="#292D87" transform="translate(452,180)"/>
<path d="M0 0 C0.79560764 2.91499943 1.25322499 5.74561419 1.5625 8.75 C1.64628906 9.54921875 1.73007812 10.3484375 1.81640625 11.171875 C1.87699219 11.77515625 1.93757813 12.3784375 2 13 C1.01 13.495 1.01 13.495 0 14 C-1.58177926 9.84782943 -2.40478458 6.45263035 -2 2 C-1.34 1.34 -0.68 0.68 0 0 Z " fill="#383E93" transform="translate(486,158)"/>
<path d="M0 0 C1.33897583 0.95043374 2.67105427 1.91059147 4 2.875 C5.11375 3.67550781 5.11375 3.67550781 6.25 4.4921875 C6.8275 4.98976562 7.405 5.48734375 8 6 C8 6.66 8 7.32 8 8 C4.54074837 6.7508258 1.85306797 5.32472205 -1 3 C-0.67 2.01 -0.34 1.02 0 0 Z " fill="#5C61A8" transform="translate(392,128)"/>
<path d="M0 0 C1.58409994 0.11487748 3.16728963 0.24234508 4.75 0.375 C6.07257813 0.47941406 6.07257813 0.47941406 7.421875 0.5859375 C9.99066382 0.99850055 11.75841015 1.71160957 14 3 C13.67 3.66 13.34 4.32 13 5 C11.39402675 4.54803755 9.79027492 4.08817673 8.1875 3.625 C6.84751953 3.24214844 6.84751953 3.24214844 5.48046875 2.8515625 C3 2 3 2 0 0 Z " fill="#4349A5" transform="translate(339,101)"/>
<path d="M0 0 C2.64 0 5.28 0 8 0 C4.99559979 2.00293347 3.29006055 2.49271626 -0.1875 3.125 C-1.53908203 3.37636719 -1.53908203 3.37636719 -2.91796875 3.6328125 C-3.60503906 3.75398438 -4.29210937 3.87515625 -5 4 C-5 3.34 -5 2.68 -5 2 C-3.35 2 -1.7 2 0 2 C0 1.34 0 0.68 0 0 Z " fill="#F83C34" transform="translate(205,89)"/>
<path d="M0 0 C0.66 0 1.32 0 2 0 C3.38938077 1.96147874 4.7260411 3.96166576 6 6 C4.68 6 3.36 6 2 6 C0.2488427 7.4166747 0.2488427 7.4166747 -1 9 C-1.33 7.68 -1.66 6.36 -2 5 C-1.34 4.67 -0.68 4.34 0 4 C0 2.68 0 1.36 0 0 Z " fill="#434EB0" transform="translate(70,85)"/>
<path d="M0 0 C0 0.33 0 0.66 0 1 C-1.41433206 1.2236337 -2.83167618 1.42826476 -4.25 1.625 C-5.03890625 1.74101562 -5.8278125 1.85703125 -6.640625 1.9765625 C-9.32152459 2.00319395 -10.72694089 1.36592084 -13 0 C-8.37078475 -1.0161692 -4.65537393 -0.83796731 0 0 Z " fill="#04096D" transform="translate(565,187)"/>
<path d="M0 0 C0.99 0 1.98 0 3 0 C3 0.66 3 1.32 3 2 C3.928125 2.12375 3.928125 2.12375 4.875 2.25 C7 3 7 3 8.25 5.0625 C8.4975 5.701875 8.745 6.34125 9 7 C6 7 6 7 4.39453125 5.46875 C3.87246094 4.8190625 3.35039063 4.169375 2.8125 3.5 C2.28269531 2.8503125 1.75289063 2.200625 1.20703125 1.53125 C0.80871094 1.0259375 0.41039063 0.520625 0 0 Z " fill="#272E94" transform="translate(109,154)"/>
<path d="M0 0 C-1.28913487 0.67154933 -2.58140204 1.33708859 -3.875 2 C-4.59429687 2.37125 -5.31359375 2.7425 -6.0546875 3.125 C-8 4 -8 4 -10 4 C-10 3.01 -10 2.02 -10 1 C-6.16112237 -0.48320272 -3.93795909 -1.22419163 0 0 Z " fill="#272D8E" transform="translate(276,135)"/>
<path d="M0 0 C1.98 0.66 3.96 1.32 6 2 C6 3.32 6 4.64 6 6 C4.35 5.67 2.7 5.34 1 5 C0.67 3.35 0.34 1.7 0 0 Z " fill="#22248D" transform="translate(386,125)"/>
<path d="M0 0 C-2.64 0.33 -5.28 0.66 -8 1 C-8.33 1.99 -8.66 2.98 -9 4 C-10.98 3.34 -12.96 2.68 -15 2 C-15 1.67 -15 1.34 -15 1 C-13.25215171 0.63536268 -11.50159498 0.2836922 -9.75 -0.0625 C-8.28820312 -0.35833984 -8.28820312 -0.35833984 -6.796875 -0.66015625 C-4.131881 -0.98397535 -2.51128277 -0.85503199 0 0 Z " fill="#4D54AC" transform="translate(300,112)"/>
<path d="M0 0 C0.33 0.66 0.66 1.32 1 2 C-2.47307692 7.82980769 -2.47307692 7.82980769 -5.140625 8.69140625 C-5.75421875 8.79324219 -6.3678125 8.89507812 -7 9 C-6.02180976 7.68677212 -5.0424189 6.37443848 -4.0625 5.0625 C-3.51722656 4.33160156 -2.97195312 3.60070313 -2.41015625 2.84765625 C-1 1 -1 1 0 0 Z " fill="#F53333" transform="translate(128,53)"/>
<path d="M0 0 C0.66 0.33 1.32 0.66 2 1 C-0.31 2.65 -2.62 4.3 -5 6 C-6.32 5.34 -7.64 4.68 -9 4 C-7.54618103 3.30300448 -6.08677047 2.61766134 -4.625 1.9375 C-3.40683594 1.36322266 -3.40683594 1.36322266 -2.1640625 0.77734375 C-1.44992188 0.52082031 -0.73578125 0.26429687 0 0 Z " fill="#F73A37" transform="translate(158,33)"/>
<path d="M0 0 C0.33 0 0.66 0 1 0 C1 3.63 1 7.26 1 11 C-0.98 11 -2.96 11 -5 11 C-4 9 -4 9 -1 8 C-0.67 5.36 -0.34 2.72 0 0 Z " fill="#010666" transform="translate(465,137)"/>
<path d="M0 0 C2.475 0.495 2.475 0.495 5 1 C5.33 2.32 5.66 3.64 6 5 C4.35 4.67 2.7 4.34 1 4 C0.67 2.68 0.34 1.36 0 0 Z " fill="#181D8A" transform="translate(370,111)"/>
<path d="M0 0 C0 0.66 0 1.32 0 2 C-1.41377782 2.36552803 -2.83120576 2.71695495 -4.25 3.0625 C-5.03890625 3.25972656 -5.8278125 3.45695312 -6.640625 3.66015625 C-9.10394822 4.01497267 -10.65604132 3.76877544 -13 3 C-11.58603098 2.49242138 -10.16868271 1.99425075 -8.75 1.5 C-7.96109375 1.2215625 -7.1721875 0.943125 -6.359375 0.65625 C-4 0 -4 0 0 0 Z " fill="#4850AC" transform="translate(225,96)"/>
<path d="M0 0 C1.65 1.65 3.3 3.3 5 5 C3.02 5.33 1.04 5.66 -1 6 C-1.042721 4.33388095 -1.04063832 2.66617115 -1 1 C-0.67 0.67 -0.34 0.34 0 0 Z " fill="#282B96" transform="translate(73,81)"/>
<path d="M0 0 C1.65 0.33 3.3 0.66 5 1 C5 1.99 5 2.98 5 4 C3.35 3.67 1.7 3.34 0 3 C0 2.01 0 1.02 0 0 Z " fill="#161782" transform="translate(375,121)"/>
<path d="M0 0 C-0.66 0 -1.32 0 -2 0 C-2 0.66 -2 1.32 -2 2 C-5.69541586 2.95024979 -8.30458414 2.95024979 -12 2 C-7.72170329 -0.29194467 -4.74957752 -1.52664992 0 0 Z " fill="#474EA9" transform="translate(284,115)"/>
<path d="M0 0 C0.99 0.33 1.98 0.66 3 1 C0.6875 3.5 0.6875 3.5 -2 6 C-2.99 6 -3.98 6 -5 6 C-5 5.34 -5 4.68 -5 4 C-2.6875 1.8125 -2.6875 1.8125 0 0 Z " fill="#060872" transform="translate(543,143)"/>
<path d="M0 0 C0 0.66 0 1.32 0 2 C-3.37097383 3.49821059 -5.20442119 4 -9 4 C-9 3.34 -9 2.68 -9 2 C-3.375 0 -3.375 0 0 0 Z " fill="#313097" transform="translate(219,119)"/>
<path d="M0 0 C0.33 0.99 0.66 1.98 1 3 C0.67 3.66 0.34 4.32 0 5 C-2.97 4.505 -2.97 4.505 -6 4 C-2.25 0 -2.25 0 0 0 Z " fill="#39388F" transform="translate(513,173)"/>
<path d="M0 0 C1.89213369 2.38573379 3.02391783 4.07175348 4 7 C3.34 7.66 2.68 8.32 2 9 C0.4375 6.1875 0.4375 6.1875 -1 3 C-0.67 2.01 -0.34 1.02 0 0 Z " fill="#21308F" transform="translate(71,93)"/>
<path d="M0 0 C6.75 -0.125 6.75 -0.125 9 1 C8.67 2.32 8.34 3.64 8 5 C7.67 4.34 7.34 3.68 7 3 C4.6859378 2.26924352 2.35171131 1.59861742 0 1 C0 0.67 0 0.34 0 0 Z " fill="#2B3294" transform="translate(592,193)"/>
<path d="M0 0 C0.66 0.33 1.32 0.66 2 1 C0.75453595 4.73639216 -0.63404953 5.18756513 -4 7 C-3.43628586 3.73045798 -2.50037734 2.17424117 0 0 Z " fill="#212882" transform="translate(431,140)"/>
<path d="M0 0 C1.98 0.99 1.98 0.99 4 2 C2.68 2 1.36 2 0 2 C0 1.34 0 0.68 0 0 Z " fill="#BD1C1D" transform="translate(388,216)"/>
<path d="M0 0 C0.66 0 1.32 0 2 0 C2 0.66 2 1.32 2 2 C1.34 2 0.68 2 0 2 C0 1.34 0 0.68 0 0 Z " fill="#A72728" transform="translate(590,216)"/>
<path d="M0 0 C0.66 0 1.32 0 2 0 C2 0.66 2 1.32 2 2 C1.34 2 0.68 2 0 2 C0 1.34 0 0.68 0 0 Z " fill="#FE0200" transform="translate(281,215)"/>
<path d="" fill="#A9272A" transform="translate(0,0)"/>
</svg>
