<?xml version="1.0" encoding="UTF-8"?>
<svg version="1.1" xmlns="http://www.w3.org/2000/svg" width="227" height="222">
<path d="M0 0 C1.21584495 0.00092179 2.43168989 0.00184359 3.68437862 0.00279331 C4.35901919 0.00193889 5.03365975 0.00108446 5.72874397 0.00020415 C8.00588764 -0.00145256 10.28295882 0.00407379 12.56009579 0.00952244 C14.18583836 0.00980429 15.81158107 0.00964661 17.43732357 0.00907993 C21.86482015 0.0087919 26.29228989 0.01468956 30.71978021 0.02165389 C35.34159444 0.02788646 39.96340922 0.02849115 44.58522701 0.0296793 C53.34356839 0.0327929 62.10189735 0.04100667 70.86023325 0.05102879 C80.82862615 0.06218903 90.79701963 0.06770015 100.76541722 0.07272422 C121.27698043 0.08318927 141.78853244 0.10078926 162.30008602 0.12304783 C162.30008602 4.08304783 162.30008602 8.04304783 162.30008602 12.12304783 C158.00082396 12.98290024 154.18138966 13.25937458 149.84769344 13.23657322 C148.74932156 13.23679226 148.74932156 13.23679226 147.62876034 13.23701572 C145.22099447 13.23632196 142.81330704 13.22855475 140.40555477 13.22070408 C138.73118285 13.21883799 137.05681037 13.21741499 135.38243771 13.21641636 C130.98481382 13.21260618 126.58722318 13.20278873 122.18961239 13.19171238 C117.69844672 13.18146599 113.20727565 13.17691183 108.71610165 13.17187595 C99.91074788 13.16116509 91.10542109 13.14410671 82.30008602 13.12304783 C82.29128666 14.5976321 82.29128666 14.5976321 82.28230953 16.10200596 C82.22514433 25.3576877 82.15241549 34.61313309 82.06437111 43.86857414 C82.01960666 48.62712829 81.98036408 53.38559562 81.95365047 58.14428806 C81.9276779 62.73505079 81.88731882 67.32548049 81.83689976 71.91603756 C81.82019 73.66910955 81.80870137 75.4222392 81.80247211 77.17537975 C81.79287543 79.62744947 81.76487082 82.07865925 81.73245907 84.53051853 C81.7346117 85.62240231 81.7346117 85.62240231 81.73680782 86.73634434 C81.68263857 89.62598041 81.62384001 91.64579122 79.9757452 94.07530308 C77.14120196 95.84766696 74.35721208 95.47452194 71.06961727 95.45117283 C70.00574039 95.44836308 70.00574039 95.44836308 68.92037106 95.44549656 C67.41823286 95.43877637 65.91611215 95.42486234 64.41409969 95.40429783 C62.13829543 95.37339691 59.86318787 95.36334796 57.5871954 95.35742283 C56.12299443 95.34824081 54.65880038 95.33786126 53.19461727 95.32617283 C52.523484 95.32192295 51.85235073 95.31767307 51.16088009 95.31329441 C38.35605997 95.12414412 38.35605997 95.12414412 35.76859188 92.67114353 C35.51988338 92.05327976 35.27117489 91.43541599 35.01492977 90.79882908 C34.71594784 90.10603855 34.4169659 89.41324802 34.10892391 88.69946384 C33.82138241 87.95237156 33.5338409 87.20527927 33.23758602 86.43554783 C32.5689817 84.88838463 31.89969951 83.3415142 31.22977352 81.79492283 C30.58401549 80.2386781 29.94071679 78.68141021 29.30008602 77.12304783 C28.19736439 74.45560433 27.05027197 71.81609893 25.86258602 69.18554783 C25.38950008 68.06277439 24.91641415 66.94000095 24.42899227 65.78320408 C21.36595379 61.95581104 18.01247224 61.69657225 13.30008602 61.12304783 C13.3262701 61.75807224 13.35245419 62.39309666 13.37943172 63.04736423 C13.48388997 65.94733661 13.54856349 68.84691253 13.61258602 71.74804783 C13.65448055 72.74707127 13.69637508 73.7460947 13.73953915 74.77539158 C13.8777637 83.12415458 13.8777637 83.12415458 11.03446102 86.82617283 C8.30008602 89.12304783 8.30008602 89.12304783 6.20242977 89.63086033 C3.04007608 89.01473575 0.6602523 88.33545358 -2.13741398 86.68554783 C-6.77949363 79.07253719 -4.9197267 66.55099765 -4.94014835 57.83520603 C-4.94995992 55.29867109 -4.98111612 52.76291282 -5.01241398 50.22656345 C-5.0189362 48.60221924 -5.02418973 46.97786933 -5.02803898 45.35351658 C-5.04038578 44.60136372 -5.05273258 43.84921085 -5.06545353 43.07426548 C-5.04635903 38.56889281 -4.51285935 35.68454648 -1.69991398 32.12304783 C1.52800157 29.97110413 2.58409411 29.9221834 6.30008602 30.12304783 C6.01133602 29.56875095 5.72258602 29.01445408 5.42508602 28.44336033 C4.86821102 27.35668064 4.86821102 27.35668064 4.30008602 26.24804783 C3.92883602 25.52875095 3.55758602 24.80945408 3.17508602 24.06836033 C2.30008602 22.12304783 2.30008602 22.12304783 2.30008602 20.12304783 C1.64008602 19.79304783 0.98008602 19.46304783 0.30008602 19.12304783 C0.30008602 18.13304783 0.30008602 17.14304783 0.30008602 16.12304783 C-0.35991398 15.79304783 -1.01991398 15.46304783 -1.69991398 15.12304783 C-4.47618177 9.98181117 -5.10671364 6.9847131 -3.69991398 1.12304783 C-2.69991398 0.12304783 -2.69991398 0.12304783 0 0 Z M13.30008602 45.12304783 C13.30008602 49.41304783 13.30008602 53.70304783 13.30008602 58.12304783 C15.28008602 58.12304783 17.26008602 58.12304783 19.30008602 58.12304783 C18.66571003 52.66741433 17.20313369 49.0260955 13.30008602 45.12304783 Z " fill="#F90204" transform="translate(27.69991397857666,75.87695217132568)"/>
<path d="M0 0 C5.70260129 4.04700737 9.25195007 9.49671526 10.81640625 16.2890625 C11.91166903 24.09280978 9.33599754 30.37252716 4.94140625 36.7265625 C2.89600045 39.33956841 2.14558739 40.17456471 -1.05859375 41.2890625 C-1.75984375 41.2890625 -2.46109375 41.2890625 -3.18359375 41.2890625 C-3.18359375 41.9490625 -3.18359375 42.6090625 -3.18359375 43.2890625 C-11.80098228 43.59560992 -19.11834779 43.68495553 -27.18359375 40.2890625 C-27.18359375 39.6290625 -27.18359375 38.9690625 -27.18359375 38.2890625 C-27.76109375 38.0621875 -28.33859375 37.8353125 -28.93359375 37.6015625 C-32.45408018 35.54794542 -34.51064868 33.14236043 -35.9140625 29.27734375 C-37.94366266 21.47223711 -37.41614223 14.24310135 -33.46875 7.140625 C-29.72381575 1.74518781 -24.86326267 -1.50781781 -18.57421875 -3.3046875 C-12.01826016 -4.41877197 -5.78156363 -3.24701957 0 0 Z M-22.18359375 10.2890625 C-25.5606142 14.21370789 -26.85813571 17.24621429 -26.56640625 22.33203125 C-25.66625542 26.93382276 -23.19273609 29.56154127 -19.49609375 32.2265625 C-15.10516179 33.63497464 -11.61834185 33.50002693 -7.18359375 32.2890625 C-3.78759728 30.19366042 -1.29824854 28.19035428 -0.18359375 24.2890625 C-0.52010488 19.74616226 -1.30066659 15.45132254 -3.18359375 11.2890625 C-5.21602923 10.32029193 -5.21602923 10.32029193 -7.18359375 10.2890625 C-7.18359375 9.6290625 -7.18359375 8.9690625 -7.18359375 8.2890625 C-13.16915773 7.20077814 -17.1299779 6.49885061 -22.18359375 10.2890625 Z " fill="#0808EE" transform="translate(212.18359375,174.7109375)"/>
<path d="M0 0 C4.14600072 4.34824466 6.76171875 8.81606718 6.76171875 14.84765625 C3.46171875 14.84765625 0.16171875 14.84765625 -3.23828125 14.84765625 C-3.48578125 13.89890625 -3.73328125 12.95015625 -3.98828125 11.97265625 C-4.9149313 8.84091042 -4.9149313 8.84091042 -6.98828125 7.59765625 C-7.73078125 7.35015625 -8.47328125 7.10265625 -9.23828125 6.84765625 C-10.16640625 6.45578125 -11.09453125 6.06390625 -12.05078125 5.66015625 C-16.79709968 4.45031038 -20.65562287 5.32010346 -25.23828125 6.84765625 C-27.80333539 11.16774743 -27.82243808 15.97083179 -27.23828125 20.84765625 C-25.61427941 24.48232704 -24.57715081 25.62174321 -21.23828125 27.84765625 C-16.69460823 28.44064408 -12.53371425 28.39890433 -8.30078125 26.59765625 C-6.14176312 24.96740083 -6.14176312 24.96740083 -4.98828125 22.66015625 C-3.23828125 20.84765625 -3.23828125 20.84765625 -1.0546875 20.59375 C1.23027912 20.59731469 3.48361812 20.67572413 5.76171875 20.84765625 C5.35827083 26.3614445 3.47334325 29.88537659 -0.23828125 33.84765625 C-6.20208027 38.17433397 -12.87842242 39.84765625 -20.23828125 39.84765625 C-21.64992262 39.39420357 -23.04604636 38.89050276 -24.42578125 38.34765625 C-25.14121094 38.06921875 -25.85664063 37.79078125 -26.59375 37.50390625 C-27.13644531 37.28734375 -27.67914063 37.07078125 -28.23828125 36.84765625 C-28.23828125 36.18765625 -28.23828125 35.52765625 -28.23828125 34.84765625 C-28.8415625 34.77417969 -29.44484375 34.70070312 -30.06640625 34.625 C-33.02927427 33.56454904 -33.5603331 32.16468586 -34.98828125 29.41015625 C-35.41625 28.60707031 -35.84421875 27.80398437 -36.28515625 26.9765625 C-37.23828125 24.84765625 -37.23828125 24.84765625 -37.23828125 22.84765625 C-37.89828125 22.51765625 -38.55828125 22.18765625 -39.23828125 21.84765625 C-39.70938521 14.46702749 -37.95916537 6.70806412 -33.23828125 0.84765625 C-23.07823296 -7.39086991 -10.37274938 -8.56330426 0 0 Z " fill="#696ADC" transform="translate(49.23828125,178.15234375)"/>
<path d="M0 0 C2.7083445 2.36012878 3.85019927 4.59993115 5.125 7.9375 C5.45757812 8.79214844 5.79015625 9.64679688 6.1328125 10.52734375 C7.80063007 15.28287762 8.02051576 18.66093596 7.5625 23.75 C7.46066406 24.92046875 7.35882813 26.0909375 7.25390625 27.296875 C7.17011719 28.18890625 7.08632813 29.0809375 7 30 C8.98 30 10.96 30 13 30 C12.67 28.02 12.34 26.04 12 24 C14.5654594 26.5654594 14.54046087 28.47686668 15 32 C15.66 32 16.32 32 17 32 C30.0407916 56.16058158 30.0407916 56.16058158 32 63 C31.67 63.99 31.34 64.98 31 66 C30.50371094 64.93523437 30.00742188 63.87046875 29.49609375 62.7734375 C28.08256763 59.74405219 26.65046956 56.7241327 25.2109375 53.70703125 C23.81462102 50.77067752 22.4861059 47.82158578 21.2265625 44.82421875 C20.67195314 43.57027794 20.11726976 42.31636986 19.5625 41.0625 C19.08941406 39.93972656 18.61632812 38.81695312 18.12890625 37.66015625 C15.06586777 33.83276321 11.71238622 33.57352443 7 33 C7.02618408 33.63502441 7.05236816 34.27004883 7.0793457 34.92431641 C7.18380395 37.82428878 7.24847747 40.7238647 7.3125 43.625 C7.35439453 44.62402344 7.39628906 45.62304688 7.43945312 46.65234375 C7.57767768 55.00110675 7.57767768 55.00110675 4.734375 58.703125 C2 61 2 61 -0.09765625 61.5078125 C-3.26000994 60.89168792 -5.63983372 60.21240575 -8.4375 58.5625 C-13.07957966 50.94948936 -11.21981272 38.42794982 -11.24023438 29.7121582 C-11.25004594 27.17562326 -11.28120214 24.63986499 -11.3125 22.10351562 C-11.31902223 20.47917141 -11.32427575 18.8548215 -11.328125 17.23046875 C-11.3404718 16.47831589 -11.3528186 15.72616302 -11.36553955 14.95121765 C-11.34644505 10.44584498 -10.81294537 7.56149865 -8 4 C-4.77208445 1.8480563 -3.71599191 1.79913557 0 2 C0 1.34 0 0.68 0 0 Z " fill="#0202F8" transform="translate(34,104)"/>
<path d="M0 0 C2.26171875 -0.03515625 2.26171875 -0.03515625 5 1 C6.70837418 3.67923644 7.72938465 6.58572604 8.8125 9.5625 C9.12380859 10.36880859 9.43511719 11.17511719 9.75585938 12.00585938 C10.52173646 13.9971398 11.26322944 15.9977676 12 18 C11.97679688 17.28714844 11.95359375 16.57429688 11.9296875 15.83984375 C11.82184326 10.11639606 12.07942689 5.40161186 14 0 C16.06183633 -0.08150744 18.12461349 -0.1394194 20.1875 -0.1875 C21.33605469 -0.22230469 22.48460938 -0.25710937 23.66796875 -0.29296875 C27.57912447 0.0509195 30.2059851 1.2059851 33 4 C33.3125 6.8125 33.3125 6.8125 33 10 C31 12.375 31 12.375 29 14 C29.37253906 14.47050781 29.74507812 14.94101563 30.12890625 15.42578125 C30.60199219 16.04839844 31.07507813 16.67101562 31.5625 17.3125 C32.03816406 17.92738281 32.51382813 18.54226562 33.00390625 19.17578125 C33.49697266 20.07876953 33.49697266 20.07876953 34 21 C33.505 22.485 33.505 22.485 33 24 C30.625 23.8125 30.625 23.8125 28 23 C26.8125 20.5 26.8125 20.5 26 18 C25.34 17.67 24.68 17.34 24 17 C23.34 16.34 22.68 15.68 22 15 C21.01 15 20.02 15 19 15 C18.67 17.64 18.34 20.28 18 23 C14.30458414 23.95024979 11.69541586 23.95024979 8 23 C7.34 21.02 6.68 19.04 6 17 C2.6365731 17.02649222 2.6365731 17.02649222 -1 18 C-2.39712274 19.95597184 -3.73779907 21.95436401 -5 24 C-6.32 24 -7.64 24 -9 24 C-8.41654545 15.63715143 -5.3897844 6.47719704 0 0 Z M18 5 C18 6.65 18 8.3 18 10 C22.65052872 10.26932521 22.65052872 10.26932521 27 9 C27 7.68 27 6.36 27 5 C24.03 5 21.06 5 18 5 Z M1 8 C0.67 9.65 0.34 11.3 0 13 C1.32 13 2.64 13 4 13 C3.34 11.35 2.68 9.7 2 8 C1.67 8 1.34 8 1 8 Z " fill="#8D8ED9" transform="translate(73,182)"/>
<path d="M0 0 C24.09 0 48.18 0 73 0 C73 5 73 5 72 7 C46.26 7 20.52 7 -6 7 C-6 6.34 -6 5.68 -6 5 C-4.68 5 -3.36 5 -2 5 C-1.34 3.35 -0.68 1.7 0 0 Z " fill="#F90103" transform="translate(114,79)"/>
<path d="M0 0 C5.70260129 4.04700737 9.25195007 9.49671526 10.81640625 16.2890625 C11.65394517 22.25652731 10.29447296 26.85637779 7.81640625 32.2890625 C6.82640625 32.7840625 6.82640625 32.7840625 5.81640625 33.2890625 C6.13351563 32.44085938 6.450625 31.59265625 6.77734375 30.71875 C7.84511857 27.19429025 8.21681704 24.08235293 8.44140625 20.4140625 C8.51617187 19.26164062 8.5909375 18.10921875 8.66796875 16.921875 C8.71695313 16.05304688 8.7659375 15.18421875 8.81640625 14.2890625 C8.15640625 14.2890625 7.49640625 14.2890625 6.81640625 14.2890625 C6.81640625 13.2990625 6.81640625 12.3090625 6.81640625 11.2890625 C6.15640625 11.2890625 5.49640625 11.2890625 4.81640625 11.2890625 C4.48640625 12.2790625 4.15640625 13.2690625 3.81640625 14.2890625 C3.15640625 14.2890625 2.49640625 14.2890625 1.81640625 14.2890625 C1.81640625 17.9190625 1.81640625 21.5490625 1.81640625 25.2890625 C1.15640625 25.2890625 0.49640625 25.2890625 -0.18359375 25.2890625 C-0.51359375 26.6090625 -0.84359375 27.9290625 -1.18359375 29.2890625 C-2.17359375 28.7940625 -2.17359375 28.7940625 -3.18359375 28.2890625 C-2.65765625 27.515625 -2.65765625 27.515625 -2.12109375 26.7265625 C-0.8058413 23.30690614 -1.4968475 20.8476567 -2.18359375 17.2890625 C-2.28671875 16.3609375 -2.38984375 15.4328125 -2.49609375 14.4765625 C-2.98333996 12.10553282 -2.98333996 12.10553282 -5.24609375 10.9765625 C-5.88546875 10.7496875 -6.52484375 10.5228125 -7.18359375 10.2890625 C-7.18359375 9.6290625 -7.18359375 8.9690625 -7.18359375 8.2890625 C-15.25830886 7.67608423 -15.25830886 7.67608423 -22.18359375 11.2890625 C-25.46766105 15.39414662 -25.75247141 19.20181883 -26.18359375 24.2890625 C-26.51359375 24.2890625 -26.84359375 24.2890625 -27.18359375 24.2890625 C-27.26513308 22.70659543 -27.32302932 21.12289977 -27.37109375 19.5390625 C-27.40589844 18.65734375 -27.44070312 17.775625 -27.4765625 16.8671875 C-27.12958368 13.81377388 -26.13727506 12.60158323 -24.18359375 10.2890625 C-23.47844529 8.14172323 -23.47844529 8.14172323 -23.18359375 6.2890625 C-24.83359375 6.6190625 -26.48359375 6.9490625 -28.18359375 7.2890625 C-28.51359375 6.6290625 -28.84359375 5.9690625 -29.18359375 5.2890625 C-29.63734375 6.1140625 -30.09109375 6.9390625 -30.55859375 7.7890625 C-31.09484375 8.6140625 -31.63109375 9.4390625 -32.18359375 10.2890625 C-32.84359375 10.2890625 -33.50359375 10.2890625 -34.18359375 10.2890625 C-32.79090476 5.02779297 -29.57494167 2.2138343 -25.18359375 -0.7109375 C-16.91311212 -4.95338826 -8.08423974 -4.54023969 0 0 Z " fill="#7172DB" transform="translate(212.18359375,174.7109375)"/>
<path d="M0 0 C1.21584495 0.00092179 2.43168989 0.00184359 3.68437862 0.00279331 C4.35901919 0.00193889 5.03365975 0.00108446 5.72874397 0.00020415 C8.00588764 -0.00145256 10.28295882 0.00407379 12.56009579 0.00952244 C14.18583836 0.00980429 15.81158107 0.00964661 17.43732357 0.00907993 C21.86482015 0.0087919 26.29228989 0.01468956 30.71978021 0.02165389 C35.34159444 0.02788646 39.96340922 0.02849115 44.58522701 0.0296793 C53.34356839 0.0327929 62.10189735 0.04100667 70.86023325 0.05102879 C80.82862615 0.06218903 90.79701963 0.06770015 100.76541722 0.07272422 C121.27698043 0.08318927 141.78853244 0.10078926 162.30008602 0.12304783 C162.30008602 4.08304783 162.30008602 8.04304783 162.30008602 12.12304783 C158.00082396 12.98290024 154.18138966 13.25937458 149.84769344 13.23657322 C148.74932156 13.23679226 148.74932156 13.23679226 147.62876034 13.23701572 C145.22099447 13.23632196 142.81330704 13.22855475 140.40555477 13.22070408 C138.73118285 13.21883799 137.05681037 13.21741499 135.38243771 13.21641636 C130.98481382 13.21260618 126.58722318 13.20278873 122.18961239 13.19171238 C117.69844672 13.18146599 113.20727565 13.17691183 108.71610165 13.17187595 C99.91074788 13.16116509 91.10542109 13.14410671 82.30008602 13.12304783 C82.29128666 14.5976321 82.29128666 14.5976321 82.28230953 16.10200596 C82.22514433 25.3576877 82.15241549 34.61313309 82.06437111 43.86857414 C82.01960666 48.62712829 81.98036408 53.38559562 81.95365047 58.14428806 C81.9276779 62.73505079 81.88731882 67.32548049 81.83689976 71.91603756 C81.82019 73.66910955 81.80870137 75.4222392 81.80247211 77.17537975 C81.79287543 79.62744947 81.76487082 82.07865925 81.73245907 84.53051853 C81.7346117 85.62240231 81.7346117 85.62240231 81.73680782 86.73634434 C81.68266154 89.62475504 81.62336742 91.64577299 79.97772884 94.07530308 C77.18943581 95.81668649 74.18127464 95.5083154 70.99930477 95.45117283 C70.28531017 95.44929966 69.57131557 95.44742649 68.83568478 95.44549656 C67.3251545 95.43877801 65.81464157 95.42486724 64.30423641 95.40429783 C62.00646204 95.37330245 59.70937638 95.36333969 57.41141415 95.35742283 C55.94070277 95.3482451 54.46999829 95.33786689 52.99930477 95.32617283 C52.31784893 95.32192295 51.63639309 95.31767307 50.93428707 95.31329441 C46.9635829 95.25465357 43.19822349 94.87720915 39.30008602 94.12304783 C39.30008602 93.79304783 39.30008602 93.46304783 39.30008602 93.12304783 C52.50008602 93.12304783 65.70008602 93.12304783 79.30008602 93.12304783 C79.63008602 66.06304783 79.96008602 39.00304783 80.30008602 11.12304783 C107.03008602 11.12304783 133.76008602 11.12304783 161.30008602 11.12304783 C161.30008602 7.82304783 161.30008602 4.52304783 161.30008602 1.12304783 C108.17008602 1.45304783 55.04008602 1.78304783 0.30008602 2.12304783 C-0.79908198 9.08176718 -0.79908198 9.08176718 1.30008602 15.12304783 C1.96008602 15.45304783 2.62008602 15.78304783 3.30008602 16.12304783 C4.18680477 17.83007908 4.18680477 17.83007908 4.98758602 19.93554783 C5.3955743 20.9661533 5.3955743 20.9661533 5.81180477 22.01757908 C6.36821333 24.41681278 6.07373541 25.81248423 5.30008602 28.12304783 C2.30008602 22.37304783 2.30008602 22.37304783 2.30008602 20.12304783 C1.64008602 19.79304783 0.98008602 19.46304783 0.30008602 19.12304783 C0.30008602 18.13304783 0.30008602 17.14304783 0.30008602 16.12304783 C-0.35991398 15.79304783 -1.01991398 15.46304783 -1.69991398 15.12304783 C-4.47618177 9.98181117 -5.10671364 6.9847131 -3.69991398 1.12304783 C-2.69991398 0.12304783 -2.69991398 0.12304783 0 0 Z " fill="#E29DA0" transform="translate(27.69991397857666,75.87695217132568)"/>
<path d="M0 0 C53.79 0 107.58 0 163 0 C163 3.3 163 6.6 163 10 C136.27 10 109.54 10 82 10 C82 9.67 82 9.34 82 9 C82.94547195 8.98969254 83.89094391 8.97938507 84.86506653 8.96876526 C93.76746372 8.87108486 102.66979019 8.76835583 111.57207203 8.66066074 C116.14901633 8.6054542 120.72596705 8.55203778 125.30297852 8.50268555 C129.71855456 8.4550086 134.13405268 8.4026645 138.54953575 8.34705925 C140.23564404 8.32665081 141.92177369 8.30793522 143.60791969 8.29092598 C145.96631221 8.26684855 148.3245576 8.23679855 150.68286133 8.20532227 C151.38273163 8.1995668 152.08260193 8.19381134 152.80368042 8.18788147 C155.80693883 8.14220346 158.12624875 7.95791708 161 7 C161 5.35 161 3.7 161 2 C159.81005338 2.00138269 159.81005338 2.00138269 158.59606743 2.00279331 C139.29151464 2.02487968 119.98696438 2.04142677 100.68240166 2.05181217 C91.34685691 2.05696799 82.01132059 2.06399711 72.67578125 2.07543945 C64.53873378 2.08540807 56.40169242 2.09185863 48.26463902 2.09408849 C43.95633445 2.09539189 39.64804735 2.09845435 35.33974838 2.10573006 C31.28344903 2.11252461 27.22717433 2.11460995 23.17086983 2.11310768 C21.68338576 2.11338246 20.19590085 2.11536719 18.70842171 2.11920547 C16.67426274 2.12419631 14.64009049 2.12238512 12.60592651 2.12025452 C11.46843397 2.12117631 10.33094143 2.1220981 9.15897942 2.12304783 C6.02620402 2.00102069 3.0769453 1.58572505 0 1 C0 0.67 0 0.34 0 0 Z " fill="#E10E10" transform="translate(26,77)"/>
<path d="M0 0 C1 2 1 2 0.5 4.375 C-0.47642879 11.45410875 -0.4604155 20.10587952 4 26 C6.28431033 26.94141059 6.28431033 26.94141059 9 27 C10.258125 27.185625 11.51625 27.37125 12.8125 27.5625 C13.864375 27.706875 14.91625 27.85125 16 28 C16 27.01 16 26.02 16 25 C15.401875 24.87625 14.80375 24.7525 14.1875 24.625 C12 24 12 24 9 22 C9.33 21.34 9.66 20.68 10 20 C10.83724609 20.73089844 10.83724609 20.73089844 11.69140625 21.4765625 C15.55259016 24.02455188 19.52822229 23.53719407 24 23 C27.18152085 21.64616134 28.54003928 20.80493126 30.25 17.8125 C32 16 32 16 34.18359375 15.74609375 C36.46856037 15.74965844 38.72189937 15.82806788 41 16 C40.59655208 21.51378825 38.7116245 25.03772034 35 29 C29.03620098 33.32667772 22.35985883 35 15 35 C13.58835863 34.54654732 12.19223489 34.04284651 10.8125 33.5 C10.09707031 33.2215625 9.38164062 32.943125 8.64453125 32.65625 C8.10183594 32.4396875 7.55914062 32.223125 7 32 C7 31.34 7 30.68 7 30 C6.39671875 29.92652344 5.7934375 29.85304687 5.171875 29.77734375 C2.20900698 28.71689279 1.67794815 27.31702961 0.25 24.5625 C-0.17796875 23.75941406 -0.6059375 22.95632812 -1.046875 22.12890625 C-2 20 -2 20 -2 18 C-2.66 17.67 -3.32 17.34 -4 17 C-4.37484035 11.12750125 -3.25153948 6.43635958 -1 1 C-0.67 0.67 -0.34 0.34 0 0 Z " fill="#0D0CE2" transform="translate(14,183)"/>
<path d="M0 0 C6.6 0 13.2 0 20 0 C20 6.6 20 13.2 20 20 C13.4 20 6.8 20 0 20 C0 13.4 0 6.8 0 0 Z " fill="#FBFAF9" transform="translate(66,115)"/>
<path d="M0 0 C2.24940295 -0.08119503 4.49964871 -0.13927819 6.75 -0.1875 C8.00296875 -0.22230469 9.2559375 -0.25710937 10.546875 -0.29296875 C14.17322379 0.01469659 15.50710877 0.41634817 18 3 C19 5.875 19 5.875 19 9 C17.0625 11.875 17.0625 11.875 15 14 C15.37253906 14.47050781 15.74507812 14.94101562 16.12890625 15.42578125 C16.60199219 16.04839844 17.07507813 16.67101562 17.5625 17.3125 C18.03816406 17.92738281 18.51382812 18.54226562 19.00390625 19.17578125 C19.33261719 19.77777344 19.66132813 20.37976563 20 21 C19.67 21.99 19.34 22.98 19 24 C16.75 23.875 16.75 23.875 14 23 C10 17.91891892 10 17.91891892 10 15 C7.03 14.505 7.03 14.505 4 14 C4 17.3 4 20.6 4 24 C3.34 24.33 2.68 24.66 2 25 C1.01 24.34 0.02 23.68 -1 23 C-1.44184137 19.99607176 -1.69616012 17.20521411 -1.8125 14.1875 C-1.86341797 13.37990234 -1.91433594 12.57230469 -1.96679688 11.74023438 C-2.18001797 7.32764196 -2.11027639 4.01685815 0 0 Z M4 5 C4 6.65 4 8.3 4 10 C8.65052872 10.26932521 8.65052872 10.26932521 13 9 C13 7.68 13 6.36 13 5 C10.03 5 7.06 5 4 5 Z " fill="#E49595" transform="translate(10,43)"/>
<path d="M0 0 C3.38257277 0.28576908 4.67862943 0.6413049 6.984375 3.21484375 C7.56703125 4.11332031 8.1496875 5.01179688 8.75 5.9375 C9.34296875 6.83339844 9.9359375 7.72929688 10.546875 8.65234375 C12 11 12 11 13 13 C13.33 8.71 13.66 4.42 14 0 C16.475 0.495 16.475 0.495 19 1 C19 8.59 19 16.18 19 24 C17.35 24 15.7 24 14 24 C11.9375 21.875 11.9375 21.875 10 19 C9.62488281 18.44957031 9.24976563 17.89914063 8.86328125 17.33203125 C7.8929476 15.89866119 6.94451867 14.45051081 6 13 C5.93941406 13.62648438 5.87882813 14.25296875 5.81640625 14.8984375 C5.69072266 16.12433594 5.69072266 16.12433594 5.5625 17.375 C5.48128906 18.18710937 5.40007812 18.99921875 5.31640625 19.8359375 C5 22 5 22 4 24 C2.35 23.67 0.7 23.34 -1 23 C-1.02894547 19.54168414 -1.04678 16.08339928 -1.0625 12.625 C-1.07087891 11.64015625 -1.07925781 10.6553125 -1.08789062 9.640625 C-1.09111328 8.69960938 -1.09433594 7.75859375 -1.09765625 6.7890625 C-1.10289307 5.91975098 -1.10812988 5.05043945 -1.11352539 4.15478516 C-1 2 -1 2 0 0 Z " fill="#E9B7B6" transform="translate(165,43)"/>
<path d="M0 0 C2.22855574 -0.0814222 4.45797655 -0.13938079 6.6875 -0.1875 C8.54955078 -0.23970703 8.54955078 -0.23970703 10.44921875 -0.29296875 C14.22773296 0.01878985 16.08900134 0.59979922 19 3 C19.54886514 7.39092112 19.47666082 9.28500878 17 13 C16.80569737 15.31886974 16.80569737 15.31886974 19.0625 17.875 C21 21 21 21 20.75 23.375 C20.5025 23.91125 20.255 24.4475 20 25 C15.25136455 23.77892231 13.81212188 21.50358928 11.26953125 17.62109375 C9.53042098 15.40038372 7.69101756 14.69197594 5 14 C5 16.97 5 19.94 5 23 C3.68 23.33 2.36 23.66 1 24 C-0.94305123 18.41558177 -1.12697555 13.92055462 -0.625 8.0625 C-0.56828125 7.28326172 -0.5115625 6.50402344 -0.453125 5.70117188 C-0.31315654 3.79993361 -0.15813968 1.89981314 0 0 Z M5 5 C5 6.65 5 8.3 5 10 C9.65052872 10.26932521 9.65052872 10.26932521 14 9 C14 7.68 14 6.36 14 5 C11.03 5 8.06 5 5 5 Z " fill="#5152D9" transform="translate(108,182)"/>
<path d="M0 0 C1.05960938 0.00676758 1.05960938 0.00676758 2.140625 0.01367188 C3.88545275 0.02546125 5.630237 0.04339676 7.375 0.0625 C7.705 1.7125 8.035 3.3625 8.375 5.0625 C6.77179026 5.25801338 5.16737014 5.44361983 3.5625 5.625 C2.66917969 5.72941406 1.77585938 5.83382812 0.85546875 5.94140625 C-1.625 6.0625 -1.625 6.0625 -4.625 5.0625 C-4.625 6.3825 -4.625 7.7025 -4.625 9.0625 C-0.665 9.0625 3.295 9.0625 7.375 9.0625 C7.375 10.7125 7.375 12.3625 7.375 14.0625 C-1.19642857 15.34821429 -1.19642857 15.34821429 -4.625 14.0625 C-4.625 16.0425 -4.625 18.0225 -4.625 20.0625 C-3.78195313 19.97871094 -2.93890625 19.89492188 -2.0703125 19.80859375 C-0.97460938 19.70675781 0.12109375 19.60492188 1.25 19.5 C2.34054688 19.39558594 3.43109375 19.29117188 4.5546875 19.18359375 C7.375 19.0625 7.375 19.0625 9.375 20.0625 C9.045 21.3825 8.715 22.7025 8.375 24.0625 C4.46290292 25.03327965 1.13101322 25.05258002 -2.875 24.6875 C-3.93203125 24.59726563 -4.9890625 24.50703125 -6.078125 24.4140625 C-8.625 24.0625 -8.625 24.0625 -9.625 23.0625 C-9.71200342 21.42777118 -9.73201063 19.78935945 -9.72265625 18.15234375 C-9.71943359 17.16298828 -9.71621094 16.17363281 -9.71289062 15.15429688 C-9.70451172 14.11337891 -9.69613281 13.07246094 -9.6875 12 C-9.68298828 10.95521484 -9.67847656 9.91042969 -9.67382812 8.83398438 C-9.66199913 6.2434334 -9.64551689 3.65299441 -9.625 1.0625 C-6.55966836 -0.47016582 -3.35745728 -0.04026471 0 0 Z " fill="#E8ACAB" transform="translate(195.625,42.9375)"/>
<path d="M0 0 C0.33 0 0.66 0 1 0 C1.33 15.51 1.66 31.02 2 47 C2.66 47.33 3.32 47.66 4 48 C4 48.66 4 49.32 4 50 C6.86724686 49.42655063 7.8614515 49.1385485 10 47 C10.66 47 11.32 47 12 47 C12.33 46.34 12.66 45.68 13 45 C13.66 45 14.32 45 15 45 C14.67 30.81 14.34 16.62 14 2 C16.67724717 3.33862358 17.01558163 4.16415259 18 7 C17.98310491 9.80458415 17.87078478 12.4677163 17.625 15.25 C17.56828125 15.99507812 17.5115625 16.74015625 17.453125 17.5078125 C17.31223742 19.33935108 17.15748116 21.16981352 17 23 C18.98 23 20.96 23 23 23 C22.67 21.02 22.34 19.04 22 17 C24.5654594 19.5654594 24.54046087 21.47686668 25 25 C25.66 25 26.32 25 27 25 C40.0407916 49.16058158 40.0407916 49.16058158 42 56 C41.67 56.99 41.34 57.98 41 59 C40.50371094 57.93523437 40.00742188 56.87046875 39.49609375 55.7734375 C38.08256763 52.74405219 36.65046956 49.7241327 35.2109375 46.70703125 C33.81462102 43.77067752 32.4861059 40.82158578 31.2265625 37.82421875 C30.67195314 36.57027794 30.11726976 35.31636986 29.5625 34.0625 C29.08941406 32.93972656 28.61632812 31.81695312 28.12890625 30.66015625 C25.06586777 26.83276321 21.71238622 26.57352443 17 26 C17.02618408 26.63502441 17.05236816 27.27004883 17.0793457 27.92431641 C17.18380395 30.82428878 17.24847747 33.7238647 17.3125 36.625 C17.35439453 37.62402344 17.39628906 38.62304688 17.43945312 39.65234375 C17.57767768 48.00110675 17.57767768 48.00110675 14.734375 51.703125 C12 54 12 54 9.90234375 54.5078125 C6.73999006 53.89168792 4.36016628 53.21240575 1.5625 51.5625 C-3.12385014 43.87688576 -1.15249289 31.32631158 -1.13037109 22.54736328 C-1.12495389 19.97813169 -1.13037257 17.40907042 -1.13671875 14.83984375 C-1.13605893 13.20572878 -1.13477977 11.57161392 -1.1328125 9.9375 C-1.13483673 9.16986328 -1.13686096 8.40222656 -1.13894653 7.61132812 C-1.11499925 2.2299985 -1.11499925 2.2299985 0 0 Z " fill="#5A5BD0" transform="translate(24,111)"/>
<path d="M0 0 C5.61 0 11.22 0 17 0 C17.33 1.65 17.66 3.3 18 5 C16.58456585 5.19658808 15.16755969 5.38187546 13.75 5.5625 C12.96109375 5.66691406 12.1721875 5.77132812 11.359375 5.87890625 C8.99467126 6.00027349 7.2488963 5.69633257 5 5 C5 6.32 5 7.64 5 9 C8.63 9 12.26 9 16 9 C16.33 10.32 16.66 11.64 17 13 C13.12315913 14.19287411 10.08378077 15 6 15 C5.67 16.65 5.34 18.3 5 20 C9.29 20 13.58 20 18 20 C18 21.32 18 22.64 18 24 C15.93831015 24.19620767 13.87559002 24.38160753 11.8125 24.5625 C10.66394531 24.66691406 9.51539063 24.77132812 8.33203125 24.87890625 C5.31368801 24.98859985 2.91076064 24.74002389 0 24 C-0.9454934 15.79602647 -0.88005502 8.21384685 0 0 Z " fill="#E6AAA9" transform="translate(31,43)"/>
<path d="M0 0 C1.79296875 1.38671875 1.79296875 1.38671875 3 3 C2.6875 5.6875 2.6875 5.6875 2 8 C0.0625 7.6875 0.0625 7.6875 -2 7 C-2.33 6.01 -2.66 5.02 -3 4 C-5.97065509 4.34227572 -5.97065509 4.34227572 -9 5 C-9.33 5.66 -9.66 6.32 -10 7 C-9.40832031 7.09796875 -8.81664062 7.1959375 -8.20703125 7.296875 C-3.26397129 8.23226644 0.58283838 9.03168328 4 13 C4.625 16 4.625 16 4 19 C2.1875 21.375 2.1875 21.375 -1 23 C-10.13157895 23.93421053 -10.13157895 23.93421053 -14 22 C-14.73075648 19.6859378 -15.40138258 17.35171131 -16 15 C-13.75 14.25 -13.75 14.25 -11 14 C-9.66666667 15.33333333 -8.33333333 16.66666667 -7 18 C-4.29294488 17.85974801 -4.29294488 17.85974801 -2 17 C-2 16.34 -2 15.68 -2 15 C-2.77085937 14.82984375 -3.54171875 14.6596875 -4.3359375 14.484375 C-5.84027344 14.12085938 -5.84027344 14.12085938 -7.375 13.75 C-8.87160156 13.40195312 -8.87160156 13.40195312 -10.3984375 13.046875 C-13 12 -13 12 -14.35546875 10.08203125 C-15.30844384 7.00363293 -14.97437893 5.05305397 -14 2 C-9.99507428 -1.87977179 -5.08800646 -1.50544011 0 0 Z " fill="#D84748" transform="translate(221,44)"/>
<path d="M0 0 C3.01476557 1.76458201 5.41326678 3.82653357 7 7 C7.51512617 11.09157355 7.94367269 15.23589546 5.953125 18.95703125 C4.18601378 21.09315687 2.49101659 22.75449171 0 24 C-4.53004168 24.37750347 -7.15079778 24.34597128 -11.375 22.625 C-15.13441249 18.86558751 -15.73583031 15.21735138 -16 10 C-15.37655188 5.79172517 -14.52835217 4.47803291 -11.375 1.625 C-7.35936694 -0.30845296 -4.37175683 -1.03427249 0 0 Z M-10 7 C-10.357148 9.33404054 -10.357148 9.33404054 -10.3125 11.9375 C-10.32925781 12.81277344 -10.34601563 13.68804687 -10.36328125 14.58984375 C-9.93394361 17.4382451 -9.28734787 18.30364153 -7 20 C-3.76822531 20.58006212 -2.45122422 20.29268598 0.3125 18.5 C2.76157308 14.87174359 2.28810652 12.32159775 2 8 C1.01 7.67 0.02 7.34 -1 7 C-1 6.34 -1 5.68 -1 5 C-6.0205829 4.49708619 -6.0205829 4.49708619 -10 7 Z " fill="#DF7372" transform="translate(156,43)"/>
<path d="M0 0 C0.66 0 1.32 0 2 0 C2 0.99 2 1.98 2 3 C2.66 3 3.32 3 4 3 C4.738041 16.6332574 4.738041 16.6332574 0 23 C-0.99 22.67 -1.98 22.34 -3 22 C-3.33 22.99 -3.66 23.98 -4 25 C-4.99 25 -5.98 25 -7 25 C-7 25.99 -7 26.98 -7 28 C-10.69744812 29.70082613 -13.56400747 30.24903019 -17.625 30.1875 C-18.56601563 30.18105469 -19.50703125 30.17460937 -20.4765625 30.16796875 C-23 30 -23 30 -26 29 C-25.67 27.35 -25.34 25.7 -25 24 C-20.05 23.67 -15.1 23.34 -10 23 C-9.34 21.35 -8.68 19.7 -8 18 C-7.34 18 -6.68 18 -6 18 C-5.67 16.68 -5.34 15.36 -5 14 C-4.34 14 -3.68 14 -3 14 C-3.495 7.565 -3.495 7.565 -4 1 C-3.01 1.33 -2.02 1.66 -1 2 C-0.67 1.34 -0.34 0.68 0 0 Z " fill="#0606EB" transform="translate(217,186)"/>
<path d="M0 0 C3.4375 2 3.4375 2 6 4 C5.67 5.65 5.34 7.3 5 9 C2.13275314 8.42655063 1.1385485 8.1385485 -1 6 C-4.04182893 5.74994614 -4.04182893 5.74994614 -7 6 C-8.66561399 7.66561399 -8.17115945 9.65962705 -8.1875 11.9375 C-8.20167969 12.83339844 -8.21585937 13.72929688 -8.23046875 14.65234375 C-8.23194769 17.19114534 -8.23194769 17.19114534 -6 19 C-3.42938689 19.64767793 -3.42938689 19.64767793 -1 20 C-1 19.34 -1 18.68 -1 18 C-0.34 18 0.32 18 1 18 C1.33 17.01 1.66 16.02 2 15 C3.32 15 4.64 15 6 15 C6.3125 17.25 6.3125 17.25 6 20 C3.31765532 22.68234468 0.8578947 24.77306502 -3 25 C-7.79418989 24.05828413 -11.18201815 23.11858885 -14 19 C-15.27303391 13.45320939 -15.356782 9.3283767 -13 4 C-8.80154615 0.1921 -5.60480865 -0.80068695 0 0 Z " fill="#DF8282" transform="translate(125,43)"/>
<path d="M0 0 C3.44660666 1.3876711 4.66879528 2.61614505 6.17578125 5.9921875 C6.52833984 6.77980469 6.88089844 7.56742188 7.24414062 8.37890625 C7.59669922 9.20261719 7.94925781 10.02632812 8.3125 10.875 C8.68439453 11.69097656 9.05628906 12.50695313 9.43945312 13.34765625 C12.36345355 20.02330713 12.36345355 20.02330713 11 24 C9.1875 23.8125 9.1875 23.8125 7 23 C6.566875 22.154375 6.13375 21.30875 5.6875 20.4375 C5.130625 19.633125 4.57375 18.82875 4 18 C0.37400578 17.58274322 0.37400578 17.58274322 -3 18 C-3.2475 18.804375 -3.495 19.60875 -3.75 20.4375 C-5 23 -5 23 -7.125 23.8125 C-7.74375 23.874375 -8.3625 23.93625 -9 24 C-9.37945648 18.63701504 -8.08920402 14.65936356 -6.1875 9.75 C-5.92646484 9.03070313 -5.66542969 8.31140625 -5.39648438 7.5703125 C-4.00644242 3.90472039 -3.33909705 2.2260647 0 0 Z M1 8 C0.34 9.65 -0.32 11.3 -1 13 C0.32 13 1.64 13 3 13 C2.67 11.35 2.34 9.7 2 8 C1.67 8 1.34 8 1 8 Z " fill="#E27777" transform="translate(77,43)"/>
<path d="M0 0 C3.0625 2.25 3.0625 2.25 5 5 C4.8125 7.3125 4.8125 7.3125 4 9 C2.0625 8.6875 2.0625 8.6875 0 8 C-0.33 7.01 -0.66 6.02 -1 5 C-3.3431213 5.25561323 -5.67843403 5.59270772 -8 6 C-9.5923093 9.18461859 -9.38905037 12.53391489 -9 16 C-7.99511774 18.17500647 -7.99511774 18.17500647 -6 19 C-3.40882687 18.99843776 -3.40882687 18.99843776 -1 18 C-0.34 17.01 0.32 16.02 1 15 C3.625 14.8125 3.625 14.8125 6 15 C5.72253508 18.32957907 5.18903896 19.78804723 2.9375 22.3125 C-0.87018422 24.49989306 -3.70611263 24.72144262 -8 24 C-11.85923993 22.32206959 -13.44536601 20.85576623 -15 17 C-15.57421743 12.41371794 -15.5355239 8.28525735 -13.75 4 C-10.0219374 -0.26064297 -5.54826651 -1.0855304 0 0 Z " fill="#E28786" transform="translate(104,43)"/>
<path d="M0 0 C11 0 11 0 14.1875 1 C16.27635476 3.30494318 16.32799958 4.04576354 16.4375 7.0625 C16 11 16 11 14 13 C14.37253906 13.47050781 14.74507812 13.94101563 15.12890625 14.42578125 C15.60199219 15.04839844 16.07507813 15.67101562 16.5625 16.3125 C17.03816406 16.92738281 17.51382813 17.54226562 18.00390625 18.17578125 C18.33261719 18.77777344 18.66132812 19.37976563 19 20 C18.67 20.99 18.34 21.98 18 23 C15.625 22.8125 15.625 22.8125 13 22 C11.8125 19.5 11.8125 19.5 11 17 C10.34 16.67 9.68 16.34 9 16 C8.34 15.34 7.68 14.68 7 14 C6.01 14 5.02 14 4 14 C3.67 16.64 3.34 19.28 3 22 C2.01 22 1.02 22 0 22 C0 14.74 0 7.48 0 0 Z M3 4 C3 5.65 3 7.3 3 9 C7.65052872 9.26932521 7.65052872 9.26932521 12 8 C12 6.68 12 5.36 12 4 C9.03 4 6.06 4 3 4 Z " fill="#4E4ED4" transform="translate(88,183)"/>
<path d="M0 0 C0.33 0 0.66 0 1 0 C1.144375 1.2375 1.28875 2.475 1.4375 3.75 C1.78688502 6.56504499 2.20379366 9.2701497 3 12 C4.3303125 11.938125 4.3303125 11.938125 5.6875 11.875 C9 12 9 12 11.3125 13.0625 C15.90454973 14.66437781 20.88069047 13.97422805 25.27734375 11.953125 C25.84582031 11.63859375 26.41429687 11.3240625 27 11 C26.25 13.4375 26.25 13.4375 25 16 C21.80105803 17.22141421 18.63963546 17.1028528 15.25 17.0625 C14.26515625 17.05347656 13.2803125 17.04445312 12.265625 17.03515625 C11.51796875 17.02355469 10.7703125 17.01195312 10 17 C9.67 18.65 9.34 20.3 9 22 C11.22909871 22.02714735 13.45829367 22.04646254 15.6875 22.0625 C16.92886719 22.07410156 18.17023438 22.08570313 19.44921875 22.09765625 C22.46235454 22.01478673 25.08275339 21.70839449 28 21 C28 20.01 28 19.02 28 18 C28.99 18 29.98 18 31 18 C31.33 16.68 31.66 15.36 32 14 C32.495 14.99 32.495 14.99 33 16 C33.99 15.67 34.98 15.34 36 15 C34.71111971 17.8751945 33.46733017 20.0071564 31 22 C28.8125 22.6875 28.8125 22.6875 27 23 C27 23.66 27 24.32 27 25 C18.38261147 25.30654742 11.06524596 25.39589303 3 22 C3 21.34 3 20.68 3 20 C1.68 19.34 0.36 18.68 -1 18 C-0.34 17.67 0.32 17.34 1 17 C1 15.35 1 13.7 1 12 C0.01 11.67 -0.98 11.34 -2 11 C-1.34 7.37 -0.68 3.74 0 0 Z " fill="#0404F7" transform="translate(182,193)"/>
<path d="M0 0 C1.28132813 0.00902344 2.56265625 0.01804688 3.8828125 0.02734375 C4.87023437 0.03894531 5.85765625 0.05054688 6.875 0.0625 C7.4375 2 7.4375 2 7.875 4.0625 C6.875 5.0625 6.875 5.0625 4.37109375 5.16015625 C2.85708984 5.14275391 2.85708984 5.14275391 1.3125 5.125 C0.30058594 5.11597656 -0.71132813 5.10695313 -1.75390625 5.09765625 C-2.92759766 5.08025391 -2.92759766 5.08025391 -4.125 5.0625 C-4.125 6.3825 -4.125 7.7025 -4.125 9.0625 C-1.155 9.0625 1.815 9.0625 4.875 9.0625 C5.205 10.3825 5.535 11.7025 5.875 13.0625 C2.0246895 15.62937367 0.28930237 14.89538724 -4.125 14.0625 C-4.125 17.3625 -4.125 20.6625 -4.125 24.0625 C-5.775 23.7325 -7.425 23.4025 -9.125 23.0625 C-9.87706793 15.5765315 -10.48810062 8.4975943 -9.125 1.0625 C-6.12186252 -0.43906874 -3.33432478 -0.03031204 0 0 Z " fill="#DE6C6C" transform="translate(60.125,42.9375)"/>
<path d="M0 0 C0.37632149 5.14306032 -0.95228446 8.33120856 -3 13 C-3.54895261 16.04419175 -4 18.90894811 -4 22 C-3.13375 22.12375 -3.13375 22.12375 -2.25 22.25 C0.61735579 23.20578526 1.91800845 24.85084743 4 27 C4.99 27.33 5.98 27.66 7 28 C7 28.99 7 29.98 7 31 C-2.10625621 31.62562066 -2.10625621 31.62562066 -5.5 29.25 C-9.89760341 22.65359488 -10.42409921 15.55098741 -9.82421875 7.69921875 C-9.4375 5.875 -9.4375 5.875 -8 3 C-5.24731356 1.22222334 -3.31026991 0 0 0 Z " fill="#0606ED" transform="translate(23,180)"/>
<path d="M0 0 C0.99 0 1.98 0 3 0 C1.79618552 2.49361571 0.54571278 4.68143083 -1 7 C0.04874998 9.62187494 0.64931313 10.79371361 3.125 12.25 C3.74375 12.4975 4.3625 12.745 5 13 C4.67 14.32 4.34 15.64 4 17 C3.67 16.34 3.34 15.68 3 15 C2.34 15 1.68 15 1 15 C-0.625 13.5 -0.625 13.5 -2 12 C-1.67 12.99 -1.34 13.98 -1 15 C-1.72050993 18.20954422 -2.21506 20.32719429 -4.75 22.5 C-7.98967814 23.21992848 -10.01631264 22.32608327 -13 21 C-14.48220331 18.03559338 -14.4689146 16.29816405 -14 13 C-12.14915264 10.55142857 -9.90463451 8.65685498 -7.5625 6.6875 C-6.95083984 6.15060547 -6.33917969 5.61371094 -5.70898438 5.06054688 C-4.15012361 3.6946059 -2.57617564 2.34592422 -1 1 C-0.67 0.67 -0.34 0.34 0 0 Z " fill="#C4C3D6" transform="translate(164,137)"/>
<path d="M0 0 C6.71700347 -0.31985731 11.75726932 0.5206176 18 3 C18 3.66 18 4.32 18 5 C18.66 5 19.32 5 20 5 C20 5.66 20 6.32 20 7 C20.99 7.33 21.98 7.66 23 8 C23.6875 10.0625 23.6875 10.0625 24 12 C19.25 13.125 19.25 13.125 17 12 C17 11.34 17 10.68 17 10 C16.43490723 9.9498877 15.86981445 9.89977539 15.28759766 9.84814453 C12.73246147 9.61633728 10.17882238 9.3708421 7.625 9.125 C6.29082031 9.00705078 6.29082031 9.00705078 4.9296875 8.88671875 C4.07890625 8.80292969 3.228125 8.71914062 2.3515625 8.6328125 C1.17327881 8.52283936 1.17327881 8.52283936 -0.02880859 8.41064453 C-2 8 -2 8 -4 6 C-6.10820797 6.3185177 -6.10820797 6.3185177 -8 7 C-5.59563974 3.39345961 -4.05320393 3.14547068 0 2 C0 1.34 0 0.68 0 0 Z " fill="#0303F2" transform="translate(193,173)"/>
<path d="M0 0 C2.89932357 2.39509338 3.50168276 4.31245243 4 8 C2.68 7.67 1.36 7.34 0 7 C-0.54372951 10.05847848 -1 12.88772805 -1 16 C-1.66 15.67 -2.32 15.34 -3 15 C-3.33 23.58 -3.66 32.16 -4 41 C-4.33 41 -4.66 41 -5 41 C-5.33 33.08 -5.66 25.16 -6 17 C-8.03123075 19.03123075 -7.25669618 23.17768866 -7.31640625 25.97265625 C-7.33718735 26.77029892 -7.35796844 27.56794159 -7.37937927 28.38975525 C-7.44496158 30.94724611 -7.50379967 33.5048428 -7.5625 36.0625 C-7.60567699 37.79232882 -7.64929101 39.52214679 -7.69335938 41.25195312 C-7.80065172 45.5011926 -7.90189426 49.7505389 -8 54 C-8.33 54 -8.66 54 -9 54 C-9.10127533 47.07670562 -9.17141266 40.15360164 -9.21972656 33.22973633 C-9.23986357 30.87354392 -9.26717516 28.51740161 -9.30175781 26.16137695 C-9.35018287 22.77803194 -9.37294796 19.3953466 -9.390625 16.01171875 C-9.41127014 14.95538742 -9.43191528 13.89905609 -9.45318604 12.81071472 C-9.45348816 11.82992447 -9.45379028 10.84913422 -9.45410156 9.83862305 C-9.46742523 8.54289619 -9.46742523 8.54289619 -9.48101807 7.22099304 C-9 5 -9 5 -7.14349365 3.20930481 C-4.57837945 1.76213237 -2.90035091 1.75830409 0 2 C0 1.34 0 0.68 0 0 Z " fill="#100FEC" transform="translate(34,104)"/>
<path d="M0 0 C1 2 1 2 0.5 4.375 C-0.47642879 11.45410875 -0.4604155 20.10587952 4 26 C6.28431033 26.94141059 6.28431033 26.94141059 9 27 C10.258125 27.185625 11.51625 27.37125 12.8125 27.5625 C13.864375 27.706875 14.91625 27.85125 16 28 C16 27.01 16 26.02 16 25 C15.401875 24.87625 14.80375 24.7525 14.1875 24.625 C12 24 12 24 9 22 C9.33 21.34 9.66 20.68 10 20 C10.83724609 20.73089844 10.83724609 20.73089844 11.69140625 21.4765625 C15.54607659 24.02025359 19.53467373 23.55002398 24 23 C27.02286884 21.61451845 28.66871425 20.33128575 31 18 C30.875 19.8046875 30.875 19.8046875 30 22 C27.3125 23.6328125 27.3125 23.6328125 24 25.125 C19.739148 26.73934932 19.739148 26.73934932 17 30 C16.34 30 15.68 30 15 30 C15.33 30.66 15.66 31.32 16 32 C19.96 32 23.92 32 28 32 C23.86395936 34.75736043 19.91089275 35 15 35 C13.58835863 34.54654732 12.19223489 34.04284651 10.8125 33.5 C10.09707031 33.2215625 9.38164062 32.943125 8.64453125 32.65625 C8.10183594 32.4396875 7.55914062 32.223125 7 32 C7 31.34 7 30.68 7 30 C6.39671875 29.92652344 5.7934375 29.85304687 5.171875 29.77734375 C2.20900698 28.71689279 1.67794815 27.31702961 0.25 24.5625 C-0.17796875 23.75941406 -0.6059375 22.95632812 -1.046875 22.12890625 C-2 20 -2 20 -2 18 C-2.66 17.67 -3.32 17.34 -4 17 C-4.37484035 11.12750125 -3.25153948 6.43635958 -1 1 C-0.67 0.67 -0.34 0.34 0 0 Z " fill="#5555DF" transform="translate(14,183)"/>
<path d="M0 0 C13.03669725 -0.7706422 13.03669725 -0.7706422 19 4 C19.9375 6.25 19.9375 6.25 20 8 C20.66 8 21.32 8 22 8 C23.76462683 11.08809695 24 12.23312136 24 16 C23.01 16 22.02 16 21 16 C20.773125 15.38125 20.54625 14.7625 20.3125 14.125 C18.62070165 11.38589791 17.00755839 10.94975528 14 10 C14 9.34 14 8.68 14 8 C8.06 8 2.12 8 -4 8 C-3.67 6.68 -3.34 5.36 -3 4 C-3.33 3.34 -3.66 2.68 -4 2 C-2.865625 2.020625 -1.73125 2.04125 -0.5625 2.0625 C2.81575674 2.41577477 2.81575674 2.41577477 4 1 C2.68 0.67 1.36 0.34 0 0 Z " fill="#0504F2" transform="translate(28,174)"/>
<path d="M0 0 C1.65 0 3.3 0 5 0 C5 6.27 5 12.54 5 19 C8.3 19 11.6 19 15 19 C14.67 20.65 14.34 22.3 14 24 C8.58264203 24.93402724 5.19548425 25.20808081 0 23 C-1.00220537 15.16737959 -0.8895125 7.8413948 0 0 Z " fill="#A7A7DB" transform="translate(155,182)"/>
<path d="M0 0 C1.32 0 2.64 0 4 0 C4 6.27 4 12.54 4 19 C7.3 19 10.6 19 14 19 C14.33 20.32 14.66 21.64 15 23 C14 24 14 24 10.62109375 24.09765625 C9.22652923 24.09098369 7.83198257 24.07902532 6.4375 24.0625 C5.72658203 24.05798828 5.01566406 24.05347656 4.28320312 24.04882812 C2.52209987 24.03700864 0.76103964 24.01907263 -1 24 C-1.22236782 20.93793495 -1.42834898 17.87623354 -1.625 14.8125 C-1.68945312 13.94818359 -1.75390625 13.08386719 -1.8203125 12.19335938 C-2.10046459 7.62337835 -2.2531859 4.153774 0 0 Z " fill="#B9BADD" transform="translate(139,182)"/>
<path d="M0 0 C1.35513954 0.00539291 1.35513954 0.00539291 2.73765564 0.01089478 C3.68389801 0.01074875 4.63014038 0.01060272 5.60505676 0.01045227 C8.74880729 0.0111518 11.89249938 0.01894608 15.03623962 0.02676392 C17.20957405 0.02862795 19.3829089 0.03005192 21.5562439 0.03105164 C27.28884533 0.03487795 33.0214216 0.0447092 38.75401306 0.05575562 C44.59873616 0.0659673 50.44346331 0.07054873 56.28819275 0.07559204 C67.76541737 0.08633137 79.24262328 0.10340915 90.71983337 0.12442017 C90.71983337 0.45442017 90.71983337 0.78442017 90.71983337 1.12442017 C59.69983337 1.45442017 28.67983337 1.78442017 -3.28016663 2.12442017 C-4.37933463 9.08313952 -4.37933463 9.08313952 -2.28016663 15.12442017 C-1.62016663 15.45442017 -0.96016663 15.78442017 -0.28016663 16.12442017 C0.60655212 17.83145142 0.60655212 17.83145142 1.40733337 19.93692017 C1.81532166 20.96752563 1.81532166 20.96752563 2.23155212 22.01895142 C2.78796068 24.41818512 2.49348276 25.81385657 1.71983337 28.12442017 C-1.28016663 22.37442017 -1.28016663 22.37442017 -1.28016663 20.12442017 C-1.94016663 19.79442017 -2.60016663 19.46442017 -3.28016663 19.12442017 C-3.28016663 18.13442017 -3.28016663 17.14442017 -3.28016663 16.12442017 C-3.94016663 15.79442017 -4.60016663 15.46442017 -5.28016663 15.12442017 C-8.05643442 9.98318351 -8.68696629 6.98608544 -7.28016663 1.12442017 C-5.36952364 -0.78622282 -2.54188767 0.00427405 0 0 Z " fill="#E38C8F" transform="translate(31.280166625976563,75.87557983398438)"/>
<path d="M0 0 C10.7421875 -0.1953125 10.7421875 -0.1953125 14 0 C16 2 16 2 16.1953125 3.9453125 C16.13020833 5.96354167 16.06510417 7.98177083 16 10 C15.195625 10.12375 14.39125 10.2475 13.5625 10.375 C12.716875 10.58125 11.87125 10.7875 11 11 C10.67 11.66 10.34 12.32 10 13 C7.36 12.34 4.72 11.68 2 11 C2 14.3 2 17.6 2 21 C1.34 21 0.68 21 0 21 C0 14.07 0 7.14 0 0 Z M3 3 C3 4.65 3 6.3 3 8 C7.65052872 8.26932521 7.65052872 8.26932521 12 7 C12 5.68 12 4.36 12 3 C9.03 3 6.06 3 3 3 Z " fill="#DD6A6B" transform="translate(11,45)"/>
<path d="M0 0 C0.99 0.495 0.99 0.495 2 1 C1.67 6.28 1.34 11.56 1 17 C2.98 17 4.96 17 7 17 C6.67 15.02 6.34 13.04 6 11 C8.5654594 13.5654594 8.54046087 15.47686668 9 19 C9.66 19 10.32 19 11 19 C24.0407916 43.16058158 24.0407916 43.16058158 26 50 C25.67 50.99 25.34 51.98 25 53 C24.50371094 51.93523437 24.00742188 50.87046875 23.49609375 49.7734375 C22.08256763 46.74405219 20.65046956 43.7241327 19.2109375 40.70703125 C17.81462102 37.77067752 16.4861059 34.82158578 15.2265625 31.82421875 C14.67195314 30.57027794 14.11726976 29.31636986 13.5625 28.0625 C12.85287109 26.37833984 12.85287109 26.37833984 12.12890625 24.66015625 C9.59422055 20.92348189 9.59422055 20.92348189 1 20 C1 27.26 1 34.52 1 42 C0.67 42 0.34 42 0 42 C0 28.14 0 14.28 0 0 Z " fill="#E8B8B7" transform="translate(40,117)"/>
<path d="M0 0 C4.95 0 9.9 0 15 0 C15 0.66 15 1.32 15 2 C11.04 2 7.08 2 3 2 C3 4.31 3 6.62 3 9 C6.96 9 10.92 9 15 9 C15 9.66 15 10.32 15 11 C11.04 11 7.08 11 3 11 C3 13.64 3 16.28 3 19 C7.29 19 11.58 19 16 19 C16 19.66 16 20.32 16 21 C10.72 21 5.44 21 0 21 C0 14.07 0 7.14 0 0 Z " fill="#D11A1C" transform="translate(32,45)"/>
<path d="M0 0 C0.02894547 3.45831586 0.04678 6.91660072 0.0625 10.375 C0.07087891 11.35984375 0.07925781 12.3446875 0.08789062 13.359375 C0.09272461 14.77089844 0.09272461 14.77089844 0.09765625 16.2109375 C0.10551147 17.51490479 0.10551147 17.51490479 0.11352539 18.84521484 C0 21 0 21 -1 23 C-3.57317703 23.3448897 -6.03950772 23.56076018 -8.625 23.6875 C-9.32496094 23.73455078 -10.02492188 23.78160156 -10.74609375 23.83007812 C-15.32240348 24.08903443 -19.48491503 23.78806601 -24 23 C-23.86183041 19.35383329 -23.71318466 15.70816926 -23.5625 12.0625 C-23.50352539 10.50112305 -23.50352539 10.50112305 -23.44335938 8.90820312 C-23.40146484 7.91884766 -23.35957031 6.92949219 -23.31640625 5.91015625 C-23.27974854 4.99371338 -23.24309082 4.07727051 -23.20532227 3.13305664 C-23 1 -23 1 -22 0 C-19.24384294 -0.26615251 -16.51269627 -0.46974104 -13.75 -0.625 C-12.98558594 -0.6765625 -12.22117187 -0.728125 -11.43359375 -0.78125 C-10.68722656 -0.82507813 -9.94085938 -0.86890625 -9.171875 -0.9140625 C-8.1523877 -0.9752124 -8.1523877 -0.9752124 -7.11230469 -1.03759766 C-4.64947204 -0.99376083 -2.39840134 -0.5412877 0 0 Z M-22 1 C-22 7.6 -22 14.2 -22 21 C-15.4 21 -8.8 21 -2 21 C-2 14.4 -2 7.8 -2 1 C-8.6 1 -15.2 1 -22 1 Z " fill="#DD4A4A" transform="translate(88,114)"/>
<path d="M0 0 C0.96088383 2.88265149 1.11670941 4.67662271 1.09765625 7.66796875 C1.09282227 9.00698242 1.09282227 9.00698242 1.08789062 10.37304688 C1.07951172 11.30181641 1.07113281 12.23058594 1.0625 13.1875 C1.05798828 14.12787109 1.05347656 15.06824219 1.04882812 16.03710938 C1.03704626 18.35813712 1.02059558 20.67903644 1 23 C-0.65614657 23.38218767 -2.32457024 23.71395102 -4 24 C-6.27441466 21.72558534 -5.85881772 17.09745376 -6 14 C-5.8866571 9.64369029 -5.73575351 5.29935962 -5 1 C-3 0 -3 0 0 0 Z " fill="#E07475" transform="translate(138,43)"/>
<path d="M0 0 C1.65 0 3.3 0 5 0 C5.0867982 3.79152334 5.14032207 7.58279296 5.1875 11.375 C5.21263672 12.45523438 5.23777344 13.53546875 5.26367188 14.6484375 C5.27333984 15.6796875 5.28300781 16.7109375 5.29296875 17.7734375 C5.3086792 18.72653809 5.32438965 19.67963867 5.34057617 20.66162109 C5.22818604 21.43328613 5.1157959 22.20495117 5 23 C4.01 23.66 3.02 24.32 2 25 C1.34 24.67 0.68 24.34 0 24 C-1.52212729 15.97423792 -0.69205717 8.08109832 0 0 Z " fill="#6364D2" transform="translate(130,182)"/>
<path d="M0 0 C3.0625 2.25 3.0625 2.25 5 5 C4.8125 7.3125 4.8125 7.3125 4 9 C2.0625 8.6875 2.0625 8.6875 0 8 C-0.33 7.01 -0.66 6.02 -1 5 C-4.46941546 5.45822468 -7.67395049 5.89131683 -11 7 C-11 10.96 -11 14.92 -11 19 C-11.66 18.67 -12.32 18.34 -13 18 C-14.49736108 13.18102807 -14.39397539 9.03598844 -12.1875 4.5 C-9.4190799 -0.53712539 -5.51641668 -0.94747615 0 0 Z " fill="#DD7777" transform="translate(104,43)"/>
<path d="M0 0 C2.39550925 0.66083014 3.69084131 1.45929568 4.93359375 3.6328125 C7.60288301 10.14638917 7.95132621 15.77898469 5.625 22.4375 C4 26 4 26 2 27 C2.31710938 26.15179688 2.63421875 25.30359375 2.9609375 24.4296875 C4.02871232 20.90522775 4.40041079 17.79329043 4.625 14.125 C4.69976562 12.97257813 4.77453125 11.82015625 4.8515625 10.6328125 C4.90054688 9.76398438 4.94953125 8.89515625 5 8 C4.34 8 3.68 8 3 8 C3 7.01 3 6.02 3 5 C2.34 5 1.68 5 1 5 C0.67 5.99 0.34 6.98 0 8 C-0.66 8 -1.32 8 -2 8 C-2 11.63 -2 15.26 -2 19 C-2.66 19 -3.32 19 -4 19 C-4.33 20.32 -4.66 21.64 -5 23 C-5.66 22.67 -6.32 22.34 -7 22 C-6.649375 21.484375 -6.29875 20.96875 -5.9375 20.4375 C-3.91530231 15.17978601 -6.28516273 9.14451181 -8 4 C-8.66 3.34 -9.32 2.68 -10 2 C-8.68 2 -7.36 2 -6 2 C-6 2.66 -6 3.32 -6 4 C-3.69 4 -1.38 4 1 4 C0.67 2.68 0.34 1.36 0 0 Z " fill="#1C1CD3" transform="translate(216,181)"/>
<path d="M0 0 C4.95 0 9.9 0 15 0 C15 0.66 15 1.32 15 2 C10.71 2 6.42 2 2 2 C2 4.31 2 6.62 2 9 C5.96 9 9.92 9 14 9 C14 9.66 14 10.32 14 11 C10.04 11 6.08 11 2 11 C2 13.64 2 16.28 2 19 C6.29 19 10.58 19 15 19 C15 19.66 15 20.32 15 21 C10.05 21 5.1 21 0 21 C0 14.07 0 7.14 0 0 Z " fill="#D21214" transform="translate(188,45)"/>
<path d="M0 0 C0.495 0.99 0.495 0.99 1 2 C1.99 1.67 2.98 1.34 4 1 C2.71111971 3.8751945 1.46733017 6.0071564 -1 8 C-3.1875 8.6875 -3.1875 8.6875 -5 9 C-5 9.66 -5 10.32 -5 11 C-13.61738853 11.30654742 -20.93475404 11.39589303 -29 8 C-29 7.34 -29 6.68 -29 6 C-30.32 5.34 -31.64 4.68 -33 4 C-32.01 3.34 -31.02 2.68 -30 2 C-27.4375 2.625 -27.4375 2.625 -25 4 C-23.84765625 6.0859375 -23.84765625 6.0859375 -23 8 C-20.77090129 8.02714735 -18.54170633 8.04646254 -16.3125 8.0625 C-15.07113281 8.07410156 -13.82976562 8.08570313 -12.55078125 8.09765625 C-9.53764546 8.01478673 -6.91724661 7.70839449 -4 7 C-4 6.01 -4 5.02 -4 4 C-3.01 4 -2.02 4 -1 4 C-0.67 2.68 -0.34 1.36 0 0 Z " fill="#3E3FD8" transform="translate(214,207)"/>
<path d="M0 0 C2.22855574 -0.0814222 4.45797655 -0.13938079 6.6875 -0.1875 C8.54955078 -0.23970703 8.54955078 -0.23970703 10.44921875 -0.29296875 C14.22874952 0.01887372 16.09873361 0.58227801 19 3 C19.3125 6.6875 19.3125 6.6875 19 10 C18.67 10 18.34 10 18 10 C17.34 7.69 16.68 5.38 16 3 C9.07 2.505 9.07 2.505 2 2 C2 8.6 2 15.2 2 22 C2.66 22 3.32 22 4 22 C4 19.03 4 16.06 4 13 C9.53846154 12.63076923 9.53846154 12.63076923 11.875 14.5 C12.24625 14.995 12.6175 15.49 13 16 C12.67 16.66 12.34 17.32 12 18 C11.401875 17.525625 10.80375 17.05125 10.1875 16.5625 C7.99617076 14.83534256 7.99617076 14.83534256 5 14 C5 16.97 5 19.94 5 23 C3.68 23.33 2.36 23.66 1 24 C-0.94305123 18.41558177 -1.12697555 13.92055462 -0.625 8.0625 C-0.56828125 7.28326172 -0.5115625 6.50402344 -0.453125 5.70117188 C-0.31315654 3.79993361 -0.15813968 1.89981314 0 0 Z " fill="#9191D2" transform="translate(108,182)"/>
<path d="M0 0 C0.33 0 0.66 0 1 0 C0.125 6.75 0.125 6.75 -1 9 C1.31 9 3.62 9 6 9 C6.33 7.68 6.66 6.36 7 5 C9.56984833 8.85477249 10.85814266 12.52040582 12 17 C11.34 17 10.68 17 10 17 C10 16.01 10 15.02 10 14 C9.01 14 8.02 14 7 14 C7 13.34 7 12.68 7 12 C3.59919423 12.10407917 3.59919423 12.10407917 0 13 C-1.69882448 15.49759982 -1.69882448 15.49759982 -3 18 C-4.32 18 -5.64 18 -7 18 C-5.06375702 11.79522136 -2.74390859 5.89174281 0 0 Z " fill="#5152CF" transform="translate(72,187)"/>
<path d="M0 0 C3.80127597 1.47092853 5.2095802 3.40216428 7.25 6.875 C7.77078125 7.73867187 8.2915625 8.60234375 8.828125 9.4921875 C10 12 10 12 10 16 C6.7 16 3.4 16 0 16 C-1.32 13.03 -2.64 10.06 -4 7 C-1.69 7.33 0.62 7.66 3 8 C3 9.65 3 11.3 3 13 C3.99 13 4.98 13 6 13 C5.34 10.36 4.68 7.72 4 5 C3.34 5 2.68 5 2 5 C1.67 5.66 1.34 6.32 1 7 C0.67 4.69 0.34 2.38 0 0 Z " fill="#1818D4" transform="translate(46,177)"/>
<path d="M0 0 C0.33 0.99 0.66 1.98 1 3 C2.98 2.34 4.96 1.68 7 1 C5.94124926 4.40312738 4.99097846 7.01353231 3 10 C2.54398739 12.50896686 2.54398739 12.50896686 2.375 15.1875 C2.30023438 16.08855469 2.22546875 16.98960937 2.1484375 17.91796875 C2.09945312 18.60503906 2.05046875 19.29210937 2 20 C2.66 20 3.32 20 4 20 C4.99 21.98 5.98 23.96 7 26 C5.35 26 3.7 26 2 26 C2 25.01 2 24.02 2 23 C1.34 22.67 0.68 22.34 0 22 C-0.02696365 20.20841511 -0.04637917 18.41671527 -0.0625 16.625 C-0.07410156 15.62726563 -0.08570313 14.62953125 -0.09765625 13.6015625 C0 11 0 11 1 9 C0.01 9 -0.98 9 -2 9 C-2.6875 6.1875 -2.6875 6.1875 -3 3 C-1.5625 1.125 -1.5625 1.125 0 0 Z " fill="#0A0AE3" transform="translate(183,179)"/>
<path d="M0 0 C2.50961144 1.66983817 3.17191085 3.08454472 4.33203125 5.84375 C4.67878906 6.6378125 5.02554688 7.431875 5.3828125 8.25 C6.01953125 10.34375 6.01953125 10.34375 5.01953125 12.34375 C4.35953125 11.35375 3.69953125 10.36375 3.01953125 9.34375 C2.68953125 10.66375 2.35953125 11.98375 2.01953125 13.34375 C0.03953125 13.34375 -1.94046875 13.34375 -3.98046875 13.34375 C-3.98046875 11.69375 -3.98046875 10.04375 -3.98046875 8.34375 C-5.30046875 9.99375 -6.62046875 11.64375 -7.98046875 13.34375 C-7.38849403 8.48955734 -6.11654387 4.70134324 -3.98046875 0.34375 C-1.98046875 -0.65625 -1.98046875 -0.65625 0 0 Z M-0.98046875 7.34375 C-1.64046875 8.99375 -2.30046875 10.64375 -2.98046875 12.34375 C-1.66046875 12.34375 -0.34046875 12.34375 1.01953125 12.34375 C0.68953125 10.69375 0.35953125 9.04375 0.01953125 7.34375 C-0.31046875 7.34375 -0.64046875 7.34375 -0.98046875 7.34375 Z " fill="#DF6D6D" transform="translate(78.98046875,43.65625)"/>
<path d="M0 0 C2.06183633 -0.08150744 4.12461349 -0.1394194 6.1875 -0.1875 C7.33605469 -0.22230469 8.48460938 -0.25710937 9.66796875 -0.29296875 C13.57912447 0.0509195 16.2059851 1.2059851 19 4 C19.04080783 5.99958364 19.04254356 8.00045254 19 10 C18.01 10.495 18.01 10.495 17 11 C16.9175 9.88625 16.835 8.7725 16.75 7.625 C16.434878 4.01828239 16.434878 4.01828239 14.3125 2.8125 C11.58496074 1.8541754 9.13167218 1.58083373 6.25 1.375 C4.5175 1.25125 2.785 1.1275 1 1 C1 8.26 1 15.52 1 23 C1.66 23.33 2.32 23.66 3 24 C0.36 24 -2.28 24 -5 24 C-4.01 23.67 -3.02 23.34 -2 23 C-2.02320312 21.92621094 -2.04640625 20.85242188 -2.0703125 19.74609375 C-2.08908624 18.30990285 -2.1072847 16.87370435 -2.125 15.4375 C-2.15013672 14.38079102 -2.15013672 14.38079102 -2.17578125 13.30273438 C-2.22022044 8.48108178 -1.52768004 4.57702562 0 0 Z " fill="#BDBCDE" transform="translate(87,182)"/>
<path d="M0 0 C0.99 0 1.98 0 3 0 C3 6.6 3 13.2 3 20 C6.3 20 9.6 20 13 20 C13 20.66 13 21.32 13 22 C8.71 22 4.42 22 0 22 C0 14.74 0 7.48 0 0 Z " fill="#2222C7" transform="translate(139,183)"/>
<path d="M0 0 C1.43861294 0.08746284 2.87597508 0.19565348 4.3125 0.3125 C5.11300781 0.37050781 5.91351563 0.42851563 6.73828125 0.48828125 C9.4013248 1.0908006 10.39869414 1.80873935 12 4 C11.6875 6.6875 11.6875 6.6875 11 9 C9.0625 8.6875 9.0625 8.6875 7 8 C6.67 7.01 6.34 6.02 6 5 C3.02934491 5.34227572 3.02934491 5.34227572 0 6 C-0.33 6.66 -0.66 7.32 -1 8 C-0.40832031 8.09796875 0.18335938 8.1959375 0.79296875 8.296875 C5.73602871 9.23226644 9.58283838 10.03168328 13 14 C13.3125 17.25 13.3125 17.25 13 20 C12.34 20.33 11.68 20.66 11 21 C10.979375 19.906875 10.95875 18.81375 10.9375 17.6875 C10.628125 16.470625 10.31875 15.25375 10 14 C6.7687027 12.05541916 6.7687027 12.05541916 3 11 C1.5459375 10.4121875 1.5459375 10.4121875 0.0625 9.8125 C-0.618125 9.544375 -1.29875 9.27625 -2 9 C-1.125 4.125 -1.125 4.125 0 3 C4.09789669 3.37943488 6.53958935 3.69305957 10 6 C7.80051868 2.70077803 7.49675855 2.57190099 3.875 1.8125 C1.956875 1.4103125 1.956875 1.4103125 0 1 C0 0.67 0 0.34 0 0 Z " fill="#E4A4A2" transform="translate(212,43)"/>
<path d="M0 0 C4.6495144 1.1623786 6.02968641 2.3071777 9 6 C9.8125 9.8125 9.8125 9.8125 10 13 C9.34 13 8.68 13 8 13 C4 7.58823529 4 7.58823529 4 5 C3.34 5 2.68 5 2 5 C2 10.28 2 15.56 2 21 C1.34 21 0.68 21 0 21 C0 14.07 0 7.14 0 0 Z " fill="#DA1216" transform="translate(166,45)"/>
<path d="M0 0 C3.78232092 0.08956315 6.19093551 0.87779135 9.1875 3.3125 C9.1875 3.9725 9.1875 4.6325 9.1875 5.3125 C8.465625 4.9825 7.74375 4.6525 7 4.3125 C4.17052573 3.30646471 2.15854534 3.14272598 -0.8125 3.3125 C-1.1425 4.9625 -1.4725 6.6125 -1.8125 8.3125 C-1.19375 8.580625 -0.575 8.84875 0.0625 9.125 C2.1875 10.3125 2.1875 10.3125 4.1875 13.3125 C2.72802295 13.25243922 1.26970728 13.1636311 -0.1875 13.0625 C-1.40566406 12.99289063 -1.40566406 12.99289063 -2.6484375 12.921875 C-4.8125 12.3125 -4.8125 12.3125 -6.1171875 10.4609375 C-7.09020421 7.45442519 -6.60121283 5.33589919 -5.8125 2.3125 C-3.8125 0.3125 -3.8125 0.3125 0 0 Z " fill="#DD6564" transform="translate(212.8125,43.6875)"/>
<path d="M0 0 C0.99 0 1.98 0 3 0 C3 6.93 3 13.86 3 21 C1.68 21 0.36 21 -1 21 C-4 16.92857143 -4 16.92857143 -4 14 C-3.01 14 -2.02 14 -1 14 C-0.67 9.38 -0.34 4.76 0 0 Z " fill="#DA282A" transform="translate(180,45)"/>
<path d="M0 0 C4.31612591 0.43161259 6.37088082 1.73763869 9.75 4.375 C9.42 6.025 9.09 7.675 8.75 9.375 C5.88275314 8.80155063 4.8885485 8.5135485 2.75 6.375 C-0.29182893 6.12494614 -0.29182893 6.12494614 -3.25 6.375 C-4.91561399 8.04061399 -4.42115945 10.03462705 -4.4375 12.3125 C-4.45167969 13.20839844 -4.46585937 14.10429688 -4.48046875 15.02734375 C-4.48194769 17.56614534 -4.48194769 17.56614534 -2.25 19.375 C0.32061311 20.02267793 0.32061311 20.02267793 2.75 20.375 C2.75 20.705 2.75 21.035 2.75 21.375 C-0.97859795 21.79870431 -2.66257103 21.82686844 -5.6875 19.5 C-7.90584491 15.06331017 -7.44545096 11.13154785 -6.25 6.375 C-4.25 4.375 -4.25 4.375 -2.0859375 4.1796875 C-0.86777344 4.21449219 -0.86777344 4.21449219 0.375 4.25 C1.60089844 4.27707031 1.60089844 4.27707031 2.8515625 4.3046875 C3.79128906 4.33949219 3.79128906 4.33949219 4.75 4.375 C5.08 5.365 5.41 6.355 5.75 7.375 C6.41 7.375 7.07 7.375 7.75 7.375 C7.06617939 4.38360209 7.06617939 4.38360209 5.1875 3.1875 C1.63877617 2.00459206 -1.51701621 2.25056721 -5.25 2.375 C-3.25 0.375 -3.25 0.375 0 0 Z " fill="#E6AAA9" transform="translate(121.25,42.625)"/>
<path d="M0 0 C1 2 1 2 0.5 4.375 C-0.50930872 11.69248822 -0.26537857 19.75426709 4 26 C6.56197123 28.81356892 6.56197123 28.81356892 9 31 C8.67 31.66 8.34 32.32 8 33 C7.505 31.515 7.505 31.515 7 30 C6.37609375 29.86464844 5.7521875 29.72929687 5.109375 29.58984375 C3 29 3 29 1.515625 27.00390625 C1.09796875 26.19824219 0.6803125 25.39257812 0.25 24.5625 C-0.17796875 23.75941406 -0.6059375 22.95632812 -1.046875 22.12890625 C-2 20 -2 20 -2 18 C-2.66 17.67 -3.32 17.34 -4 17 C-4.37484035 11.12750125 -3.25153948 6.43635958 -1 1 C-0.67 0.67 -0.34 0.34 0 0 Z " fill="#6162D3" transform="translate(14,183)"/>
<path d="M0 0 C2.56789838 1.76543013 3.84280806 3.18760979 4.44140625 6.28125 C4.65520172 10.86061107 4.50827507 14.02535462 1.5 17.625 C0.675 18.40875 -0.15 19.1925 -1 20 C-3 19 -3 19 -4 18 C-6.33297433 17.95907063 -8.66705225 17.95758277 -11 18 C-11.66 16.68 -12.32 15.36 -13 14 C-11.515 14.99 -11.515 14.99 -10 16 C-6.89143 16.23314275 -4.98586231 15.99528744 -2 15 C-1.67 11.7 -1.34 8.4 -1 5 C1 7 1 7 1.125 9.625 C1.08375 10.40875 1.0425 11.1925 1 12 C1.66 12 2.32 12 3 12 C2.68950274 10.56206608 2.3765224 9.1246682 2.0625 7.6875 C1.88847656 6.88699219 1.71445313 6.08648437 1.53515625 5.26171875 C1.00113841 2.854599 1.00113841 2.854599 0 0 Z " fill="#E18382" transform="translate(159,46)"/>
<path d="M0 0 C0.99 0 1.98 0 3 0 C3 6.6 3 13.2 3 20 C5.97 20 8.94 20 12 20 C12 20.33 12 20.66 12 21 C8.04 21 4.08 21 0 21 C0 14.07 0 7.14 0 0 Z " fill="#2526CC" transform="translate(156,183)"/>
<path d="M0 0 C1.258125 -0.04125 2.51625 -0.0825 3.8125 -0.125 C4.52019531 -0.14820313 5.22789062 -0.17140625 5.95703125 -0.1953125 C8 0 8 0 11 2 C13.34005168 6.50676621 14.37136045 9.92474054 14 15 C13.34 15 12.68 15 12 15 C11.67 12.69 11.34 10.38 11 8 C10.34 8 9.68 8 9 8 C8.67 6.68 8.34 5.36 8 4 C5.36 4 2.72 4 0 4 C-0.33 3.34 -0.66 2.68 -1 2 C-0.67 1.34 -0.34 0.68 0 0 Z " fill="#DA5E5E" transform="translate(148,43)"/>
<path d="M0 0 C0 2.64 0 5.28 0 8 C-2.97 7.67 -5.94 7.34 -9 7 C-9.22417836 4.2351335 -9.32233508 2.53722513 -7.875 0.125 C-5.07848948 -1.55290631 -3.06309468 -0.74875648 0 0 Z " fill="#0505E6" transform="translate(160,149)"/>
<path d="M0 0 C10.55808656 0.96355353 10.55808656 0.96355353 15 2 C15 2.66 15 3.32 15 4 C14.34 4 13.68 4 13 4 C13 4.66 13 5.32 13 6 C11.22925083 6.02705729 9.45838289 6.04642195 7.6875 6.0625 C6.70136719 6.07410156 5.71523437 6.08570313 4.69921875 6.09765625 C2 6 2 6 -1 5 C-0.67 3.35 -0.34 1.7 0 0 Z " fill="#0202F7" transform="translate(192,210)"/>
<path d="M0 0 C0.99 0.495 0.99 0.495 2 1 C1.67 6.28 1.34 11.56 1 17 C2.98 17 4.96 17 7 17 C6.67 15.02 6.34 13.04 6 11 C8.5654594 13.5654594 8.54046087 15.47686668 9 19 C6.36 19 3.72 19 1 19 C1 26.59 1 34.18 1 42 C0.67 42 0.34 42 0 42 C0 28.14 0 14.28 0 0 Z " fill="#A19BD2" transform="translate(40,117)"/>
<path d="M0 0 C0.99 0.66 1.98 1.32 3 2 C3 2.99 3 3.98 3 5 C2.34 5 1.68 5 1 5 C0.67 4.34 0.34 3.68 0 3 C-2.97 3 -5.94 3 -9 3 C-10.80317221 6.96697886 -11.49202991 10.6822542 -12 15 C-12.66 15 -13.32 15 -14 15 C-14.58365019 5.07794677 -14.58365019 5.07794677 -11 1 C-7.09977788 -1.31905099 -4.32712685 -1.1288157 0 0 Z " fill="#D82224" transform="translate(126,45)"/>
<path d="M0 0 C0.99 0.33 1.98 0.66 3 1 C3 1.66 3 2.32 3 3 C3.680625 3.969375 4.36125 4.93875 5.0625 5.9375 C5.701875 6.948125 6.34125 7.95875 7 9 C6.67 9.99 6.34 10.98 6 12 C3.625 11.8125 3.625 11.8125 1 11 C-0.1875 8.5 -0.1875 8.5 -1 6 C-1.66 5.67 -2.32 5.34 -3 5 C-3.33 4.01 -3.66 3.02 -4 2 C-2.68 2 -1.36 2 0 2 C0 1.34 0 0.68 0 0 Z " fill="#7274D8" transform="translate(100,194)"/>
<path d="M0 0 C2.5 2.25 2.5 2.25 4 4 C3.67 4.66 3.34 5.32 3 6 C1.68 5.34 0.36 4.68 -1 4 C-1 3.34 -1 2.68 -1 2 C-1.66 2 -2.32 2 -3 2 C-3 1.34 -3 0.68 -3 0 C-10.43659188 -2.01670288 -17.31604457 -2.2137731 -25 -2 C-18.64048706 -8.35951294 -6.57006285 -4.34471898 0 0 Z " fill="#8181D3" transform="translate(214,176)"/>
<path d="M0 0 C1.2077558 3.62326739 0.54311128 4.64146369 -1 8 C1.31 8 3.62 8 6 8 C6 8.33 6 8.66 6 9 C3.36 9 0.72 9 -2 9 C-2.33 11.31 -2.66 13.62 -3 16 C-4.32 16.33 -5.64 16.66 -7 17 C-7.17942163 13.05272412 -7.09350689 10.4019487 -5 7 C-4.34 7 -3.68 7 -3 7 C-2.690625 6.21625 -2.38125 5.4325 -2.0625 4.625 C-1 2 -1 2 0 0 Z " fill="#D94545" transform="translate(75,50)"/>
<path d="M0 0 C0.66 0.33 1.32 0.66 2 1 C1.67 1.33 1.34 1.66 1 2 C0.98726301 4.03985647 0.98726301 4.03985647 1.25 6.375 C1.31703125 7.16648437 1.3840625 7.95796875 1.453125 8.7734375 C2.10048333 11.4091107 3.04812718 12.1798786 5 14 C5.984375 15.90234375 5.984375 15.90234375 6.75 17.9375 C7.01296875 18.60652344 7.2759375 19.27554688 7.546875 19.96484375 C8.07046274 22.31647491 7.74954377 23.73617523 7 26 C4 20.25 4 20.25 4 18 C3.34 17.67 2.68 17.34 2 17 C2 16.01 2 15.02 2 14 C1.34 13.67 0.68 13.34 0 13 C-2.06085642 8.87828716 -3.42161769 5.63779454 -3 1 C-2.01 0.67 -1.02 0.34 0 0 Z " fill="#D97476" transform="translate(26,78)"/>
<path d="M0 0 C2.31 0 4.62 0 7 0 C7 0.33 7 0.66 7 1 C5.35 1 3.7 1 2 1 C2 3.97 2 6.94 2 10 C4.64 10 7.28 10 10 10 C10 10.99 10 11.98 10 13 C7.36 12.34 4.72 11.68 2 11 C2 14.3 2 17.6 2 21 C1.34 21 0.68 21 0 21 C0 14.07 0 7.14 0 0 Z " fill="#DC0F12" transform="translate(11,45)"/>
<path d="M0 0 C0.33 0.66 0.66 1.32 1 2 C1.99 1.67 2.98 1.34 4 1 C2.71111971 3.8751945 1.46733017 6.0071564 -1 8 C-3.1875 8.6875 -3.1875 8.6875 -5 9 C-5 9.66 -5 10.32 -5 11 C-9.95 11 -14.9 11 -20 11 C-20 10.67 -20 10.34 -20 10 C-16.37 10 -12.74 10 -9 10 C-9 9.34 -9 8.68 -9 8 C-7.35 7.67 -5.7 7.34 -4 7 C-4 6.01 -4 5.02 -4 4 C-3.01 4 -2.02 4 -1 4 C-0.67 2.68 -0.34 1.36 0 0 Z " fill="#6C6CD8" transform="translate(214,207)"/>
<path d="M0 0 C0 1.32 0 2.64 0 4 C-7.28571429 7.57142857 -7.28571429 7.57142857 -12 6 C-12 5.34 -12 4.68 -12 4 C-11.34 4 -10.68 4 -10 4 C-9.67 3.01 -9.34 2.02 -9 1 C-5.8035914 -0.06546953 -3.34252724 -0.07427838 0 0 Z " fill="#0403EE" transform="translate(41,209)"/>
<path d="M0 0 C2.97 0 5.94 0 9 0 C8.52674767 6.4677819 5.55724267 10.66839639 0.875 14.9375 C-1 16 -1 16 -4 16 C-4 15.34 -4 14.68 -4 14 C-3.01 13.67 -2.02 13.34 -1 13 C-1 11.35 -1 9.7 -1 8 C0.65 8 2.3 8 4 8 C4 7.34 4 6.68 4 6 C4.97850195 4.97895449 5.97980427 3.9793879 7 3 C7.33 2.34 7.66 1.68 8 1 C5.36 1 2.72 1 0 1 C0 0.67 0 0.34 0 0 Z " fill="#6364DB" transform="translate(46,199)"/>
<path d="M0 0 C0.66 0.33 1.32 0.66 2 1 C1.1875 4.4375 1.1875 4.4375 0 8 C-3.93670488 9.31223496 -6.12488144 8.24296256 -10 7 C-10.33 5.68 -10.66 4.36 -11 3 C-10.34 3 -9.68 3 -9 3 C-9 3.66 -9 4.32 -9 5 C-6.13275314 4.42655063 -5.1385485 4.1385485 -3 2 C-2.34 2 -1.68 2 -1 2 C-0.67 1.34 -0.34 0.68 0 0 Z " fill="#3939DD" transform="translate(37,156)"/>
<path d="M0 0 C0.33 0 0.66 0 1 0 C1.06058594 0.91523438 1.12117187 1.83046875 1.18359375 2.7734375 C1.26738281 3.96195313 1.35117188 5.15046875 1.4375 6.375 C1.51871094 7.55835938 1.59992188 8.74171875 1.68359375 9.9609375 C1.81084936 12.91518901 1.81084936 12.91518901 3 15 C3.22467831 16.53668865 3.40796805 18.07968054 3.5625 19.625 C3.68818359 20.85089844 3.68818359 20.85089844 3.81640625 22.1015625 C3.87699219 22.72804687 3.93757812 23.35453125 4 24 C1.58339774 22.79169887 0.25607553 21.64756273 -0.74609375 19.11328125 C-2.41374623 12.5231787 -2.14679569 6.44038708 0 0 Z " fill="#696AD5" transform="translate(177,185)"/>
<path d="M0 0 C1.65 0 3.3 0 5 0 C4.65447612 2.55687669 4.24912987 4.57501375 2.9375 6.8125 C-0.24555699 8.7634059 -3.32430673 8.1807718 -7 8 C-7 7.34 -7 6.68 -7 6 C-6.21625 5.938125 -5.4325 5.87625 -4.625 5.8125 C-3.75875 5.544375 -2.8925 5.27625 -2 5 C-0.62533375 2.52363988 -0.62533375 2.52363988 0 0 Z " fill="#DB5F5F" transform="translate(105,58)"/>
<path d="M0 0 C3.81520434 0.40160046 5.44550292 1.22337274 8 4 C10.09989652 5.17574711 10.09989652 5.17574711 12 6 C5.6 5.50769231 5.6 5.50769231 2.5625 2.9375 C1.7890625 1.9784375 1.7890625 1.9784375 1 1 C2.86566488 4.62793998 2.86566488 4.62793998 6 7 C9.83936768 7.1421988 13.32016639 7.17754676 17 6 C15.84765625 7.484375 15.84765625 7.484375 14 9 C11.37109375 9.328125 11.37109375 9.328125 8.4375 9.25 C6.98150391 9.22679688 6.98150391 9.22679688 5.49609375 9.203125 C3 9 3 9 1 8 C0.26924352 5.6859378 -0.40138258 3.35171131 -1 1 C-0.67 0.67 -0.34 0.34 0 0 Z " fill="#E8A9A7" transform="translate(206,58)"/>
<path d="M0 0 C0.66 0 1.32 0 2 0 C2.08121924 1.60332791 2.13929134 3.20784026 2.1875 4.8125 C2.22230469 5.70582031 2.25710937 6.59914062 2.29296875 7.51953125 C2 10 2 10 0.55078125 11.82421875 C-1 13 -1 13 -2 13 C-2.66 9.04 -3.32 5.08 -4 1 C-3.01 1.33 -2.02 1.66 -1 2 C-0.67 1.34 -0.34 0.68 0 0 Z " fill="#0303F7" transform="translate(217,186)"/>
<path d="M0 0 C0.61875 0.66 1.2375 1.32 1.875 2 C3.75637427 4.2284549 3.75637427 4.2284549 6 4 C7.76462683 7.08809695 8 8.23312136 8 12 C7.01 12 6.02 12 5 12 C4.6596875 11.071875 4.6596875 11.071875 4.3125 10.125 C2.62070165 7.38589791 1.00755839 6.94975528 -2 6 C-1.125 1.125 -1.125 1.125 0 0 Z " fill="#0404F3" transform="translate(44,178)"/>
<path d="M0 0 C0.99 0.495 0.99 0.495 2 1 C2 3.64 2 6.28 2 9 C6.29 9 10.58 9 15 9 C15 9.66 15 10.32 15 11 C10.05 11 5.1 11 0 11 C0 7.37 0 3.74 0 0 Z " fill="#D71A1B" transform="translate(188,55)"/>
<path d="M0 0 C2.64 0.66 5.28 1.32 8 2 C7.835 3.051875 7.67 4.10375 7.5 5.1875 C7.10430322 8.20468796 6.90821029 10.97093972 7 14 C4.79459886 11.79459886 3.7599273 9.78605258 2.375 7 C1.92898437 6.113125 1.48296875 5.22625 1.0234375 4.3125 C0 2 0 2 0 0 Z " fill="#E8080A" transform="translate(56,146)"/>
<path d="M0 0 C2.96052484 3.36423277 3.92289822 6.69159287 5 11 C4.01 10.01 3.02 9.02 2 8 C1.67 9.32 1.34 10.64 1 12 C-0.98 12 -2.96 12 -5 12 C-4.125 6.25 -4.125 6.25 -3 4 C-2.01 3.67 -1.02 3.34 0 3 C0 2.01 0 1.02 0 0 Z M-2 6 C-2.66 7.65 -3.32 9.3 -4 11 C-2.68 11 -1.36 11 0 11 C-0.33 9.35 -0.66 7.7 -1 6 C-1.33 6 -1.66 6 -2 6 Z " fill="#E49290" transform="translate(80,45)"/>
<path d="M0 0 C3.13220429 2.5627126 4.04560617 5.10900977 5 9 C5.49964596 15.19560994 4.58051224 19.34272317 2 25 C1.34 25.33 0.68 25.66 0 26 C0.31710938 25.15179688 0.63421875 24.30359375 0.9609375 23.4296875 C2.02871232 19.90522775 2.40041079 16.79329043 2.625 13.125 C2.69976562 11.97257813 2.77453125 10.82015625 2.8515625 9.6328125 C2.90054688 8.76398438 2.94953125 7.89515625 3 7 C2.34 7 1.68 7 1 7 C0.67 4.69 0.34 2.38 0 0 Z " fill="#9E9EDA" transform="translate(218,182)"/>
<path d="M0 0 C2.475 0.99 2.475 0.99 5 2 C5.3125 4.8125 5.3125 4.8125 5 8 C2.5 9.875 2.5 9.875 0 11 C0 7.37 0 3.74 0 0 Z " fill="#0302F5" transform="translate(14,192)"/>
<path d="M0 0 C2.47062126 1.23531063 3.19386638 2.5057134 4.6875 4.8125 C5.14511719 5.49957031 5.60273437 6.18664062 6.07421875 6.89453125 C7.17818983 9.40525028 6.93616694 10.47518613 6 13 C1.32307692 11.52307692 1.32307692 11.52307692 -0.3125 8.875 C-0.539375 8.25625 -0.76625 7.6375 -1 7 C-0.34 7 0.32 7 1 7 C0.67 4.69 0.34 2.38 0 0 Z " fill="#9192D9" transform="translate(122,194)"/>
<path d="M0 0 C0 0.66 0 1.32 0 2 C3.66801395 3.35852368 5.49348338 2.47642805 9 1 C9.66 1.33 10.32 1.66 11 2 C10.67 2.99 10.34 3.98 10 5 C4.10304872 6.70701221 -0.41988817 4.95193635 -6 3 C-2.25 0 -2.25 0 0 0 Z " fill="#0303F8" transform="translate(199,174)"/>
<path d="M0 0 C2.97 0.495 2.97 0.495 6 1 C6 3.64 6 6.28 6 9 C4.68 9 3.36 9 2 9 C0.14223235 5.86501708 -0.20140476 3.62528568 0 0 Z " fill="#E63A39" transform="translate(42,118)"/>
<path d="M0 0 C0.99 0.33 1.98 0.66 3 1 C2.67 2.32 2.34 3.64 2 5 C2.66 5 3.32 5 4 5 C4 5.66 4 6.32 4 7 C4.99 6.67 5.98 6.34 7 6 C7.5534764 8.07553648 8 9.84365964 8 12 C8.33 12 8.66 12 9 12 C9 13.98 9 15.96 9 18 C6.35534962 14.8745041 5.15585285 11.91211733 4 8 C3.34 8 2.68 8 2 8 C1.34 5.36 0.68 2.72 0 0 Z " fill="#DE1B1C" transform="translate(47,128)"/>
<path d="M0 0 C8.57142857 -0.28571429 8.57142857 -0.28571429 12 2 C8.6875 3.625 8.6875 3.625 5 5 C4.01 4.34 3.02 3.68 2 3 C2 3.66 2 4.32 2 5 C1.34 5 0.68 5 0 5 C0 3.35 0 1.7 0 0 Z " fill="#F5EEEB" transform="translate(66,115)"/>
<path d="M0 0 C0.66 0 1.32 0 2 0 C2 1.32 2 2.64 2 4 C1.34 4 0.68 4 0 4 C0 7.96 0 11.92 0 16 C-0.66 15.67 -1.32 15.34 -2 15 C-3.2799919 10.42860035 -3.34030776 6.84337141 -1.5625 2.4375 C-1.046875 1.633125 -0.53125 0.82875 0 0 Z " fill="#D51E1F" transform="translate(93,46)"/>
<path d="M0 0 C0.66 0.33 1.32 0.66 2 1 C1.01 2.485 1.01 2.485 0 4 C-0.27877399 6.14943335 -0.27877399 6.14943335 -0.1875 8.4375 C-0.18105469 9.19933594 -0.17460937 9.96117187 -0.16796875 10.74609375 C-0.00451771 12.93937857 0.39883487 14.88870807 1 17 C-0.65 17 -2.3 17 -4 17 C-4 14.03486262 -3.63474263 11.41729628 -3.125 8.5 C-2.88136719 7.06140625 -2.88136719 7.06140625 -2.6328125 5.59375 C-2 3 -2 3 0 0 Z " fill="#6667D6" transform="translate(22,186)"/>
<path d="M0 0 C7.56198897 -0.44701413 12.76335625 -0.53574091 19 4 C19 4.66 19 5.32 19 6 C17.68 5.67 16.36 5.34 15 5 C15 4.34 15 3.68 15 3 C10.00632136 2.2717552 5.00890086 1.61512818 0 1 C0 0.67 0 0.34 0 0 Z M13 5 C13.66 5.33 14.32 5.66 15 6 C14.67 6.66 14.34 7.32 14 8 C12.35 8 10.7 8 9 8 C10.32 7.67 11.64 7.34 13 7 C13 6.34 13 5.68 13 5 Z " fill="#1212D7" transform="translate(28,174)"/>
<path d="M0 0 C0.66 0.33 1.32 0.66 2 1 C2 1.33 2 1.66 2 2 C4.64 2.33 7.28 2.66 10 3 C10.33 3.99 10.66 4.98 11 6 C10.34 6 9.68 6 9 6 C9 5.34 9 4.68 9 4 C4.65815798 4.18464366 4.65815798 4.18464366 1 6 C0.76712992 7.68183948 0.58735834 9.3712416 0.4375 11.0625 C0.31181641 12.44115234 0.31181641 12.44115234 0.18359375 13.84765625 C0.12300781 14.55792969 0.06242188 15.26820312 0 16 C-0.33 16 -0.66 16 -1 16 C-1 12.04 -1 8.08 -1 4 C-1.99 4.33 -2.98 4.66 -4 5 C-4 4.34 -4 3.68 -4 3 C-2 1.375 -2 1.375 0 0 Z " fill="#E6A6A4" transform="translate(146,44)"/>
<path d="M0 0 C1.8125 0.5625 1.8125 0.5625 4 2 C5.78686054 5.50990464 7 8.04124604 7 12 C6.34 12 5.68 12 5 12 C1 6.58823529 1 6.58823529 1 4 C0.34 3.67 -0.32 3.34 -1 3 C-0.67 2.01 -0.34 1.02 0 0 Z " fill="#DB3C3D" transform="translate(169,46)"/>
<path d="M0 0 C2.4375 0.75 2.4375 0.75 5 2 C5.8125 4.125 5.8125 4.125 6 6 C1.25 7.125 1.25 7.125 -1 6 C-1.75 4.0625 -1.75 4.0625 -2 2 C-1.34 1.34 -0.68 0.68 0 0 Z " fill="#0303F5" transform="translate(211,179)"/>
<path d="M0 0 C0.33 0.66 0.66 1.32 1 2 C1.66 2.33 2.32 2.66 3 3 C0.8445332 5.47878682 -0.71119485 6.57563804 -4 7 C-4.66 6.67 -5.32 6.34 -6 6 C-7.70363822 5.77377919 -9.41328701 5.59111527 -11.125 5.4375 C-12.03507813 5.35371094 -12.94515625 5.26992187 -13.8828125 5.18359375 C-14.58148438 5.12300781 -15.28015625 5.06242188 -16 5 C-16 4.67 -16 4.34 -16 4 C-15.16855469 3.93941406 -14.33710938 3.87882813 -13.48046875 3.81640625 C-12.39378906 3.73261719 -11.30710938 3.64882812 -10.1875 3.5625 C-8.56908203 3.44068359 -8.56908203 3.44068359 -6.91796875 3.31640625 C-3.94010095 3.09787539 -3.94010095 3.09787539 -1 2 C-0.67 1.34 -0.34 0.68 0 0 Z " fill="#0E0FDA" transform="translate(210,176)"/>
<path d="M0 0 C0 3 0 3 -1 5 C-3.08304538 5.05418326 -5.16649768 5.09287551 -7.25 5.125 C-8.99023438 5.15980469 -8.99023438 5.15980469 -10.765625 5.1953125 C-13.82786046 5.0103949 -15.44202751 4.60823023 -18 3 C-17.67 2.34 -17.34 1.68 -17 1 C-16.360625 1.350625 -15.72125 1.70125 -15.0625 2.0625 C-10.90776819 3.33435668 -7.21296763 2.97829211 -3 2 C-2.01 1.34 -1.02 0.68 0 0 Z " fill="#8F91D9" transform="translate(208,204)"/>
<path d="M0 0 C2.62386487 3.06117568 3 3.73173127 3 8 C-0.3 8 -3.6 8 -7 8 C-7.66 6.02 -8.32 4.04 -9 2 C-8.01 2.33 -7.02 2.66 -6 3 C-5.67 3.99 -5.34 4.98 -5 6 C-2.03 6.495 -2.03 6.495 1 7 C0.67 4.69 0.34 2.38 0 0 Z " fill="#B4B5DF" transform="translate(53,185)"/>
<path d="M0 0 C1.41623216 -0.05447047 2.83308191 -0.09300508 4.25 -0.125 C5.03890625 -0.14820313 5.8278125 -0.17140625 6.640625 -0.1953125 C9.20731941 0.0171622 10.7916067 0.71345895 13 2 C11.8125 3.5625 11.8125 3.5625 10 5 C7.3125 4.6875 7.3125 4.6875 5 4 C5.33 3.01 5.66 2.02 6 1 C4.02 1 2.04 1 0 1 C0 0.67 0 0.34 0 0 Z " fill="#0807E9" transform="translate(193,173)"/>
<path d="M0 0 C2.27795022 2.27795022 3.05219877 3.93787293 4 7 C3.625 9.3125 3.625 9.3125 3 11 C1.1875 10.875 1.1875 10.875 -1 10 C-2.75 6.9375 -2.75 6.9375 -4 4 C-3.01 4.33 -2.02 4.66 -1 5 C-0.67 5.99 -0.34 6.98 0 8 C0.66 8.33 1.32 8.66 2 9 C1.67 8.2575 1.34 7.515 1 6.75 C0 4 0 4 0 0 Z " fill="#E4AAA7" transform="translate(85,56)"/>
<path d="M0 0 C4.5929708 3.52127761 5.11941917 7.57747597 6 13 C5.01 12.67 4.02 12.34 3 12 C2.05078125 10.0390625 2.05078125 10.0390625 1.3125 7.625 C1.06113281 6.83351563 0.80976562 6.04203125 0.55078125 5.2265625 C0 3 0 3 0 0 Z " fill="#DD191C" transform="translate(81,52)"/>
<path d="M0 0 C1.5625 1.75 1.5625 1.75 3 4 C2.67 5.32 2.34 6.64 2 8 C-2.29 7.67 -6.58 7.34 -11 7 C-11 6.67 -11 6.34 -11 6 C-7.7 5.67 -4.4 5.34 -1 5 C-0.67 3.35 -0.34 1.7 0 0 Z " fill="#D93E40" transform="translate(24,48)"/>
<path d="M0 0 C0.33 0 0.66 0 1 0 C1 2.64 1 5.28 1 8 C-0.625 9.125 -0.625 9.125 -3 10 C-6.25 9.125 -6.25 9.125 -9 8 C-9 7.34 -9 6.68 -9 6 C-6.03 6.33 -3.06 6.66 0 7 C0 4.69 0 2.38 0 0 Z " fill="#6D6ECE" transform="translate(160,150)"/>
<path d="M0 0 C1.40742022 2.81484045 0.66652164 4.56936113 0.0625 7.625 C-0.13214844 8.62789062 -0.32679688 9.63078125 -0.52734375 10.6640625 C-0.68332031 11.43492188 -0.83929688 12.20578125 -1 13 C-1.66 13 -2.32 13 -3 13 C-3.08086147 11.20906809 -3.13912702 9.41710372 -3.1875 7.625 C-3.22230469 6.62726562 -3.25710937 5.62953125 -3.29296875 4.6015625 C-3.14794922 3.31378906 -3.14794922 3.31378906 -3 2 C-2.01 1.34 -1.02 0.68 0 0 Z " fill="#D91D21" transform="translate(145,47)"/>
<path d="M0 0 C3.49928164 2.33285443 3.6329098 3.20795069 4.6875 7.125 C4.93886719 8.03507813 5.19023438 8.94515625 5.44921875 9.8828125 C5.72185547 10.93082031 5.72185547 10.93082031 6 12 C5.34 12 4.68 12 4 12 C4 11.01 4 10.02 4 9 C3.34 9 2.68 9 2 9 C2 8.01 2 7.02 2 6 C1.34 6 0.68 6 0 6 C0 4.02 0 2.04 0 0 Z " fill="#1414CE" transform="translate(78,192)"/>
<path d="M0 0 C5.94 0 11.88 0 18 0 C13.86395936 2.75736043 9.91089275 3 5 3 C3.31763529 2.37400383 1.6476038 1.71247732 0 1 C0 0.67 0 0.34 0 0 Z " fill="#9598D9" transform="translate(24,215)"/>
<path d="M0 0 C0.66 0 1.32 0 2 0 C2 1.32 2 2.64 2 4 C2.66 4 3.32 4 4 4 C4.05437607 5.58294782 4.09296271 7.16644256 4.125 8.75 C4.14820313 9.63171875 4.17140625 10.5134375 4.1953125 11.421875 C3.99139502 14.1135858 3.36551721 15.69904974 2 18 C1.34 17.67 0.68 17.34 0 17 C0.350625 16.484375 0.70125 15.96875 1.0625 15.4375 C2.37938542 12.0135979 1.67714561 9.57040415 1 6 C0.7215625 4.2984375 0.7215625 4.2984375 0.4375 2.5625 C0.293125 1.716875 0.14875 0.87125 0 0 Z " fill="#B2B4E2" transform="translate(209,186)"/>
<path d="M0 0 C2.89932357 2.39509338 3.50168276 4.31245243 4 8 C3.01 7.67 2.02 7.34 1 7 C1.33 6.34 1.66 5.68 2 5 C-0.64 4.67 -3.28 4.34 -6 4 C-5.67 3.34 -5.34 2.68 -5 2 C-3.35 2 -1.7 2 0 2 C0 1.34 0 0.68 0 0 Z " fill="#6959CC" transform="translate(34,104)"/>
<path d="M0 0 C-0.99 1.485 -0.99 1.485 -2 3 C-3.9453125 3.29296875 -3.9453125 3.29296875 -6.125 3.1875 C-7.40375 3.125625 -8.6825 3.06375 -10 3 C-10 2.01 -10 1.02 -10 0 C-3.375 -1.125 -3.375 -1.125 0 0 Z " fill="#D54143" transform="translate(158,64)"/>
<path d="M0 0 C0.33 0 0.66 0 1 0 C1 4.95 1 9.9 1 15 C-0.65 14.67 -2.3 14.34 -4 14 C-4 12.02 -4 10.04 -4 8 C-3.01 8.99 -2.02 9.98 -1 11 C-0.67 7.37 -0.34 3.74 0 0 Z " fill="#E08A8A" transform="translate(179,45)"/>
<path d="M0 0 C0.66 0.33 1.32 0.66 2 1 C1.67 1.33 1.34 1.66 1 2 C0.92851801 3.35243917 0.91600546 4.70834367 0.9375 6.0625 C0.958125 7.361875 0.97875 8.66125 1 10 C0.34 10 -0.32 10 -1 10 C-2.85776765 6.86501708 -3.20140476 4.62528568 -3 1 C-2.01 0.67 -1.02 0.34 0 0 Z " fill="#DB4849" transform="translate(26,78)"/>
<path d="M0 0 C0.99 0.33 1.98 0.66 3 1 C2.01 1.495 2.01 1.495 1 2 C1.5259375 2.86625 1.5259375 2.86625 2.0625 3.75 C3.14917407 6.35801776 2.93065133 7.39417629 2 10 C0 9 0 9 -0.6328125 7.15234375 C-0.79523438 6.42144531 -0.95765625 5.69054687 -1.125 4.9375 C-1.29257813 4.20402344 -1.46015625 3.47054687 -1.6328125 2.71484375 C-1.75398438 2.14894531 -1.87515625 1.58304688 -2 1 C-1.34 0.67 -0.68 0.34 0 0 Z " fill="#2121CC" transform="translate(121,192)"/>
<path d="M0 0 C6.75 0.75 6.75 0.75 9 3 C9.125 5.625 9.125 5.625 9 8 C8.34 8 7.68 8 7 8 C7 6.35 7 4.7 7 3 C6.030625 2.87625 5.06125 2.7525 4.0625 2.625 C3.051875 2.41875 2.04125 2.2125 1 2 C0.67 1.34 0.34 0.68 0 0 Z " fill="#D61315" transform="translate(214,54)"/>
<path d="M0 0 C3.36720387 1.39332574 4.9859524 2.9789286 7 6 C6.67 6.66 6.34 7.32 6 8 C5.34 7.67 4.68 7.34 4 7 C4 6.34 4 5.68 4 5 C3.34 5 2.68 5 2 5 C1.67 5.66 1.34 6.32 1 7 C0.67 4.69 0.34 2.38 0 0 Z " fill="#6565E0" transform="translate(46,177)"/>
<path d="M0 0 C3.96 0.33 7.92 0.66 12 1 C12 1.33 12 1.66 12 2 C8.37 2 4.74 2 1 2 C1 2.99 1 3.98 1 5 C0.01 4.67 -0.98 4.34 -2 4 C-1.34 2.68 -0.68 1.36 0 0 Z " fill="#1212D5" transform="translate(191,208)"/>
<path d="M0 0 C5.53846154 -0.36923077 5.53846154 -0.36923077 7.875 1.5 C8.24625 1.995 8.6175 2.49 9 3 C8.67 3.66 8.34 4.32 8 5 C7.1028125 4.2884375 7.1028125 4.2884375 6.1875 3.5625 C3.99617076 1.83534256 3.99617076 1.83534256 1 1 C1 3.97 1 6.94 1 10 C0.67 10 0.34 10 0 10 C0 6.7 0 3.4 0 0 Z " fill="#9B9FDB" transform="translate(112,195)"/>
<path d="M0 0 C4.875 0.875 4.875 0.875 6 2 C6.04092937 4.33297433 6.04241723 6.66705225 6 9 C5.34 8.67 4.68 8.34 4 8 C3.375 4.9375 3.375 4.9375 3 2 C2.01 2 1.02 2 0 2 C0 1.34 0 0.68 0 0 Z " fill="#1E1EC5" transform="translate(120,184)"/>
<path d="M0 0 C3 1 3 1 4 3 C4.66 2.34 5.32 1.68 6 1 C6.33 1.66 6.66 2.32 7 3 C6.0625 5.125 6.0625 5.125 5 7 C4.01 7 3.02 7 2 7 C1.34 4.69 0.68 2.38 0 0 Z " fill="#E70A0C" transform="translate(63,160)"/>
<path d="M0 0 C2.0625 0.4375 2.0625 0.4375 4 1 C4 2.32 4 3.64 4 5 C2.02 5.99 2.02 5.99 0 7 C-0.38133299 5.0085944 -0.71325582 3.00720923 -1 1 C-0.67 0.67 -0.34 0.34 0 0 Z " fill="#EE0404" transform="translate(28,84)"/>
<path d="M0 0 C0.66 0.99 1.32 1.98 2 3 C1 6 1 6 -2 8 C-2.66 8.66 -3.32 9.32 -4 10 C-4 6 -4 6 -3 4 C-2.34 4 -1.68 4 -1 4 C-0.67 2.68 -0.34 1.36 0 0 Z " fill="#0C0CDC" transform="translate(212,200)"/>
<path d="M0 0 C1.77049689 -0.05410687 3.54146849 -0.09284119 5.3125 -0.125 C6.29863281 -0.14820313 7.28476563 -0.17140625 8.30078125 -0.1953125 C11 0 11 0 14 2 C10.59598052 3.13732426 8.22543336 2.83989957 4.75 2.0625 C3.85796875 1.86785156 2.9659375 1.67320312 2.046875 1.47265625 C1.37140625 1.31667969 0.6959375 1.16070312 0 1 C0 0.67 0 0.34 0 0 Z " fill="#2E2DC8" transform="translate(88,183)"/>
<path d="M0 0 C0.99 0.33 1.98 0.66 3 1 C3.33 3.97 3.66 6.94 4 10 C3.34 10 2.68 10 2 10 C1.34 6.7 0.68 3.4 0 0 Z " fill="#D71617" transform="translate(158,48)"/>
<path d="M0 0 C3.80909895 0.32417863 5.78372163 0.85581442 9 3 C9 3.99 9 4.98 9 6 C8.34 6 7.68 6 7 6 C6.5875 5.525625 6.175 5.05125 5.75 4.5625 C3.34211572 2.41260332 1.14591416 2.34954602 -2 2 C-1.34 1.34 -0.68 0.68 0 0 Z " fill="#D4191B" transform="translate(120,44)"/>
<path d="M0 0 C2 0 2 0 3.9375 1.875 C4.618125 2.57625 5.29875 3.2775 6 4 C6.99 4.66 7.98 5.32 9 6 C7.02 6 5.04 6 3 6 C3 5.34 3 4.68 3 4 C2.01 4 1.02 4 0 4 C0 2.68 0 1.36 0 0 Z " fill="#1313D7" transform="translate(21,203)"/>
<path d="M0 0 C2 4 2 4 1.125 6.75 C0.75375 7.4925 0.3825 8.235 0 9 C-0.99 9 -1.98 9 -3 9 C-2.01 6.03 -1.02 3.06 0 0 Z " fill="#2828C5" transform="translate(68,196)"/>
<path d="M0 0 C1.32 0 2.64 0 4 0 C3 2 3 2 2 3 C2.66 3.33 3.32 3.66 4 4 C4 4.66 4 5.32 4 6 C1.03 5.505 1.03 5.505 -2 5 C-1.125 1.125 -1.125 1.125 0 0 Z " fill="#0606F9" transform="translate(155,150)"/>
<path d="M0 0 C1.4540625 0.0309375 1.4540625 0.0309375 2.9375 0.0625 C1.9475 1.5475 1.9475 1.5475 0.9375 3.0625 C0.9375 2.4025 0.9375 1.7425 0.9375 1.0625 C-0.0525 1.3925 -1.0425 1.7225 -2.0625 2.0625 C-2.4346042 3.38553717 -2.76880173 4.71987935 -3.0625 6.0625 C-4.0525 6.5575 -4.0525 6.5575 -5.0625 7.0625 C-4.02286585 0.0820993 -4.02286585 0.0820993 0 0 Z " fill="#0606E0" transform="translate(31.0625,107.9375)"/>
<path d="M0 0 C1.32 0 2.64 0 4 0 C4.66 1.32 5.32 2.64 6 4 C4.02 4.99 4.02 4.99 2 6 C0 3 0 3 0 0 Z " fill="#E70E12" transform="translate(34,101)"/>
<path d="M0 0 C4 4.875 4 4.875 4 6 C2.35 6 0.7 6 -1 6 C-1 5.01 -1 4.02 -1 3 C-1.66 2.67 -2.32 2.34 -3 2 C-2.01 1.34 -1.02 0.68 0 0 Z " fill="#4A4BDE" transform="translate(186,199)"/>
<path d="M0 0 C1.32 1.32 2.64 2.64 4 4 C3.67 4.99 3.34 5.98 3 7 C1.35 6.67 -0.3 6.34 -2 6 C-1.67 5.34 -1.34 4.68 -1 4 C-0.34 4.33 0.32 4.66 1 5 C0.67 3.35 0.34 1.7 0 0 Z " fill="#DF9896" transform="translate(26,60)"/>
<path d="M0 0 C0.66 0 1.32 0 2 0 C2 0.66 2 1.32 2 2 C2.66 2.33 3.32 2.66 4 3 C3.01 3.99 2.02 4.98 1 6 C0.01 5.67 -0.98 5.34 -2 5 C-1.34 3.35 -0.68 1.7 0 0 Z " fill="#090AE5" transform="translate(188,205)"/>
<path d="M0 0 C0.66 0 1.32 0 2 0 C2 1.98 2 3.96 2 6 C0.68 5.67 -0.64 5.34 -2 5 C-1.34 3.35 -0.68 1.7 0 0 Z " fill="#0404EC" transform="translate(21,180)"/>
<path d="M0 0 C1.32 0.33 2.64 0.66 4 1 C4.33 2.32 4.66 3.64 5 5 C4.01 5.495 4.01 5.495 3 6 C3 5.34 3 4.68 3 4 C2.34 4 1.68 4 1 4 C0.67 2.68 0.34 1.36 0 0 Z " fill="#CED0DA" transform="translate(164,148)"/>
<path d="M0 0 C2.375 0.6875 2.375 0.6875 5 2 C6.3125 4.625 6.3125 4.625 7 7 C6.34 6.67 5.68 6.34 5 6 C5 5.34 5 4.68 5 4 C4.360625 3.896875 3.72125 3.79375 3.0625 3.6875 C2.381875 3.460625 1.70125 3.23375 1 3 C0.67 2.01 0.34 1.02 0 0 Z " fill="#ACAFDD" transform="translate(16,209)"/>
<path d="M0 0 C2.31 0 4.62 0 7 0 C7.33 0.99 7.66 1.98 8 3 C5.36 2.67 2.72 2.34 0 2 C0 1.34 0 0.68 0 0 Z " fill="#1313CC" transform="translate(112,193)"/>
<path d="M0 0 C0.66 0.33 1.32 0.66 2 1 C1.25 2.9375 1.25 2.9375 0 5 C-2.125 5.75 -2.125 5.75 -4 6 C-3.6875 4.125 -3.6875 4.125 -3 2 C-2.01 1.34 -1.02 0.68 0 0 Z " fill="#7E7ED8" transform="translate(19,177)"/>
<path d="M0 0 C0.598125 0.226875 1.19625 0.45375 1.8125 0.6875 C0.8225 0.6875 -0.1675 0.6875 -1.1875 0.6875 C-1.47625 1.285625 -1.765 1.88375 -2.0625 2.5 C-3.1875 4.6875 -3.1875 4.6875 -5.1875 7.6875 C-5.41803497 4.84423536 -5.54653101 3.22604651 -3.9375 0.8125 C-2.1875 -0.3125 -2.1875 -0.3125 0 0 Z " fill="#2929C5" transform="translate(156.1875,148.3125)"/>
<path d="M0 0 C0 0.99 0 1.98 0 3 C-2.31 3 -4.62 3 -7 3 C-7.33 2.34 -7.66 1.68 -8 1 C-2.25 0 -2.25 0 0 0 Z " fill="#CF1C1D" transform="translate(126,63)"/>
<path d="M0 0 C3.39914975 1.13304992 4.05254451 2.12518475 6 5 C4.68 5 3.36 5 2 5 C1.34 4.34 0.68 3.68 0 3 C0 2.01 0 1.02 0 0 Z " fill="#CD2123" transform="translate(207,59)"/>
<path d="M0 0 C2.64 0 5.28 0 8 0 C8.66 1.32 9.32 2.64 10 4 C6.7 3.01 3.4 2.02 0 1 C0 0.67 0 0.34 0 0 Z " fill="#D51215" transform="translate(212,45)"/>
<path d="" fill="#FBFFFD" transform="translate(0,0)"/>
</svg>
