<?xml version="1.0" encoding="UTF-8"?>
<svg version="1.1" xmlns="http://www.w3.org/2000/svg" width="320" height="320">
<path d="M0 0 C19.3693417 15.82292953 33.55229802 37.14748983 38 62 C38 63.32 38 64.64 38 66 C38.556875 65.94199219 39.11375 65.88398438 39.6875 65.82421875 C45.06995393 65.50599935 48.76552798 66.15836678 53.234375 69.24609375 C55.942263 71.93600904 57.13981578 75.11334966 58.65234375 78.57421875 C60.5262756 81.94729607 62.98670335 83.52672428 66.13671875 85.64453125 C71.00716711 89.18760375 72.82051148 94.29913884 74 100 C74.65926721 106.70254998 73.48254219 112.17432257 70 118 C67.25194567 121.01651434 64.35986701 123.67792975 61 126 C60.34 126 59.68 126 59 126 C58.938125 126.86625 58.87625 127.7325 58.8125 128.625 C57.54010533 133.91033172 54.68322204 136.85234861 50.25 139.875 C45.24431607 141.60773674 40.87950423 142.02175957 35.8203125 140.2265625 C29.84270806 137.0460258 27.22629102 132.23793696 25 126 C24.3998324 122.0954663 24.43467879 118.30939699 24.546875 114.3671875 C24.56104462 112.75216843 24.56104462 112.75216843 24.57550049 111.10452271 C24.6098218 107.69388147 24.67852474 104.28504585 24.75 100.875 C24.80017106 97.45806135 24.84315443 94.04114319 24.88165283 90.62405396 C24.90779872 88.50697117 24.94182715 86.38996591 24.98504639 84.27316284 C25.23381773 69.41873245 21.46842205 56.59032626 15.734375 42.9609375 C15 41 15 41 15 39 C14.34 38.67 13.68 38.34 13 38 C12.14870469 36.5851294 11.34424126 35.14195629 10.5625 33.6875 C7.90494255 29.13544615 4.85596439 25.3066526 1.3125 21.4375 C0.59912476 20.65088989 0.59912476 20.65088989 -0.12866211 19.84838867 C-2.39682323 17.4256803 -3.80104446 16.06631851 -7 15 C-8.81781867 13.39192964 -9.9107426 12.1785148 -11 10 C-12.30642327 9.28203032 -13.6451518 8.62177855 -15 8 C-15.99 7.48759766 -15.99 7.48759766 -17 6.96484375 C-17.99 6.45630859 -17.99 6.45630859 -19 5.9375 C-19.99 5.42509766 -19.99 5.42509766 -21 4.90234375 C-22.98689737 4.00591154 -24.87384292 3.46035098 -27 3 C-27 2.34 -27 1.68 -27 1 C-28.39567835 0.68680856 -29.79155082 0.37448212 -31.1875 0.0625 C-31.96480469 -0.11152344 -32.74210938 -0.28554687 -33.54296875 -0.46484375 C-34.35378906 -0.64144531 -35.16460937 -0.81804687 -36 -1 C-37.12764771 -1.25777222 -37.12764771 -1.25777222 -38.27807617 -1.52075195 C-43.50990608 -2.44191817 -48.82630568 -2.2271608 -54.125 -2.25 C-55.29804688 -2.270625 -56.47109375 -2.29125 -57.6796875 -2.3125 C-65.27851833 -2.34627258 -71.80650192 -1.44753651 -79 1 C-80.08152344 1.36480469 -81.16304688 1.72960937 -82.27734375 2.10546875 C-103.6152715 10.78477269 -118.93465219 27.03768245 -127.94140625 48.07421875 C-132.44044847 60.50884099 -134.12798489 72.32712037 -134.17578125 85.46875 C-134.1989685 87.92058161 -134.22308537 90.37240457 -134.24804688 92.82421875 C-134.28320362 96.6688426 -134.31254575 100.51314478 -134.32592773 104.35791016 C-134.34141017 108.08274554 -134.38160614 111.80665877 -134.42578125 115.53125 C-134.42387283 116.67621948 -134.42196442 117.82118896 -134.41999817 119.00085449 C-134.5472644 127.32029688 -135.80663776 131.80663776 -141.8125 137.8125 C-146.04384484 140.7163641 -149.2346956 142.26817737 -154.45703125 141.76171875 C-159.64704527 140.61789257 -162.45081417 139.07531047 -165.4375 134.625 C-166.32387356 133.1016226 -167.18219681 131.56126063 -168 130 C-169.79555541 126.63333362 -170.61165757 125.24482458 -173.875 123.1875 C-178.43249888 119.99725078 -181.0172888 115.87254044 -182.8125 110.625 C-184.0206379 93.71106942 -184.0206379 93.71106942 -178.8125 87.3125 C-176.69023428 85.56752596 -174.65890183 84.11702043 -172.375 82.625 C-168.50632116 79.97315073 -167.53840587 77.37231143 -166 73 C-165.34 72.01 -164.68 71.02 -164 70 C-163.34 70 -162.68 70 -162 70 C-162 69.34 -162 68.68 -162 68 C-157.13948404 65.40772482 -152.34728867 65.81310447 -147 66 C-147.18433594 65.44570312 -147.36867187 64.89140625 -147.55859375 64.3203125 C-149.80504587 52.51152879 -139.21399912 36.26506077 -134 26 C-133.34 26 -132.68 26 -132 26 C-131.34 24.02 -130.68 22.04 -130 20 C-129.34 20 -128.68 20 -128 20 C-127.690625 19.38125 -127.38125 18.7625 -127.0625 18.125 C-126.375 16.75 -125.6875 15.375 -125 14 C-124.34 14 -123.68 14 -123 14 C-122.77441406 13.44054687 -122.54882812 12.88109375 -122.31640625 12.3046875 C-114.7535698 -0.9358867 -94.91552016 -11.19148126 -80.65625 -15.36328125 C-52.17589591 -22.9126036 -23.47790223 -18.17541002 0 0 Z " fill="#E13732" transform="translate(215,83)"/>
<path d="M0 0 C2.475 0.99 2.475 0.99 5 2 C4.74438677 4.3431213 4.40729228 6.67843403 4 9 C3.34 9.33 2.68 9.66 2 10 C1.855625 10.721875 1.71125 11.44375 1.5625 12.1875 C1 15 1 15 -0.4375 17.8125 C-2.26132647 21.533106 -3.05969266 24.97011141 -4 29 C-4.33 29.66 -4.66 30.32 -5 31 C-5.66 31 -6.32 31 -7 31 C-6.979375 31.94875 -6.95875 32.8975 -6.9375 33.875 C-7 37 -7 37 -8 39 C-8.1099076 40.94412606 -8.15646496 42.89195628 -8.17358398 44.83911133 C-8.18707382 46.06410843 -8.20056366 47.28910553 -8.21446228 48.55122375 C-8.21952223 49.20777765 -8.22458218 49.86433155 -8.22979546 50.54078102 C-8.24620934 52.59650754 -8.26944876 54.65205148 -8.29469299 56.70768738 C-8.3654465 62.55283495 -8.42549342 68.39805832 -8.47680664 74.2434082 C-8.50866957 77.81846662 -8.54996672 81.393317 -8.59700203 84.96820641 C-8.61298238 86.32887705 -8.62532222 87.68959563 -8.63390923 89.05033302 C-8.64611715 90.95786732 -8.67130732 92.86530504 -8.69702148 94.77270508 C-8.70732895 95.85699295 -8.71763641 96.94128082 -8.72825623 98.0584259 C-9.12853766 102.39139547 -10.10411126 105.10411126 -13.1875 108.1875 C-17.25934849 110.81158014 -20.53194435 112.23505292 -25.4609375 111.765625 C-30.64743739 110.61306947 -33.45095456 109.07510129 -36.4375 104.625 C-37.32387356 103.1016226 -38.18219681 101.56126063 -39 100 C-40.79555541 96.63333362 -41.61165757 95.24482458 -44.875 93.1875 C-49.43249888 89.99725078 -52.0172888 85.87254044 -53.8125 80.625 C-55.0206379 63.71106942 -55.0206379 63.71106942 -49.8125 57.3125 C-47.69023428 55.56752596 -45.65890183 54.11702043 -43.375 52.625 C-39.50632116 49.97315073 -38.53840587 47.37231143 -37 43 C-36.34 42.01 -35.68 41.02 -35 40 C-34.34 40 -33.68 40 -33 40 C-33 39.34 -33 38.68 -33 38 C-28.13948404 35.40772482 -23.34728867 35.81310447 -18 36 C-18.19078125 35.45988281 -18.3815625 34.91976562 -18.578125 34.36328125 C-19.7886872 27.58189116 -16.07513045 19.02213046 -13 13 C-10.38050481 9.95283213 -7.44964103 8.67581722 -3.83984375 7.0625 C-1.67603552 5.99411024 -1.67603552 5.99411024 0 3 C0 2.01 0 1.02 0 0 Z " fill="#E23430" transform="translate(86,113)"/>
<path d="M0 0 C2.44510849 2.03936996 4.16508274 4.41709099 6 7 C6.66 7.66 7.32 8.32 8 9 C8.33773437 8.43410156 8.67546875 7.86820313 9.0234375 7.28515625 C9.46945313 6.55167969 9.91546875 5.81820312 10.375 5.0625 C10.81585938 4.33160156 11.25671875 3.60070312 11.7109375 2.84765625 C13 1 13 1 15 0 C16.51845202 -0.09472912 18.04110384 -0.1298841 19.5625 -0.125 C20.77099609 -0.12886719 20.77099609 -0.12886719 22.00390625 -0.1328125 C24 0 24 0 25 1 C25.21832989 5.39998945 25.18579146 9.80534812 25.18530273 14.21020508 C25.18748751 16.42483782 25.20563531 18.63897123 25.22460938 20.85351562 C25.22754356 22.25520662 25.22952819 23.6569 25.23046875 25.05859375 C25.23457764 26.34048584 25.23868652 27.62237793 25.24291992 28.94311523 C25 32 25 32 23 34 C21.125 34.23046875 21.125 34.23046875 19 34.1875 C18.29875 34.18105469 17.5975 34.17460937 16.875 34.16796875 C15 34 15 34 13 33 C12.40644386 30.35139573 12.25790731 27.70802678 12 25 C11.38125 25.7425 11.38125 25.7425 10.75 26.5 C9 28 9 28 5 28 C4.34 27.01 3.68 26.02 3 25 C2.855625 26.299375 2.71125 27.59875 2.5625 28.9375 C2.125 32.875 2.125 32.875 1 34 C-0.85287502 34.07226502 -2.70833878 34.0838122 -4.5625 34.0625 C-5.57441406 34.05347656 -6.58632812 34.04445312 -7.62890625 34.03515625 C-8.80259766 34.01775391 -8.80259766 34.01775391 -10 34 C-11.43516149 23.23628879 -11.93219933 11.73646608 -10 1 C-6.72960037 -0.63519981 -3.50580299 -0.82106167 0 0 Z M17 6 C16.34 7.32 15.68 8.64 15 10 C15.99 10 16.98 10 18 10 C17.67 8.68 17.34 7.36 17 6 Z M-3 7 C-3 7.99 -3 8.98 -3 10 C-2.01 9.67 -1.02 9.34 0 9 C-0.99 8.34 -1.98 7.68 -3 7 Z " fill="#5F5D5D" transform="translate(104,172)"/>
<path d="M0 0 C2.625 3 2.625 3 4 6 C4.99 4.02 5.98 2.04 7 0 C8.65 0 10.3 0 12 0 C12.99 1.98 13.98 3.96 15 6 C15.45375 5.01 15.9075 4.02 16.375 3 C19 0 19 0 21.4921875 -0.3984375 C24.01773115 -0.37697396 26.48820963 -0.25884863 29 0 C30.45300063 4.64479329 29.42160379 7.36559406 27.61328125 11.796875 C27.35500046 12.43111389 27.09671967 13.06535278 26.83061218 13.71881104 C26.28299787 15.052703 25.72871999 16.38387647 25.16821289 17.71240234 C24.31275786 19.749386 23.48843014 21.79714528 22.66601562 23.84765625 C22.12943373 25.14398798 21.59108214 26.43958891 21.05078125 27.734375 C20.56262939 28.91225586 20.07447754 30.09013672 19.5715332 31.30371094 C18 34 18 34 15.80932617 34.89160156 C15.21224854 34.92737305 14.6151709 34.96314453 14 35 C12.68 33.02 11.36 31.04 10 29 C9.401875 29.804375 8.80375 30.60875 8.1875 31.4375 C6 34 6 34 3 35 C2.34 34.67 1.68 34.34 1 34 C1 33.34 1 32.68 1 32 C0.34 31.67 -0.32 31.34 -1 31 C-1.66704069 29.03398534 -2.32343634 27.06401766 -2.94140625 25.08203125 C-4.59207441 20.2762114 -6.59621889 15.61998169 -8.57495117 10.94140625 C-8.87248291 10.23242188 -9.17001465 9.5234375 -9.4765625 8.79296875 C-9.74549316 8.1589917 -10.01442383 7.52501465 -10.29150391 6.87182617 C-11.02405462 4.93644839 -11.53725614 3.01536392 -12 1 C-8.28382201 -0.85808899 -4.03405878 -0.72222665 0 0 Z " fill="#DF9F9B" transform="translate(191,120)"/>
<path d="M0 0 C2.71551017 2.41262635 5.22608924 4.81396291 7 8 C6.6875 10.7578125 6.6875 10.7578125 6 13 C4.68 13 3.36 13 2 13 C2 13.99 2 14.98 2 16 C2.639375 16.103125 3.27875 16.20625 3.9375 16.3125 C4.618125 16.539375 5.29875 16.76625 6 17 C7 20 7 20 6.0625 22.8125 C2.90156903 27.69757514 -0.81105516 31.04483269 -6.46484375 32.73828125 C-11.72814755 33.5411581 -15.64249301 33.00714048 -20.24609375 30.30078125 C-24.92603404 26.82991239 -27.68597969 22.73390682 -29 17 C-29.71186945 11.54233423 -28.11822399 7.41824157 -25 3 C-18.02094258 -3.5742397 -8.41815168 -5.5751794 0 0 Z M-15 11.0625 C-15.66 11.701875 -16.32 12.34125 -17 13 C-19.75 12.75 -19.75 12.75 -22 12 C-21.67 13.65 -21.34 15.3 -21 17 C-20.21625 17.12375 -19.4325 17.2475 -18.625 17.375 C-16 18 -16 18 -14 20 C-10.5 20.33333333 -10.5 20.33333333 -7 20 C-4.70172688 18.12061828 -4.70172688 18.12061828 -4.6875 15.0625 C-4.76303247 12.06545805 -4.76303247 12.06545805 -6.1875 10.125 C-9.69450954 7.94823546 -12.12641645 8.09911696 -15 11.0625 Z " fill="#EDC3BF" transform="translate(174,122)"/>
<path d="M0 0 C1.33841672 0.31229724 2.67139075 0.64830932 4 1 C4.70125 0.814375 5.4025 0.62875 6.125 0.4375 C6.74375 0.293125 7.3625 0.14875 8 0 C10 2 10 2 10.22705078 4.06298828 C10.21134033 5.30411377 10.21134033 5.30411377 10.1953125 6.5703125 C10.18564453 7.91416016 10.18564453 7.91416016 10.17578125 9.28515625 C10.15902344 10.22230469 10.14226562 11.15945312 10.125 12.125 C10.11597656 13.06988281 10.10695312 14.01476562 10.09765625 14.98828125 C10.07404522 17.32577292 10.04111516 19.66276123 10 22 C10.99 22 11.98 22 13 22 C13 15.07 13 8.14 13 1 C19.44230769 -0.28846154 19.44230769 -0.28846154 23 0 C26.02664797 3.02664797 25.29317878 5.96915735 25.32226562 10.10742188 C25.31904297 11.16509766 25.31582031 12.22277344 25.3125 13.3125 C25.32861328 14.35857422 25.34472656 15.40464844 25.36132812 16.48242188 C25.36197266 17.49498047 25.36261719 18.50753906 25.36328125 19.55078125 C25.36626221 20.47544189 25.36924316 21.40010254 25.37231445 22.3527832 C24.76464979 26.67337859 22.41839442 30.29377108 19 33 C18.01 33 17.02 33 16 33 C15.67 33.66 15.34 34.32 15 35 C5.14832536 34.66028708 5.14832536 34.66028708 1.5 32.5625 C-2.73440812 25.32871946 -3.24502137 18.72523688 -2.8125 10.5 C-2.77036377 9.69804199 -2.72822754 8.89608398 -2.68481445 8.06982422 C-2.26562949 2.26562949 -2.26562949 2.26562949 0 0 Z " fill="#B8B2B2" transform="translate(134,172)"/>
<path d="M0 0 C2.2734375 1.0234375 2.2734375 1.0234375 4 2 C3.97679687 2.97582031 3.95359375 3.95164063 3.9296875 4.95703125 C3.91164062 6.22933594 3.89359375 7.50164062 3.875 8.8125 C3.85179687 10.07707031 3.82859375 11.34164062 3.8046875 12.64453125 C3.72418082 16.1338024 3.72418082 16.1338024 6 19 C6.53342201 23.64839179 6.7518768 26.61296743 3.8125 30.375 C0.23421656 33.71473121 -2.05881626 34.78900177 -6.875 35.3125 C-10.78411239 34.92158876 -13.4668724 33.69590125 -17 32 C-16.814375 31.071875 -16.62875 30.14375 -16.4375 29.1875 C-15.75876119 25.98656229 -15.75876119 25.98656229 -17 23 C-15.5625 20.8125 -15.5625 20.8125 -14 19 C-14.474375 18.608125 -14.94875 18.21625 -15.4375 17.8125 C-17.48271327 15.44005261 -17.85738684 14.13748952 -18 11 C-16.76443497 6.85722312 -15.55160951 4.51220883 -12.375 1.5625 C-8.1445696 -0.39603259 -4.59524753 -0.71852961 0 0 Z " fill="#2F2E2E" transform="translate(178,172)"/>
<path d="M0 0 C1.31538327 4.15771494 0.34433068 6.8879297 -1 11 C-1.93972656 10.98259766 -1.93972656 10.98259766 -2.8984375 10.96484375 C-4.12433594 10.95130859 -4.12433594 10.95130859 -5.375 10.9375 C-6.59316406 10.92009766 -6.59316406 10.92009766 -7.8359375 10.90234375 C-10.04937142 10.85533666 -10.04937142 10.85533666 -12 12 C-12.04241723 14.33294775 -12.04092937 16.66702567 -12 19 C-11.00041617 20.23203548 -11.00041617 20.23203548 -9.00390625 20.02734375 C-7.37880479 19.96754002 -5.75379998 19.90504815 -4.12890625 19.83984375 C-2 20 -2 20 0 22 C0.4140625 24.1640625 0.4140625 24.1640625 0.625 26.625 C0.69976562 27.44226563 0.77453125 28.25953125 0.8515625 29.1015625 C0.92503906 30.04128906 0.92503906 30.04128906 1 31 C-4.76173683 34.06475363 -8.62740199 34.19937786 -15 33 C-15 32.34 -15 31.68 -15 31 C-16.0828125 30.7215625 -16.0828125 30.7215625 -17.1875 30.4375 C-21.60012464 28.18215852 -24.09926569 24.75163348 -25.640625 20.04296875 C-26.57608026 14.88779685 -25.71284339 10.48128395 -23 6 C-16.0913415 -1.86577744 -9.76804317 -2.50957631 0 0 Z " fill="#DAD3D3" transform="translate(225,173)"/>
<path d="M0 0 C0.05416188 1.60379341 0.09286638 3.20811406 0.125 4.8125 C0.14820312 5.70582031 0.17140625 6.59914063 0.1953125 7.51953125 C0 10 0 10 -2 13 C-2.45394552 15.27912938 -2.45394552 15.27912938 -2.625 17.6875 C-2.69976562 18.49574219 -2.77453125 19.30398437 -2.8515625 20.13671875 C-2.90054688 20.75160156 -2.94953125 21.36648437 -3 22 C-4.98 22.33 -6.96 22.66 -9 23 C-9 26.3 -9 29.6 -9 33 C-12.8726592 33.9681648 -16.03611362 34.07622858 -20 34 C-22.51313556 29.17318409 -22.2970588 24.55195836 -22.25 19.25 C-22.25773437 18.3940625 -22.26546875 17.538125 -22.2734375 16.65625 C-22.25576403 10.82400437 -21.44145783 5.65142991 -20 0 C-5.49328215 -1.83109405 -5.49328215 -1.83109405 0 0 Z " fill="#F0D4D1" transform="translate(121,120)"/>
<path d="M0 0 C3.3 0 6.6 0 10 0 C12.13470333 4.26940666 12.24204747 6.31883513 12.1875 11 C12.17783203 12.8253125 12.17783203 12.8253125 12.16796875 14.6875 C12.03394204 17.33063144 11.78329524 19.49345523 11 22 C11.71027344 21.98839844 12.42054688 21.97679687 13.15234375 21.96484375 C14.07144531 21.95582031 14.99054688 21.94679687 15.9375 21.9375 C16.85402344 21.92589844 17.77054688 21.91429687 18.71484375 21.90234375 C21 22 21 22 22 23 C22.09823937 24.66429051 22.12973631 26.33281931 22.125 28 C22.12886719 29.36125 22.12886719 29.36125 22.1328125 30.75 C22 33 22 33 21 34 C19.52347336 34.09880797 18.04232764 34.13079245 16.5625 34.1328125 C15.22058594 34.13474609 15.22058594 34.13474609 13.8515625 34.13671875 C12.91054687 34.13285156 11.96953125 34.12898438 11 34.125 C9.58847656 34.13080078 9.58847656 34.13080078 8.1484375 34.13671875 C7.25382813 34.13542969 6.35921875 34.13414062 5.4375 34.1328125 C4.61121094 34.13168457 3.78492187 34.13055664 2.93359375 34.12939453 C1 34 1 34 0 33 C-1.55303381 21.99071588 -0.76470317 11.03525504 0 0 Z " fill="#E9BDB9" transform="translate(123,120)"/>
<path d="M0 0 C2.12990108 0.6770155 2.12990108 0.6770155 4.25 -0.0625 C4.86875 -0.206875 5.4875 -0.35125 6.125 -0.5 C8.95759575 2.33259575 8.38338261 4.2269466 8.390625 8.1875 C8.39253845 8.84580811 8.3944519 9.50411621 8.39642334 10.18237305 C8.3977845 11.5743854 8.39409283 12.96641047 8.38574219 14.35839844 C8.375041 16.49182589 8.38563906 18.62441131 8.3984375 20.7578125 C8.39711589 22.10937686 8.39455347 23.4609407 8.390625 24.8125 C8.38836914 26.04613281 8.38611328 27.27976563 8.38378906 28.55078125 C8.125 31.5 8.125 31.5 6.125 33.5 C4.45206064 33.19972883 2.78514616 32.86442233 1.125 32.5 C-0.36 32.995 -0.36 32.995 -1.875 33.5 C-2.535 33.17 -3.195 32.84 -3.875 32.5 C-4.07376297 28.66716495 -4.25695792 24.83373312 -4.4375 21 C-4.49357422 19.92234375 -4.54964844 18.8446875 -4.60742188 17.734375 C-4.87619933 11.85710803 -5.02566902 6.28779629 -3.875 0.5 C-1.875 -0.5 -1.875 -0.5 0 0 Z " fill="#BCB9B9" transform="translate(189.875,172.5)"/>
<path d="M0 0 C0.99 0 1.98 0 3 0 C3.0093457 0.70084717 3.01869141 1.40169434 3.02832031 2.1237793 C3.08214544 5.31239025 3.16576936 8.49955333 3.25 11.6875 C3.26417969 12.79029297 3.27835938 13.89308594 3.29296875 15.02929688 C3.44995955 21.42063398 3.44995955 21.42063398 5.86328125 27.23046875 C7.93324559 29.22303344 7.93324559 29.22303344 10.9375 29.625 C15.19704057 28.75570601 16.39597262 27.49646723 19 24 C19.75314232 20.23317266 19.79043001 16.52032124 19.8125 12.6875 C19.83763672 11.66076172 19.86277344 10.63402344 19.88867188 9.57617188 C19.94741085 7.050396 19.98378712 4.52634772 20 2 C20.99 2 21.98 2 23 2 C23.05821935 5.89577024 23.0936703 9.79142802 23.125 13.6875 C23.14175781 14.79029297 23.15851563 15.89308594 23.17578125 17.02929688 C23.18222656 18.09599609 23.18867188 19.16269531 23.1953125 20.26171875 C23.20578613 21.24100342 23.21625977 22.22028809 23.22705078 23.22924805 C22.89131143 27.32635115 21.91481113 30.08518887 19 33 C18.01 33 17.02 33 16 33 C15.67 33.66 15.34 34.32 15 35 C5.14832536 34.66028708 5.14832536 34.66028708 1.5 32.5625 C-2.73440812 25.32871946 -3.24502137 18.72523688 -2.8125 10.5 C-2.77036377 9.69804199 -2.72822754 8.89608398 -2.68481445 8.06982422 C-2.26562949 2.26562949 -2.26562949 2.26562949 0 0 Z " fill="#5B5859" transform="translate(134,172)"/>
<path d="M0 0 C0.66 0 1.32 0 2 0 C1.42984529 4.32420708 0.35301328 7.84361745 -1.4375 11.8125 C-3.34157505 16.21533256 -4.64126738 20.32144991 -5.53125 25.01953125 C-6.2196043 27.92782817 -7.5394549 30.41085187 -9 33 C-12.25543229 32.65120368 -13.01873107 31.97866739 -15.25 29.4375 C-15.8275 28.633125 -16.405 27.82875 -17 27 C-18.98 29.97 -18.98 29.97 -21 33 C-22.32 32.67 -23.64 32.34 -25 32 C-25 31.34 -25 30.68 -25 30 C-25.66 29.67 -26.32 29.34 -27 29 C-27 26.03 -27 23.06 -27 20 C-26.01 20 -25.02 20 -24 20 C-23.67 21.32 -23.34 22.64 -23 24 C-22.34 24 -21.68 24 -21 24 C-20.87625 23.071875 -20.7525 22.14375 -20.625 21.1875 C-20 18 -20 18 -18 15 C-16.125 15.25 -16.125 15.25 -14 16 C-11.97244814 18.93995019 -12 20.27704003 -12 24 C-11.34 24 -10.68 24 -10 24 C-9.77957031 23.14341797 -9.77957031 23.14341797 -9.5546875 22.26953125 C-4.69230769 4.69230769 -4.69230769 4.69230769 0 0 Z " fill="#CE605D" transform="translate(217,122)"/>
<path d="M0 0 C0.66 0 1.32 0 2 0 C2 0.66 2 1.32 2 2 C1.01 2.66 0.02 3.32 -1 4 C-1.36416047 6.43693311 -1.36416047 6.43693311 -1.1875 9.125 C-1.16042969 10.03507813 -1.13335937 10.94515625 -1.10546875 11.8828125 C-1.05326172 12.93082031 -1.05326172 12.93082031 -1 14 C-0.01 14.33 0.98 14.66 2 15 C1.773125 13.7625 1.54625 12.525 1.3125 11.25 C0.97649882 8.42157217 0.92157618 7.19605955 2 4.5 C4.95006062 2.28745454 7.42414928 2.73012447 11 3 C11 3.33 11 3.66 11 4 C9.02 4.66 7.04 5.32 5 6 C4.32041397 8.39719432 4.32041397 8.39719432 4 11 C5.86779347 13.13855245 5.86779347 13.13855245 8.4375 13.9375 C12.53227633 15.63533409 12.53227633 15.63533409 14 18 C13.66666667 24.33333333 13.66666667 24.33333333 11 27 C8.3984375 27.1953125 8.3984375 27.1953125 5.375 27.125 C3.87066406 27.09792969 3.87066406 27.09792969 2.3359375 27.0703125 C1.56507813 27.04710937 0.79421875 27.02390625 0 27 C0 27.66 0 28.32 0 29 C4.8870428 30.5638537 10.1129572 30.5638537 15 29 C12.08130274 32.41746198 9.69827491 32.7060007 5.36328125 33.08203125 C1.6933576 32.95464547 -0.77929168 31.71314272 -4 30 C-3.814375 29.071875 -3.62875 28.14375 -3.4375 27.1875 C-2.75876119 23.98656229 -2.75876119 23.98656229 -4 21 C-2.5625 18.8125 -2.5625 18.8125 -1 17 C-1.474375 16.608125 -1.94875 16.21625 -2.4375 15.8125 C-4.48271327 13.44005261 -4.85738684 12.13748952 -5 9 C-3.71699712 5.39537285 -2.71705736 2.71705736 0 0 Z " fill="#232122" transform="translate(165,174)"/>
<path d="M0 0 C5 1 5 1 6.58203125 2.62890625 C6.98808594 3.26699219 7.39414063 3.90507812 7.8125 4.5625 C8.44091797 5.52349609 8.44091797 5.52349609 9.08203125 6.50390625 C9.38496094 6.99761719 9.68789062 7.49132812 10 8 C12.64752004 5.42215154 14.94432065 3.08351902 17 0 C18.32 0 19.64 0 21 0 C21 6.6 21 13.2 21 20 C19.68 20 18.36 20 17 20 C17 16.37 17 12.74 17 9 C16.34 9 15.68 9 15 9 C14.87625 9.78375 14.7525 10.5675 14.625 11.375 C14 14 14 14 12 16 C10.68 16 9.36 16 8 16 C7.34 15.01 6.68 14.02 6 13 C5.67 15.64 5.34 18.28 5 21 C3.35 21 1.7 21 0 21 C0 14.07 0 7.14 0 0 Z " fill="#666465" transform="translate(101,184)"/>
<path d="M0 0 C0.33 1.32 0.66 2.64 1 4 C-0.53720703 4.00386719 -0.53720703 4.00386719 -2.10546875 4.0078125 C-9.34753003 3.96905249 -9.34753003 3.96905249 -16.07421875 6.15625 C-19.15115247 9.63050549 -20.15608681 13.47348257 -20 18 C-18.06356227 22.33730564 -15.96514123 25.35657252 -12 28 C-9.26127045 28.45772063 -9.26127045 28.45772063 -6.3125 28.625 C-5.31863281 28.69976562 -4.32476562 28.77453125 -3.30078125 28.8515625 C-2.54152344 28.90054688 -1.78226563 28.94953125 -1 29 C-1 29.66 -1 30.32 -1 31 C-3.56364483 31.10845031 -6.12266279 31.18749744 -8.6875 31.25 C-9.40873047 31.28351563 -10.12996094 31.31703125 -10.87304688 31.3515625 C-14.75546477 31.42247424 -16.55354064 31.28765167 -19.91015625 29.125 C-23.77906595 25.19100584 -25.56974468 21.71120819 -26.0546875 16.11328125 C-25.93434738 11.46299517 -24.5222181 7.73310474 -21.44921875 4.234375 C-14.39335845 -2.2113333 -8.96476297 -2.30319997 0 0 Z " fill="#888585" transform="translate(225,173)"/>
<path d="M0 0 C0.66 0.33 1.32 0.66 2 1 C1.48050781 1.95777344 0.96101563 2.91554688 0.42578125 3.90234375 C-8.09359697 20.01494749 -12.09497074 35.26857235 -12.2109375 53.50390625 C-12.23899018 55.9602933 -12.26765451 58.41667344 -12.296875 60.87304688 C-12.3382066 64.72648031 -12.37511772 68.57978214 -12.40136719 72.43334961 C-12.42896141 76.16546874 -12.47481191 79.89700981 -12.5234375 83.62890625 C-12.52669037 84.77903702 -12.52994324 85.92916779 -12.53329468 87.114151 C-12.62188435 92.879292 -12.78333248 97.12799328 -16 102 C-17.07924872 98.76225384 -17.09781537 96.49787142 -17.0534668 93.0949707 C-17.0398259 91.87973221 -17.026185 90.66449371 -17.01213074 89.41242981 C-16.99136978 88.09683578 -16.97060883 86.78124176 -16.94921875 85.42578125 C-16.92997361 84.05918129 -16.91091822 82.69257865 -16.89204407 81.32597351 C-16.85105491 78.45853894 -16.80584593 75.59120588 -16.75805664 72.72387695 C-16.69771127 69.06700845 -16.65065857 65.41010645 -16.60722637 61.75300312 C-16.57167193 58.92771609 -16.527458 56.10261154 -16.48087502 53.2774868 C-16.44985353 51.27917165 -16.42719379 49.28073229 -16.40470886 47.28230286 C-16.28427466 40.86363489 -15.91885015 35.14022407 -14 29 C-13.34 29 -12.68 29 -12 29 C-11.90203125 28.3709375 -11.8040625 27.741875 -11.703125 27.09375 C-10.77569483 21.78501181 -9.52485233 17.45503866 -6.8046875 12.7890625 C-5.72653395 10.71895265 -5.72653395 10.71895265 -6 7 C-5.01 7 -4.02 7 -3 7 C-3 5.02 -3 3.04 -3 1 C-2.01 0.67 -1.02 0.34 0 0 Z " fill="#CE5550" transform="translate(93,115)"/>
<path d="M0 0 C2.375 0.25 2.375 0.25 5 1 C6.3125 3.0625 6.3125 3.0625 7 5 C7.4125 4.175 7.825 3.35 8.25 2.5 C9.11625 1.2625 9.11625 1.2625 10 0 C11.32 0 12.64 0 14 0 C13.46246904 6.18160604 11.45417612 11.326858 9 17 C7.109375 16.72265625 7.109375 16.72265625 5 16 C3.25 12.4375 3.25 12.4375 2 9 C-0.6465335 11.6465335 -1.59941997 14.56221264 -3 18 C-3.99 17.67 -4.98 17.34 -6 17 C-7.16796875 14.41796875 -7.16796875 14.41796875 -8.1875 11.1875 C-8.53167969 10.12917969 -8.87585938 9.07085937 -9.23046875 7.98046875 C-10 5 -10 5 -10 1 C-9.34 1 -8.68 1 -8 1 C-7.01 2.98 -6.02 4.96 -5 7 C-4.34 7 -3.68 7 -3 7 C-2.01 4.69 -1.02 2.38 0 0 Z " fill="#D04642" transform="translate(199,121)"/>
<path d="M0 0 C0.66 0 1.32 0 2 0 C2 10.23 2 20.46 2 31 C3.32 31 4.64 31 6 31 C6 21.76 6 12.52 6 3 C9.94875582 4.31625194 10.54992713 6.05365398 12.6875 9.5625 C13.31011719 10.57441406 13.93273437 11.58632812 14.57421875 12.62890625 C15.27998047 13.80259766 15.27998047 13.80259766 16 15 C17.89128725 14.91406482 17.89128725 14.91406482 20 14 C21.94303283 11.50692341 21.94303283 11.50692341 23.625 8.5 C26.81718464 3.09140768 26.81718464 3.09140768 29 2 C29.33 11.9 29.66 21.8 30 32 C25 33 25 33 23 32 C22.5859375 29.78515625 22.5859375 29.78515625 22.375 27.0625 C22.30023438 26.16660156 22.22546875 25.27070313 22.1484375 24.34765625 C22.05693569 22.90048294 22 21.45006316 22 20 C22.66 20 23.32 20 24 20 C24 23.63 24 27.26 24 31 C25.32 31 26.64 31 28 31 C28 24.4 28 17.8 28 11 C23.60281354 12.09929662 23.20002666 12.55450729 20.75 16.0625 C20.22921875 16.79597656 19.7084375 17.52945313 19.171875 18.28515625 C18.59179688 19.13400391 18.59179688 19.13400391 18 20 C15.35247996 17.42215154 13.05567935 15.08351902 11 12 C9.68 11.67 8.36 11.34 7 11 C7 17.93 7 24.86 7 32 C8.32 32.33 9.64 32.66 11 33 C7.37 33 3.74 33 0 33 C-1.47920933 21.90593004 -1.10399186 11.11877513 0 0 Z M27 5 C26.34 6.32 25.68 7.64 25 9 C25.99 9 26.98 9 28 9 C27.67 7.68 27.34 6.36 27 5 Z M7 6 C7 6.99 7 7.98 7 9 C7.99 8.67 8.98 8.34 10 8 C9.01 7.34 8.02 6.68 7 6 Z " fill="#DBD4D3" transform="translate(94,173)"/>
<path d="M0 0 C5.94630056 5.46416808 8.62848756 10.69045573 9.3125 18.625 C9.16886827 25.06448935 7.15237896 30.63735311 2.80078125 35.4140625 C-3.32795936 41 -3.32795936 41 -6 41 C-6.0928125 42.299375 -6.0928125 42.299375 -6.1875 43.625 C-7.45989467 48.91033172 -10.31677796 51.85234861 -14.75 54.875 C-19.80695143 56.62548319 -24.3151006 57.17972853 -29.3203125 54.98046875 C-34.74599777 51.7620067 -34.74599777 51.7620067 -36 48 C-32.26941748 48.64320388 -32.26941748 48.64320388 -30.84375 50.53125 C-27.9603035 52.8282328 -24.82797593 52.31551453 -21.3125 52.1875 C-20.61060547 52.17396484 -19.90871094 52.16042969 -19.18554688 52.14648438 C-17.45670171 52.11120182 -15.72825235 52.05739583 -14 52 C-14.33 51.01 -14.66 50.02 -15 49 C-14.01 49 -13.02 49 -12 49 C-11.67 48.34 -11.34 47.68 -11 47 C-10.01 46.505 -10.01 46.505 -9 46 C-8.09656316 44.11736119 -8.09656316 44.11736119 -7.375 41.9375 C-7.11460937 41.20402344 -6.85421875 40.47054687 -6.5859375 39.71484375 C-6.39257812 39.14894531 -6.19921875 38.58304688 -6 38 C-4.68 38 -3.36 38 -2 38 C-1.67 36.68 -1.34 35.36 -1 34 C-0.01 34 0.98 34 2 34 C2.185625 32.081875 2.185625 32.081875 2.375 30.125 C2.75 26.25 2.75 26.25 5 24 C5.8229947 18.16641995 4.78284063 12.5466153 3 7 C2.34 6.67 1.68 6.34 1 6 C0.375 2.9375 0.375 2.9375 0 0 Z " fill="#DC827F" transform="translate(280,168)"/>
<path d="M0 0 C2.9375 2.25 2.9375 2.25 5 5 C5.3125 8.8125 5.3125 8.8125 5 12 C4.01 12 3.02 12 2 12 C0.6273318 10.02678947 -0.70427617 8.02456848 -2 6 C-6.25020662 3.16652892 -10.01063257 3.47396446 -15 4 C-18.68623011 5.61272567 -19.75355 6.630325 -22 10 C-22.66 10 -23.32 10 -24 10 C-24 12.97 -24 15.94 -24 19 C-24.66 18.67 -25.32 18.34 -26 18 C-26.57305584 10.77949647 -25.69479514 5.71180366 -21 0 C-13.76888855 -4.41901256 -7.32906788 -3.9359809 0 0 Z " fill="#CD5D5A" transform="translate(174,122)"/>
<path d="M0 0 C3.0603333 1.7655769 5.50587755 3.50587755 8 6 C8.22739807 10.77535943 7.81225291 15.41241476 5.625 19.6875 C1.34150322 21.82924839 -3.31556772 21.79385036 -8 21 C-9.83984375 19.72265625 -9.83984375 19.72265625 -11 18 C-11 16.68 -11 15.36 -11 14 C-10.43796875 14.32742187 -9.8759375 14.65484375 -9.296875 14.9921875 C-6.73140036 16.11785494 -5.03157723 16.2068111 -2.25 16.125 C-1.05117187 16.09792969 -1.05117187 16.09792969 0.171875 16.0703125 C0.77515625 16.04710937 1.3784375 16.02390625 2 16 C2.04125 14.72125 2.0825 13.4425 2.125 12.125 C2.15980469 11.04605469 2.15980469 11.04605469 2.1953125 9.9453125 C2.18331689 7.76136355 2.18331689 7.76136355 0 6 C-2.5 5.66666667 -2.5 5.66666667 -5 6 C-5.66 6.66 -6.32 7.32 -7 8 C-9.625 8.125 -9.625 8.125 -12 8 C-11.67715014 4.98673462 -10.96634616 3.96538462 -8.8125 1.75 C-5.42975066 -0.35482181 -3.91749081 -0.63959034 0 0 Z " fill="#CA4843" transform="translate(166,126)"/>
<path d="M0 0 C1.47906892 -0.02689216 2.95827483 -0.04634621 4.4375 -0.0625 C5.26121094 -0.07410156 6.08492188 -0.08570313 6.93359375 -0.09765625 C9 0 9 0 10 1 C10.21832989 5.39998945 10.18579146 9.80534812 10.18530273 14.21020508 C10.18748751 16.42483782 10.20563531 18.63897123 10.22460938 20.85351562 C10.22754356 22.25520662 10.22952819 23.6569 10.23046875 25.05859375 C10.23457764 26.34048584 10.23868652 27.62237793 10.24291992 28.94311523 C10 32 10 32 8 34 C7.01 34 6.02 34 5 34 C3.5235764 31.0471528 3.77727061 28.31551017 3.68359375 25.0234375 C3.66281265 24.33819 3.64203156 23.6529425 3.62062073 22.94692993 C3.55519815 20.75638931 3.49627446 18.56572811 3.4375 16.375 C3.39430782 14.8906125 3.3506933 13.40623722 3.30664062 11.921875 C3.19952447 8.28137916 3.09823638 4.64074749 3 1 C2.01 0.67 1.02 0.34 0 0 Z " fill="#ACA9A9" transform="translate(119,172)"/>
<path d="M0 0 C0.99 0 1.98 0 3 0 C3.33 6.6 3.66 13.2 4 20 C5.32 20.33 6.64 20.66 8 21 C8.33 14.07 8.66 7.14 9 0 C10.32 0 11.64 0 13 0 C13.0867982 3.79152334 13.14032207 7.58279296 13.1875 11.375 C13.21263672 12.45523438 13.23777344 13.53546875 13.26367188 14.6484375 C13.27817383 16.1953125 13.27817383 16.1953125 13.29296875 17.7734375 C13.31653442 19.20308838 13.31653442 19.20308838 13.34057617 20.66162109 C13.22818604 21.43328613 13.1157959 22.20495117 13 23 C8.93150591 25.71232939 6.83523216 25.30699887 2 25 C0 23 0 23 -0.22705078 20.66162109 C-0.21657715 19.70852051 -0.20610352 18.75541992 -0.1953125 17.7734375 C-0.18886719 16.7421875 -0.18242187 15.7109375 -0.17578125 14.6484375 C-0.15902344 13.56820312 -0.14226562 12.48796875 -0.125 11.375 C-0.11597656 10.28703125 -0.10695312 9.1990625 -0.09765625 8.078125 C-0.07403409 5.38519848 -0.04109556 2.69270745 0 0 Z " fill="#292728" transform="translate(139,174)"/>
<path d="M0 0 C1.32 0.33 2.64 0.66 4 1 C4 9.91 4 18.82 4 28 C9.28 28 14.56 28 20 28 C20 29.32 20 30.64 20 32 C16.85418577 32.02888514 13.70840531 32.04675923 10.5625 32.0625 C9.66466797 32.07087891 8.76683594 32.07925781 7.84179688 32.08789062 C6.56079102 32.09272461 6.56079102 32.09272461 5.25390625 32.09765625 C4.46314697 32.10289307 3.6723877 32.10812988 2.85766602 32.11352539 C1 32 1 32 0 31 C-0.08790975 28.70848583 -0.10694038 26.41427476 -0.09765625 24.12109375 C-0.0962413 23.4344313 -0.09482635 22.74776886 -0.09336853 22.04029846 C-0.08775479 19.83932199 -0.07520007 17.63844591 -0.0625 15.4375 C-0.05748676 13.94856917 -0.05292355 12.45963676 -0.04882812 10.97070312 C-0.03778093 7.31376925 -0.02050713 3.65689442 0 0 Z " fill="#CB514E" transform="translate(124,121)"/>
<path d="M0 0 C3.3 0 6.6 0 10 0 C11.05899248 3.87897244 10.96912572 5.97751568 9.34765625 9.64453125 C8.98349609 10.48564453 8.61933594 11.32675781 8.24414062 12.19335938 C7.65922852 13.48983398 7.65922852 13.48983398 7.0625 14.8125 C6.67642578 15.69615234 6.29035156 16.57980469 5.89257812 17.49023438 C4.94009781 19.66565238 3.9756986 21.83492068 3 24 C1.60992745 19.6558754 3.00783401 16.96669042 4.875 13 C7.38121557 7.65696697 7.38121557 7.65696697 9 2 C5.60272861 4.26484759 5.20279529 5.31469014 3.73828125 9.0078125 C3.34189453 9.99394531 2.94550781 10.98007813 2.53710938 11.99609375 C2.13298828 13.02863281 1.72886719 14.06117188 1.3125 15.125 C0.89677734 16.16527344 0.48105469 17.20554688 0.05273438 18.27734375 C-0.97330431 20.84833723 -1.99046061 23.42249303 -3 26 C-3.66 26 -4.32 26 -5 26 C-5.18175781 25.43410156 -5.36351562 24.86820313 -5.55078125 24.28515625 C-5.80214844 23.55167969 -6.05351562 22.81820312 -6.3125 22.0625 C-6.55613281 21.33160156 -6.79976562 20.60070312 -7.05078125 19.84765625 C-7.91240441 17.64067976 -7.91240441 17.64067976 -11 17 C-11.99 19.97 -12.98 22.94 -14 26 C-14.66 26 -15.32 26 -16 26 C-16.33 23.69 -16.66 21.38 -17 19 C-16.01 18.67 -15.02 18.34 -14 18 C-12.75501391 15.67730041 -12.75501391 15.67730041 -11.8125 12.9375 C-11.46832031 12.01839844 -11.12414062 11.09929687 -10.76953125 10.15234375 C-10.51558594 9.44207031 -10.26164063 8.73179687 -10 8 C-8 10 -8 10 -6.5625 13.5625 C-6.046875 14.696875 -5.53125 15.83125 -5 17 C-4.01 17.33 -3.02 17.66 -2 18 C-0.29304267 12.34428139 1.39334698 6.68507992 3 1 C2.01 0.67 1.02 0.34 0 0 Z " fill="#E9BBB8" transform="translate(210,120)"/>
<path d="M0 0 C0.99 0 1.98 0 3 0 C2.13054185 5.07183924 1.42574964 8.71682533 -2.5 12.25 C-7.67896967 14.83948484 -12.6607875 15.8930452 -18.3515625 14.37109375 C-22.10063281 12.74195229 -23.66796854 11.67789757 -25.5 7.9375 C-26 5 -26 5 -26 2 C-24 2 -24 2 -21.4375 4.4375 C-20.633125 5.283125 -19.82875 6.12875 -19 7 C-17.98203191 8.23865033 -17.98203191 8.23865033 -15.85546875 8.1328125 C-14.97503906 8.13023437 -14.09460938 8.12765625 -13.1875 8.125 C-12.31480469 8.12757813 -11.44210938 8.13015625 -10.54296875 8.1328125 C-8.16353678 8.00854109 -6.21988756 7.86800098 -4 7 C-3.67 6.01 -3.34 5.02 -3 4 C-2.34 4 -1.68 4 -1 4 C-0.67 2.68 -0.34 1.36 0 0 Z " fill="#D97C7A" transform="translate(176,140)"/>
<path d="M0 0 C7.95305943 8.95960699 7.45520852 21.43188316 7.51171875 32.83203125 C7.52861779 34.20352222 7.54677476 35.57499821 7.56611633 36.94645691 C7.61305706 40.50875149 7.64322411 44.07098535 7.66955566 47.63348389 C7.69964819 51.28767906 7.74607756 54.9416657 7.79101562 58.59570312 C7.8764096 65.73034828 7.94403421 72.86505818 8 80 C4.86731963 76.05009866 3.87168099 73.21711848 3.90234375 68.1965332 C3.90564697 67.22154373 3.9089502 66.24655426 3.91235352 65.24201965 C3.92480103 63.66235664 3.92480103 63.66235664 3.9375 62.05078125 C3.94128662 60.96419724 3.94507324 59.87761322 3.94897461 58.75810242 C3.96532203 54.10569671 3.99333701 49.45337851 4.02050781 44.80102539 C4.03866138 41.40511485 4.05071742 38.00921893 4.0625 34.61328125 C4.07079834 33.57029373 4.07909668 32.52730621 4.08764648 31.45271301 C4.12358022 20.674948 2.52414864 11.1734857 -1 1 C-0.67 0.67 -0.34 0.34 0 0 Z " fill="#D2726F" transform="translate(236,136)"/>
<path d="M0 0 C0.99 0.33 1.98 0.66 3 1 C3 11.56 3 22.12 3 33 C1.515 33.495 1.515 33.495 0 34 C-0.66 33.67 -1.32 33.34 -2 33 C-2.19876297 29.16716495 -2.38195792 25.33373312 -2.5625 21.5 C-2.61857422 20.42234375 -2.67464844 19.3446875 -2.73242188 18.234375 C-3.00119933 12.35710803 -3.15066902 6.78779629 -2 1 C-1.34 0.67 -0.68 0.34 0 0 Z " fill="#4C4B4B" transform="translate(188,172)"/>
<path d="M0 0 C5.61 0 11.22 0 17 0 C17 1.32 17 2.64 17 4 C12.38 4 7.76 4 3 4 C3 13.24 3 22.48 3 32 C2.01 32 1.02 32 0 32 C0 21.44 0 10.88 0 0 Z " fill="#C44744" transform="translate(102,121)"/>
<path d="M0 0 C1.875 0.125 1.875 0.125 4 1 C5.25 4.0625 5.25 4.0625 6 7 C5.01 7.495 5.01 7.495 4 8 C4.33 10.64 4.66 13.28 5 16 C3.68 14.68 2.36 13.36 1 12 C-0.98 14.97 -0.98 14.97 -3 18 C-4.32 17.67 -5.64 17.34 -7 17 C-7 16.34 -7 15.68 -7 15 C-7.66 14.67 -8.32 14.34 -9 14 C-9 11.03 -9 8.06 -9 5 C-8.01 5 -7.02 5 -6 5 C-5.67 6.32 -5.34 7.64 -5 9 C-4.34 9 -3.68 9 -3 9 C-2.87625 8.071875 -2.7525 7.14375 -2.625 6.1875 C-2 3 -2 3 0 0 Z " fill="#D97572" transform="translate(199,137)"/>
<path d="M0 0 C1.670625 0.061875 1.670625 0.061875 3.375 0.125 C3.375 0.455 3.375 0.785 3.375 1.125 C1.395 1.785 -0.585 2.445 -2.625 3.125 C-3.30458603 5.52219432 -3.30458603 5.52219432 -3.625 8.125 C-1.75720653 10.26355245 -1.75720653 10.26355245 0.8125 11.0625 C4.90727633 12.76033409 4.90727633 12.76033409 6.375 15.125 C6.04166667 21.45833333 6.04166667 21.45833333 3.375 24.125 C0.7734375 24.3203125 0.7734375 24.3203125 -2.25 24.25 C-3.75433594 24.22292969 -3.75433594 24.22292969 -5.2890625 24.1953125 C-6.05992187 24.17210937 -6.83078125 24.14890625 -7.625 24.125 C-7.625 24.785 -7.625 25.445 -7.625 26.125 C-2.7379572 27.6888537 2.4879572 27.6888537 7.375 26.125 C4.45630274 29.54246198 2.07327491 29.8310007 -2.26171875 30.20703125 C-5.9316424 30.07964547 -8.40429168 28.83814272 -11.625 27.125 C-11.439375 26.196875 -11.25375 25.26875 -11.0625 24.3125 C-10.38376119 21.11156229 -10.38376119 21.11156229 -11.625 18.125 C-10.965 17.795 -10.305 17.465 -9.625 17.125 C-9.295 18.115 -8.965 19.105 -8.625 20.125 C-6.10024538 21.38737731 -4.31299534 21.22356404 -1.5 21.1875 C-0.58992187 21.17847656 0.32015625 21.16945312 1.2578125 21.16015625 C1.95648438 21.14855469 2.65515625 21.13695312 3.375 21.125 C3.705 19.145 4.035 17.165 4.375 15.125 C3.488125 14.8775 2.60125 14.63 1.6875 14.375 C-1.88356283 13.02742912 -4.07739664 11.98140377 -6.625 9.125 C-6.52729603 3.45816955 -6.18913518 0.21341845 0 0 Z " fill="#CEC9C8" transform="translate(172.625,176.875)"/>
<path d="M0 0 C1.37115967 -0.00676758 1.37115967 -0.00676758 2.77001953 -0.01367188 C7.07259289 -0.00430318 11.37095143 0.08951566 15.6640625 0.3828125 C16.38029785 0.42809082 17.0965332 0.47336914 17.83447266 0.52001953 C19.625 1.125 19.625 1.125 20.87255859 3.17138672 C21.24501709 4.13842529 21.24501709 4.13842529 21.625 5.125 C16.00441994 4.21002185 16.00441994 4.21002185 13.29345703 3.60253906 C8.08427301 2.67031912 2.77774896 2.89774892 -2.5 2.875 C-3.67304688 2.854375 -4.84609375 2.83375 -6.0546875 2.8125 C-16.09766088 2.76786456 -24.55409133 4.66901388 -33.75 8.6875 C-34.70648438 9.10128906 -35.66296875 9.51507813 -36.6484375 9.94140625 C-37.99808594 10.52728516 -37.99808594 10.52728516 -39.375 11.125 C-41.03929776 11.79755868 -42.70521116 12.4661924 -44.375 13.125 C-44.045 12.135 -43.715 11.145 -43.375 10.125 C-42.385 10.125 -41.395 10.125 -40.375 10.125 C-40.375 9.135 -40.375 8.145 -40.375 7.125 C-39.78332031 7.00382812 -39.19164063 6.88265625 -38.58203125 6.7578125 C-34.33696415 5.85755357 -30.35060339 4.92043379 -26.375 3.125 C-26.375 2.465 -26.375 1.805 -26.375 1.125 C-17.57706727 0.35757908 -8.83091815 0.01789749 0 0 Z " fill="#E39F9C" transform="translate(163.375,77.875)"/>
<path d="M0 0 C0.99 0 1.98 0 3 0 C3.05821935 3.89577024 3.0936703 7.79142802 3.125 11.6875 C3.14175781 12.79029297 3.15851563 13.89308594 3.17578125 15.02929688 C3.18222656 16.09599609 3.18867188 17.16269531 3.1953125 18.26171875 C3.20578613 19.24100342 3.21625977 20.22028809 3.22705078 21.22924805 C2.89131143 25.32635115 1.91481113 28.08518887 -1 31 C-3.27734375 31.23046875 -3.27734375 31.23046875 -5.9375 31.1875 C-6.81277344 31.18105469 -7.68804687 31.17460937 -8.58984375 31.16796875 C-11 31 -11 31 -14 30 C-14 29.01 -14 28.02 -14 27 C-12.07942708 27.16276042 -10.15885417 27.32552083 -8.23828125 27.48828125 C-4.469513 26.66612413 -3.2335097 25.12079438 -1 22 C-0.25430356 18.23135063 -0.20957315 14.52087029 -0.1875 10.6875 C-0.16236328 9.66076172 -0.13722656 8.63402344 -0.11132812 7.57617188 C-0.05258915 5.050396 -0.01621288 2.52634772 0 0 Z " fill="#1A1819" transform="translate(154,174)"/>
<path d="M0 0 C16.00466733 2.54359892 32.71295186 18.48267425 42 31 C41.67 31.66 41.34 32.32 41 33 C37.76681408 31.4911799 35.64697278 30.29394556 34 27 C33.01 26.67 32.02 26.34 31 26 C31 25.01 31 24.02 31 23 C30.01 23 29.02 23 28 23 C28 21.68 28 20.36 28 19 C27.195625 18.7525 26.39125 18.505 25.5625 18.25 C23 17 23 17 22.1875 14.875 C22.125625 14.25625 22.06375 13.6375 22 13 C20.35 13 18.7 13 17 13 C16.67 12.01 16.34 11.02 16 10 C14.68 10 13.36 10 12 10 C12 8.68 12 7.36 12 6 C10.35 6 8.7 6 7 6 C6.67 5.01 6.34 4.02 6 3 C2.99152582 1.77479736 2.99152582 1.77479736 0 1 C0 0.67 0 0.34 0 0 Z " fill="#D87977" transform="translate(192,71)"/>
<path d="M0 0 C0.66 0.33 1.32 0.66 2 1 C1.48050781 1.95777344 0.96101563 2.91554688 0.42578125 3.90234375 C-8.13183978 20.08727567 -12.05425851 35.41070727 -12.31640625 53.71484375 C-12.33718735 54.92572159 -12.35796844 56.13659943 -12.37937927 57.38417053 C-12.44453024 61.2352251 -12.50359914 65.08634527 -12.5625 68.9375 C-12.605718 71.55534521 -12.64933332 74.17318388 -12.69335938 76.79101562 C-12.80017619 83.19394195 -12.90200535 89.5969329 -13 96 C-13.33 96 -13.66 96 -14 96 C-14.09377649 88.61834394 -14.16429876 81.23682174 -14.20724869 73.85468483 C-14.22789015 70.4247151 -14.25576148 66.99516054 -14.30175781 63.56542969 C-14.77672348 27.14031717 -14.77672348 27.14031717 -6.79644775 12.87393188 C-5.73923217 10.72580929 -5.73923217 10.72580929 -6 7 C-5.01 7 -4.02 7 -3 7 C-3 5.02 -3 3.04 -3 1 C-2.01 0.67 -1.02 0.34 0 0 Z " fill="#EAB8B4" transform="translate(93,115)"/>
<path d="M0 0 C0.66 0 1.32 0 2 0 C1.91298828 0.8353125 1.91298828 0.8353125 1.82421875 1.6875 C1.44847696 8.042904 2.85705449 12.13349781 7 17 C10.28491373 19.18994248 11.83095639 19.35277339 15.6875 19.625 C16.68136719 19.69976562 17.67523438 19.77453125 18.69921875 19.8515625 C19.45847656 19.90054688 20.21773437 19.94953125 21 20 C21 20.66 21 21.32 21 22 C18.43635517 22.10845031 15.87733721 22.18749744 13.3125 22.25 C12.59126953 22.28351563 11.87003906 22.31703125 11.12695312 22.3515625 C7.25513032 22.42228072 5.4308142 22.27097755 2.0625 20.15234375 C-2.15633834 15.74973026 -2.22555905 10.85032715 -2.265625 5.05078125 C-2 3 -2 3 0 0 Z " fill="#262525" transform="translate(203,182)"/>
<path d="M0 0 C0.66 0.33 1.32 0.66 2 1 C2 1.66 2 2.32 2 3 C-0.97 3 -3.94 3 -7 3 C-9.11964808 7.23929615 -9.34377794 9.35899787 -9 14 C-6.23776722 16.76223278 -3.79293383 16.57856291 0 17 C0 17.66 0 18.32 0 19 C-1.60332791 19.08121924 -3.20784026 19.13929134 -4.8125 19.1875 C-6.15248047 19.23970703 -6.15248047 19.23970703 -7.51953125 19.29296875 C-10 19 -10 19 -11.76171875 17.67578125 C-14.16331891 14.42566621 -14.41246799 10.97115005 -14.33203125 7.0078125 C-14 5 -14 5 -12.0625 2 C-7.99519212 -0.65620107 -4.73790088 -0.65157772 0 0 Z " fill="#2F2E2E" transform="translate(221,179)"/>
<path d="M0 0 C3.32966378 1.66483189 5.5317626 3.76251543 6.875 7.3125 C6.91625 7.869375 6.9575 8.42625 7 9 C7.99 9 8.98 9 10 9 C10 7.35 10 5.7 10 4 C10.66 4.33 11.32 4.66 12 5 C11.67 6.65 11.34 8.3 11 10 C9.68 10 8.36 10 7 10 C7 10.99 7 11.98 7 13 C7.9590625 13.1546875 7.9590625 13.1546875 8.9375 13.3125 C9.618125 13.539375 10.29875 13.76625 11 14 C12 17 12 17 10.5625 20.1875 C10.046875 21.115625 9.53125 22.04375 9 23 C7.7922442 19.37673261 8.45688872 18.35853631 10 15 C9.01 15 8.02 15 7 15 C6.896875 15.598125 6.79375 16.19625 6.6875 16.8125 C5.91123545 19.28243264 4.92911079 20.32251235 3 22 C2.01 21.67 1.02 21.34 0 21 C0.474375 20.61714844 0.94875 20.23429687 1.4375 19.83984375 C4.44112795 16.30307184 4.35556866 11.47479799 4 7 C1.1538095 3.76918916 -1.5432726 2.1618586 -5.8125 1.6875 C-10.56365098 2.15329912 -12.73961835 4.73961835 -16 8 C-16 4 -16 4 -14.6875 2.3125 C-10.52567534 -0.92447474 -5.00622315 -0.69962746 0 0 Z " fill="#F0CDC9" transform="translate(169,125)"/>
<path d="M0 0 C0 3.3 0 6.6 0 10 C-0.99 8.68 -1.98 7.36 -3 6 C-2.67 4.68 -2.34 3.36 -2 2 C-7.61 1.67 -13.22 1.34 -19 1 C-19 11.56 -19 22.12 -19 33 C-18.01 33.33 -17.02 33.66 -16 34 C-17.32 34 -18.64 34 -20 34 C-22.51313556 29.17318409 -22.2970588 24.55195836 -22.25 19.25 C-22.25773437 18.3940625 -22.26546875 17.538125 -22.2734375 16.65625 C-22.25576403 10.82400437 -21.44145783 5.65142991 -20 0 C-5.49328215 -1.83109405 -5.49328215 -1.83109405 0 0 Z " fill="#EAC5C3" transform="translate(121,120)"/>
<path d="M0 0 C0 6.6 0 13.2 0 20 C-1.32 20 -2.64 20 -4 20 C-4 16.37 -4 12.74 -4 9 C-4.66 9 -5.32 9 -6 9 C-6.33 9.99 -6.66 10.98 -7 12 C-7.66 11.67 -8.32 11.34 -9 11 C-6.25 0 -6.25 0 0 0 Z " fill="#201E1F" transform="translate(122,184)"/>
<path d="M0 0 C0.99 0 1.98 0 3 0 C3 7.26 3 14.52 3 22 C6.63 22 10.26 22 14 22 C14 22.99 14 23.98 14 25 C9.38 25 4.76 25 0 25 C0 16.75 0 8.5 0 0 Z " fill="#C44A47" transform="translate(130,122)"/>
<path d="M0 0 C0.66 0.33 1.32 0.66 2 1 C1.67 1.99 1.34 2.98 1 4 C0.01 4.33 -0.98 4.66 -2 5 C-3.51472274 7.27208411 -4.78009593 9.56019185 -6 12 C-6.99 12.66 -7.98 13.32 -9 14 C-9 14.99 -9 15.98 -9 17 C-9.804375 17.268125 -10.60875 17.53625 -11.4375 17.8125 C-12.283125 18.204375 -13.12875 18.59625 -14 19 C-14.33 19.99 -14.66 20.98 -15 22 C-16.65 22.33 -18.3 22.66 -20 23 C-20 22.01 -20 21.02 -20 20 C-19.34 20 -18.68 20 -18 20 C-17.690625 19.38125 -17.38125 18.7625 -17.0625 18.125 C-16.375 16.75 -15.6875 15.375 -15 14 C-14.34 14 -13.68 14 -13 14 C-12.67902344 13.17242187 -12.67902344 13.17242187 -12.3515625 12.328125 C-10.546489 9.21880764 -8.05199936 7.08727863 -5.375 4.75 C-4.859375 4.29109375 -4.34375 3.8321875 -3.8125 3.359375 C-2.5465398 2.23407704 -1.27392058 1.11627823 0 0 Z " fill="#CE403C" transform="translate(105,83)"/>
<path d="M0 0 C3.62486735 1.94668802 5.90255026 3.51590035 8.375 6.8125 C8.6875 10.625 8.6875 10.625 8.375 13.8125 C7.385 13.8125 6.395 13.8125 5.375 13.8125 C4.0023318 11.83928947 2.67072383 9.83706848 1.375 7.8125 C-2.15179099 5.46130601 -3.65379485 5.59806548 -7.8125 5.6875 C-9.44251953 5.71457031 -9.44251953 5.71457031 -11.10546875 5.7421875 C-11.93691406 5.76539062 -12.76835937 5.78859375 -13.625 5.8125 C-13.295 5.1525 -12.965 4.4925 -12.625 3.8125 C-10.66674127 3.78555149 -8.70837774 3.76612782 -6.75 3.75 C-5.65945312 3.73839844 -4.56890625 3.72679688 -3.4453125 3.71484375 C-0.625 3.8125 -0.625 3.8125 1.375 4.8125 C1.375 3.8225 1.375 2.8325 1.375 1.8125 C-3.905 1.4825 -9.185 1.1525 -14.625 0.8125 C-9.2276934 -1.8861533 -5.71996023 -1.87378008 0 0 Z " fill="#D9837F" transform="translate(170.625,120.1875)"/>
<path d="M0 0 C0.99 0.66 1.98 1.32 3 2 C3 2.99 3 3.98 3 5 C1.84371094 4.94779297 1.84371094 4.94779297 0.6640625 4.89453125 C-0.84027344 4.85392578 -0.84027344 4.85392578 -2.375 4.8125 C-3.37273437 4.77769531 -4.37046875 4.74289063 -5.3984375 4.70703125 C-6.68621094 4.85205078 -6.68621094 4.85205078 -8 5 C-10.05925681 8.08888522 -10.2390374 8.70935927 -10.125 12.1875 C-10.08375 13.445625 -10.0425 14.70375 -10 16 C-11.32 15.67 -12.64 15.34 -14 15 C-14 11.7 -14 8.4 -14 5 C-12.68 4.34 -11.36 3.68 -10 3 C-10 2.34 -10 1.68 -10 1 C-6.60907078 -0.04336284 -3.5382677 -0.22584687 0 0 Z " fill="#1E1C1D" transform="translate(177,173)"/>
<path d="M0 0 C0.99 0 1.98 0 3 0 C3 10.23 3 20.46 3 31 C2.01 31 1.02 31 0 31 C0 20.77 0 10.54 0 0 Z " fill="#171516" transform="translate(124,173)"/>
<path d="M0 0 C0.99 0 1.98 0 3 0 C3 10.23 3 20.46 3 31 C2.01 31 1.02 31 0 31 C0 20.77 0 10.54 0 0 Z " fill="#171516" transform="translate(96,173)"/>
<path d="M0 0 C2.22825644 2.22825644 2.69239369 3.65761628 3.625 6.625 C3.88539063 7.44226563 4.14578125 8.25953125 4.4140625 9.1015625 C4.60742188 9.72804687 4.80078125 10.35453125 5 11 C5.99 11 6.98 11 8 11 C7.67 13.31 7.34 15.62 7 18 C6.34 18 5.68 18 5 18 C4.81824219 17.43410156 4.63648438 16.86820313 4.44921875 16.28515625 C4.19785156 15.55167969 3.94648438 14.81820312 3.6875 14.0625 C3.32205078 12.96615234 3.32205078 12.96615234 2.94921875 11.84765625 C2.08759559 9.64067976 2.08759559 9.64067976 -1 9 C-1.99 11.97 -2.98 14.94 -4 18 C-4.66 18 -5.32 18 -6 18 C-6.33 15.69 -6.66 13.38 -7 11 C-6.01 10.67 -5.02 10.34 -4 10 C-2.75501391 7.67730041 -2.75501391 7.67730041 -1.8125 4.9375 C-1.46832031 4.01839844 -1.12414062 3.09929687 -0.76953125 2.15234375 C-0.51558594 1.44207031 -0.26164063 0.73179687 0 0 Z " fill="#F1D0CC" transform="translate(200,128)"/>
<path d="M0 0 C7.21804511 -0.48120301 7.21804511 -0.48120301 10.4375 1.5 C12.63640725 5.01825161 12.72498419 7.87476285 13 12 C12.01 12 11.02 12 10 12 C7 7.77777778 7 7.77777778 7 5 C6.34 5 5.68 5 5 5 C4.67 13.91 4.34 22.82 4 32 C3.67 32 3.34 32 3 32 C3 21.77 3 11.54 3 1 C2.01 0.67 1.02 0.34 0 0 Z " fill="#393737" transform="translate(96,172)"/>
<path d="M0 0 C0.99 0 1.98 0 3 0 C3 9.9 3 19.8 3 30 C2.01 30 1.02 30 0 30 C0 20.1 0 10.2 0 0 Z " fill="#171516" transform="translate(193,174)"/>
<path d="M0 0 C2.875 1.5 2.875 1.5 5 3 C4.01 3.495 4.01 3.495 3 4 C3.33 4.66 3.66 5.32 4 6 C4.13415472 8.6723621 4.04318541 11.32250488 4 14 C3.67 14 3.34 14 3 14 C2.690625 12.865625 2.38125 11.73125 2.0625 10.5625 C1.37075469 7.21224901 1.37075469 7.21224901 0 6 C-2.45809998 5.7499227 -2.45809998 5.7499227 -5 6 C-5.66 6.66 -6.32 7.32 -7 8 C-9.625 8.125 -9.625 8.125 -12 8 C-11.67715014 4.98673462 -10.96634616 3.96538462 -8.8125 1.75 C-5.46407948 -0.33346166 -3.8773995 -0.56545409 0 0 Z " fill="#C8514E" transform="translate(166,126)"/>
<path d="M0 0 C2 2 2 2 2.3125 5.875 C2.23424423 8.57482406 2.04030367 9.91939266 0.8125 12.375 C-2.464677 15.31315869 -5.19960303 15.94383179 -9.5625 16.25 C-12.70934415 16.02113861 -14.38723752 15.67216798 -17 14 C-17 13.34 -17 12.68 -17 12 C-16.24074219 11.96261719 -15.48148438 11.92523438 -14.69921875 11.88671875 C-13.70535156 11.82097656 -12.71148437 11.75523437 -11.6875 11.6875 C-10.70136719 11.62949219 -9.71523437 11.57148438 -8.69921875 11.51171875 C-5.95198161 11.25328785 -5.95198161 11.25328785 -4.39453125 9.39453125 C-3.93433594 8.93433594 -3.47414062 8.47414062 -3 8 C-1.68 8.33 -0.36 8.66 1 9 C0.67 6.03 0.34 3.06 0 0 Z " fill="#676464" transform="translate(182,189)"/>
<path d="M0 0 C1.76462683 3.08809695 2 4.23312136 2 8 C1.34 8 0.68 8 0 8 C0 10.31 0 12.62 0 15 C-0.66 15 -1.32 15 -2 15 C-2.144375 15.928125 -2.28875 16.85625 -2.4375 17.8125 C-3 21 -3 21 -4 24 C-10.435 24.495 -10.435 24.495 -17 25 C-15 23 -15 23 -12.6171875 22.8046875 C-11.71226563 22.82789063 -10.80734375 22.85109375 -9.875 22.875 C-8.50988281 22.90207031 -8.50988281 22.90207031 -7.1171875 22.9296875 C-6.41851562 22.95289063 -5.71984375 22.97609375 -5 23 C-5.19078125 22.45988281 -5.3815625 21.91976562 -5.578125 21.36328125 C-6.80954888 14.46502708 -2.94730186 6.17529913 0 0 Z " fill="#DD8F8C" transform="translate(73,126)"/>
<path d="M0 0 C0 1.98 0 3.96 0 6 C-3.73437848 6.87867729 -7.16774573 7.08912219 -11 7 C-11 6.34 -11 5.68 -11 5 C-8.03 5 -5.06 5 -2 5 C-2 4.34 -2 3.68 -2 3 C-9.10065417 2.36241273 -9.10065417 2.36241273 -15.625 4.5625 C-17.38829012 7.68833249 -17.72671902 10.44734731 -18 14 C-18.99 14 -19.98 14 -21 14 C-20.7891476 8.83411628 -19.74816961 5.20368515 -16.23046875 1.3125 C-11.41330108 -1.52212055 -5.382572 -0.46452334 0 0 Z " fill="#B4AFAF" transform="translate(225,177)"/>
<path d="M0 0 C2.97 0 5.94 0 9 0 C9.33 1.32 9.66 2.64 10 4 C8.02 4 6.04 4 4 4 C4 7.3 4 10.6 4 14 C2.68 14 1.36 14 0 14 C0 9.38 0 4.76 0 0 Z " fill="#C75B58" transform="translate(107,138)"/>
<path d="M0 0 C3.69867997 4.12231733 5.61970844 8.2996603 7.625 13.375 C7.9240625 14.10460937 8.223125 14.83421875 8.53125 15.5859375 C13.771625 28.5709375 13.771625 28.5709375 12 33 C10.68373308 29.38026598 10 26.90432869 10 23 C9.01 22.67 8.02 22.34 7 22 C5.25327015 18.5065403 4 15.93154432 4 12 C3.34 12 2.68 12 2 12 C0.86235649 7.73383684 0 4.43513689 0 0 Z " fill="#DB7C79" transform="translate(239,111)"/>
<path d="M0 0 C0.66 1.32 1.32 2.64 2 4 C-2.87494259 8.08441136 -6.29486763 9.4068546 -12.57421875 9.35546875 C-16.65943337 8.75683021 -19.95966646 6.75336328 -23 4 C-23.33 3.01 -23.66 2.02 -24 1 C-20.26941748 1.64320388 -20.26941748 1.64320388 -18.84375 3.53125 C-15.9603035 5.8282328 -12.82797593 5.31551453 -9.3125 5.1875 C-8.61060547 5.17396484 -7.90871094 5.16042969 -7.18554688 5.14648438 C-5.45670171 5.11120182 -3.72825235 5.05739583 -2 5 C-2.33 4.01 -2.66 3.02 -3 2 C-2.01 2 -1.02 2 0 2 C0 1.34 0 0.68 0 0 Z " fill="#DE8986" transform="translate(268,215)"/>
<path d="M0 0 C4.29 0 8.58 0 13 0 C13 0.99 13 1.98 13 3 C9.7 3 6.4 3 3 3 C3 3.99 3 4.98 3 6 C4.98 6 6.96 6 9 6 C9 6.99 9 7.98 9 9 C6.03 9 3.06 9 0 9 C0 6.03 0 3.06 0 0 Z " fill="#C64845" transform="translate(107,127)"/>
<path d="M0 0 C0.66 0 1.32 0 2 0 C2 10.23 2 20.46 2 31 C2.99 31 3.98 31 5 31 C5 31.66 5 32.32 5 33 C3.35 33 1.7 33 0 33 C-1.47920933 21.90593004 -1.10399186 11.11877513 0 0 Z " fill="#C0BCBC" transform="translate(94,173)"/>
<path d="M0 0 C0.99 0 1.98 0 3 0 C3 7.59 3 15.18 3 23 C3.66 23.33 4.32 23.66 5 24 C3.35 23.67 1.7 23.34 0 23 C0 15.41 0 7.82 0 0 Z " fill="#1B191A" transform="translate(139,174)"/>
<path d="M0 0 C4 1 4 1 5.25 3.0625 C5.4975 3.701875 5.745 4.34125 6 5 C5.01 5.495 5.01 5.495 4 6 C4 6.99 4 7.98 4 9 C3.84626937 10.89692612 3.67833145 12.79272833 3.5 14.6875 C3.4071875 15.68136719 3.314375 16.67523438 3.21875 17.69921875 C3.1465625 18.45847656 3.074375 19.21773437 3 20 C2.01 20 1.02 20 0 20 C0 13.4 0 6.8 0 0 Z " fill="#1D1C1C" transform="translate(102,184)"/>
<path d="M0 0 C0.99 0 1.98 0 3 0 C2.02404957 2.9278513 1.23864272 4.76881487 -1 6.9375 C-3.23964396 8.88413021 -3.23964396 8.88413021 -3.625 11.875 C-5.81186296 16.84514309 -10.32137963 18.56573627 -15 21 C-15 20.01 -15 19.02 -15 18 C-13.35546875 16.640625 -13.35546875 16.640625 -11.1875 15.25 C-6.91440915 12.22793751 -5.66407735 9.89978331 -4 5 C-3.34 4.01 -2.68 3.02 -2 2 C-1.34 2 -0.68 2 0 2 C0 1.34 0 0.68 0 0 Z " fill="#DB8A87" transform="translate(53,151)"/>
<path d="M0 0 C0.33 0.66 0.66 1.32 1 2 C1.66 2 2.32 2 3 2 C2.25 6.75 2.25 6.75 0 9 C-2.27734375 9.23046875 -2.27734375 9.23046875 -4.9375 9.1875 C-5.81277344 9.18105469 -6.68804687 9.17460937 -7.58984375 9.16796875 C-10 9 -10 9 -13 8 C-13 7.01 -13 6.02 -13 5 C-11.783125 5.103125 -10.56625 5.20625 -9.3125 5.3125 C-5.54994773 5.34591521 -5.11196358 5.09330298 -2 2.5 C-1.34 1.675 -0.68 0.85 0 0 Z " fill="#141213" transform="translate(153,196)"/>
<path d="M0 0 C0 3 0 3 -0.9921875 4.890625 C-2.17350201 7.36314374 -2.20504218 9.02856596 -2.125 11.75 C-2.10695312 12.54921875 -2.08890625 13.3484375 -2.0703125 14.171875 C-2.04710937 14.77515625 -2.02390625 15.3784375 -2 16 C-1.67 13.36 -1.34 10.72 -1 8 C-0.67 8 -0.34 8 0 8 C0 13.61 0 19.22 0 25 C-4.39233609 20.60766391 -5.59091242 18.13633812 -6.375 12.125 C-5.87251747 7.93764561 -4.30431402 4.52375027 -2 1 C-1.34 0.67 -0.68 0.34 0 0 Z " fill="#DE9895" transform="translate(151,124)"/>
<path d="M0 0 C1.32 0 2.64 0 4 0 C3.45144652 4.571279 2.58255197 8.67435795 1 13 C0.67 12.01 0.34 11.02 0 10 C-1.32 10 -2.64 10 -4 10 C-6.09230769 5.56923077 -6.09230769 5.56923077 -5.625 2.6875 C-5.41875 2.130625 -5.2125 1.57375 -5 1 C-4.34 2.32 -3.68 3.64 -3 5 C-2.5875 4.175 -2.175 3.35 -1.75 2.5 C-1.1725 1.675 -0.595 0.85 0 0 Z " fill="#CD5250" transform="translate(209,121)"/>
<path d="M0 0 C-4.13539398 3.83280418 -7.2339402 6.23119203 -13 7 C-16.52819605 6.43761085 -19.82511956 5.65999233 -23 4 C-24.29296875 1.8828125 -24.29296875 1.8828125 -25 0 C-24.49984375 0.31710938 -23.9996875 0.63421875 -23.484375 0.9609375 C-20.12758852 2.3648765 -16.83713706 2.46225654 -13.25 2.625 C-12.55261719 2.66367188 -11.85523437 2.70234375 -11.13671875 2.7421875 C-9.42489182 2.83598624 -7.71248318 2.91906174 -6 3 C-6 2.34 -6 1.68 -6 1 C-6.66 0.67 -7.32 0.34 -8 0 C-2.25 -1.125 -2.25 -1.125 0 0 Z " fill="#DB8B89" transform="translate(76,218)"/>
<path d="M0 0 C3.96 0 7.92 0 12 0 C9.64186341 2.35813659 8.33284927 2.55470372 5.125 3.3125 C-1.19900657 4.94342801 -7.02202149 7.40497494 -13 10 C-14.66429776 10.67255868 -16.33021116 11.3411924 -18 12 C-17.67 11.01 -17.34 10.02 -17 9 C-16.01 9 -15.02 9 -14 9 C-14 8.01 -14 7.02 -14 6 C-13.40832031 5.87882812 -12.81664063 5.75765625 -12.20703125 5.6328125 C-7.96196415 4.73255357 -3.97560339 3.79543379 0 2 C0 1.34 0 0.68 0 0 Z " fill="#E09895" transform="translate(137,79)"/>
<path d="M0 0 C0.91007813 0.00902344 1.82015625 0.01804687 2.7578125 0.02734375 C3.45648438 0.03894531 4.15515625 0.05054687 4.875 0.0625 C3.885 0.7225 2.895 1.3825 1.875 2.0625 C2.205 4.3725 2.535 6.6825 2.875 9.0625 C1.375 7.75 1.375 7.75 -0.125 6.0625 C-0.125 5.0725 -0.125 4.0825 -0.125 3.0625 C-1.445 2.7325 -2.765 2.4025 -4.125 2.0625 C-3.49271484 3.81626953 -3.49271484 3.81626953 -2.84765625 5.60546875 C-2.29408891 7.15358079 -1.74071359 8.70176151 -1.1875 10.25 C-0.90970703 11.01892578 -0.63191406 11.78785156 -0.34570312 12.58007812 C1.01000232 16.38585366 2.24066268 20.0557364 2.875 24.0625 C-0.07298276 20.60259209 -1.63054762 16.75354511 -3.25 12.5625 C-3.51425781 11.89863281 -3.77851563 11.23476562 -4.05078125 10.55078125 C-5.27972125 7.42540592 -6.43634627 4.35460075 -7.125 1.0625 C-4.60024538 -0.19987731 -2.81299534 -0.03606404 0 0 Z " fill="#EBC6C3" transform="translate(186.125,119.9375)"/>
<path d="M0 0 C1.16402344 0.00773438 1.16402344 0.00773438 2.3515625 0.015625 C3.12242187 0.01046875 3.89328125 0.0053125 4.6875 0 C6.9765625 0.265625 6.9765625 0.265625 10.9765625 2.265625 C10.9765625 7.215625 10.9765625 12.165625 10.9765625 17.265625 C7.64322917 15.59895833 4.30989583 13.93229167 0.9765625 12.265625 C0.9765625 11.935625 0.9765625 11.605625 0.9765625 11.265625 C3.6165625 11.265625 6.2565625 11.265625 8.9765625 11.265625 C8.70980046 9.28070858 8.70980046 9.28070858 7.9765625 7.265625 C6.9865625 6.935625 5.9965625 6.605625 4.9765625 6.265625 C6.2965625 6.265625 7.6165625 6.265625 8.9765625 6.265625 C8.6465625 5.275625 8.3165625 4.285625 7.9765625 3.265625 C5.45180788 2.00324769 3.66455784 2.16706096 0.8515625 2.203125 C-0.05851563 2.21214844 -0.96859375 2.22117188 -1.90625 2.23046875 C-2.95425781 2.24787109 -2.95425781 2.24787109 -4.0234375 2.265625 C-2.0234375 0.265625 -2.0234375 0.265625 0 0 Z " fill="#D9D4D3" transform="translate(171.0234375,171.734375)"/>
<path d="M0 0 C1.859375 0.171875 1.859375 0.171875 4 1 C5.265625 3.328125 5.265625 3.328125 6.25 6.25 C6.58515625 7.20390625 6.9203125 8.1578125 7.265625 9.140625 C7.97436316 11.90017997 8.14472517 14.16752176 8 17 C7.01 17 6.02 17 5 17 C4.15838146 14.91999989 3.32699237 12.83585854 2.5 10.75 C2.0359375 9.58984375 1.571875 8.4296875 1.09375 7.234375 C0 4 0 4 0 0 Z " fill="#CA4946" transform="translate(182,122)"/>
<path d="M0 0 C1.0326802 2.78823655 1.04509293 3.8677274 0.0625 6.75 C-0.288125 7.4925 -0.63875 8.235 -1 9 C-1.66 9 -2.32 9 -3 9 C-2.67 11.31 -2.34 13.62 -2 16 C-3.98 16.33 -5.96 16.66 -8 17 C-8.33 17.99 -8.66 18.98 -9 20 C-9.33 19.34 -9.66 18.68 -10 18 C-8.92591043 15.39525962 -7.79954367 12.90033962 -6.5625 10.375 C-6.22412109 9.66859375 -5.88574219 8.9621875 -5.53710938 8.234375 C-4.69845121 6.48618616 -3.85012153 4.74264314 -3 3 C-2.34 3 -1.68 3 -1 3 C-0.67 2.01 -0.34 1.02 0 0 Z " fill="#D76C68" transform="translate(84,106)"/>
<path d="M0 0 C1.93359375 0.3125 1.93359375 0.3125 4 1 C4.70381157 2.98723268 5.3711811 4.98777953 6 7 C6.99 7.33 7.98 7.66 9 8 C9.7166207 10.31847874 10.38242027 12.65319703 11 15 C11.66 15.66 12.32 16.32 13 17 C12.625 20.125 12.625 20.125 12 23 C9.52349353 20.04060926 8.39983166 17.53534876 7.4375 13.8125 C6.80209483 11.21204198 6.80209483 11.21204198 6 9 C5.34 8.67 4.68 8.34 4 8 C2.9296875 6.15234375 2.9296875 6.15234375 1.875 3.9375 C1.52179688 3.20402344 1.16859375 2.47054687 0.8046875 1.71484375 C0.53914062 1.14894531 0.27359375 0.58304687 0 0 Z " fill="#D57270" transform="translate(224,113)"/>
<path d="M0 0 C4.29 0 8.58 0 13 0 C13.33 0.66 13.66 1.32 14 2 C10.04 2 6.08 2 2 2 C1.67 10.25 1.34 18.5 1 27 C0.67 27 0.34 27 0 27 C0 18.09 0 9.18 0 0 Z " fill="#ECB4AF" transform="translate(105,125)"/>
<path d="M0 0 C4.95 0 9.9 0 15 0 C14.67 0.66 14.34 1.32 14 2 C9.68026501 2.60809019 5.35840246 2.74611248 1 3 C1 11.58 1 20.16 1 29 C0.67 29 0.34 29 0 29 C0 19.43 0 9.86 0 0 Z " fill="#CB3534" transform="translate(103,122)"/>
<path d="M0 0 C1.98 0 3.96 0 6 0 C6.25136719 0.5878125 6.50273437 1.175625 6.76171875 1.78125 C8.15449383 4.27682175 9.63171498 5.66530515 11.8125 7.5 C12.52148438 8.10585937 13.23046875 8.71171875 13.9609375 9.3359375 C15.5762534 10.65418381 17.24822217 11.90296923 18.9375 13.125 C21.38983209 15.35439281 21.72908125 16.74897497 22 20 C18.19762323 17.20413472 15.33883017 14.16009105 12.4296875 10.48828125 C10.96118369 8.72868333 10.96118369 8.72868333 8 8 C6.18218133 6.39192964 5.0892574 5.1785148 4 3 C1.98330173 1.86649466 1.98330173 1.86649466 0 1 C0 0.67 0 0.34 0 0 Z " fill="#E19F9B" transform="translate(200,90)"/>
<path d="M0 0 C1.53166168 4.08443115 0.63081652 7.79455657 0 12 C-1.32 12.33 -2.64 12.66 -4 13 C-4.5345256 11.75579353 -5.05208611 10.50429064 -5.5625 9.25 C-5.85253906 8.55390625 -6.14257812 7.8578125 -6.44140625 7.140625 C-7.07831803 4.69987216 -6.80248831 3.3596345 -6 1 C-4.5 2.375 -4.5 2.375 -3 4 C-3 4.66 -3 5.32 -3 6 C-2.34 6 -1.68 6 -1 6 C-0.67 4.02 -0.34 2.04 0 0 Z " fill="#CB4643" transform="translate(197,140)"/>
<path d="M0 0 C3.78024821 0.16243254 6.74782265 0.29281926 10 2.4609375 C10 3.1209375 10 3.7809375 10 4.4609375 C4.72 4.4609375 -0.56 4.4609375 -6 4.4609375 C-2 0.4609375 -2 0.4609375 0 0 Z " fill="#2B2A2A" transform="translate(215,172.5390625)"/>
<path d="M0 0 C1.98 0.495 1.98 0.495 4 1 C3.67 1.99 3.34 2.98 3 4 C7.8870428 5.5638537 13.1129572 5.5638537 18 4 C15.08130274 7.41746198 12.69827491 7.7060007 8.36328125 8.08203125 C4.6933576 7.95464547 2.22070832 6.71314272 -1 5 C-0.67 3.35 -0.34 1.7 0 0 Z " fill="#A29E9E" transform="translate(162,199)"/>
<path d="M0 0 C0.33 0 0.66 0 1 0 C1.66 2.31 2.32 4.62 3 7 C5.97 7 8.94 7 12 7 C12.38218767 8.65614657 12.71395102 10.32457024 13 12 C12 13 12 13 9.49609375 13.09765625 C7.98208984 13.08025391 7.98208984 13.08025391 6.4375 13.0625 C5.42558594 13.05347656 4.41367188 13.04445312 3.37109375 13.03515625 C2.58863281 13.02355469 1.80617187 13.01195312 1 13 C1 12.67 1 12.34 1 12 C3.97 12 6.94 12 10 12 C10 11.34 10 10.68 10 10 C8.906875 10.061875 7.81375 10.12375 6.6875 10.1875 C3 10 3 10 1.0625 8.9375 C-0.55479605 5.98831309 -0.18630138 3.29132441 0 0 Z " fill="#848181" transform="translate(211,186)"/>
<path d="M0 0 C0.66 0 1.32 0 2 0 C2.45375 0.969375 2.9075 1.93875 3.375 2.9375 C4.65786221 6.07079582 4.65786221 6.07079582 7 7 C7 7.66 7 8.32 7 9 C6.01 9 5.02 9 4 9 C4 10.32 4 11.64 4 13 C5.32 13 6.64 13 8 13 C7.67 14.32 7.34 15.64 7 17 C6.01 16.67 5.02 16.34 4 16 C2.83203125 13.41796875 2.83203125 13.41796875 1.8125 10.1875 C1.46832031 9.12917969 1.12414062 8.07085937 0.76953125 6.98046875 C0 4 0 4 0 0 Z " fill="#CF5E5B" transform="translate(189,122)"/>
<path d="M0 0 C0.66 0 1.32 0 2 0 C3.66666667 1.66666667 5.33333333 3.33333333 7 5 C8.08565126 5.77655996 9.18978343 6.52806405 10.3125 7.25 C11.199375 7.8275 12.08625 8.405 13 9 C13 9.33 13 9.66 13 10 C9.35841574 10.21421084 6.56701208 10.20954794 3.125 8.9375 C0.15529155 6.22982465 0.22109088 3.90593882 0 0 Z " fill="#C94945" transform="translate(150,142)"/>
<path d="M0 0 C4.64973854 0.44787324 6.37027468 2.02185597 9.3125 5.5625 C10.00988281 6.38878906 10.70726562 7.21507813 11.42578125 8.06640625 C11.94527344 8.70449219 12.46476563 9.34257813 13 10 C12.67 10.66 12.34 11.32 12 12 C8.76681408 10.4911799 6.64697278 9.29394556 5 6 C4.01 5.67 3.02 5.34 2 5 C2 4.01 2 3.02 2 2 C1.34 2 0.68 2 0 2 C0 1.34 0 0.68 0 0 Z " fill="#D75854" transform="translate(221,92)"/>
<path d="M0 0 C0.99 0 1.98 0 3 0 C3 0.66 3 1.32 3 2 C4.65 1.34 6.3 0.68 8 0 C7.125 6.75 7.125 6.75 6 9 C4.68 9 3.36 9 2 9 C1.34 6.03 0.68 3.06 0 0 Z " fill="#CE403C" transform="translate(202,144)"/>
<path d="M0 0 C0.33 1.32 0.66 2.64 1 4 C1.556875 3.94199219 2.11375 3.88398438 2.6875 3.82421875 C8.2769582 3.49376092 11.78992182 4.34524878 16.40234375 7.5546875 C18.5005723 9.45284047 19.37298213 11.25679683 20 14 C19.195625 13.1028125 19.195625 13.1028125 18.375 12.1875 C12.81646134 7.06779334 7.26171222 6.41618509 0 6 C0 4.02 0 2.04 0 0 Z " fill="#DE9A96" transform="translate(252,145)"/>
<path d="M0 0 C0 1.32 0 2.64 0 4 C-5.324335 6.32086397 -9.43842552 5.91457003 -15 5 C-15 4.34 -15 3.68 -15 3 C-10.38 3 -5.76 3 -1 3 C-1 2.34 -1 1.68 -1 1 C-4.63 1 -8.26 1 -12 1 C-12 0.67 -12 0.34 -12 0 C-3.42857143 -1.28571429 -3.42857143 -1.28571429 0 0 Z " fill="#848283" transform="translate(225,201)"/>
<path d="M0 0 C2.64 0 5.28 0 8 0 C7.01 0.495 7.01 0.495 6 1 C4.78551081 4.34903111 4.80022054 7.7647494 4.68359375 11.296875 C4.64169922 12.50214844 4.59980469 13.70742187 4.55664062 14.94921875 C4.51732422 16.20347656 4.47800781 17.45773438 4.4375 18.75 C4.39431641 20.01972656 4.35113281 21.28945312 4.30664062 22.59765625 C4.20060278 25.73166365 4.09853942 28.86574933 4 32 C3.67 32 3.34 32 3 32 C3 21.77 3 11.54 3 1 C2.01 0.67 1.02 0.34 0 0 Z " fill="#908D8D" transform="translate(96,172)"/>
<path d="M0 0 C0.33 0 0.66 0 1 0 C1.33 5.94 1.66 11.88 2 18 C5.3 18.33 8.6 18.66 12 19 C12 19.66 12 20.32 12 21 C10.18757948 21.02687279 8.37504767 21.04633715 6.5625 21.0625 C5.55316406 21.07410156 4.54382813 21.08570313 3.50390625 21.09765625 C1 21 1 21 0 20 C-0.08669432 18.5112814 -0.10703494 17.018555 -0.09765625 15.52734375 C-0.09443359 14.62822266 -0.09121094 13.72910156 -0.08789062 12.80273438 C-0.07951172 11.85720703 -0.07113281 10.91167969 -0.0625 9.9375 C-0.05798828 8.98810547 -0.05347656 8.03871094 -0.04882812 7.06054688 C-0.0370011 4.70696935 -0.02052025 2.35351523 0 0 Z " fill="#CC3634" transform="translate(131,125)"/>
<path d="M0 0 C0 0.99 0 1.98 0 3 C-1.46373047 2.98259766 -1.46373047 2.98259766 -2.95703125 2.96484375 C-4.22933594 2.95582031 -5.50164062 2.94679688 -6.8125 2.9375 C-8.07707031 2.92589844 -9.34164062 2.91429688 -10.64453125 2.90234375 C-13.99605237 2.83840884 -13.99605237 2.83840884 -17 4 C-17 3.01 -17 2.02 -17 1 C-11.863565 -1.5682175 -5.45641234 -1.25917208 0 0 Z " fill="#C8413E" transform="translate(172,122)"/>
<path d="M0 0 C0 3.3 0 6.6 0 10 C-0.99 8.68 -1.98 7.36 -3 6 C-2.67 4.68 -2.34 3.36 -2 2 C-7.94 2 -13.88 2 -20 2 C-20 1.34 -20 0.68 -20 0 C-5.6 -1.86666667 -5.6 -1.86666667 0 0 Z " fill="#F4DAD7" transform="translate(121,120)"/>
<path d="M0 0 C1.32 0 2.64 0 4 0 C4 6.6 4 13.2 4 20 C3.67 20 3.34 20 3 20 C2.96261719 19.15695313 2.92523438 18.31390625 2.88671875 17.4453125 C2.82097656 16.34960938 2.75523438 15.25390625 2.6875 14.125 C2.62949219 13.03445312 2.57148437 11.94390625 2.51171875 10.8203125 C2.25841797 9.42425781 2.25841797 9.42425781 2 8 C1.01 7.34 0.02 6.68 -1 6 C-1.25 3.4375 -1.25 3.4375 -1 1 C-0.67 0.67 -0.34 0.34 0 0 Z " fill="#3A3839" transform="translate(118,184)"/>
<path d="M0 0 C0.99 0.66 1.98 1.32 3 2 C3 2.99 3 3.98 3 5 C-0.3 4.67 -3.6 4.34 -7 4 C-7 3.34 -7 2.68 -7 2 C-7.99 1.67 -8.98 1.34 -10 1 C-6.60907078 -0.04336284 -3.5382677 -0.22584687 0 0 Z " fill="#2D2B2C" transform="translate(177,173)"/>
<path d="M0 0 C3.3 0 6.6 0 10 0 C10 0.66 10 1.32 10 2 C10.66 2 11.32 2 12 2 C12 2.66 12 3.32 12 4 C12.66 4 13.32 4 14 4 C14.33 4.99 14.66 5.98 15 7 C14.319375 6.71125 13.63875 6.4225 12.9375 6.125 C9.67106907 4.87402645 6.37153877 3.92552045 3 3 C3 2.34 3 1.68 3 1 C2.01 0.67 1.02 0.34 0 0 Z " fill="#DD817E" transform="translate(185,83)"/>
<path d="M0 0 C3.55482252 -0.32316568 5.37575119 -0.45553291 8.3125 1.6875 C10.15947591 4.21854106 10.51802013 5.94746083 11 9 C11.66 9.66 12.32 10.32 13 11 C12.625 13.125 12.625 13.125 12 15 C11.72027344 14.40832031 11.44054688 13.81664062 11.15234375 13.20703125 C8.20579684 7.39920728 5.50176292 4.45208654 0 1 C0 0.67 0 0.34 0 0 Z " fill="#DE9491" transform="translate(38,203)"/>
<path d="M0 0 C-0.99 0.495 -0.99 0.495 -2 1 C-1.67 1.66 -1.34 2.32 -1 3 C-0.86584528 5.6723621 -0.95681459 8.32250488 -1 11 C-1.33 11 -1.66 11 -2 11 C-2.309375 9.865625 -2.61875 8.73125 -2.9375 7.5625 C-3.62924531 4.21224901 -3.62924531 4.21224901 -5 3 C-8.72224599 2.70613847 -9.77786243 2.85190829 -13 5 C-12.375 3.125 -12.375 3.125 -11 1 C-6.96362635 -0.88364104 -4.27242501 -1.25659559 0 0 Z " fill="#D97F7B" transform="translate(171,129)"/>
<path d="M0 0 C0.66 0.33 1.32 0.66 2 1 C0.71372289 2.17260611 -0.57919783 3.3379283 -1.875 4.5 C-2.59429687 5.1496875 -3.31359375 5.799375 -4.0546875 6.46875 C-6 8 -6 8 -8 8 C-8.103125 8.928125 -8.20625 9.85625 -8.3125 10.8125 C-9.0070192 14.03254358 -9.47740939 15.02579865 -12 17 C-11.33989524 14.15449988 -10.48275034 11.47674001 -9.4375 8.75 C-9.16808594 8.04359375 -8.89867187 7.3371875 -8.62109375 6.609375 C-8.41613281 6.07828125 -8.21117187 5.5471875 -8 5 C-6.68 5 -5.36 5 -4 5 C-3.896875 4.360625 -3.79375 3.72125 -3.6875 3.0625 C-3.460625 2.381875 -3.23375 1.70125 -3 1 C-2.01 0.67 -1.02 0.34 0 0 Z " fill="#DF9592" transform="translate(282,201)"/>
<path d="M0 0 C0.99 0.33 1.98 0.66 3 1 C3 4.96 3 8.92 3 13 C2.01 13 1.02 13 0 13 C0 8.71 0 4.42 0 0 Z " fill="#C9433E" transform="translate(108,139)"/>
<path d="M0 0 C1.67542976 0.28604898 3.34385343 0.61781233 5 1 C4.67 3.31 4.34 5.62 4 8 C2.68 7.67 1.36 7.34 0 7 C-0.38133299 5.0085944 -0.71325582 3.00720923 -1 1 C-0.67 0.67 -0.34 0.34 0 0 Z " fill="#CD3F3B" transform="translate(204,130)"/>
<path d="M0 0 C3.69798658 0.63758389 3.69798658 0.63758389 5.25 2.5 C7.77830709 4.66712037 9.90840551 4.5112046 13.1875 4.6875 C14.27417969 4.75324219 15.36085938 4.81898438 16.48046875 4.88671875 C17.72763672 4.94279297 17.72763672 4.94279297 19 5 C17 7 17 7 14.35546875 7.15234375 C4.75099206 6.50099206 4.75099206 6.50099206 1.75 3.5 C0 1 0 1 0 0 Z " fill="#C84340" transform="translate(244,216)"/>
<path d="M0 0 C5.61 0 11.22 0 17 0 C17 1.32 17 2.64 17 4 C12.71 4 8.42 4 4 4 C4 3.67 4 3.34 4 3 C9.445 2.505 9.445 2.505 15 2 C10.05 1.67 5.1 1.34 0 1 C0 0.67 0 0.34 0 0 Z " fill="#C76663" transform="translate(102,121)"/>
<path d="M0 0 C3.3 0 6.6 0 10 0 C8.25 4.875 8.25 4.875 6 6 C6 5.01 6 4.02 6 3 C4.02 3 2.04 3 0 3 C0 2.01 0 1.02 0 0 Z " fill="#E5A5A2" transform="translate(110,130)"/>
<path d="M0 0 C4.08258878 0.60344834 7.1471303 1.94618418 10.75 3.9375 C11.71421875 4.46214844 12.6784375 4.98679687 13.671875 5.52734375 C16 7 16 7 17 9 C15.35 9 13.7 9 12 9 C12 8.01 12 7.02 12 6 C10.35 6 8.7 6 7 6 C6.67 5.01 6.34 4.02 6 3 C2.99152582 1.77479736 2.99152582 1.77479736 0 1 C0 0.67 0 0.34 0 0 Z " fill="#DE9390" transform="translate(192,71)"/>
<path d="M0 0 C1.45823212 -0.0270043 2.91660675 -0.04639787 4.375 -0.0625 C5.18710938 -0.07410156 5.99921875 -0.08570313 6.8359375 -0.09765625 C9 0 9 0 11 1 C11 1.66 11 2.32 11 3 C7.37 3 3.74 3 0 3 C0 2.01 0 1.02 0 0 Z " fill="#1C1A1B" transform="translate(212,179)"/>
<path d="M0 0 C0.66 0 1.32 0 2 0 C2 0.66 2 1.32 2 2 C1.01 2.66 0.02 3.32 -1 4 C-1.36498034 6.89608399 -1.36498034 6.89608399 -1.1875 10.125 C-1.14689453 11.76855469 -1.14689453 11.76855469 -1.10546875 13.4453125 C-1.05326172 14.70988281 -1.05326172 14.70988281 -1 16 C-4 14 -4 14 -4.875 11.8125 C-5.04730922 7.93554261 -3.74319377 5.42182481 -2 2 C-1.34 1.34 -0.68 0.68 0 0 Z " fill="#C7C2C2" transform="translate(165,174)"/>
<path d="M0 0 C0.99 0 1.98 0 3 0 C3 0.99 3 1.98 3 3 C5.475 3.99 5.475 3.99 8 5 C8.33 7.31 8.66 9.62 9 12 C6 8.25 6 8.25 6 6 C5.195625 5.7525 4.39125 5.505 3.5625 5.25 C1 4 1 4 0.1875 1.875 C0.125625 1.25625 0.06375 0.6375 0 0 Z " fill="#D44744" transform="translate(222,108)"/>
<path d="M0 0 C0.66 0.33 1.32 0.66 2 1 C1.67 1.99 1.34 2.98 1 4 C0.13375 4.4125 -0.7325 4.825 -1.625 5.25 C-5.91300663 7.47341085 -8.74587898 10.4859344 -12 14 C-12 11 -12 11 -10.64453125 9.31640625 C-10.03996094 8.73761719 -9.43539062 8.15882812 -8.8125 7.5625 C-8.17828125 6.9540625 -7.5440625 6.345625 -6.890625 5.71875 C-4.67313821 3.70285292 -2.38872216 1.809638 0 0 Z " fill="#E9B5B2" transform="translate(105,83)"/>
<path d="M0 0 C4.29 0.33 8.58 0.66 13 1 C13 1.66 13 2.32 13 3 C8.38 3 3.76 3 -1 3 C-0.67 2.01 -0.34 1.02 0 0 Z " fill="#171516" transform="translate(211,201)"/>
<path d="M0 0 C3.63 0.33 7.26 0.66 11 1 C11 1.99 11 2.98 11 4 C3.57142857 4.28571429 3.57142857 4.28571429 0 2 C0 1.34 0 0.68 0 0 Z " fill="#1C1B1B" transform="translate(165,201)"/>
<path d="M0 0 C0.556875 0.28875 1.11375 0.5775 1.6875 0.875 C4.08494645 2.0413253 6.51596939 3.0339881 9 4 C9 4.66 9 5.32 9 6 C2.375 5.25 2.375 5.25 -1 3 C-0.67 2.01 -0.34 1.02 0 0 Z " fill="#C5C1C0" transform="translate(164,190)"/>
<path d="M0 0 C0.515625 0.309375 1.03125 0.61875 1.5625 0.9375 C4.66665423 2.29059287 7.65115007 2.61359424 11 3 C11 3.33 11 3.66 11 4 C8.69 4 6.38 4 4 4 C4 4.66 4 5.32 4 6 C4.99 6.33 5.98 6.66 7 7 C2.25 6.25 2.25 6.25 0 4 C0 2.68 0 1.36 0 0 Z " fill="#C85B58" transform="translate(155,140)"/>
<path d="M0 0 C3.96 0 7.92 0 12 0 C8.7897878 3.2102122 5.62539686 2.98974759 1.1875 3.0625 C0.135625 3.041875 -0.91625 3.02125 -2 3 C-1.34 2.67 -0.68 2.34 0 2 C0 1.34 0 0.68 0 0 Z " fill="#D77875" transform="translate(137,79)"/>
<path d="M0 0 C0.66 0 1.32 0 2 0 C3 1 4 2 5 3 C5.99 3.33 6.98 3.66 8 4 C7.01 5.485 7.01 5.485 6 7 C1.32307692 5.52307692 1.32307692 5.52307692 -0.3125 2.875 C-0.539375 2.25625 -0.76625 1.6375 -1 1 C-0.67 0.67 -0.34 0.34 0 0 Z " fill="#595757" transform="translate(204,197)"/>
<path d="M0 0 C0.33 0.66 0.66 1.32 1 2 C1.66 2 2.32 2 3 2 C2.25 6.75 2.25 6.75 0 9 C-0.99 8.67 -1.98 8.34 -3 8 C-2.34 8 -1.68 8 -1 8 C-1.20625 7.236875 -1.4125 6.47375 -1.625 5.6875 C-2 3 -2 3 0 0 Z " fill="#5D5B5C" transform="translate(153,196)"/>
<path d="M0 0 C0.33 0 0.66 0 1 0 C1.25 5.625 1.25 5.625 -1 9 C-1.66 9 -2.32 9 -3 9 C-3.33 9.99 -3.66 10.98 -4 12 C-4.33 11.34 -4.66 10.68 -5 10 C-4.00390625 7.6171875 -4.00390625 7.6171875 -2.5625 4.875 C-1.85287109 3.50988281 -1.85287109 3.50988281 -1.12890625 2.1171875 C-0.75636719 1.41851562 -0.38382812 0.71984375 0 0 Z " fill="#DC9592" transform="translate(79,114)"/>
<path d="M0 0 C3.96189783 4.23513217 5.43181728 8.547001 7 14 C6.53851563 13.52949219 6.07703125 13.05898437 5.6015625 12.57421875 C4.06296591 10.98569062 4.06296591 10.98569062 2.375 9.8125 C0.12599975 6.84790877 0.30002783 3.6603395 0 0 Z " fill="#E19B98" transform="translate(239,111)"/>
<path d="M0 0 C0.62390625 0.18691406 1.2478125 0.37382813 1.890625 0.56640625 C0.91533763 1.90257977 -0.06470819 3.23528135 -1.046875 4.56640625 C-1.59214844 5.30890625 -2.13742188 6.05140625 -2.69921875 6.81640625 C-3.39724609 7.68265625 -3.39724609 7.68265625 -4.109375 8.56640625 C-4.439375 8.56640625 -4.769375 8.56640625 -5.109375 8.56640625 C-5.47191276 3.12833978 -5.47191276 3.12833978 -3.859375 0.62890625 C-2.109375 -0.43359375 -2.109375 -0.43359375 0 0 Z " fill="#DA7C79" transform="translate(100.109375,106.43359375)"/>
<path d="M0 0 C0.33 0 0.66 0 1 0 C2.47692308 7.26153846 2.47692308 7.26153846 0.0625 11 C-0.618125 11.66 -1.29875 12.32 -2 13 C-2.99 12.67 -3.98 12.34 -5 12 C-4.52949219 11.60167969 -4.05898437 11.20335937 -3.57421875 10.79296875 C-1.68239447 8.6382607 -1.33939211 7.10908118 -0.8125 4.3125 C-0.65394531 3.50425781 -0.49539062 2.69601563 -0.33203125 1.86328125 C-0.22246094 1.24839844 -0.11289063 0.63351563 0 0 Z " fill="#EBBDB9" transform="translate(174,134)"/>
<path d="M0 0 C0.6875 1.6875 0.6875 1.6875 1 4 C-0.3125 6.75 -0.3125 6.75 -2 9 C-2.66 9 -3.32 9 -4 9 C-5.42944945 6.64561267 -6.08661261 5.51967567 -5.625 2.75 C-5.41875 2.1725 -5.2125 1.595 -5 1 C-4.34 2.32 -3.68 3.64 -3 5 C-2.01 3.35 -1.02 1.7 0 0 Z " fill="#EBBCB8" transform="translate(209,121)"/>
<path d="M0 0 C0.66 0.33 1.32 0.66 2 1 C-0.475 5.455 -0.475 5.455 -3 10 C-3.66 10 -4.32 10 -5 10 C-5.33 9.01 -5.66 8.02 -6 7 C-5.01 7 -4.02 7 -3 7 C-3 5.02 -3 3.04 -3 1 C-2.01 0.67 -1.02 0.34 0 0 Z " fill="#DA817D" transform="translate(93,115)"/>
<path d="M0 0 C0.66 0.33 1.32 0.66 2 1 C0.42652824 2.035969 -1.15921546 3.05331732 -2.75 4.0625 C-3.63171875 4.63097656 -4.5134375 5.19945313 -5.421875 5.78515625 C-8 7 -8 7 -10.328125 6.68359375 C-11.15570313 6.34521484 -11.15570313 6.34521484 -12 6 C-10.04669132 4.96958487 -8.08718472 3.9509107 -6.125 2.9375 C-5.03445312 2.36902344 -3.94390625 1.80054687 -2.8203125 1.21484375 C-1.42425781 0.61349609 -1.42425781 0.61349609 0 0 Z " fill="#E4A9A5" transform="translate(128,70)"/>
<path d="M0 0 C1.98 0.99 3.96 1.98 6 3 C5.01 4.485 5.01 4.485 4 6 C0.73045798 5.43628586 -0.82575883 4.50037734 -3 2 C-2.01 2 -1.02 2 0 2 C0 1.34 0 0.68 0 0 Z " fill="#2D2C2C" transform="translate(167,187)"/>
<path d="M0 0 C1.16402344 0.00773438 1.16402344 0.00773438 2.3515625 0.015625 C3.12242187 0.01046875 3.89328125 0.0053125 4.6875 0 C7.1757986 0.28874455 8.81890448 1.02423271 10.9765625 2.265625 C10.6465625 3.585625 10.3165625 4.905625 9.9765625 6.265625 C9.5228125 5.605625 9.0690625 4.945625 8.6015625 4.265625 C4.64424217 1.2505238 0.78652105 1.93516983 -4.0234375 2.265625 C-2.0234375 0.265625 -2.0234375 0.265625 0 0 Z " fill="#BAB6B6" transform="translate(171.0234375,171.734375)"/>
<path d="M0 0 C2.50535913 2.34877419 3.90564909 4.0911787 4.265625 7.55859375 C4.25149142 10.04963675 4.17369194 12.51524028 4 15 C1.61357615 12.61357615 1.47996951 11.33221616 0.875 8.0625 C0.70742187 7.18722656 0.53984375 6.31195313 0.3671875 5.41015625 C0 3 0 3 0 0 Z " fill="#E5B1AE" transform="translate(236,136)"/>
<path d="M0 0 C1.65 0 3.3 0 5 0 C4.67 0.66 4.34 1.32 4 2 C3.01 1.67 2.02 1.34 1 1 C0.87625 1.5775 0.7525 2.155 0.625 2.75 C-0.00648824 5.02335767 -0.88858191 6.9253529 -2 9 C-2.99 8.67 -3.98 8.34 -5 8 C-4.67 7.01 -4.34 6.02 -4 5 C-3.67 5.33 -3.34 5.66 -3 6 C-2.01 4.02 -1.02 2.04 0 0 Z " fill="#F2D0CD" transform="translate(198,120)"/>
<path d="M0 0 C1.65 0 3.3 0 5 0 C2.14723863 2.93200474 -0.65079784 5.64315404 -4 8 C-4 7.01 -4 6.02 -4 5 C-4.66 4.67 -5.32 4.34 -6 4 C-4.35 4 -2.7 4 -1 4 C-0.67 2.68 -0.34 1.36 0 0 Z " fill="#DD8784" transform="translate(111,93)"/>
<path d="M0 0 C0.33 0.99 0.66 1.98 1 3 C0.01 4.485 0.01 4.485 -1 6 C-1.66158043 8.04584079 -1.66158043 8.04584079 -2.125 10.1875 C-2.41375 11.445625 -2.7025 12.70375 -3 14 C-3.33 14 -3.66 14 -4 14 C-3.66009167 8.62007164 -3.31442207 4.46726453 0 0 Z " fill="#CD423E" transform="translate(85,128)"/>
<path d="M0 0 C3.3 0.33 6.6 0.66 10 1 C10 1.66 10 2.32 10 3 C6.7 3 3.4 3 0 3 C0 2.01 0 1.02 0 0 Z " fill="#181717" transform="translate(211,195)"/>
<path d="M0 0 C1.32 0.33 2.64 0.66 4 1 C3.67 3.31 3.34 5.62 3 8 C2.34 8 1.68 8 1 8 C0.67 5.36 0.34 2.72 0 0 Z " fill="#F7E0DD" transform="translate(204,138)"/>
<path d="M0 0 C1.32 0.66 2.64 1.32 4 2 C3.67 3.32 3.34 4.64 3 6 C1.68 5.67 0.36 5.34 -1 5 C-0.67 3.35 -0.34 1.7 0 0 Z " fill="#222122" transform="translate(110,183)"/>
<path d="M0 0 C0.66 0 1.32 0 2 0 C1.67 3.63 1.34 7.26 1 11 C0.34 10.67 -0.32 10.34 -1 10 C-1.02689216 8.52093108 -1.04634621 7.04172517 -1.0625 5.5625 C-1.07410156 4.73878906 -1.08570313 3.91507813 -1.09765625 3.06640625 C-1 1 -1 1 0 0 Z " fill="#C93937" transform="translate(149,130)"/>
<path d="M0 0 C0 0.99 0 1.98 0 3 C-3.4352048 5.29013653 -4.985331 5.17842973 -9 5 C-8.67 4.01 -8.34 3.02 -8 2 C-6.15234375 1.26953125 -6.15234375 1.26953125 -3.9375 0.8125 C-3.20402344 0.65394531 -2.47054687 0.49539062 -1.71484375 0.33203125 C-1.14894531 0.22246094 -0.58304688 0.11289063 0 0 Z " fill="#ADA6A6" transform="translate(151,197)"/>
<path d="M0 0 C0.66 0.33 1.32 0.66 2 1 C1.46274105 4.37705625 0.88935377 7.696686 0 11 C-1.58272601 9.41727399 -1.34735747 7.61965997 -1.5625 5.4375 C-1.64628906 4.61121094 -1.73007813 3.78492188 -1.81640625 2.93359375 C-1.87699219 2.29550781 -1.93757812 1.65742188 -2 1 C-1.34 0.67 -0.68 0.34 0 0 Z " fill="#D67A77" transform="translate(190,138)"/>
<path d="M0 0 C0.66 0 1.32 0 2 0 C4.09230769 4.43076923 4.09230769 4.43076923 3.625 7.3125 C3.41875 7.869375 3.2125 8.42625 3 9 C2.34 8.67 1.68 8.34 1 8 C0.40644386 5.35139573 0.25790731 2.70802678 0 0 Z " fill="#C63C38" transform="translate(189,122)"/>
<path d="M0 0 C3.84375 0.7734375 3.84375 0.7734375 5.25 2.8125 C6 5 6 5 6 9 C3.43004926 7.71502463 3.09565537 6.50087627 1.875 3.9375 C1.52179688 3.20402344 1.16859375 2.47054687 0.8046875 1.71484375 C0.53914062 1.14894531 0.27359375 0.58304687 0 0 Z " fill="#E09E9B" transform="translate(224,113)"/>
<path d="M0 0 C0.66 0 1.32 0 2 0 C2 3 2 3 0.625 4.5 C0.08875 4.995 -0.4475 5.49 -1 6 C-1.99 7.485 -1.99 7.485 -3 9 C-3.66 9 -4.32 9 -5 9 C-5 8.01 -5 7.02 -5 6 C-4.34 6 -3.68 6 -3 6 C-2.690625 5.38125 -2.38125 4.7625 -2.0625 4.125 C-1.375 2.75 -0.6875 1.375 0 0 Z " fill="#E1AAA7" transform="translate(90,97)"/>
<path d="M0 0 C3.4375 0.8125 3.4375 0.8125 7 2 C7.33 2.99 7.66 3.98 8 5 C6.35 4.67 4.7 4.34 3 4 C3 3.34 3 2.68 3 2 C1.68 1.67 0.36 1.34 -1 1 C-0.67 0.67 -0.34 0.34 0 0 Z " fill="#D45855" transform="translate(205,79)"/>
<path d="M0 0 C0.99 0 1.98 0 3 0 C4.10844919 3.32534757 3.84454356 5.62182575 3 9 C2.34 8.67 1.68 8.34 1 8 C1 6.02 1 4.04 1 2 C0.34 1.67 -0.32 1.34 -1 1 C-0.67 0.67 -0.34 0.34 0 0 Z " fill="#474546" transform="translate(106,189)"/>
<path d="M0 0 C2.62187494 1.04874998 3.79371361 1.64931313 5.25 4.125 C5.4975 4.74375 5.745 5.3625 6 6 C5.34 6.66 4.68 7.32 4 8 C4 6.68 4 5.36 4 4 C2.02 3.34 0.04 2.68 -2 2 C-1.34 1.34 -0.68 0.68 0 0 Z " fill="#B3B0B1" transform="translate(173,188)"/>
<path d="M0 0 C0 2.31 0 4.62 0 7 C-0.66 6.01 -1.32 5.02 -2 4 C-3.96361864 3.42251197 -3.96361864 3.42251197 -6.125 3.3125 C-7.40375 3.209375 -8.6825 3.10625 -10 3 C-10 2.67 -10 2.34 -10 2 C-8.52112267 1.66538533 -7.04188942 1.33234333 -5.5625 1 C-4.32693359 0.7215625 -4.32693359 0.7215625 -3.06640625 0.4375 C-1 0 -1 0 0 0 Z " fill="#EDC5C2" transform="translate(118,135)"/>
<path d="M0 0 C0 0.66 0 1.32 0 2 C-5.2734375 5.22265625 -5.2734375 5.22265625 -7 6 C-7.66 5.67 -8.32 5.34 -9 5 C-2.87096774 0 -2.87096774 0 0 0 Z " fill="#E1A3A0" transform="translate(116,77)"/>
<path d="M0 0 C-1.28965176 1.37562854 -2.62689293 2.70766393 -4 4 C-4.66 4 -5.32 4 -6 4 C-6 3.01 -6 2.02 -6 1 C-6.66 0.67 -7.32 0.34 -8 0 C-2.25 -1.125 -2.25 -1.125 0 0 Z " fill="#DC7A76" transform="translate(76,218)"/>
<path d="M0 0 C1.98 0 3.96 0 6 0 C6.66 1.32 7.32 2.64 8 4 C4.31245243 3.50168276 2.39509338 2.89932357 0 0 Z " fill="#D87170" transform="translate(38,203)"/>
<path d="M0 0 C0 1.32 0 2.64 0 4 C-2.95664519 5.4783226 -5.74229737 5.06032783 -9 5 C-9 4.67 -9 4.34 -9 4 C-7.02 4 -5.04 4 -3 4 C-3.33 3.01 -3.66 2.02 -4 1 C-2 0 -2 0 0 0 Z " fill="#292728" transform="translate(152,200)"/>
<path d="M0 0 C1.75098126 2.62647188 3.38731308 5.28775382 5 8 C4.01 8 3.02 8 2 8 C1.67 7.01 1.34 6.02 1 5 C0.01 5.33 -0.98 5.66 -2 6 C-2 5.34 -2 4.68 -2 4 C-1.34 4 -0.68 4 0 4 C0 2.68 0 1.36 0 0 Z " fill="#3B3A3A" transform="translate(205,192)"/>
<path d="M0 0 C2.5 2.3125 2.5 2.3125 5 5 C5 5.99 5 6.98 5 8 C3.0625 7.375 3.0625 7.375 1 6 C0.25 2.875 0.25 2.875 0 0 Z " fill="#DF9491" transform="translate(280,168)"/>
<path d="M0 0 C2.5 2.3125 2.5 2.3125 5 5 C5 5.99 5 6.98 5 8 C3.0625 7.375 3.0625 7.375 1 6 C0.25 2.875 0.25 2.875 0 0 Z " fill="#DB8583" transform="translate(228,96)"/>
<path d="M0 0 C0.66 0 1.32 0 2 0 C1.67 2.97 1.34 5.94 1 9 C-1.14809171 5.77786243 -1.29386153 4.72224599 -1 1 C-0.67 0.67 -0.34 0.34 0 0 Z " fill="#151314" transform="translate(203,182)"/>
<path d="M0 0 C0.99 0 1.98 0 3 0 C2.67 1.65 2.34 3.3 2 5 C0.68 4.67 -0.64 4.34 -2 4 C-1.34 2.68 -0.68 1.36 0 0 Z " fill="#C34643" transform="translate(176,140)"/>
<path d="M0 0 C1.32 0.66 2.64 1.32 4 2 C3.67 3.98 3.34 5.96 3 8 C1.10786631 5.61426621 -0.02391783 3.92824652 -1 1 C-0.67 0.67 -0.34 0.34 0 0 Z " fill="#E3A09D" transform="translate(233,128)"/>
<path d="M0 0 C3.24271506 0.5590888 4.93057424 1.4132178 7 4 C7 4.66 7 5.32 7 6 C2.32307692 4.52307692 2.32307692 4.52307692 0.6875 1.875 C0.460625 1.25625 0.23375 0.6375 0 0 Z " fill="#DB8B89" transform="translate(244,216)"/>
<path d="M0 0 C2.475 0.495 2.475 0.495 5 1 C5 2.32 5 3.64 5 5 C2.525 4.01 2.525 4.01 0 3 C0 2.01 0 1.02 0 0 Z " fill="#2F2D2E" transform="translate(163,194)"/>
<path d="M0 0 C-1.15173355 2.46800047 -2.04783565 4.04783565 -4 6 C-4 5.01 -4 4.02 -4 3 C-4.66 2.67 -5.32 2.34 -6 2 C-3 0 -3 0 0 0 Z " fill="#232122" transform="translate(170,175)"/>
<path d="M0 0 C0.99 0 1.98 0 3 0 C2.67 1.65 2.34 3.3 2 5 C1.01 5 0.02 5 -1 5 C-1.33 4.34 -1.66 3.68 -2 3 C-1.34 3 -0.68 3 0 3 C0 2.01 0 1.02 0 0 Z " fill="#252425" transform="translate(119,173)"/>
<path d="M0 0 C2.3431213 0.25561323 4.67843403 0.59270772 7 1 C7.33 1.66 7.66 2.32 8 3 C5.69 3 3.38 3 1 3 C0.67 2.01 0.34 1.02 0 0 Z " fill="#CB3937" transform="translate(155,149)"/>
<path d="M0 0 C2.0625 0.4375 2.0625 0.4375 4 1 C3.67 2.65 3.34 4.3 3 6 C2.01 6 1.02 6 0 6 C0.33 5.01 0.66 4.02 1 3 C0.34 2.34 -0.32 1.68 -1 1 C-0.67 0.67 -0.34 0.34 0 0 Z " fill="#DC8280" transform="translate(173,144)"/>
<path d="M0 0 C7.50769231 -0.36923077 7.50769231 -0.36923077 10 1.5 C10.495 2.2425 10.495 2.2425 11 3 C7.31733897 2.40049704 3.65456815 1.75241109 0 1 C0 0.67 0 0.34 0 0 Z " fill="#E3AAA8" transform="translate(174,80)"/>
<path d="" fill="#FFFFFF" transform="translate(0,0)"/>
</svg>
