<?xml version="1.0" standalone="no"?>
<!DOCTYPE svg PUBLIC "-//W3C//DTD SVG 20010904//EN"
 "http://www.w3.org/TR/2001/REC-SVG-20010904/DTD/svg10.dtd">
<svg version="1.0" xmlns="http://www.w3.org/2000/svg"
 width="500.000000pt" height="172.000000pt" viewBox="0 0 500.000000 172.000000"
 preserveAspectRatio="xMidYMid meet">

<g transform="translate(0.000000,172.000000) scale(0.100000,-0.100000)"
fill="#000000" stroke="none">
<path d="M3110 1706 c-116 -25 -201 -94 -252 -202 -25 -54 -30 -75 -30 -144 0
-69 5 -90 30 -144 37 -79 96 -140 171 -175 48 -22 69 -26 151 -26 83 0 102 3
151 28 67 32 142 109 172 175 18 38 22 66 22 142 0 84 -3 102 -28 152 -70 143
-237 226 -387 194z m156 -201 c71 -42 102 -133 70 -208 -39 -92 -147 -132
-236 -87 -61 31 -85 73 -85 151 0 56 4 71 27 101 54 70 146 88 224 43z"/>
<path d="M4240 1645 c-246 -50 -465 -222 -575 -450 -53 -110 -74 -191 -82
-315 -10 -163 29 -329 109 -464 49 -82 160 -202 244 -262 244 -174 580 -195
855 -53 73 38 189 123 196 144 2 6 -48 61 -111 124 l-114 114 -34 -32 c-89
-85 -255 -132 -390 -111 -399 60 -565 536 -289 830 106 114 247 169 395 157
111 -10 189 -41 279 -111 l38 -30 114 114 115 114 -28 29 c-43 45 -162 121
-243 155 -144 59 -329 78 -479 47z"/>
<path d="M921 636 c-47 -26 -50 -45 -51 -304 0 -268 4 -289 59 -312 37 -15 96
-15 133 -1 41 16 60 54 66 131 l5 70 -47 0 -46 0 0 -49 c0 -32 -6 -55 -16 -65
-18 -19 -20 -19 -45 -6 -18 10 -19 23 -19 230 0 207 1 220 19 230 25 13 27 13
45 -6 10 -10 16 -33 16 -65 l0 -49 46 0 47 0 -5 70 c-6 76 -25 115 -64 130
-36 14 -115 12 -143 -4z"/>
<path d="M0 330 l0 -310 120 0 120 0 0 40 0 39 -71 3 -70 3 1 268 1 267 -51 0
-50 0 0 -310z"/>
<path d="M361 488 c-13 -84 -33 -224 -45 -311 l-23 -158 46 3 c32 2 46 8 48
18 1 8 5 37 8 63 l6 48 47 -3 47 -3 8 -63 9 -62 45 0 45 0 -7 53 c-10 81 -74
509 -81 540 -5 26 -8 27 -67 27 l-62 0 -24 -152z m102 -85 c4 -37 10 -89 13
-115 l7 -48 -37 0 c-31 0 -36 3 -32 18 3 9 10 63 17 119 7 56 15 100 19 98 4
-2 10 -35 13 -72z"/>
<path d="M1290 635 c0 -2 -18 -120 -39 -262 -22 -142 -42 -279 -46 -305 l-6
-48 45 0 45 0 6 47 c3 27 7 55 8 63 2 10 16 16 48 18 50 3 59 -7 59 -70 0 -49
9 -58 55 -58 44 0 44 0 39 33 -12 84 -55 374 -70 475 l-17 112 -64 0 c-35 0
-63 -2 -63 -5z m80 -252 c6 -54 14 -108 17 -120 5 -21 1 -23 -31 -23 -20 0
-36 4 -36 9 0 33 29 231 34 231 2 0 9 -44 16 -97z"/>
<path d="M1590 330 l0 -310 115 0 115 0 0 40 0 39 -67 3 -68 3 -3 268 -2 267
-45 0 -45 0 0 -310z"/>
<path d="M1910 329 l0 -311 100 4 c154 5 160 16 160 308 0 209 -8 255 -45 288
-23 19 -37 22 -121 22 l-94 0 0 -311z m154 215 c14 -13 16 -47 16 -214 l0
-200 -25 -16 c-13 -8 -31 -14 -40 -12 -14 3 -16 30 -16 226 0 122 1 224 1 227
0 12 50 4 64 -11z"/>
<path d="M2270 330 l0 -310 115 0 115 0 0 40 0 40 -70 0 -70 0 0 95 0 95 60 0
60 0 0 40 0 40 -60 0 -60 0 0 95 0 95 70 0 70 0 0 40 0 40 -115 0 -115 0 0
-310z"/>
<path d="M2600 330 l0 -310 45 0 45 0 0 137 c0 75 4 133 8 128 5 -6 16 -35 24
-65 9 -30 26 -88 38 -127 l22 -73 49 0 49 0 -50 142 -50 141 32 28 c32 26 33
28 36 122 4 107 -11 156 -54 176 -14 6 -63 11 -109 11 l-85 0 0 -310z m141
220 c16 -9 19 -22 19 -85 0 -63 -3 -76 -19 -85 -46 -24 -51 -16 -51 85 0 101
5 109 51 85z"/>
<path d="M3006 533 c-9 -60 -28 -184 -41 -278 -14 -93 -27 -185 -30 -202 l-6
-33 44 0 c48 0 57 11 57 72 0 49 9 58 55 58 46 0 55 -9 55 -58 0 -61 9 -72 56
-72 l44 0 -5 38 c-11 75 -75 508 -81 545 l-7 37 -62 0 -62 0 -17 -107z m93
-135 c6 -46 14 -100 17 -120 l6 -38 -37 0 -37 0 6 38 c3 20 11 74 17 120 6 45
13 82 14 82 1 0 8 -37 14 -82z"/>
<path d="M3352 103 c-41 -16 -32 -83 11 -83 29 0 47 18 47 47 0 18 -28 46 -42
42 -2 0 -9 -3 -16 -6z m43 -43 c0 -18 -6 -26 -23 -28 -13 -2 -25 3 -28 12 -10
26 4 48 28 44 17 -2 23 -10 23 -28z"/>
<path d="M3350 65 c0 -10 7 -15 18 -13 21 4 19 22 -2 26 -10 2 -16 -3 -16 -13z"/>
</g>
</svg>
