<?xml version="1.0" standalone="no"?>
<!DOCTYPE svg PUBLIC "-//W3C//DTD SVG 20010904//EN"
 "http://www.w3.org/TR/2001/REC-SVG-20010904/DTD/svg10.dtd">
<svg version="1.0" xmlns="http://www.w3.org/2000/svg"
 width="245.000000pt" height="206.000000pt" viewBox="0 0 245.000000 206.000000"
 preserveAspectRatio="xMidYMid meet">

<g transform="translate(0.000000,206.000000) scale(0.100000,-0.100000)"
fill="#000000" stroke="none">
<path d="M1103 1765 c-138 -25 -266 -105 -350 -219 -24 -32 -42 -61 -40 -63 2
-2 30 12 62 31 224 135 585 148 843 30 40 -18 69 -28 65 -21 -42 73 -156 167
-249 208 -52 22 -178 49 -229 48 -16 -1 -63 -7 -102 -14z"/>
<path d="M710 932 c0 -13 85 -119 120 -149 77 -66 110 -83 167 -83 51 0 53 -1
43 -20 -6 -12 -7 -20 -1 -20 5 0 17 -3 27 -7 14 -5 16 -2 12 20 l-5 27 128 0
c121 0 129 -1 129 -19 0 -11 4 -22 9 -25 16 -10 41 5 41 25 0 16 8 19 47 19
35 0 58 8 94 31 47 30 174 157 166 165 -2 2 -33 -9 -68 -26 -101 -47 -209 -71
-349 -77 -197 -8 -362 28 -502 112 -32 19 -58 31 -58 27z"/>
<path d="M1160 655 c0 -8 5 -15 10 -15 6 0 10 7 10 15 0 8 -4 15 -10 15 -5 0
-10 -7 -10 -15z"/>
<path d="M264 419 c-3 -6 -12 -34 -20 -62 -12 -47 -12 -53 3 -64 20 -15 89
-17 98 -4 3 5 -9 11 -27 13 -30 3 -33 6 -30 31 6 60 19 77 57 77 19 0 35 5 35
10 0 14 -107 13 -116 -1z"/>
<path d="M402 359 c-23 -40 -40 -75 -36 -78 3 -3 13 4 21 17 21 31 93 32 93 2
0 -13 7 -20 19 -20 28 0 30 8 17 80 -11 62 -13 65 -41 67 -27 3 -34 -4 -73
-68z m67 -6 c1 -7 -10 -13 -24 -13 -30 0 -30 3 -8 37 16 23 17 24 24 7 4 -11
8 -25 8 -31z"/>
<path d="M566 364 c-11 -44 -14 -70 -7 -77 16 -16 39 0 46 32 9 40 20 39 31
-1 7 -23 16 -33 29 -33 16 0 19 6 17 29 -2 17 3 33 13 40 11 8 16 23 13 41 -3
29 -5 30 -64 33 l-61 3 -17 -67z m97 40 c11 -11 -5 -34 -24 -34 -18 0 -26 20
-12 33 8 9 28 9 36 1z"/>
<path d="M729 360 c-9 -39 -12 -73 -8 -76 4 -2 13 21 20 51 7 30 15 55 18 55
4 0 13 -24 21 -52 14 -48 18 -53 44 -53 28 0 31 3 47 70 17 68 17 94 -1 65 -5
-8 -12 -32 -15 -52 -4 -21 -10 -38 -14 -38 -4 0 -14 21 -22 48 -13 41 -19 47
-44 50 -29 3 -30 1 -46 -68z"/>
<path d="M901 378 c-6 -29 -14 -63 -17 -75 -6 -22 -3 -23 49 -23 31 0 59 5 62
10 4 6 -7 10 -24 10 -26 0 -31 4 -31 25 0 22 4 25 35 25 19 0 35 5 35 10 0 6
-14 10 -31 10 -24 0 -30 3 -25 16 3 9 6 18 6 20 0 2 16 4 35 4 19 0 35 5 35
10 0 6 -26 10 -58 10 l-59 0 -12 -52z"/>
<path d="M1088 360 c-8 -39 -12 -72 -10 -75 9 -9 103 -5 122 5 19 10 46 100
36 125 -4 11 -22 15 -69 15 l-64 0 -15 -70z m97 13 c-9 -49 -22 -73 -40 -73
-18 0 -19 21 -4 73 7 27 15 37 31 37 18 0 19 -4 13 -37z"/>
<path d="M1258 363 c-9 -37 -14 -71 -12 -75 7 -12 102 -10 109 2 4 6 -7 10
-24 10 -26 0 -31 4 -31 25 0 22 4 25 35 25 19 0 35 5 35 10 0 6 -14 10 -31 10
-24 0 -30 3 -25 16 3 9 6 18 6 20 0 2 16 4 35 4 19 0 35 5 35 10 0 6 -26 10
-58 10 l-58 0 -16 -67z"/>
<path d="M1464 418 c-4 -6 -13 -36 -20 -65 -11 -49 -11 -54 6 -63 24 -13 87
-13 95 0 4 6 -6 10 -23 10 -16 0 -31 2 -34 6 -3 3 0 26 6 52 12 44 14 47 49
50 20 2 37 7 37 13 0 13 -107 11 -116 -3z"/>
<path d="M1592 370 c-7 -34 -15 -67 -19 -75 -4 -12 6 -15 50 -15 31 0 59 5 62
10 4 6 -7 10 -25 10 -27 0 -31 3 -28 23 2 17 11 23 36 25 41 4 42 22 1 22 -24
0 -30 3 -25 16 3 9 6 18 6 20 0 2 16 4 35 4 19 0 35 5 35 10 0 6 -26 10 -58
10 l-58 0 -12 -60z"/>
<path d="M1731 378 c-6 -29 -14 -64 -18 -76 -5 -21 -3 -23 18 -20 17 2 27 12
34 36 5 17 13 32 17 32 4 0 11 -15 16 -32 6 -24 15 -34 31 -36 22 -3 23 -1 17
32 -4 23 -3 36 4 36 14 0 31 46 24 65 -5 11 -22 15 -68 15 l-63 0 -12 -52z
m97 15 c-4 -22 -48 -31 -48 -10 0 19 10 27 32 27 13 0 18 -6 16 -17z"/>
<path d="M1902 393 c-6 -21 -14 -55 -17 -75 l-7 -38 58 0 c33 0 65 4 72 9 7 4
19 32 27 61 18 70 10 80 -65 80 l-57 0 -11 -37z m92 -10 c-19 -74 -21 -78 -43
-81 -21 -3 -23 -1 -17 23 4 15 10 40 13 56 4 22 11 29 29 29 22 0 24 -3 18
-27z"/>
<path d="M2082 417 c-7 -7 -17 -37 -23 -66 -9 -44 -9 -55 2 -63 14 -9 114 -6
125 4 3 3 12 30 19 59 10 38 11 57 3 66 -14 17 -112 17 -126 0z m83 -39 c-13
-59 -24 -78 -45 -78 -23 0 -24 6 -9 66 10 37 15 44 36 44 23 0 24 -3 18 -32z"/>
</g>
</svg>
