<?xml version="1.0" standalone="no"?>
<!DOCTYPE svg PUBLIC "-//W3C//DTD SVG 20010904//EN"
 "http://www.w3.org/TR/2001/REC-SVG-20010904/DTD/svg10.dtd">
<svg version="1.0" xmlns="http://www.w3.org/2000/svg"
 width="400.000000pt" height="400.000000pt" viewBox="0 0 400.000000 400.000000"
 preserveAspectRatio="xMidYMid meet">

<g transform="translate(0.000000,400.000000) scale(0.100000,-0.100000)"
fill="#000000" stroke="none">
<path d="M617 2620 c-89 -23 -183 -93 -219 -163 -11 -22 -22 -63 -25 -91 -10
-102 25 -166 152 -272 210 -178 246 -237 195 -321 -29 -48 -71 -66 -146 -61
-54 3 -69 9 -95 33 -17 17 -42 51 -55 77 -39 78 -88 97 -150 59 -66 -40 -66
-120 1 -198 66 -78 182 -113 308 -93 234 36 374 219 310 406 -19 55 -86 127
-239 256 -125 105 -146 154 -94 221 52 66 147 57 229 -22 28 -27 62 -51 75
-53 79 -15 127 93 71 160 -14 17 -47 38 -73 47 -56 20 -192 28 -245 15z"/>
<path d="M1053 2370 c-16 -7 -23 -20 -27 -52 -4 -24 -23 -162 -43 -308 -20
-146 -37 -291 -37 -323 -1 -52 2 -61 27 -83 55 -47 142 -20 226 72 27 30 52
54 55 54 3 0 6 -10 6 -21 0 -12 10 -38 21 -59 l21 -37 -48 -44 c-87 -79 -133
-133 -166 -194 -29 -53 -33 -69 -33 -135 0 -85 20 -133 77 -186 58 -55 95 -69
183 -69 97 1 168 21 253 72 172 105 264 235 297 423 7 41 23 181 35 310 l21
235 54 52 c67 63 124 107 131 101 3 -3 -6 -107 -21 -232 -32 -285 -32 -307 -1
-343 20 -23 32 -28 70 -27 25 0 51 6 59 12 8 7 18 57 26 134 8 68 22 150 32
183 34 110 152 285 193 285 22 0 21 -28 -8 -297 -14 -121 -22 -232 -19 -245
15 -60 76 -89 137 -64 32 13 36 19 36 53 0 21 7 87 15 147 11 84 23 127 49
183 56 116 138 223 172 223 20 0 18 -47 -11 -245 -46 -307 -33 -374 68 -375
46 0 85 19 139 68 39 35 41 36 52 17 6 -11 25 -34 42 -52 28 -29 38 -33 83
-33 69 0 133 34 221 116 l70 66 0 -66 c0 -58 3 -70 25 -91 29 -30 97 -34 133
-9 18 13 22 25 22 72 0 57 32 295 70 515 15 84 17 123 10 136 -26 49 -209 61
-315 21 -165 -62 -303 -215 -350 -385 -9 -33 -21 -73 -27 -90 -27 -75 -97
-131 -84 -67 21 100 57 417 54 465 -6 79 -37 112 -106 112 -66 -1 -116 -28
-199 -111 l-73 -72 0 52 c0 168 -160 179 -315 20 l-60 -62 0 53 c0 92 -61 143
-129 108 -39 -19 -107 -73 -168 -132 -26 -24 -49 -43 -52 -40 -2 2 0 29 5 59
5 30 6 62 4 71 -10 31 -59 41 -173 38 -105 -4 -112 -6 -194 -46 -139 -69 -240
-184 -297 -335 -43 -115 -125 -220 -150 -192 -5 5 4 97 20 204 34 234 39 317
20 352 -22 42 -77 58 -128 38z m700 -177 c10 -6 -1 -77 -25 -151 -35 -112
-151 -254 -228 -280 -46 -16 -54 8 -40 119 25 213 120 340 240 323 25 -3 48
-8 53 -11z m1815 8 c19 -12 -9 -138 -51 -226 -53 -111 -190 -243 -227 -220
-14 8 -13 142 1 207 24 111 83 208 144 234 34 15 113 18 133 5z m-1862 -473
c-3 -24 -10 -92 -16 -153 -23 -224 -57 -347 -112 -404 -135 -138 -347 -56
-348 134 0 64 31 132 99 213 44 52 57 62 84 62 56 0 151 54 219 123 35 35 67
64 71 65 5 1 6 -17 3 -40z"/>
</g>
</svg>
