<?xml version="1.0" standalone="no"?>
<!DOCTYPE svg PUBLIC "-//W3C//DTD SVG 20010904//EN"
 "http://www.w3.org/TR/2001/REC-SVG-20010904/DTD/svg10.dtd">
<svg version="1.0" xmlns="http://www.w3.org/2000/svg"
 width="200.000000pt" height="200.000000pt" viewBox="0 0 200.000000 200.000000"
 preserveAspectRatio="xMidYMid meet">

<g transform="translate(0.000000,200.000000) scale(0.100000,-0.100000)"
fill="#000000" stroke="none">
<path d="M162 1257 c-41 -23 -52 -54 -97 -274 -25 -120 -48 -228 -51 -240 l-6
-23 271 0 271 0 31 28 c30 27 34 40 80 258 27 126 49 237 49 247 0 16 -19 17
-262 17 -192 -1 -269 -4 -286 -13z m303 -46 c166 -77 186 -317 35 -413 -111
-71 -229 -58 -317 34 -108 113 -73 306 69 377 56 27 156 28 213 2z"/>
<path d="M272 1169 c-62 -31 -112 -108 -112 -173 0 -42 22 -97 52 -132 33 -38
55 -52 100 -65 l30 -8 -3 117 c-4 112 -3 117 17 120 29 4 48 -21 35 -47 -11
-20 -15 -173 -5 -184 9 -9 66 13 102 40 63 47 91 152 61 230 -38 102 -175 152
-277 102z"/>
<path d="M710 1000 c0 -5 5 -10 10 -10 6 0 8 -11 5 -25 -3 -14 -7 -36 -10 -50
-3 -14 -1 -25 5 -25 5 0 13 18 16 41 4 22 13 46 20 54 21 20 17 25 -16 25 -16
0 -30 -4 -30 -10z"/>
<path d="M785 976 c-10 -52 -3 -81 21 -84 29 -4 43 17 49 74 6 50 -3 42 -21
-20 -5 -16 -15 -31 -23 -34 -11 -4 -13 5 -8 47 7 56 -8 71 -18 17z"/>
<path d="M887 996 c-3 -7 -9 -35 -13 -61 -5 -35 -4 -46 5 -41 6 4 11 14 11 22
0 20 9 18 31 -8 l20 -23 -6 23 c-4 14 -1 28 9 38 21 21 20 41 -3 54 -27 14
-48 13 -54 -4z m53 -21 c0 -16 -27 -32 -37 -22 -3 4 -3 13 0 22 8 20 37 20 37
0z"/>
<path d="M987 1003 c-3 -5 -8 -32 -12 -60 -7 -52 -6 -53 18 -53 13 0 29 6 34
13 16 19 23 83 10 96 -13 13 -44 15 -50 4z m41 -25 c-6 -18 -28 -21 -28 -4 0
9 7 16 16 16 9 0 14 -5 12 -12z m-8 -54 c0 -8 -7 -14 -15 -14 -15 0 -21 21 -9
33 10 9 24 -2 24 -19z"/>
<path d="M1080 990 c-24 -24 -26 -63 -4 -84 35 -36 94 -5 94 49 0 53 -52 73
-90 35z m68 -37 c2 -25 -1 -33 -18 -38 -39 -12 -67 34 -38 63 23 23 53 10 56
-25z"/>
<path d="M1201 988 c-15 -42 -22 -98 -12 -98 6 0 13 16 17 36 7 39 24 29 24
-13 0 -35 15 -28 43 20 l26 42 -6 -45 c-4 -32 -2 -42 5 -35 6 6 14 34 18 63 6
44 4 52 -10 52 -9 0 -16 -3 -16 -7 0 -5 -10 -24 -22 -43 l-22 -35 -6 39 c-6
46 -26 58 -39 24z"/>
<path d="M1372 998 c-16 -21 -54 -100 -49 -104 2 -3 10 2 17 11 17 20 56 19
64 -1 13 -35 17 -3 6 50 -12 57 -20 66 -38 44z m18 -43 c0 -8 -7 -15 -15 -15
-9 0 -12 6 -9 15 4 8 10 15 15 15 5 0 9 -7 9 -15z"/>
<path d="M1451 984 c-25 -32 -26 -43 -5 -72 11 -17 24 -21 55 -20 22 1 38 6
37 12 -1 6 2 21 6 34 10 31 -17 72 -49 72 -14 0 -32 -11 -44 -26z m73 -16 c17
-28 -4 -41 -41 -26 -26 11 -30 17 -21 31 12 22 47 19 62 -5z m-29 -48 c3 -5
-1 -10 -9 -10 -8 0 -18 5 -21 10 -3 6 1 10 9 10 8 0 18 -4 21 -10z"/>
<path d="M1577 1003 c-3 -5 -8 -29 -12 -55 -6 -40 -5 -47 13 -52 25 -8 50 2
56 22 13 46 17 92 8 92 -6 0 -13 -17 -17 -38 -8 -47 -19 -67 -34 -57 -8 4 -10
22 -5 51 6 40 2 55 -9 37z"/>
<path d="M1675 998 c-13 -37 -22 -99 -15 -103 10 -6 17 11 25 69 7 42 0 63
-10 34z"/>
<path d="M1715 998 c-13 -36 -22 -99 -15 -103 10 -6 20 19 20 51 0 37 15 29
26 -13 12 -51 36 -49 46 2 11 51 5 95 -6 50 -15 -59 -19 -61 -31 -21 -12 41
-31 58 -40 34z"/>
<path d="M1852 998 c-16 -21 -54 -100 -49 -104 2 -3 10 2 17 11 17 20 56 19
64 -1 13 -35 17 -3 6 50 -12 57 -20 66 -38 44z m18 -43 c0 -8 -7 -15 -15 -15
-9 0 -12 6 -9 15 4 8 10 15 15 15 5 0 9 -7 9 -15z"/>
<path d="M1931 996 c-13 -16 -6 -42 15 -50 8 -3 14 -12 14 -21 0 -18 -26 -20
-33 -2 -2 6 -8 9 -13 4 -14 -13 22 -40 45 -32 27 8 28 50 1 65 -30 16 -25 33
7 25 23 -5 25 -4 14 9 -16 20 -35 20 -50 2z"/>
<path d="M1152 818 c-18 -18 -15 -34 11 -51 18 -12 20 -17 9 -28 -11 -12 -14
-11 -22 1 -5 8 -12 11 -16 7 -4 -4 0 -15 9 -25 13 -13 21 -14 35 -6 25 16 26
41 3 61 -27 22 -27 37 0 30 13 -3 19 -1 16 6 -5 17 -30 20 -45 5z"/>
<path d="M1277 779 c-16 -28 -26 -53 -22 -57 4 -4 10 -1 12 6 6 14 49 16 58 2
3 -5 10 -10 15 -10 11 0 -13 103 -25 107 -6 1 -23 -20 -38 -48z m43 -10 c0 -5
-7 -9 -15 -9 -15 0 -20 12 -9 23 8 8 24 -1 24 -14z"/>
<path d="M1452 778 c-6 -29 -7 -57 -2 -62 13 -13 69 4 80 24 25 47 2 90 -48
90 -15 0 -22 -11 -30 -52z m66 4 c4 -26 -13 -52 -34 -52 -15 0 -19 36 -8 65 9
23 38 14 42 -13z"/>
<path d="M1567 813 c-17 -60 -17 -93 -2 -99 8 -3 23 -3 33 2 15 7 14 8 -5 11
-31 6 -29 21 5 35 26 11 26 12 5 15 -28 5 -30 33 -3 33 11 0 20 5 20 10 0 18
-48 11 -53 -7z"/>
<path d="M1697 812 c-26 -29 -22 -80 8 -94 19 -9 29 -7 50 6 33 22 27 31 -10
14 -24 -11 -29 -10 -40 6 -29 39 23 86 61 56 17 -15 19 1 2 18 -18 18 -53 15
-71 -6z"/>
<path d="M1846 783 c11 -80 30 -82 65 -6 27 58 17 68 -12 11 -19 -38 -23 -41
-30 -23 -4 11 -8 30 -8 43 -1 12 -6 22 -12 22 -7 0 -8 -16 -3 -47z"/>
<path d="M650 735 c0 -13 30 -15 210 -15 180 0 210 2 210 15 0 13 -30 15 -210
15 -180 0 -210 -2 -210 -15z"/>
</g>
</svg>
